G04 EAGLE Gerber RS-274X export*
G75*
%MOMM*%
%FSLAX34Y34*%
%LPD*%
%INBottom Copper*%
%IPPOS*%
%AMOC8*
5,1,8,0,0,1.08239X$1,22.5*%
G01*
%ADD10C,1.473200*%
%ADD11C,1.676400*%
%ADD12P,1.594577X8X30.300000*%
%ADD13P,1.594577X8X22.500000*%
%ADD14C,1.854200*%
%ADD15C,0.700000*%

G36*
X13412Y10175D02*
X13412Y10175D01*
X20016Y10185D01*
X26620Y10195D01*
X36526Y10210D01*
X43130Y10220D01*
X49734Y10230D01*
X53036Y10235D01*
X59640Y10245D01*
X66244Y10255D01*
X76150Y10270D01*
X82754Y10280D01*
X89358Y10290D01*
X92660Y10295D01*
X99264Y10305D01*
X105868Y10314D01*
X115774Y10329D01*
X122378Y10339D01*
X122379Y10339D01*
X128983Y10349D01*
X132285Y10354D01*
X138889Y10364D01*
X145493Y10374D01*
X155399Y10389D01*
X162003Y10399D01*
X171909Y10414D01*
X178513Y10424D01*
X185117Y10434D01*
X188419Y10439D01*
X195023Y10449D01*
X201627Y10459D01*
X211533Y10473D01*
X218137Y10483D01*
X224741Y10493D01*
X228043Y10498D01*
X234647Y10508D01*
X241251Y10518D01*
X251157Y10533D01*
X257761Y10543D01*
X264365Y10553D01*
X267667Y10558D01*
X274271Y10568D01*
X280875Y10578D01*
X290781Y10593D01*
X297385Y10603D01*
X303989Y10613D01*
X303990Y10613D01*
X307292Y10618D01*
X313896Y10628D01*
X320500Y10637D01*
X330406Y10652D01*
X337010Y10662D01*
X343614Y10672D01*
X346916Y10677D01*
X353520Y10687D01*
X360124Y10697D01*
X363426Y10702D01*
X369241Y10711D01*
X369246Y10715D01*
X369245Y10715D01*
X369246Y10716D01*
X368278Y343840D01*
X368273Y343845D01*
X368273Y343844D01*
X368273Y343845D01*
X366362Y343842D01*
X366341Y343842D01*
X363060Y343837D01*
X363039Y343837D01*
X359758Y343832D01*
X359737Y343832D01*
X356456Y343827D01*
X356435Y343827D01*
X353154Y343822D01*
X353133Y343822D01*
X349852Y343817D01*
X349831Y343817D01*
X346550Y343812D01*
X346529Y343812D01*
X343248Y343807D01*
X343227Y343807D01*
X339946Y343802D01*
X339925Y343802D01*
X336644Y343797D01*
X336623Y343797D01*
X333342Y343792D01*
X333321Y343792D01*
X330040Y343787D01*
X330019Y343787D01*
X326738Y343782D01*
X326717Y343782D01*
X323436Y343777D01*
X323415Y343777D01*
X320134Y343772D01*
X320113Y343772D01*
X316832Y343767D01*
X316811Y343767D01*
X313530Y343762D01*
X313509Y343762D01*
X310228Y343757D01*
X310207Y343757D01*
X306926Y343752D01*
X306905Y343752D01*
X303624Y343747D01*
X303603Y343747D01*
X300322Y343742D01*
X300301Y343742D01*
X297020Y343738D01*
X296999Y343738D01*
X296999Y343737D01*
X293718Y343733D01*
X293697Y343733D01*
X290416Y343728D01*
X290395Y343728D01*
X287114Y343723D01*
X287093Y343723D01*
X283812Y343718D01*
X283791Y343718D01*
X280510Y343713D01*
X280489Y343713D01*
X277208Y343708D01*
X277187Y343708D01*
X273906Y343703D01*
X273885Y343703D01*
X270604Y343698D01*
X270583Y343698D01*
X267302Y343693D01*
X267281Y343693D01*
X264000Y343688D01*
X263979Y343688D01*
X260698Y343683D01*
X260677Y343683D01*
X257395Y343678D01*
X257375Y343678D01*
X254093Y343673D01*
X254073Y343673D01*
X250791Y343668D01*
X250771Y343668D01*
X247489Y343663D01*
X247469Y343663D01*
X244187Y343658D01*
X244167Y343658D01*
X240885Y343653D01*
X240865Y343653D01*
X237583Y343648D01*
X237563Y343648D01*
X234281Y343643D01*
X234261Y343643D01*
X230979Y343638D01*
X230959Y343638D01*
X227677Y343633D01*
X227657Y343633D01*
X224375Y343628D01*
X224355Y343628D01*
X221073Y343623D01*
X221053Y343623D01*
X221052Y343623D01*
X217771Y343618D01*
X217750Y343618D01*
X214469Y343613D01*
X214448Y343613D01*
X211167Y343608D01*
X211146Y343608D01*
X207865Y343603D01*
X207844Y343603D01*
X204563Y343598D01*
X204542Y343598D01*
X201261Y343593D01*
X201240Y343593D01*
X197959Y343588D01*
X197938Y343588D01*
X194657Y343583D01*
X194636Y343583D01*
X191355Y343579D01*
X191334Y343579D01*
X191334Y343578D01*
X188053Y343574D01*
X188032Y343574D01*
X184751Y343569D01*
X184730Y343569D01*
X181449Y343564D01*
X181428Y343564D01*
X178147Y343559D01*
X178126Y343559D01*
X174845Y343554D01*
X174824Y343554D01*
X171543Y343549D01*
X171522Y343549D01*
X168241Y343544D01*
X168220Y343544D01*
X164939Y343539D01*
X164918Y343539D01*
X161637Y343534D01*
X161616Y343534D01*
X158335Y343529D01*
X158314Y343529D01*
X155033Y343524D01*
X155012Y343524D01*
X151731Y343519D01*
X151710Y343519D01*
X148429Y343514D01*
X148408Y343514D01*
X145127Y343509D01*
X145106Y343509D01*
X141825Y343504D01*
X141804Y343504D01*
X138523Y343499D01*
X138502Y343499D01*
X135221Y343494D01*
X135200Y343494D01*
X131919Y343489D01*
X131898Y343489D01*
X128617Y343484D01*
X128596Y343484D01*
X125315Y343479D01*
X125294Y343479D01*
X122013Y343474D01*
X121992Y343474D01*
X118711Y343469D01*
X118690Y343469D01*
X115409Y343464D01*
X115388Y343464D01*
X112107Y343459D01*
X112086Y343459D01*
X108805Y343454D01*
X108784Y343454D01*
X105503Y343449D01*
X105482Y343449D01*
X102201Y343444D01*
X102180Y343444D01*
X98899Y343439D01*
X98878Y343439D01*
X95597Y343434D01*
X95576Y343434D01*
X92295Y343429D01*
X92274Y343429D01*
X88993Y343424D01*
X88972Y343424D01*
X85691Y343420D01*
X85670Y343420D01*
X85670Y343419D01*
X82389Y343415D01*
X82368Y343415D01*
X79087Y343410D01*
X79066Y343410D01*
X75784Y343405D01*
X75764Y343405D01*
X72482Y343400D01*
X72462Y343400D01*
X69180Y343395D01*
X69160Y343395D01*
X65878Y343390D01*
X65858Y343390D01*
X62576Y343385D01*
X62556Y343385D01*
X59274Y343380D01*
X59254Y343380D01*
X55972Y343375D01*
X55952Y343375D01*
X52670Y343370D01*
X52650Y343370D01*
X49368Y343365D01*
X49348Y343365D01*
X46066Y343360D01*
X46046Y343360D01*
X42764Y343355D01*
X42744Y343355D01*
X42743Y343355D01*
X39462Y343350D01*
X39442Y343350D01*
X39441Y343350D01*
X36160Y343345D01*
X36139Y343345D01*
X32858Y343340D01*
X32837Y343340D01*
X29556Y343335D01*
X29535Y343335D01*
X26254Y343330D01*
X26233Y343330D01*
X22952Y343325D01*
X22931Y343325D01*
X19650Y343320D01*
X19629Y343320D01*
X16348Y343315D01*
X16327Y343315D01*
X13046Y343310D01*
X13025Y343310D01*
X9744Y343305D01*
X9723Y343305D01*
X9163Y343304D01*
X9158Y343300D01*
X9158Y343299D01*
X10126Y10175D01*
X10130Y10170D01*
X10130Y10171D01*
X10131Y10170D01*
X13412Y10175D01*
G37*
%LPC*%
G36*
X180602Y31160D02*
X180602Y31160D01*
X174624Y33636D01*
X170048Y38212D01*
X167572Y44190D01*
X167572Y69204D01*
X170048Y75182D01*
X172893Y78027D01*
X172894Y78034D01*
X172893Y78034D01*
X141274Y109653D01*
X141272Y109654D01*
X141271Y109655D01*
X131531Y109655D01*
X126253Y111841D01*
X122213Y115881D01*
X120027Y121159D01*
X120027Y126873D01*
X121339Y130041D01*
X121338Y130043D01*
X121339Y130046D01*
X121338Y130046D01*
X121337Y130047D01*
X121334Y130046D01*
X121333Y130046D01*
X121331Y130046D01*
X90883Y99598D01*
X90883Y99597D01*
X90882Y99597D01*
X89783Y96942D01*
X85457Y92616D01*
X79805Y90275D01*
X56924Y90275D01*
X51272Y92616D01*
X46946Y96942D01*
X44605Y102594D01*
X44605Y108711D01*
X46946Y114363D01*
X50932Y118349D01*
X50933Y118356D01*
X50932Y118356D01*
X46946Y122342D01*
X44605Y127994D01*
X44605Y134111D01*
X46320Y138250D01*
X46318Y138254D01*
X46319Y138256D01*
X31204Y153370D01*
X29607Y157227D01*
X29607Y262707D01*
X31204Y266564D01*
X47000Y282360D01*
X48974Y284334D01*
X48974Y284335D01*
X48975Y284335D01*
X48974Y284337D01*
X48975Y284341D01*
X48973Y284341D01*
X48973Y284342D01*
X48763Y284429D01*
X46865Y285199D01*
X46837Y285226D01*
X46836Y285227D01*
X46800Y285242D01*
X45349Y286693D01*
X43891Y288129D01*
X43876Y288166D01*
X43875Y288166D01*
X43875Y288167D01*
X28989Y303053D01*
X28987Y303053D01*
X28986Y303053D01*
X28985Y303054D01*
X23520Y303054D01*
X15108Y311467D01*
X15108Y323364D01*
X23520Y331777D01*
X35417Y331777D01*
X43830Y323364D01*
X43830Y317899D01*
X43832Y317897D01*
X43831Y317895D01*
X57058Y304669D01*
X57060Y304668D01*
X57061Y304668D01*
X57062Y304667D01*
X97795Y304967D01*
X97797Y304968D01*
X97798Y304968D01*
X97798Y304970D01*
X97800Y304972D01*
X97799Y304973D01*
X97799Y304976D01*
X91308Y311467D01*
X91308Y323364D01*
X99720Y331777D01*
X105185Y331777D01*
X105187Y331778D01*
X105189Y331778D01*
X110142Y336731D01*
X114000Y338329D01*
X249971Y338329D01*
X253829Y336731D01*
X256782Y333778D01*
X264791Y325769D01*
X264794Y325769D01*
X264795Y325768D01*
X268432Y326266D01*
X277908Y319073D01*
X279523Y307286D01*
X275967Y302601D01*
X275967Y302600D01*
X275966Y302599D01*
X275967Y302597D01*
X275967Y302594D01*
X275969Y302595D01*
X275971Y302593D01*
X311449Y302593D01*
X315307Y300995D01*
X361148Y255154D01*
X362745Y251297D01*
X362745Y123595D01*
X361148Y119738D01*
X289210Y47800D01*
X285352Y46202D01*
X250109Y46202D01*
X250104Y46197D01*
X250105Y46197D01*
X250104Y46197D01*
X250104Y44190D01*
X247628Y38212D01*
X243052Y33636D01*
X237074Y31160D01*
X230602Y31160D01*
X224624Y33636D01*
X220048Y38212D01*
X217572Y44190D01*
X217572Y58119D01*
X217570Y58120D01*
X217570Y58122D01*
X209057Y66636D01*
X207459Y70493D01*
X207459Y109764D01*
X207456Y109767D01*
X207456Y109769D01*
X202453Y111841D01*
X198413Y115881D01*
X196227Y121159D01*
X196227Y126873D01*
X198413Y132151D01*
X202453Y136191D01*
X203710Y136711D01*
X203711Y136713D01*
X203712Y136714D01*
X203712Y136715D01*
X203713Y136717D01*
X203711Y136718D01*
X203710Y136721D01*
X202453Y137241D01*
X198413Y141281D01*
X196227Y146559D01*
X196227Y152273D01*
X198413Y157551D01*
X202453Y161591D01*
X203710Y162111D01*
X203711Y162113D01*
X203712Y162114D01*
X203712Y162115D01*
X203713Y162117D01*
X203711Y162118D01*
X203710Y162121D01*
X202453Y162641D01*
X198413Y166681D01*
X196227Y171959D01*
X196227Y177673D01*
X198413Y182951D01*
X202453Y186991D01*
X207732Y189177D01*
X228177Y189177D01*
X233455Y186991D01*
X235133Y185313D01*
X235136Y185313D01*
X235137Y185311D01*
X265721Y185311D01*
X265726Y185316D01*
X265726Y190537D01*
X268203Y196515D01*
X272779Y201091D01*
X278757Y203568D01*
X303770Y203568D01*
X309749Y201091D01*
X314325Y196515D01*
X316745Y190672D01*
X316747Y190671D01*
X316749Y190669D01*
X316750Y190670D01*
X316751Y190669D01*
X316752Y190672D01*
X316754Y190674D01*
X316754Y233929D01*
X316753Y233931D01*
X316752Y233933D01*
X316751Y233933D01*
X316750Y233934D01*
X316749Y233933D01*
X316747Y233932D01*
X316745Y233931D01*
X314325Y228087D01*
X309749Y223512D01*
X303770Y221035D01*
X278757Y221035D01*
X272779Y223512D01*
X268203Y228087D01*
X265726Y234066D01*
X265726Y240516D01*
X265722Y240521D01*
X265721Y240521D01*
X235137Y240521D01*
X235135Y240519D01*
X235133Y240519D01*
X233455Y238841D01*
X228177Y236655D01*
X207731Y236655D01*
X202453Y238841D01*
X198413Y242881D01*
X196227Y248159D01*
X196227Y253873D01*
X198413Y259151D01*
X202453Y263191D01*
X203710Y263711D01*
X203711Y263713D01*
X203712Y263714D01*
X203712Y263715D01*
X203712Y263716D01*
X203713Y263717D01*
X203711Y263718D01*
X203710Y263721D01*
X202453Y264241D01*
X198413Y268281D01*
X196227Y273559D01*
X196227Y279273D01*
X198413Y284551D01*
X202453Y288591D01*
X203710Y289111D01*
X203711Y289113D01*
X203712Y289114D01*
X203712Y289115D01*
X203713Y289115D01*
X203712Y289116D01*
X203713Y289117D01*
X203711Y289118D01*
X203710Y289121D01*
X202453Y289641D01*
X200775Y291319D01*
X200773Y291320D01*
X200771Y291321D01*
X158937Y291321D01*
X158935Y291319D01*
X158933Y291319D01*
X157255Y289641D01*
X155998Y289121D01*
X155997Y289119D01*
X155996Y289119D01*
X155996Y289117D01*
X155995Y289117D01*
X155996Y289116D01*
X155995Y289115D01*
X155997Y289114D01*
X155998Y289111D01*
X157255Y288591D01*
X161295Y284551D01*
X163481Y279273D01*
X163481Y273559D01*
X161295Y268281D01*
X157255Y264241D01*
X155998Y263721D01*
X155997Y263719D01*
X155996Y263719D01*
X155996Y263717D01*
X155996Y263716D01*
X155995Y263715D01*
X155997Y263714D01*
X155998Y263711D01*
X157255Y263191D01*
X161295Y259151D01*
X163481Y253873D01*
X163481Y248159D01*
X161295Y242881D01*
X157255Y238841D01*
X151977Y236655D01*
X131531Y236655D01*
X126253Y238841D01*
X124575Y240519D01*
X124573Y240520D01*
X124571Y240521D01*
X97461Y240521D01*
X97460Y240520D01*
X97460Y240521D01*
X97459Y240519D01*
X97456Y240516D01*
X97457Y240515D01*
X97456Y240514D01*
X97785Y239720D01*
X97785Y233249D01*
X95309Y227271D01*
X90733Y222695D01*
X84754Y220219D01*
X59741Y220219D01*
X53763Y222695D01*
X50605Y225852D01*
X50604Y225852D01*
X50602Y225854D01*
X50601Y225853D01*
X50599Y225853D01*
X50599Y225850D01*
X50597Y225849D01*
X50597Y197121D01*
X50598Y197119D01*
X50598Y197118D01*
X50600Y197117D01*
X50601Y197116D01*
X50603Y197117D01*
X50605Y197117D01*
X53763Y200275D01*
X59741Y202751D01*
X84754Y202751D01*
X90733Y200275D01*
X95309Y195699D01*
X97785Y189720D01*
X97785Y185316D01*
X97789Y185311D01*
X97790Y185312D01*
X97790Y185311D01*
X124571Y185311D01*
X124573Y185313D01*
X124575Y185313D01*
X126253Y186991D01*
X131532Y189177D01*
X151977Y189177D01*
X157255Y186991D01*
X161295Y182951D01*
X163481Y177673D01*
X163481Y171959D01*
X161295Y166681D01*
X157255Y162641D01*
X155998Y162121D01*
X155997Y162119D01*
X155996Y162118D01*
X155996Y162117D01*
X155995Y162115D01*
X155997Y162114D01*
X155998Y162111D01*
X157255Y161591D01*
X161295Y157551D01*
X163481Y152273D01*
X163481Y146559D01*
X161295Y141281D01*
X157255Y137241D01*
X155998Y136721D01*
X155997Y136719D01*
X155996Y136719D01*
X155996Y136717D01*
X155995Y136715D01*
X155997Y136714D01*
X155998Y136711D01*
X157255Y136191D01*
X161295Y132151D01*
X163481Y126873D01*
X163481Y121159D01*
X162303Y118314D01*
X162304Y118311D01*
X162304Y118309D01*
X192735Y87877D01*
X194333Y84020D01*
X194333Y78479D01*
X194335Y78477D01*
X194335Y78475D01*
X197628Y75182D01*
X200104Y69203D01*
X200104Y44190D01*
X197628Y38212D01*
X193052Y33636D01*
X187074Y31160D01*
X180602Y31160D01*
G37*
%LPD*%
%LPC*%
G36*
X133843Y56702D02*
X133843Y56702D01*
X133843Y77774D01*
X134767Y77774D01*
X136603Y77483D01*
X138370Y76909D01*
X140026Y76066D01*
X141529Y74973D01*
X142843Y73659D01*
X143936Y72156D01*
X144779Y70500D01*
X145354Y68733D01*
X145644Y66897D01*
X145644Y56702D01*
X133843Y56702D01*
G37*
%LPD*%
%LPC*%
G36*
X133843Y35620D02*
X133843Y35620D01*
X133843Y56692D01*
X145644Y56692D01*
X145644Y46497D01*
X145354Y44661D01*
X144779Y42894D01*
X143936Y41238D01*
X142843Y39735D01*
X141529Y38421D01*
X140026Y37328D01*
X138370Y36485D01*
X136603Y35911D01*
X134767Y35620D01*
X133843Y35620D01*
G37*
%LPD*%
%LPC*%
G36*
X132909Y35620D02*
X132909Y35620D01*
X131073Y35911D01*
X129306Y36485D01*
X127650Y37328D01*
X126147Y38421D01*
X124833Y39735D01*
X123740Y41238D01*
X122897Y42894D01*
X122323Y44661D01*
X122032Y46497D01*
X122032Y56692D01*
X133833Y56692D01*
X133833Y35620D01*
X132909Y35620D01*
G37*
%LPD*%
%LPC*%
G36*
X122032Y56702D02*
X122032Y56702D01*
X122032Y66897D01*
X122323Y68733D01*
X122897Y70500D01*
X123740Y72156D01*
X124833Y73659D01*
X126147Y74973D01*
X127650Y76066D01*
X129306Y76909D01*
X131073Y77483D01*
X132909Y77774D01*
X133833Y77774D01*
X133833Y56702D01*
X122032Y56702D01*
G37*
%LPD*%
%LPC*%
G36*
X141759Y225621D02*
X141759Y225621D01*
X141759Y235517D01*
X150095Y235517D01*
X152008Y235137D01*
X153810Y234390D01*
X155432Y233307D01*
X156811Y231928D01*
X157895Y230306D01*
X158641Y228504D01*
X159021Y226591D01*
X159021Y225621D01*
X141759Y225621D01*
G37*
%LPD*%
%LPC*%
G36*
X217959Y225621D02*
X217959Y225621D01*
X217959Y235517D01*
X226295Y235517D01*
X228208Y235137D01*
X230010Y234390D01*
X231632Y233307D01*
X233011Y231928D01*
X234095Y230306D01*
X234841Y228504D01*
X235221Y226591D01*
X235221Y225621D01*
X217959Y225621D01*
G37*
%LPD*%
%LPC*%
G36*
X217959Y200221D02*
X217959Y200221D01*
X217959Y210117D01*
X226295Y210117D01*
X228208Y209737D01*
X230010Y208990D01*
X231632Y207907D01*
X233011Y206528D01*
X234095Y204906D01*
X234841Y203104D01*
X235221Y201191D01*
X235221Y200221D01*
X217959Y200221D01*
G37*
%LPD*%
%LPC*%
G36*
X141759Y200221D02*
X141759Y200221D01*
X141759Y210117D01*
X150095Y210117D01*
X152008Y209737D01*
X153810Y208990D01*
X155432Y207907D01*
X156811Y206528D01*
X157895Y204906D01*
X158641Y203104D01*
X159021Y201191D01*
X159021Y200221D01*
X141759Y200221D01*
G37*
%LPD*%
%LPC*%
G36*
X200687Y200221D02*
X200687Y200221D01*
X200687Y201191D01*
X200688Y201198D01*
X200691Y201213D01*
X200693Y201223D01*
X200696Y201238D01*
X200699Y201253D01*
X200701Y201263D01*
X200704Y201278D01*
X200707Y201293D01*
X200709Y201303D01*
X200712Y201318D01*
X200715Y201332D01*
X200715Y201333D01*
X200720Y201357D01*
X200723Y201372D01*
X200728Y201397D01*
X200731Y201412D01*
X200736Y201437D01*
X200739Y201452D01*
X200744Y201477D01*
X200747Y201491D01*
X200747Y201492D01*
X200752Y201516D01*
X200755Y201531D01*
X200758Y201546D01*
X200759Y201556D01*
X200760Y201556D01*
X200762Y201571D01*
X200765Y201586D01*
X200767Y201596D01*
X200770Y201611D01*
X200773Y201626D01*
X200775Y201636D01*
X200778Y201650D01*
X200778Y201651D01*
X200781Y201665D01*
X200783Y201675D01*
X200786Y201690D01*
X200789Y201705D01*
X200791Y201715D01*
X200794Y201730D01*
X200797Y201745D01*
X200802Y201770D01*
X200805Y201785D01*
X200810Y201809D01*
X200810Y201810D01*
X200813Y201824D01*
X200818Y201849D01*
X200821Y201864D01*
X200826Y201889D01*
X200829Y201904D01*
X200832Y201919D01*
X200834Y201929D01*
X200837Y201944D01*
X200840Y201959D01*
X200842Y201968D01*
X200842Y201969D01*
X200844Y201983D01*
X200845Y201983D01*
X200844Y201983D01*
X200847Y201998D01*
X200849Y202008D01*
X200852Y202023D01*
X200855Y202038D01*
X200857Y202048D01*
X200860Y202063D01*
X200863Y202078D01*
X200865Y202088D01*
X200868Y202103D01*
X200871Y202118D01*
X200876Y202142D01*
X200879Y202157D01*
X200884Y202182D01*
X200887Y202197D01*
X200892Y202222D01*
X200895Y202237D01*
X200900Y202262D01*
X200903Y202277D01*
X200908Y202301D01*
X200911Y202316D01*
X200914Y202331D01*
X200916Y202341D01*
X200919Y202356D01*
X200922Y202371D01*
X200924Y202381D01*
X200927Y202396D01*
X200929Y202411D01*
X200930Y202411D01*
X200929Y202411D01*
X200931Y202421D01*
X200934Y202436D01*
X200937Y202450D01*
X200939Y202460D01*
X200942Y202475D01*
X200945Y202490D01*
X200947Y202500D01*
X200950Y202515D01*
X200953Y202530D01*
X200958Y202555D01*
X200961Y202570D01*
X200966Y202595D01*
X200969Y202609D01*
X200974Y202634D01*
X200977Y202649D01*
X200982Y202674D01*
X200985Y202689D01*
X200990Y202714D01*
X200993Y202729D01*
X200996Y202744D01*
X200998Y202754D01*
X201001Y202768D01*
X201004Y202783D01*
X201006Y202793D01*
X201009Y202808D01*
X201012Y202823D01*
X201013Y202833D01*
X201014Y202833D01*
X201016Y202848D01*
X201019Y202863D01*
X201021Y202873D01*
X201024Y202888D01*
X201027Y202903D01*
X201032Y202927D01*
X201035Y202942D01*
X201040Y202967D01*
X201043Y202982D01*
X201048Y203007D01*
X201051Y203022D01*
X201056Y203047D01*
X201059Y203062D01*
X201064Y203086D01*
X201067Y203101D01*
X201067Y203104D01*
X201814Y204906D01*
X202897Y206528D01*
X204276Y207907D01*
X205898Y208990D01*
X207700Y209737D01*
X209613Y210117D01*
X217949Y210117D01*
X217949Y200221D01*
X200687Y200221D01*
G37*
%LPD*%
%LPC*%
G36*
X124487Y200221D02*
X124487Y200221D01*
X124487Y201191D01*
X124488Y201198D01*
X124491Y201213D01*
X124493Y201223D01*
X124496Y201238D01*
X124499Y201253D01*
X124501Y201263D01*
X124504Y201278D01*
X124507Y201293D01*
X124509Y201303D01*
X124512Y201318D01*
X124515Y201332D01*
X124515Y201333D01*
X124520Y201357D01*
X124523Y201372D01*
X124528Y201397D01*
X124531Y201412D01*
X124536Y201437D01*
X124539Y201452D01*
X124544Y201477D01*
X124547Y201491D01*
X124547Y201492D01*
X124552Y201516D01*
X124555Y201531D01*
X124558Y201546D01*
X124559Y201556D01*
X124560Y201556D01*
X124562Y201571D01*
X124565Y201586D01*
X124567Y201596D01*
X124570Y201611D01*
X124573Y201626D01*
X124575Y201636D01*
X124578Y201650D01*
X124578Y201651D01*
X124581Y201665D01*
X124583Y201675D01*
X124586Y201690D01*
X124589Y201705D01*
X124591Y201715D01*
X124594Y201730D01*
X124597Y201745D01*
X124602Y201770D01*
X124605Y201785D01*
X124610Y201809D01*
X124610Y201810D01*
X124613Y201824D01*
X124618Y201849D01*
X124621Y201864D01*
X124626Y201889D01*
X124629Y201904D01*
X124632Y201919D01*
X124634Y201929D01*
X124637Y201944D01*
X124640Y201959D01*
X124642Y201968D01*
X124642Y201969D01*
X124644Y201983D01*
X124645Y201983D01*
X124644Y201983D01*
X124647Y201998D01*
X124649Y202008D01*
X124652Y202023D01*
X124655Y202038D01*
X124657Y202048D01*
X124660Y202063D01*
X124663Y202078D01*
X124665Y202088D01*
X124668Y202103D01*
X124671Y202118D01*
X124676Y202142D01*
X124679Y202157D01*
X124684Y202182D01*
X124687Y202197D01*
X124692Y202222D01*
X124695Y202237D01*
X124700Y202262D01*
X124703Y202277D01*
X124708Y202301D01*
X124711Y202316D01*
X124714Y202331D01*
X124716Y202341D01*
X124719Y202356D01*
X124722Y202371D01*
X124724Y202381D01*
X124727Y202396D01*
X124729Y202411D01*
X124730Y202411D01*
X124729Y202411D01*
X124731Y202421D01*
X124734Y202436D01*
X124737Y202450D01*
X124739Y202460D01*
X124742Y202475D01*
X124745Y202490D01*
X124747Y202500D01*
X124750Y202515D01*
X124753Y202530D01*
X124758Y202555D01*
X124761Y202570D01*
X124766Y202595D01*
X124769Y202609D01*
X124774Y202634D01*
X124777Y202649D01*
X124782Y202674D01*
X124785Y202689D01*
X124790Y202714D01*
X124793Y202729D01*
X124796Y202744D01*
X124798Y202754D01*
X124801Y202768D01*
X124804Y202783D01*
X124806Y202793D01*
X124809Y202808D01*
X124812Y202823D01*
X124813Y202833D01*
X124814Y202833D01*
X124816Y202848D01*
X124819Y202863D01*
X124821Y202873D01*
X124824Y202888D01*
X124827Y202903D01*
X124832Y202927D01*
X124835Y202942D01*
X124840Y202967D01*
X124843Y202982D01*
X124848Y203007D01*
X124851Y203022D01*
X124856Y203047D01*
X124859Y203062D01*
X124864Y203086D01*
X124867Y203101D01*
X124867Y203104D01*
X125614Y204906D01*
X126697Y206528D01*
X128076Y207907D01*
X129698Y208990D01*
X131500Y209737D01*
X133413Y210117D01*
X141749Y210117D01*
X141749Y200221D01*
X124487Y200221D01*
G37*
%LPD*%
%LPC*%
G36*
X200687Y225621D02*
X200687Y225621D01*
X200687Y226591D01*
X200687Y226594D01*
X200692Y226618D01*
X200695Y226633D01*
X200698Y226648D01*
X200700Y226658D01*
X200703Y226673D01*
X200706Y226688D01*
X200708Y226698D01*
X200711Y226713D01*
X200714Y226728D01*
X200716Y226738D01*
X200719Y226753D01*
X200722Y226767D01*
X200722Y226768D01*
X200724Y226777D01*
X200727Y226792D01*
X200730Y226807D01*
X200732Y226817D01*
X200735Y226832D01*
X200738Y226847D01*
X200743Y226872D01*
X200746Y226887D01*
X200751Y226912D01*
X200754Y226926D01*
X200754Y226927D01*
X200759Y226951D01*
X200762Y226966D01*
X200766Y226991D01*
X200769Y227006D01*
X200774Y227031D01*
X200777Y227046D01*
X200780Y227061D01*
X200782Y227071D01*
X200785Y227085D01*
X200785Y227086D01*
X200788Y227100D01*
X200790Y227110D01*
X200793Y227125D01*
X200796Y227140D01*
X200798Y227150D01*
X200801Y227165D01*
X200804Y227180D01*
X200806Y227190D01*
X200809Y227205D01*
X200812Y227220D01*
X200817Y227244D01*
X200817Y227245D01*
X200820Y227259D01*
X200825Y227284D01*
X200828Y227299D01*
X200833Y227324D01*
X200836Y227339D01*
X200841Y227364D01*
X200844Y227379D01*
X200848Y227403D01*
X200849Y227404D01*
X200851Y227418D01*
X200854Y227433D01*
X200856Y227443D01*
X200859Y227458D01*
X200862Y227473D01*
X200864Y227483D01*
X200867Y227498D01*
X200870Y227513D01*
X200872Y227523D01*
X200875Y227538D01*
X200878Y227553D01*
X200880Y227562D01*
X200880Y227563D01*
X200883Y227577D01*
X200886Y227592D01*
X200888Y227602D01*
X200891Y227617D01*
X200894Y227632D01*
X200899Y227657D01*
X200902Y227672D01*
X200907Y227697D01*
X200910Y227712D01*
X200915Y227736D01*
X200918Y227751D01*
X200923Y227776D01*
X200926Y227791D01*
X200931Y227816D01*
X200933Y227831D01*
X200934Y227831D01*
X200933Y227831D01*
X200936Y227846D01*
X200938Y227856D01*
X200941Y227871D01*
X200944Y227885D01*
X200944Y227886D01*
X200946Y227895D01*
X200949Y227910D01*
X200952Y227925D01*
X200954Y227935D01*
X200957Y227950D01*
X200960Y227965D01*
X200962Y227975D01*
X200965Y227990D01*
X200968Y228005D01*
X200973Y228030D01*
X200976Y228044D01*
X200976Y228045D01*
X200981Y228069D01*
X200984Y228084D01*
X200989Y228109D01*
X200992Y228124D01*
X200997Y228149D01*
X201000Y228164D01*
X201005Y228189D01*
X201008Y228203D01*
X201008Y228204D01*
X201011Y228218D01*
X201013Y228228D01*
X201016Y228243D01*
X201018Y228258D01*
X201019Y228258D01*
X201018Y228258D01*
X201020Y228268D01*
X201023Y228283D01*
X201026Y228298D01*
X201028Y228308D01*
X201031Y228323D01*
X201034Y228338D01*
X201036Y228348D01*
X201039Y228362D01*
X201039Y228363D01*
X201042Y228377D01*
X201044Y228387D01*
X201047Y228402D01*
X201050Y228417D01*
X201055Y228442D01*
X201058Y228457D01*
X201063Y228482D01*
X201066Y228497D01*
X201067Y228504D01*
X201814Y230306D01*
X202897Y231928D01*
X204276Y233307D01*
X205898Y234390D01*
X207700Y235137D01*
X209613Y235517D01*
X217949Y235517D01*
X217949Y225621D01*
X200687Y225621D01*
G37*
%LPD*%
%LPC*%
G36*
X124487Y225621D02*
X124487Y225621D01*
X124487Y226591D01*
X124487Y226594D01*
X124492Y226618D01*
X124495Y226633D01*
X124498Y226648D01*
X124500Y226658D01*
X124503Y226673D01*
X124506Y226688D01*
X124508Y226698D01*
X124511Y226713D01*
X124514Y226728D01*
X124516Y226738D01*
X124519Y226753D01*
X124522Y226767D01*
X124522Y226768D01*
X124524Y226777D01*
X124527Y226792D01*
X124530Y226807D01*
X124532Y226817D01*
X124535Y226832D01*
X124538Y226847D01*
X124543Y226872D01*
X124546Y226887D01*
X124551Y226912D01*
X124554Y226926D01*
X124554Y226927D01*
X124559Y226951D01*
X124562Y226966D01*
X124566Y226991D01*
X124569Y227006D01*
X124574Y227031D01*
X124577Y227046D01*
X124580Y227061D01*
X124582Y227071D01*
X124585Y227085D01*
X124585Y227086D01*
X124588Y227100D01*
X124590Y227110D01*
X124593Y227125D01*
X124596Y227140D01*
X124598Y227150D01*
X124601Y227165D01*
X124604Y227180D01*
X124606Y227190D01*
X124609Y227205D01*
X124612Y227220D01*
X124617Y227244D01*
X124617Y227245D01*
X124620Y227259D01*
X124625Y227284D01*
X124628Y227299D01*
X124633Y227324D01*
X124636Y227339D01*
X124641Y227364D01*
X124644Y227379D01*
X124648Y227403D01*
X124649Y227404D01*
X124651Y227418D01*
X124654Y227433D01*
X124656Y227443D01*
X124659Y227458D01*
X124662Y227473D01*
X124664Y227483D01*
X124667Y227498D01*
X124670Y227513D01*
X124672Y227523D01*
X124675Y227538D01*
X124678Y227553D01*
X124680Y227562D01*
X124680Y227563D01*
X124683Y227577D01*
X124686Y227592D01*
X124688Y227602D01*
X124691Y227617D01*
X124694Y227632D01*
X124699Y227657D01*
X124702Y227672D01*
X124707Y227697D01*
X124710Y227712D01*
X124715Y227736D01*
X124718Y227751D01*
X124723Y227776D01*
X124726Y227791D01*
X124731Y227816D01*
X124733Y227831D01*
X124734Y227831D01*
X124733Y227831D01*
X124736Y227846D01*
X124738Y227856D01*
X124741Y227871D01*
X124744Y227885D01*
X124744Y227886D01*
X124746Y227895D01*
X124749Y227910D01*
X124752Y227925D01*
X124754Y227935D01*
X124757Y227950D01*
X124760Y227965D01*
X124762Y227975D01*
X124765Y227990D01*
X124768Y228005D01*
X124773Y228030D01*
X124776Y228044D01*
X124776Y228045D01*
X124781Y228069D01*
X124784Y228084D01*
X124789Y228109D01*
X124792Y228124D01*
X124797Y228149D01*
X124800Y228164D01*
X124805Y228189D01*
X124808Y228203D01*
X124808Y228204D01*
X124811Y228218D01*
X124813Y228228D01*
X124816Y228243D01*
X124818Y228258D01*
X124819Y228258D01*
X124818Y228258D01*
X124820Y228268D01*
X124823Y228283D01*
X124826Y228298D01*
X124828Y228308D01*
X124831Y228323D01*
X124834Y228338D01*
X124836Y228348D01*
X124839Y228362D01*
X124839Y228363D01*
X124842Y228377D01*
X124844Y228387D01*
X124847Y228402D01*
X124850Y228417D01*
X124855Y228442D01*
X124858Y228457D01*
X124863Y228482D01*
X124866Y228497D01*
X124867Y228504D01*
X125614Y230306D01*
X126697Y231928D01*
X128076Y233307D01*
X129698Y234390D01*
X131500Y235137D01*
X133413Y235517D01*
X141749Y235517D01*
X141749Y225621D01*
X124487Y225621D01*
G37*
%LPD*%
%LPC*%
G36*
X141759Y215715D02*
X141759Y215715D01*
X141759Y225611D01*
X159021Y225611D01*
X159021Y224641D01*
X159021Y224637D01*
X159018Y224622D01*
X159015Y224607D01*
X159013Y224597D01*
X159010Y224583D01*
X159010Y224582D01*
X159007Y224568D01*
X159005Y224558D01*
X159002Y224543D01*
X158999Y224528D01*
X158997Y224518D01*
X158994Y224503D01*
X158991Y224488D01*
X158986Y224463D01*
X158983Y224448D01*
X158978Y224424D01*
X158978Y224423D01*
X158975Y224409D01*
X158970Y224384D01*
X158967Y224369D01*
X158962Y224344D01*
X158959Y224329D01*
X158954Y224304D01*
X158951Y224289D01*
X158948Y224274D01*
X158946Y224265D01*
X158946Y224264D01*
X158944Y224250D01*
X158943Y224250D01*
X158944Y224250D01*
X158941Y224235D01*
X158939Y224225D01*
X158936Y224210D01*
X158933Y224195D01*
X158931Y224185D01*
X158928Y224170D01*
X158925Y224155D01*
X158923Y224145D01*
X158920Y224130D01*
X158917Y224115D01*
X158915Y224106D01*
X158912Y224091D01*
X158909Y224076D01*
X158904Y224051D01*
X158901Y224036D01*
X158896Y224011D01*
X158893Y223996D01*
X158888Y223971D01*
X158885Y223956D01*
X158880Y223932D01*
X158877Y223917D01*
X158874Y223902D01*
X158872Y223892D01*
X158869Y223877D01*
X158866Y223862D01*
X158864Y223852D01*
X158861Y223837D01*
X158859Y223822D01*
X158858Y223822D01*
X158859Y223822D01*
X158857Y223812D01*
X158854Y223797D01*
X158851Y223783D01*
X158849Y223773D01*
X158846Y223758D01*
X158843Y223743D01*
X158841Y223733D01*
X158838Y223718D01*
X158835Y223703D01*
X158830Y223678D01*
X158827Y223663D01*
X158822Y223638D01*
X158819Y223624D01*
X158814Y223599D01*
X158811Y223584D01*
X158806Y223559D01*
X158803Y223544D01*
X158798Y223519D01*
X158795Y223504D01*
X158792Y223489D01*
X158790Y223479D01*
X158787Y223465D01*
X158784Y223450D01*
X158782Y223440D01*
X158779Y223425D01*
X158776Y223410D01*
X158775Y223400D01*
X158774Y223400D01*
X158772Y223385D01*
X158769Y223370D01*
X158767Y223360D01*
X158764Y223345D01*
X158761Y223330D01*
X158759Y223320D01*
X158756Y223306D01*
X158753Y223291D01*
X158748Y223266D01*
X158745Y223251D01*
X158740Y223226D01*
X158737Y223211D01*
X158732Y223186D01*
X158729Y223171D01*
X158724Y223147D01*
X158721Y223132D01*
X158716Y223107D01*
X158713Y223092D01*
X158710Y223077D01*
X158708Y223067D01*
X158705Y223052D01*
X158702Y223037D01*
X158700Y223027D01*
X158697Y223012D01*
X158694Y222998D01*
X158694Y222997D01*
X158692Y222988D01*
X158690Y222973D01*
X158689Y222973D01*
X158690Y222973D01*
X158687Y222958D01*
X158685Y222948D01*
X158682Y222933D01*
X158679Y222918D01*
X158674Y222893D01*
X158671Y222878D01*
X158666Y222853D01*
X158663Y222839D01*
X158663Y222838D01*
X158658Y222814D01*
X158655Y222799D01*
X158650Y222774D01*
X158647Y222759D01*
X158642Y222734D01*
X158641Y222728D01*
X157895Y220926D01*
X156811Y219304D01*
X155432Y217925D01*
X153810Y216842D01*
X152008Y216095D01*
X150095Y215715D01*
X141759Y215715D01*
G37*
%LPD*%
%LPC*%
G36*
X217959Y215715D02*
X217959Y215715D01*
X217959Y225611D01*
X235221Y225611D01*
X235221Y224641D01*
X235221Y224637D01*
X235218Y224622D01*
X235215Y224607D01*
X235213Y224597D01*
X235210Y224583D01*
X235210Y224582D01*
X235207Y224568D01*
X235205Y224558D01*
X235202Y224543D01*
X235199Y224528D01*
X235197Y224518D01*
X235194Y224503D01*
X235191Y224488D01*
X235186Y224463D01*
X235183Y224448D01*
X235178Y224424D01*
X235178Y224423D01*
X235175Y224409D01*
X235170Y224384D01*
X235167Y224369D01*
X235162Y224344D01*
X235159Y224329D01*
X235154Y224304D01*
X235151Y224289D01*
X235148Y224274D01*
X235146Y224265D01*
X235146Y224264D01*
X235144Y224250D01*
X235143Y224250D01*
X235144Y224250D01*
X235141Y224235D01*
X235139Y224225D01*
X235136Y224210D01*
X235133Y224195D01*
X235131Y224185D01*
X235128Y224170D01*
X235125Y224155D01*
X235123Y224145D01*
X235120Y224130D01*
X235117Y224115D01*
X235115Y224106D01*
X235112Y224091D01*
X235109Y224076D01*
X235104Y224051D01*
X235101Y224036D01*
X235096Y224011D01*
X235093Y223996D01*
X235088Y223971D01*
X235085Y223956D01*
X235080Y223932D01*
X235077Y223917D01*
X235074Y223902D01*
X235072Y223892D01*
X235069Y223877D01*
X235066Y223862D01*
X235064Y223852D01*
X235061Y223837D01*
X235059Y223822D01*
X235058Y223822D01*
X235059Y223822D01*
X235057Y223812D01*
X235054Y223797D01*
X235051Y223783D01*
X235049Y223773D01*
X235046Y223758D01*
X235043Y223743D01*
X235041Y223733D01*
X235038Y223718D01*
X235035Y223703D01*
X235030Y223678D01*
X235027Y223663D01*
X235022Y223638D01*
X235019Y223624D01*
X235014Y223599D01*
X235011Y223584D01*
X235006Y223559D01*
X235003Y223544D01*
X234998Y223519D01*
X234995Y223504D01*
X234992Y223489D01*
X234990Y223479D01*
X234987Y223465D01*
X234984Y223450D01*
X234982Y223440D01*
X234979Y223425D01*
X234976Y223410D01*
X234975Y223400D01*
X234974Y223400D01*
X234972Y223385D01*
X234969Y223370D01*
X234967Y223360D01*
X234964Y223345D01*
X234961Y223330D01*
X234959Y223320D01*
X234956Y223306D01*
X234953Y223291D01*
X234948Y223266D01*
X234945Y223251D01*
X234940Y223226D01*
X234937Y223211D01*
X234932Y223186D01*
X234929Y223171D01*
X234924Y223147D01*
X234921Y223132D01*
X234916Y223107D01*
X234913Y223092D01*
X234910Y223077D01*
X234908Y223067D01*
X234905Y223052D01*
X234902Y223037D01*
X234900Y223027D01*
X234897Y223012D01*
X234894Y222998D01*
X234894Y222997D01*
X234892Y222988D01*
X234890Y222973D01*
X234889Y222973D01*
X234890Y222973D01*
X234887Y222958D01*
X234885Y222948D01*
X234882Y222933D01*
X234879Y222918D01*
X234874Y222893D01*
X234871Y222878D01*
X234866Y222853D01*
X234863Y222839D01*
X234863Y222838D01*
X234858Y222814D01*
X234855Y222799D01*
X234850Y222774D01*
X234847Y222759D01*
X234842Y222734D01*
X234841Y222728D01*
X234095Y220926D01*
X233011Y219304D01*
X231632Y217925D01*
X230010Y216842D01*
X228208Y216095D01*
X226295Y215715D01*
X217959Y215715D01*
G37*
%LPD*%
%LPC*%
G36*
X217959Y190315D02*
X217959Y190315D01*
X217959Y200211D01*
X235221Y200211D01*
X235221Y199241D01*
X235219Y199227D01*
X235214Y199202D01*
X235211Y199187D01*
X235208Y199172D01*
X235206Y199162D01*
X235203Y199148D01*
X235203Y199147D01*
X235200Y199133D01*
X235198Y199123D01*
X235195Y199108D01*
X235192Y199093D01*
X235190Y199083D01*
X235187Y199068D01*
X235184Y199053D01*
X235182Y199043D01*
X235179Y199028D01*
X235176Y199013D01*
X235174Y199003D01*
X235171Y198989D01*
X235171Y198988D01*
X235168Y198974D01*
X235163Y198949D01*
X235160Y198934D01*
X235155Y198909D01*
X235152Y198894D01*
X235147Y198869D01*
X235144Y198854D01*
X235140Y198830D01*
X235139Y198829D01*
X235137Y198815D01*
X235132Y198790D01*
X235129Y198775D01*
X235126Y198760D01*
X235124Y198750D01*
X235121Y198735D01*
X235118Y198720D01*
X235116Y198710D01*
X235113Y198695D01*
X235110Y198680D01*
X235108Y198671D01*
X235108Y198670D01*
X235105Y198656D01*
X235102Y198641D01*
X235100Y198631D01*
X235097Y198616D01*
X235094Y198601D01*
X235089Y198576D01*
X235086Y198561D01*
X235081Y198536D01*
X235078Y198521D01*
X235073Y198497D01*
X235070Y198482D01*
X235065Y198457D01*
X235062Y198442D01*
X235057Y198417D01*
X235055Y198402D01*
X235054Y198402D01*
X235055Y198402D01*
X235052Y198387D01*
X235050Y198377D01*
X235047Y198362D01*
X235044Y198348D01*
X235044Y198347D01*
X235042Y198338D01*
X235039Y198323D01*
X235036Y198308D01*
X235034Y198298D01*
X235031Y198283D01*
X235028Y198268D01*
X235026Y198258D01*
X235023Y198243D01*
X235020Y198228D01*
X235018Y198218D01*
X235015Y198203D01*
X235012Y198189D01*
X235012Y198188D01*
X235007Y198164D01*
X235004Y198149D01*
X234999Y198124D01*
X234996Y198109D01*
X234991Y198084D01*
X234988Y198069D01*
X234983Y198044D01*
X234980Y198030D01*
X234980Y198029D01*
X234975Y198005D01*
X234972Y197990D01*
X234970Y197975D01*
X234969Y197975D01*
X234970Y197975D01*
X234968Y197965D01*
X234965Y197950D01*
X234962Y197935D01*
X234960Y197925D01*
X234957Y197910D01*
X234954Y197895D01*
X234952Y197885D01*
X234949Y197871D01*
X234949Y197870D01*
X234946Y197856D01*
X234944Y197846D01*
X234941Y197831D01*
X234938Y197816D01*
X234933Y197791D01*
X234930Y197776D01*
X234925Y197751D01*
X234922Y197736D01*
X234917Y197712D01*
X234917Y197711D01*
X234914Y197697D01*
X234909Y197672D01*
X234906Y197657D01*
X234901Y197632D01*
X234898Y197617D01*
X234895Y197602D01*
X234893Y197592D01*
X234890Y197577D01*
X234887Y197562D01*
X234886Y197553D01*
X234885Y197553D01*
X234885Y197552D01*
X234883Y197538D01*
X234880Y197523D01*
X234878Y197513D01*
X234875Y197498D01*
X234872Y197483D01*
X234870Y197473D01*
X234867Y197458D01*
X234864Y197443D01*
X234862Y197433D01*
X234859Y197418D01*
X234856Y197403D01*
X234851Y197379D01*
X234848Y197364D01*
X234843Y197339D01*
X234841Y197328D01*
X234095Y195526D01*
X233011Y193904D01*
X231632Y192525D01*
X230010Y191442D01*
X228208Y190695D01*
X226295Y190315D01*
X217959Y190315D01*
G37*
%LPD*%
%LPC*%
G36*
X141759Y190315D02*
X141759Y190315D01*
X141759Y200211D01*
X159021Y200211D01*
X159021Y199241D01*
X159019Y199227D01*
X159014Y199202D01*
X159011Y199187D01*
X159008Y199172D01*
X159006Y199162D01*
X159003Y199148D01*
X159003Y199147D01*
X159000Y199133D01*
X158998Y199123D01*
X158995Y199108D01*
X158992Y199093D01*
X158990Y199083D01*
X158987Y199068D01*
X158984Y199053D01*
X158982Y199043D01*
X158979Y199028D01*
X158976Y199013D01*
X158974Y199003D01*
X158971Y198989D01*
X158971Y198988D01*
X158968Y198974D01*
X158963Y198949D01*
X158960Y198934D01*
X158955Y198909D01*
X158952Y198894D01*
X158947Y198869D01*
X158944Y198854D01*
X158940Y198830D01*
X158939Y198829D01*
X158937Y198815D01*
X158932Y198790D01*
X158929Y198775D01*
X158926Y198760D01*
X158924Y198750D01*
X158921Y198735D01*
X158918Y198720D01*
X158916Y198710D01*
X158913Y198695D01*
X158910Y198680D01*
X158908Y198671D01*
X158908Y198670D01*
X158905Y198656D01*
X158902Y198641D01*
X158900Y198631D01*
X158897Y198616D01*
X158894Y198601D01*
X158889Y198576D01*
X158886Y198561D01*
X158881Y198536D01*
X158878Y198521D01*
X158873Y198497D01*
X158870Y198482D01*
X158865Y198457D01*
X158862Y198442D01*
X158857Y198417D01*
X158855Y198402D01*
X158854Y198402D01*
X158855Y198402D01*
X158852Y198387D01*
X158850Y198377D01*
X158847Y198362D01*
X158844Y198348D01*
X158844Y198347D01*
X158842Y198338D01*
X158839Y198323D01*
X158836Y198308D01*
X158834Y198298D01*
X158831Y198283D01*
X158828Y198268D01*
X158826Y198258D01*
X158823Y198243D01*
X158820Y198228D01*
X158818Y198218D01*
X158815Y198203D01*
X158812Y198189D01*
X158812Y198188D01*
X158807Y198164D01*
X158804Y198149D01*
X158799Y198124D01*
X158796Y198109D01*
X158791Y198084D01*
X158788Y198069D01*
X158783Y198044D01*
X158780Y198030D01*
X158780Y198029D01*
X158775Y198005D01*
X158772Y197990D01*
X158770Y197975D01*
X158769Y197975D01*
X158770Y197975D01*
X158768Y197965D01*
X158765Y197950D01*
X158762Y197935D01*
X158760Y197925D01*
X158757Y197910D01*
X158754Y197895D01*
X158752Y197885D01*
X158749Y197871D01*
X158749Y197870D01*
X158746Y197856D01*
X158744Y197846D01*
X158741Y197831D01*
X158738Y197816D01*
X158733Y197791D01*
X158730Y197776D01*
X158725Y197751D01*
X158722Y197736D01*
X158717Y197712D01*
X158717Y197711D01*
X158714Y197697D01*
X158709Y197672D01*
X158706Y197657D01*
X158701Y197632D01*
X158698Y197617D01*
X158695Y197602D01*
X158693Y197592D01*
X158690Y197577D01*
X158687Y197562D01*
X158686Y197553D01*
X158685Y197553D01*
X158685Y197552D01*
X158683Y197538D01*
X158680Y197523D01*
X158678Y197513D01*
X158675Y197498D01*
X158672Y197483D01*
X158670Y197473D01*
X158667Y197458D01*
X158664Y197443D01*
X158662Y197433D01*
X158659Y197418D01*
X158656Y197403D01*
X158651Y197379D01*
X158648Y197364D01*
X158643Y197339D01*
X158641Y197328D01*
X157895Y195526D01*
X156811Y193904D01*
X155432Y192525D01*
X153810Y191442D01*
X152008Y190695D01*
X150095Y190315D01*
X141759Y190315D01*
G37*
%LPD*%
%LPC*%
G36*
X133413Y215715D02*
X133413Y215715D01*
X131500Y216095D01*
X129698Y216842D01*
X128076Y217925D01*
X126697Y219304D01*
X125614Y220926D01*
X124867Y222728D01*
X124487Y224641D01*
X124487Y225611D01*
X141749Y225611D01*
X141749Y215715D01*
X133413Y215715D01*
G37*
%LPD*%
%LPC*%
G36*
X209613Y215715D02*
X209613Y215715D01*
X207700Y216095D01*
X205898Y216842D01*
X204276Y217925D01*
X202897Y219304D01*
X201814Y220926D01*
X201067Y222728D01*
X200687Y224641D01*
X200687Y225611D01*
X217949Y225611D01*
X217949Y215715D01*
X209613Y215715D01*
G37*
%LPD*%
%LPC*%
G36*
X209613Y190315D02*
X209613Y190315D01*
X207700Y190695D01*
X205898Y191442D01*
X204276Y192525D01*
X202897Y193904D01*
X201814Y195526D01*
X201067Y197328D01*
X200687Y199241D01*
X200687Y200211D01*
X217949Y200211D01*
X217949Y190315D01*
X209613Y190315D01*
G37*
%LPD*%
%LPC*%
G36*
X133413Y190315D02*
X133413Y190315D01*
X131500Y190695D01*
X129698Y191442D01*
X128076Y192525D01*
X126697Y193904D01*
X125614Y195526D01*
X124867Y197328D01*
X124487Y199241D01*
X124487Y200211D01*
X141749Y200211D01*
X141749Y190315D01*
X133413Y190315D01*
G37*
%LPD*%
%LPC*%
G36*
X288313Y324488D02*
X288313Y324488D01*
X292372Y325044D01*
X298905Y320085D01*
X299461Y316026D01*
X289657Y314683D01*
X288313Y324488D01*
G37*
%LPD*%
%LPC*%
G36*
X289658Y314673D02*
X289658Y314673D01*
X299462Y316016D01*
X300018Y311958D01*
X295059Y305425D01*
X291001Y304869D01*
X289658Y314673D01*
G37*
%LPD*%
%LPC*%
G36*
X279286Y317397D02*
X279286Y317397D01*
X284245Y323931D01*
X288303Y324487D01*
X289646Y314682D01*
X279842Y313339D01*
X279286Y317397D01*
G37*
%LPD*%
%LPC*%
G36*
X280399Y309271D02*
X280399Y309271D01*
X279843Y313329D01*
X289648Y314672D01*
X290991Y304867D01*
X286933Y304311D01*
X280399Y309271D01*
G37*
%LPD*%
D10*
X134388Y301816D02*
X149120Y301816D01*
X149120Y276416D02*
X134388Y276416D01*
X134388Y149416D02*
X149120Y149416D01*
X149120Y124016D02*
X134388Y124016D01*
X134388Y251016D02*
X149120Y251016D01*
X149120Y225616D02*
X134388Y225616D01*
X134388Y174816D02*
X149120Y174816D01*
X149120Y200216D02*
X134388Y200216D01*
X210588Y124016D02*
X225320Y124016D01*
X225320Y149416D02*
X210588Y149416D01*
X210588Y174816D02*
X225320Y174816D01*
X225320Y200216D02*
X210588Y200216D01*
X210588Y225616D02*
X225320Y225616D01*
X225320Y251016D02*
X210588Y251016D01*
X210588Y276416D02*
X225320Y276416D01*
X225320Y301816D02*
X210588Y301816D01*
D11*
X76746Y131053D02*
X59982Y131053D01*
X59982Y105653D02*
X76746Y105653D01*
X279465Y131967D02*
X296229Y131967D01*
X296229Y106567D02*
X279465Y106567D01*
D12*
X264487Y311231D03*
X289652Y314678D03*
D13*
X29469Y317416D03*
X105669Y317416D03*
D14*
X81519Y236485D02*
X62977Y236485D01*
X62977Y186485D02*
X81519Y186485D01*
X233838Y65968D02*
X233838Y47426D01*
X183838Y47426D02*
X183838Y65968D01*
X133838Y65968D02*
X133838Y47426D01*
X281993Y187301D02*
X300535Y187301D01*
X300535Y237301D02*
X281993Y237301D01*
D15*
X52745Y294140D02*
X29469Y317416D01*
X52745Y294140D02*
X134682Y294744D01*
X141754Y301816D01*
X217954Y301816D01*
X217954Y72581D02*
X233838Y56697D01*
X217954Y72581D02*
X217954Y124016D01*
X217954Y301816D02*
X238291Y301816D01*
X248010Y292098D01*
X352250Y249209D02*
X352250Y125683D01*
X283265Y56697D01*
X309362Y292098D02*
X248010Y292098D01*
X309362Y292098D02*
X352250Y249209D01*
X283265Y56697D02*
X233838Y56697D01*
X151019Y56697D02*
X133838Y56697D01*
X151019Y56697D02*
X153246Y54469D01*
X152913Y54136D01*
X133838Y56697D02*
X133838Y86259D01*
X133548Y86550D01*
X133838Y56697D02*
X133838Y26109D01*
X133882Y26065D01*
X133838Y56697D02*
X109288Y56697D01*
X107840Y58145D01*
X141754Y200216D02*
X169222Y200216D01*
X169940Y199498D01*
X165212Y225616D02*
X141754Y225616D01*
X165212Y225616D02*
X166601Y224227D01*
X141754Y225616D02*
X141754Y200216D01*
X217954Y200216D02*
X217954Y225616D01*
X192361Y225616D01*
X192309Y225564D01*
X217954Y225616D02*
X243673Y225616D01*
X243725Y225564D01*
X243674Y200216D02*
X217954Y200216D01*
X243674Y200216D02*
X246062Y197828D01*
X217954Y200216D02*
X180241Y200216D01*
X179956Y200501D01*
X141754Y200216D02*
X105789Y200216D01*
X103834Y202172D01*
X112568Y225616D02*
X141754Y225616D01*
X112568Y225616D02*
X110845Y223893D01*
X289652Y314678D02*
X305207Y314678D01*
X306841Y313043D01*
X289652Y314678D02*
X289652Y329156D01*
X290304Y329808D01*
X289652Y314678D02*
X289652Y306117D01*
X289633Y306098D01*
X86779Y251016D02*
X72248Y236485D01*
X86779Y251016D02*
X141754Y251016D01*
X72248Y186485D02*
X83917Y174816D01*
X141754Y174816D01*
X183838Y81932D02*
X183838Y56697D01*
X183838Y81932D02*
X141754Y124016D01*
X217954Y251016D02*
X277549Y251016D01*
X291264Y237301D01*
X278778Y174816D02*
X217954Y174816D01*
X278778Y174816D02*
X291264Y187301D01*
X68364Y131053D02*
X40102Y159315D01*
X40102Y260619D01*
X55898Y276416D01*
X141754Y276416D01*
X217954Y276416D02*
X283721Y276416D01*
X284018Y276120D01*
X303329Y276120D01*
X327250Y252199D02*
X327250Y146660D01*
X312556Y131967D01*
X287847Y131967D01*
X327250Y252199D02*
X303329Y276120D01*
X141754Y149416D02*
X141649Y149311D01*
X125753Y149311D01*
X82095Y105653D02*
X68364Y105653D01*
X82095Y105653D02*
X125753Y149311D01*
X271974Y106567D02*
X287847Y106567D01*
X229125Y149416D02*
X217954Y149416D01*
X229125Y149416D02*
X271974Y106567D01*
X264487Y311231D02*
X247884Y327834D01*
X116087Y327834D01*
X105669Y317416D01*
M02*
