G04 EAGLE Gerber RS-274X export*
G75*
%MOMM*%
%FSLAX34Y34*%
%LPD*%
%INBottom Copper*%
%IPPOS*%
%AMOC8*
5,1,8,0,0,1.08239X$1,22.5*%
G01*
%ADD10P,1.869504X8X292.500000*%
%ADD11C,1.727200*%
%ADD12P,1.869504X8X202.500000*%
%ADD13P,1.869504X8X22.500000*%
%ADD14C,2.032000*%
%ADD15C,0.700000*%

G36*
X68335Y10211D02*
X68335Y10211D01*
X80588Y10221D01*
X98967Y10235D01*
X111221Y10245D01*
X129600Y10260D01*
X141853Y10270D01*
X160233Y10285D01*
X172486Y10295D01*
X184739Y10305D01*
X184740Y10305D01*
X190866Y10310D01*
X203119Y10320D01*
X215372Y10330D01*
X221499Y10335D01*
X233752Y10345D01*
X246005Y10355D01*
X252132Y10360D01*
X264385Y10370D01*
X276600Y10379D01*
X276691Y10380D01*
X280373Y10590D01*
X280374Y10590D01*
X287552Y12236D01*
X287552Y12237D01*
X287553Y12236D01*
X294184Y15439D01*
X294185Y15439D01*
X299938Y20037D01*
X299938Y20038D01*
X299939Y20038D01*
X304524Y25801D01*
X304524Y25802D01*
X307712Y32441D01*
X307711Y32441D01*
X307712Y32442D01*
X309342Y39623D01*
X309342Y39624D01*
X309344Y39665D01*
X309347Y39719D01*
X309350Y39774D01*
X309353Y39829D01*
X309356Y39883D01*
X309357Y39903D01*
X309360Y39958D01*
X309363Y40012D01*
X309363Y40013D01*
X309366Y40067D01*
X309369Y40122D01*
X309372Y40176D01*
X309372Y40177D01*
X309373Y40196D01*
X309376Y40251D01*
X309379Y40306D01*
X309382Y40360D01*
X309385Y40415D01*
X309388Y40470D01*
X309389Y40489D01*
X309389Y40490D01*
X309391Y40524D01*
X309392Y40544D01*
X309395Y40599D01*
X309398Y40653D01*
X309398Y40654D01*
X309401Y40708D01*
X309404Y40763D01*
X309407Y40817D01*
X309409Y40837D01*
X309412Y40892D01*
X309415Y40947D01*
X309418Y41001D01*
X309421Y41056D01*
X309424Y41111D01*
X309425Y41130D01*
X309425Y41131D01*
X309428Y41185D01*
X309431Y41240D01*
X309434Y41294D01*
X309437Y41349D01*
X309440Y41404D01*
X309441Y41424D01*
X309444Y41478D01*
X309447Y41533D01*
X309450Y41588D01*
X309453Y41642D01*
X309456Y41697D01*
X309457Y41717D01*
X309460Y41771D01*
X309463Y41826D01*
X309466Y41881D01*
X309469Y41935D01*
X309472Y41990D01*
X309473Y42010D01*
X309475Y42045D01*
X309476Y42065D01*
X309479Y42119D01*
X309482Y42174D01*
X309485Y42229D01*
X309488Y42283D01*
X309491Y42338D01*
X309492Y42358D01*
X309495Y42412D01*
X309498Y42467D01*
X309501Y42522D01*
X309504Y42576D01*
X309507Y42631D01*
X309508Y42651D01*
X309511Y42706D01*
X309514Y42760D01*
X309517Y42815D01*
X309520Y42870D01*
X309523Y42924D01*
X309524Y42944D01*
X309527Y42999D01*
X309530Y43053D01*
X309533Y43108D01*
X309536Y43163D01*
X309539Y43217D01*
X309540Y43237D01*
X309543Y43292D01*
X309544Y43306D01*
X309544Y43307D01*
X309544Y43330D01*
X309378Y165720D01*
X309113Y169686D01*
X309112Y169686D01*
X307050Y177345D01*
X307049Y177345D01*
X307049Y177346D01*
X303076Y184210D01*
X303075Y184210D01*
X303075Y184211D01*
X297460Y189813D01*
X297459Y189813D01*
X290587Y193772D01*
X290586Y193772D01*
X282923Y195818D01*
X282922Y195818D01*
X282920Y195818D01*
X282843Y195823D01*
X282767Y195828D01*
X282766Y195828D01*
X282690Y195833D01*
X282613Y195838D01*
X282536Y195843D01*
X282459Y195848D01*
X282382Y195853D01*
X282306Y195858D01*
X282229Y195863D01*
X282152Y195868D01*
X282075Y195873D01*
X281998Y195878D01*
X281922Y195883D01*
X281921Y195883D01*
X281845Y195888D01*
X281768Y195893D01*
X281691Y195898D01*
X281614Y195903D01*
X281537Y195908D01*
X281461Y195913D01*
X281460Y195913D01*
X281384Y195918D01*
X281307Y195923D01*
X281230Y195928D01*
X281153Y195933D01*
X281077Y195938D01*
X281076Y195938D01*
X281000Y195942D01*
X280923Y195947D01*
X280846Y195952D01*
X280769Y195957D01*
X280692Y195962D01*
X280616Y195967D01*
X280615Y195967D01*
X280539Y195972D01*
X280462Y195977D01*
X280385Y195982D01*
X280308Y195987D01*
X280231Y195992D01*
X280155Y195997D01*
X280078Y196002D01*
X280001Y196007D01*
X279924Y196012D01*
X279847Y196017D01*
X279771Y196022D01*
X279770Y196022D01*
X279694Y196027D01*
X279617Y196032D01*
X279540Y196037D01*
X279463Y196042D01*
X279386Y196047D01*
X279310Y196052D01*
X279309Y196052D01*
X279233Y196057D01*
X279156Y196062D01*
X279079Y196067D01*
X279002Y196072D01*
X278956Y196075D01*
X278956Y196074D01*
X278956Y196075D01*
X276935Y196073D01*
X275277Y196072D01*
X275239Y196072D01*
X269149Y196067D01*
X269110Y196067D01*
X263020Y196062D01*
X262982Y196062D01*
X256892Y196057D01*
X256853Y196057D01*
X250763Y196052D01*
X250725Y196052D01*
X244635Y196047D01*
X244596Y196047D01*
X238506Y196042D01*
X238468Y196042D01*
X232378Y196037D01*
X232339Y196037D01*
X226249Y196032D01*
X226211Y196032D01*
X220121Y196027D01*
X220082Y196027D01*
X213992Y196022D01*
X213954Y196022D01*
X207864Y196017D01*
X207825Y196017D01*
X201735Y196012D01*
X201697Y196012D01*
X195607Y196007D01*
X195568Y196007D01*
X189478Y196002D01*
X189440Y196002D01*
X183350Y195997D01*
X183311Y195997D01*
X177221Y195992D01*
X177183Y195992D01*
X171093Y195987D01*
X171054Y195987D01*
X164964Y195982D01*
X164926Y195982D01*
X158836Y195977D01*
X158797Y195977D01*
X152707Y195972D01*
X152669Y195972D01*
X146579Y195967D01*
X146540Y195967D01*
X140450Y195962D01*
X140412Y195962D01*
X140411Y195962D01*
X134322Y195957D01*
X134283Y195957D01*
X128193Y195952D01*
X128154Y195952D01*
X122065Y195947D01*
X122026Y195947D01*
X115936Y195942D01*
X115897Y195942D01*
X109807Y195938D01*
X109769Y195938D01*
X109769Y195937D01*
X103679Y195933D01*
X103640Y195933D01*
X97550Y195928D01*
X97512Y195928D01*
X91422Y195923D01*
X91383Y195923D01*
X85293Y195918D01*
X85255Y195918D01*
X79165Y195913D01*
X79126Y195913D01*
X73036Y195908D01*
X72998Y195908D01*
X66908Y195903D01*
X66869Y195903D01*
X60779Y195898D01*
X60741Y195898D01*
X54651Y195893D01*
X54612Y195893D01*
X48522Y195888D01*
X48484Y195888D01*
X42394Y195883D01*
X42355Y195883D01*
X36265Y195878D01*
X36227Y195878D01*
X30137Y195873D01*
X30098Y195873D01*
X24008Y195868D01*
X23970Y195868D01*
X23700Y195868D01*
X23633Y195868D01*
X23633Y195867D01*
X23633Y195868D01*
X22889Y195808D01*
X21484Y195696D01*
X21483Y195696D01*
X21482Y195696D01*
X17396Y194363D01*
X17395Y194362D01*
X17394Y194363D01*
X15254Y192804D01*
X15254Y192802D01*
X15252Y192800D01*
X15253Y192799D01*
X15253Y192797D01*
X15256Y192797D01*
X15257Y192795D01*
X27630Y192795D01*
X36787Y183638D01*
X36787Y181477D01*
X36788Y181475D01*
X36788Y181473D01*
X53033Y165228D01*
X54631Y161371D01*
X54631Y86566D01*
X53033Y82709D01*
X35253Y64929D01*
X35253Y64928D01*
X35252Y64928D01*
X34285Y62593D01*
X31749Y60057D01*
X31749Y60056D01*
X31748Y60056D01*
X31749Y60054D01*
X31748Y60050D01*
X31750Y60050D01*
X31751Y60049D01*
X35654Y58432D01*
X38633Y55453D01*
X38639Y55453D01*
X38640Y55453D01*
X40840Y57653D01*
X40840Y57655D01*
X40841Y57656D01*
X40841Y67810D01*
X42439Y71667D01*
X57291Y86519D01*
X57291Y86521D01*
X57292Y86522D01*
X57292Y130053D01*
X58890Y133911D01*
X61843Y136864D01*
X78571Y153592D01*
X81524Y156545D01*
X85382Y158143D01*
X85621Y158143D01*
X85623Y158144D01*
X85625Y158144D01*
X88380Y160899D01*
X94125Y163279D01*
X100343Y163279D01*
X106088Y160899D01*
X110485Y156502D01*
X112865Y150757D01*
X112865Y144538D01*
X110485Y138793D01*
X106643Y134951D01*
X106643Y134945D01*
X106643Y134944D01*
X108843Y132744D01*
X108846Y132744D01*
X108847Y132743D01*
X120428Y132743D01*
X120430Y132744D01*
X120432Y132744D01*
X126083Y138396D01*
X129036Y141349D01*
X132894Y142947D01*
X162929Y142947D01*
X162931Y142948D01*
X162933Y142948D01*
X167847Y147862D01*
X180796Y147862D01*
X185931Y142727D01*
X185933Y142727D01*
X185934Y142726D01*
X212959Y142726D01*
X216816Y141128D01*
X242744Y115201D01*
X244341Y111344D01*
X244341Y103899D01*
X244343Y103897D01*
X244343Y103895D01*
X249477Y98760D01*
X249477Y85811D01*
X240321Y76655D01*
X227372Y76655D01*
X218215Y85811D01*
X218215Y98760D01*
X223350Y103895D01*
X223350Y103897D01*
X223351Y103899D01*
X223351Y104907D01*
X223349Y104908D01*
X223350Y104910D01*
X206525Y121734D01*
X206523Y121734D01*
X206522Y121736D01*
X185934Y121736D01*
X185932Y121734D01*
X185931Y121734D01*
X180796Y116600D01*
X167847Y116600D01*
X162492Y121955D01*
X162489Y121955D01*
X162488Y121956D01*
X139331Y121956D01*
X139329Y121955D01*
X139327Y121955D01*
X133676Y116303D01*
X130723Y113350D01*
X126865Y111753D01*
X108847Y111753D01*
X108845Y111751D01*
X108843Y111751D01*
X106643Y109551D01*
X106643Y109545D01*
X106643Y109544D01*
X110485Y105702D01*
X112865Y99957D01*
X112865Y98821D01*
X112867Y98819D01*
X112867Y98818D01*
X121066Y90618D01*
X121068Y90618D01*
X121069Y90616D01*
X121071Y90618D01*
X121073Y90617D01*
X121073Y90620D01*
X121075Y90621D01*
X121075Y92281D01*
X132241Y92281D01*
X132241Y81115D01*
X130582Y81115D01*
X130580Y81113D01*
X130579Y81114D01*
X130578Y81112D01*
X130577Y81110D01*
X130578Y81109D01*
X130578Y81106D01*
X131079Y80606D01*
X131081Y80606D01*
X131082Y80604D01*
X140369Y80604D01*
X145504Y75470D01*
X145506Y75470D01*
X145507Y75468D01*
X169468Y75468D01*
X173326Y73871D01*
X200951Y46245D01*
X200954Y46245D01*
X200954Y46244D01*
X200955Y46243D01*
X224867Y46243D01*
X224868Y46245D01*
X224870Y46245D01*
X230005Y51379D01*
X242954Y51379D01*
X248089Y46245D01*
X248091Y46245D01*
X248092Y46244D01*
X248092Y46243D01*
X249008Y46243D01*
X249009Y46245D01*
X249011Y46245D01*
X253493Y50727D01*
X255435Y51531D01*
X255435Y51532D01*
X255437Y51532D01*
X255436Y51534D01*
X255438Y51535D01*
X255437Y51536D01*
X255438Y51537D01*
X255436Y51538D01*
X255436Y51540D01*
X254940Y51900D01*
X253527Y53313D01*
X252353Y54929D01*
X251446Y56710D01*
X250828Y58610D01*
X250515Y60584D01*
X250515Y61578D01*
X273370Y61578D01*
X273371Y61578D01*
X296226Y61578D01*
X296226Y60584D01*
X295913Y58610D01*
X295296Y56710D01*
X294389Y54929D01*
X293214Y53313D01*
X291801Y51900D01*
X291305Y51540D01*
X291305Y51538D01*
X291304Y51538D01*
X291304Y51537D01*
X291303Y51536D01*
X291304Y51535D01*
X291304Y51533D01*
X291306Y51533D01*
X291306Y51531D01*
X293248Y50727D01*
X298074Y45901D01*
X300686Y39596D01*
X300686Y32771D01*
X298074Y26466D01*
X293248Y21640D01*
X286943Y19028D01*
X259798Y19028D01*
X253493Y21640D01*
X249881Y25252D01*
X249879Y25252D01*
X249877Y25253D01*
X248092Y25253D01*
X248090Y25251D01*
X248089Y25252D01*
X242954Y20117D01*
X230005Y20117D01*
X224870Y25252D01*
X224868Y25252D01*
X224867Y25253D01*
X194518Y25253D01*
X190661Y26851D01*
X163035Y54476D01*
X163033Y54477D01*
X163032Y54477D01*
X163031Y54478D01*
X145507Y54478D01*
X145506Y54476D01*
X145504Y54476D01*
X141884Y50856D01*
X141884Y50850D01*
X141884Y50849D01*
X150511Y42223D01*
X150511Y29274D01*
X141354Y20117D01*
X128405Y20117D01*
X123270Y25252D01*
X123268Y25252D01*
X123267Y25253D01*
X118058Y25253D01*
X114201Y26851D01*
X88337Y52715D01*
X86739Y56573D01*
X86739Y59835D01*
X86737Y59837D01*
X86737Y59839D01*
X83982Y62593D01*
X81603Y68338D01*
X81603Y74557D01*
X83982Y80302D01*
X87825Y84144D01*
X87825Y84151D01*
X83982Y87993D01*
X81603Y93738D01*
X81603Y99957D01*
X83982Y105702D01*
X87825Y109544D01*
X87825Y109551D01*
X83982Y113393D01*
X81603Y119138D01*
X81603Y125357D01*
X82712Y128034D01*
X82711Y128036D01*
X82711Y128039D01*
X82710Y128039D01*
X82709Y128040D01*
X82707Y128039D01*
X82707Y128040D01*
X82706Y128040D01*
X82705Y128039D01*
X82703Y128039D01*
X78284Y123620D01*
X78284Y123618D01*
X78284Y123617D01*
X78283Y123616D01*
X78283Y80085D01*
X76685Y76228D01*
X61833Y61376D01*
X61833Y61375D01*
X61833Y61374D01*
X61831Y61373D01*
X61831Y57656D01*
X61833Y57655D01*
X61833Y57653D01*
X65880Y53606D01*
X66684Y51664D01*
X66685Y51664D01*
X66685Y51662D01*
X66687Y51663D01*
X66690Y51661D01*
X66691Y51663D01*
X66693Y51663D01*
X67053Y52159D01*
X68466Y53572D01*
X70083Y54746D01*
X71863Y55653D01*
X73763Y56271D01*
X75737Y56584D01*
X76731Y56584D01*
X76731Y33729D01*
X76731Y33728D01*
X76731Y10873D01*
X75737Y10873D01*
X73763Y11186D01*
X71863Y11803D01*
X70083Y12710D01*
X68466Y13885D01*
X67053Y15298D01*
X66693Y15794D01*
X66692Y15794D01*
X66691Y15795D01*
X66690Y15795D01*
X66689Y15795D01*
X66688Y15795D01*
X66686Y15795D01*
X66686Y15793D01*
X66684Y15793D01*
X65880Y13851D01*
X62243Y10214D01*
X62243Y10212D01*
X62242Y10211D01*
X62243Y10210D01*
X62243Y10208D01*
X62245Y10207D01*
X62247Y10206D01*
X68335Y10211D01*
G37*
%LPC*%
G36*
X269084Y135808D02*
X269084Y135808D01*
X246229Y135808D01*
X246229Y136802D01*
X246542Y138775D01*
X247159Y140676D01*
X248067Y142456D01*
X249241Y144073D01*
X250654Y145486D01*
X251150Y145846D01*
X251150Y145847D01*
X251151Y145848D01*
X251151Y145849D01*
X251151Y145852D01*
X251149Y145853D01*
X251149Y145855D01*
X249207Y146659D01*
X245631Y150235D01*
X245628Y150236D01*
X245627Y150237D01*
X179293Y150237D01*
X175435Y151835D01*
X175112Y152158D01*
X175109Y152158D01*
X175108Y152160D01*
X171212Y152160D01*
X165467Y154539D01*
X161070Y158937D01*
X158690Y164682D01*
X158690Y166663D01*
X158686Y166668D01*
X158685Y166668D01*
X134368Y166668D01*
X134367Y166667D01*
X134365Y166667D01*
X129230Y161532D01*
X116281Y161532D01*
X107124Y170689D01*
X107124Y183638D01*
X116281Y192795D01*
X129230Y192795D01*
X134365Y187660D01*
X134367Y187660D01*
X134368Y187659D01*
X167036Y187659D01*
X170894Y186061D01*
X173531Y183423D01*
X173534Y183423D01*
X173535Y183422D01*
X177431Y183422D01*
X183176Y181042D01*
X187573Y176645D01*
X189816Y171230D01*
X189819Y171229D01*
X189820Y171227D01*
X244686Y171227D01*
X244688Y171229D01*
X244690Y171229D01*
X249207Y175746D01*
X255512Y178358D01*
X282657Y178358D01*
X288962Y175746D01*
X293788Y170920D01*
X296400Y164615D01*
X296400Y157790D01*
X293788Y151485D01*
X288962Y146659D01*
X287020Y145855D01*
X287020Y145854D01*
X287018Y145853D01*
X287019Y145852D01*
X287017Y145849D01*
X287019Y145848D01*
X287019Y145846D01*
X287515Y145486D01*
X288928Y144073D01*
X290102Y142456D01*
X291010Y140676D01*
X291627Y138775D01*
X291940Y136801D01*
X291940Y135808D01*
X269085Y135808D01*
X269084Y135807D01*
X269084Y135808D01*
G37*
%LPD*%
%LPC*%
G36*
X76741Y33734D02*
X76741Y33734D01*
X76741Y56584D01*
X77735Y56584D01*
X79709Y56271D01*
X81610Y55653D01*
X83390Y54746D01*
X85007Y53572D01*
X86420Y52159D01*
X87594Y50542D01*
X88501Y48762D01*
X89119Y46861D01*
X89431Y44887D01*
X89431Y33734D01*
X76741Y33734D01*
G37*
%LPD*%
%LPC*%
G36*
X250515Y61588D02*
X250515Y61588D01*
X250515Y62582D01*
X250828Y64556D01*
X251446Y66456D01*
X252353Y68237D01*
X253527Y69853D01*
X254940Y71266D01*
X256557Y72441D01*
X258337Y73348D01*
X260238Y73966D01*
X262212Y74278D01*
X273365Y74278D01*
X273365Y61588D01*
X250515Y61588D01*
G37*
%LPD*%
%LPC*%
G36*
X273376Y61588D02*
X273376Y61588D01*
X273376Y74278D01*
X284530Y74278D01*
X286503Y73966D01*
X288404Y73348D01*
X290184Y72441D01*
X291801Y71266D01*
X293214Y69853D01*
X294389Y68237D01*
X295296Y66456D01*
X295913Y64556D01*
X296226Y62582D01*
X296226Y61588D01*
X273376Y61588D01*
G37*
%LPD*%
%LPC*%
G36*
X76741Y10873D02*
X76741Y10873D01*
X76741Y33723D01*
X89431Y33723D01*
X89431Y22569D01*
X89119Y20596D01*
X88501Y18695D01*
X87594Y16915D01*
X86420Y15298D01*
X85007Y13885D01*
X83390Y12710D01*
X81610Y11803D01*
X79709Y11186D01*
X77735Y10873D01*
X76741Y10873D01*
G37*
%LPD*%
%LPC*%
G36*
X269090Y123107D02*
X269090Y123107D01*
X269090Y135797D01*
X291940Y135797D01*
X291940Y134804D01*
X291627Y132830D01*
X291010Y130929D01*
X290102Y129149D01*
X288928Y127532D01*
X287515Y126119D01*
X285898Y124945D01*
X284118Y124037D01*
X282217Y123420D01*
X280244Y123107D01*
X269090Y123107D01*
G37*
%LPD*%
%LPC*%
G36*
X257925Y123107D02*
X257925Y123107D01*
X255952Y123420D01*
X254051Y124037D01*
X252271Y124945D01*
X250654Y126119D01*
X249241Y127532D01*
X248067Y129149D01*
X247159Y130929D01*
X246542Y132830D01*
X246229Y134803D01*
X246229Y135797D01*
X269079Y135797D01*
X269079Y123107D01*
X257925Y123107D01*
G37*
%LPD*%
%LPC*%
G36*
X121075Y92291D02*
X121075Y92291D01*
X121075Y96913D01*
X127619Y103457D01*
X132241Y103457D01*
X132241Y92291D01*
X121075Y92291D01*
G37*
%LPD*%
%LPC*%
G36*
X224324Y64978D02*
X224324Y64978D01*
X224324Y69600D01*
X230868Y76144D01*
X235490Y76144D01*
X235490Y64978D01*
X224324Y64978D01*
G37*
%LPD*%
%LPC*%
G36*
X132251Y92291D02*
X132251Y92291D01*
X132251Y103457D01*
X136873Y103457D01*
X143417Y96913D01*
X143417Y92291D01*
X132251Y92291D01*
G37*
%LPD*%
%LPC*%
G36*
X235500Y64978D02*
X235500Y64978D01*
X235500Y76144D01*
X240122Y76144D01*
X246666Y69600D01*
X246666Y64978D01*
X235500Y64978D01*
G37*
%LPD*%
%LPC*%
G36*
X230868Y53802D02*
X230868Y53802D01*
X224324Y60346D01*
X224324Y64968D01*
X235490Y64968D01*
X235490Y53802D01*
X230868Y53802D01*
G37*
%LPD*%
%LPC*%
G36*
X132251Y81115D02*
X132251Y81115D01*
X132251Y92281D01*
X143417Y92281D01*
X143417Y87659D01*
X136873Y81115D01*
X132251Y81115D01*
G37*
%LPD*%
%LPC*%
G36*
X235500Y53802D02*
X235500Y53802D01*
X235500Y64968D01*
X246666Y64968D01*
X246666Y60346D01*
X240122Y53802D01*
X235500Y53802D01*
G37*
%LPD*%
D10*
X174321Y132231D03*
D11*
X174321Y167791D03*
X97234Y71448D03*
X97234Y96848D03*
X21034Y96848D03*
X21034Y71448D03*
X97234Y122248D03*
X97234Y147648D03*
X21034Y122248D03*
X21034Y147648D03*
D12*
X122756Y177163D03*
X21156Y177163D03*
D13*
X132246Y92286D03*
X233846Y92286D03*
D12*
X235495Y64973D03*
X133895Y64973D03*
X236479Y35748D03*
X134879Y35748D03*
D14*
X263211Y36183D02*
X283531Y36183D01*
X283531Y61583D02*
X263211Y61583D01*
X76736Y43888D02*
X76736Y23568D01*
X51336Y23568D02*
X51336Y43888D01*
X25936Y43888D02*
X25936Y23568D01*
X258925Y161203D02*
X279245Y161203D01*
X279245Y135803D02*
X258925Y135803D01*
D15*
X164949Y177163D02*
X122756Y177163D01*
X164949Y177163D02*
X174321Y167791D01*
X268614Y160732D02*
X269085Y161203D01*
X181380Y160732D02*
X174321Y167791D01*
X181380Y160732D02*
X268614Y160732D01*
X25936Y33728D02*
X21438Y33728D01*
X14953Y40213D01*
X14953Y65367D02*
X21034Y71448D01*
X14953Y65367D02*
X14953Y40213D01*
X21034Y71448D02*
X26929Y71448D01*
X44136Y88654D01*
X44136Y159283D01*
X26255Y177163D02*
X21156Y177163D01*
X26255Y177163D02*
X44136Y159283D01*
X99994Y96848D02*
X131869Y64973D01*
X99994Y96848D02*
X97234Y96848D01*
X131869Y64973D02*
X133895Y64973D01*
X167381Y64973D02*
X196606Y35748D01*
X167381Y64973D02*
X133895Y64973D01*
X196606Y35748D02*
X236479Y35748D01*
X272936Y35748D01*
X273371Y36183D01*
X120146Y35748D02*
X97234Y58660D01*
X97234Y71448D01*
X120146Y35748D02*
X134879Y35748D01*
X51336Y33728D02*
X51336Y65722D01*
X67787Y127966D02*
X87470Y147648D01*
X97234Y147648D01*
X67787Y82173D02*
X51336Y65722D01*
X67787Y82173D02*
X67787Y127966D01*
X76736Y33728D02*
X91794Y33728D01*
X108910Y16612D02*
X149894Y16612D01*
X172918Y39636D01*
X108910Y16612D02*
X91794Y33728D01*
X267755Y104781D02*
X269085Y106111D01*
X273371Y81969D02*
X273371Y61583D01*
X273371Y81969D02*
X271843Y83497D01*
X76736Y60966D02*
X76736Y33728D01*
X76736Y60966D02*
X75966Y61736D01*
X76736Y33728D02*
X76736Y13770D01*
X76784Y13722D01*
X273371Y61583D02*
X300428Y61583D01*
X301205Y62360D01*
X150338Y92286D02*
X132246Y92286D01*
X150338Y92286D02*
X152227Y94175D01*
X132246Y92286D02*
X132193Y92339D01*
X132193Y106830D01*
X132246Y92286D02*
X124355Y92286D01*
X117064Y99577D01*
X250625Y61583D02*
X273371Y61583D01*
X250625Y61583D02*
X250251Y61210D01*
X269085Y135803D02*
X297672Y135803D01*
X297752Y135722D01*
X269085Y135803D02*
X240750Y135803D01*
X240434Y136118D01*
X269085Y135803D02*
X269085Y118548D01*
X269093Y118539D01*
X235495Y64973D02*
X218995Y64973D01*
X218059Y64037D01*
X235495Y64973D02*
X247235Y64973D01*
X250625Y61583D01*
X236150Y64318D02*
X235495Y64973D01*
X236150Y64318D02*
X236150Y55150D01*
X235495Y64973D02*
X235495Y73136D01*
X235509Y73150D01*
X134981Y132451D02*
X124778Y122248D01*
X97234Y122248D01*
X174101Y132451D02*
X174321Y132231D01*
X174101Y132451D02*
X134981Y132451D01*
X174321Y132231D02*
X210871Y132231D01*
X233846Y109256D01*
X233846Y92286D01*
M02*
