G04 EAGLE Gerber RS-274X export*
G75*
%MOMM*%
%FSLAX34Y34*%
%LPD*%
%IN*%
%IPPOS*%
%AMOC8*
5,1,8,0,0,1.08239X$1,22.5*%
G01*
%ADD10C,0.254000*%


D10*
X-247Y182091D02*
X-33Y23981D01*
X60Y21903D01*
X335Y19828D01*
X790Y17785D01*
X1421Y15789D01*
X2224Y13856D01*
X3192Y12000D01*
X4318Y10235D01*
X5594Y8576D01*
X7009Y7033D01*
X8554Y5620D01*
X10215Y4348D01*
X11982Y3224D01*
X13839Y2259D01*
X15774Y1460D01*
X17771Y832D01*
X19815Y381D01*
X21890Y109D01*
X23982Y19D01*
X276701Y224D01*
X276713Y224D01*
X280464Y393D01*
X284186Y888D01*
X287851Y1705D01*
X291430Y2839D01*
X294898Y4280D01*
X298226Y6018D01*
X301390Y8039D01*
X304366Y10329D01*
X307131Y12869D01*
X309665Y15641D01*
X311947Y18623D01*
X313960Y21792D01*
X315690Y25125D01*
X317122Y28595D01*
X318247Y32178D01*
X319055Y35845D01*
X319540Y39568D01*
X319699Y43320D01*
X319533Y165734D01*
X319376Y169246D01*
X318911Y172753D01*
X318143Y176206D01*
X317076Y179579D01*
X315719Y182847D01*
X314083Y185983D01*
X312180Y188965D01*
X310024Y191770D01*
X307632Y194376D01*
X305022Y196764D01*
X302213Y198916D01*
X299228Y200814D01*
X296089Y202445D01*
X292819Y203796D01*
X289444Y204857D01*
X285990Y205620D01*
X282482Y206078D01*
X278948Y206230D01*
X23623Y206023D01*
X23609Y206023D01*
X21527Y205929D01*
X19461Y205653D01*
X17426Y205199D01*
X15439Y204569D01*
X13515Y203768D01*
X11667Y202803D01*
X9911Y201680D01*
X8259Y200409D01*
X6725Y198998D01*
X5319Y197459D01*
X4052Y195803D01*
X2935Y194043D01*
X1976Y192193D01*
X1181Y190266D01*
X557Y188277D01*
X109Y186241D01*
X-160Y184174D01*
X-247Y182091D01*
M02*
