G04 EAGLE Gerber RS-274X export*
G75*
%MOMM*%
%FSLAX34Y34*%
%LPD*%
%INSilkscreen Top*%
%IPPOS*%
%AMOC8*
5,1,8,0,0,1.08239X$1,22.5*%
G01*
%ADD10C,0.152400*%
%ADD11C,0.127000*%
%ADD12R,0.863600X0.609600*%


D10*
X185751Y184301D02*
X185751Y176681D01*
X181941Y180491D02*
X189561Y180491D01*
X133681Y150011D02*
X133693Y151008D01*
X133730Y152005D01*
X133791Y153001D01*
X133877Y153994D01*
X133987Y154986D01*
X134121Y155974D01*
X134279Y156959D01*
X134462Y157939D01*
X134668Y158915D01*
X134899Y159886D01*
X135153Y160850D01*
X135431Y161808D01*
X135732Y162759D01*
X136057Y163702D01*
X136404Y164637D01*
X136775Y165563D01*
X137168Y166480D01*
X137583Y167387D01*
X138020Y168283D01*
X138480Y169169D01*
X138961Y170042D01*
X139463Y170904D01*
X139986Y171753D01*
X140530Y172589D01*
X141094Y173412D01*
X141679Y174220D01*
X142283Y175014D01*
X142906Y175793D01*
X143548Y176556D01*
X144209Y177303D01*
X144888Y178034D01*
X145584Y178748D01*
X146298Y179444D01*
X147029Y180123D01*
X147776Y180784D01*
X148539Y181426D01*
X149318Y182049D01*
X150112Y182653D01*
X150920Y183238D01*
X151743Y183802D01*
X152579Y184346D01*
X153428Y184869D01*
X154290Y185371D01*
X155163Y185852D01*
X156049Y186312D01*
X156945Y186749D01*
X157852Y187164D01*
X158769Y187557D01*
X159695Y187928D01*
X160630Y188275D01*
X161573Y188600D01*
X162524Y188901D01*
X163482Y189179D01*
X164446Y189433D01*
X165417Y189664D01*
X166393Y189870D01*
X167373Y190053D01*
X168358Y190211D01*
X169346Y190345D01*
X170338Y190455D01*
X171331Y190541D01*
X172327Y190602D01*
X173324Y190639D01*
X174321Y190651D01*
X175318Y190639D01*
X176315Y190602D01*
X177311Y190541D01*
X178304Y190455D01*
X179296Y190345D01*
X180284Y190211D01*
X181269Y190053D01*
X182249Y189870D01*
X183225Y189664D01*
X184196Y189433D01*
X185160Y189179D01*
X186118Y188901D01*
X187069Y188600D01*
X188012Y188275D01*
X188947Y187928D01*
X189873Y187557D01*
X190790Y187164D01*
X191697Y186749D01*
X192593Y186312D01*
X193479Y185852D01*
X194352Y185371D01*
X195214Y184869D01*
X196063Y184346D01*
X196899Y183802D01*
X197722Y183238D01*
X198530Y182653D01*
X199324Y182049D01*
X200103Y181426D01*
X200866Y180784D01*
X201613Y180123D01*
X202344Y179444D01*
X203058Y178748D01*
X203754Y178034D01*
X204433Y177303D01*
X205094Y176556D01*
X205736Y175793D01*
X206359Y175014D01*
X206963Y174220D01*
X207548Y173412D01*
X208112Y172589D01*
X208656Y171753D01*
X209179Y170904D01*
X209681Y170042D01*
X210162Y169169D01*
X210622Y168283D01*
X211059Y167387D01*
X211474Y166480D01*
X211867Y165563D01*
X212238Y164637D01*
X212585Y163702D01*
X212910Y162759D01*
X213211Y161808D01*
X213489Y160850D01*
X213743Y159886D01*
X213974Y158915D01*
X214180Y157939D01*
X214363Y156959D01*
X214521Y155974D01*
X214655Y154986D01*
X214765Y153994D01*
X214851Y153001D01*
X214912Y152005D01*
X214949Y151008D01*
X214961Y150011D01*
X214949Y149014D01*
X214912Y148017D01*
X214851Y147021D01*
X214765Y146028D01*
X214655Y145036D01*
X214521Y144048D01*
X214363Y143063D01*
X214180Y142083D01*
X213974Y141107D01*
X213743Y140136D01*
X213489Y139172D01*
X213211Y138214D01*
X212910Y137263D01*
X212585Y136320D01*
X212238Y135385D01*
X211867Y134459D01*
X211474Y133542D01*
X211059Y132635D01*
X210622Y131739D01*
X210162Y130853D01*
X209681Y129980D01*
X209179Y129118D01*
X208656Y128269D01*
X208112Y127433D01*
X207548Y126610D01*
X206963Y125802D01*
X206359Y125008D01*
X205736Y124229D01*
X205094Y123466D01*
X204433Y122719D01*
X203754Y121988D01*
X203058Y121274D01*
X202344Y120578D01*
X201613Y119899D01*
X200866Y119238D01*
X200103Y118596D01*
X199324Y117973D01*
X198530Y117369D01*
X197722Y116784D01*
X196899Y116220D01*
X196063Y115676D01*
X195214Y115153D01*
X194352Y114651D01*
X193479Y114170D01*
X192593Y113710D01*
X191697Y113273D01*
X190790Y112858D01*
X189873Y112465D01*
X188947Y112094D01*
X188012Y111747D01*
X187069Y111422D01*
X186118Y111121D01*
X185160Y110843D01*
X184196Y110589D01*
X183225Y110358D01*
X182249Y110152D01*
X181269Y109969D01*
X180284Y109811D01*
X179296Y109677D01*
X178304Y109567D01*
X177311Y109481D01*
X176315Y109420D01*
X175318Y109383D01*
X174321Y109371D01*
X173324Y109383D01*
X172327Y109420D01*
X171331Y109481D01*
X170338Y109567D01*
X169346Y109677D01*
X168358Y109811D01*
X167373Y109969D01*
X166393Y110152D01*
X165417Y110358D01*
X164446Y110589D01*
X163482Y110843D01*
X162524Y111121D01*
X161573Y111422D01*
X160630Y111747D01*
X159695Y112094D01*
X158769Y112465D01*
X157852Y112858D01*
X156945Y113273D01*
X156049Y113710D01*
X155163Y114170D01*
X154290Y114651D01*
X153428Y115153D01*
X152579Y115676D01*
X151743Y116220D01*
X150920Y116784D01*
X150112Y117369D01*
X149318Y117973D01*
X148539Y118596D01*
X147776Y119238D01*
X147029Y119899D01*
X146298Y120578D01*
X145584Y121274D01*
X144888Y121988D01*
X144209Y122719D01*
X143548Y123466D01*
X142906Y124229D01*
X142283Y125008D01*
X141679Y125802D01*
X141094Y126610D01*
X140530Y127433D01*
X139986Y128269D01*
X139463Y129118D01*
X138961Y129980D01*
X138480Y130853D01*
X138020Y131739D01*
X137583Y132635D01*
X137168Y133542D01*
X136775Y134459D01*
X136404Y135385D01*
X136057Y136320D01*
X135732Y137263D01*
X135431Y138214D01*
X135153Y139172D01*
X134899Y140136D01*
X134668Y141107D01*
X134462Y142083D01*
X134279Y143063D01*
X134121Y144048D01*
X133987Y145036D01*
X133877Y146028D01*
X133791Y147021D01*
X133730Y148017D01*
X133693Y149014D01*
X133681Y150011D01*
D11*
X200356Y153784D02*
X200356Y156324D01*
X200356Y153784D02*
X200354Y153684D01*
X200348Y153585D01*
X200338Y153485D01*
X200325Y153387D01*
X200307Y153288D01*
X200286Y153191D01*
X200261Y153095D01*
X200232Y152999D01*
X200199Y152905D01*
X200163Y152812D01*
X200123Y152721D01*
X200079Y152631D01*
X200032Y152543D01*
X199982Y152457D01*
X199928Y152373D01*
X199871Y152291D01*
X199811Y152212D01*
X199747Y152134D01*
X199681Y152060D01*
X199612Y151988D01*
X199540Y151919D01*
X199466Y151853D01*
X199388Y151789D01*
X199309Y151729D01*
X199227Y151672D01*
X199143Y151618D01*
X199057Y151568D01*
X198969Y151521D01*
X198879Y151477D01*
X198788Y151437D01*
X198695Y151401D01*
X198601Y151368D01*
X198505Y151339D01*
X198409Y151314D01*
X198312Y151293D01*
X198213Y151275D01*
X198115Y151262D01*
X198015Y151252D01*
X197916Y151246D01*
X197816Y151244D01*
X191466Y151244D01*
X191366Y151246D01*
X191267Y151252D01*
X191167Y151262D01*
X191069Y151275D01*
X190970Y151293D01*
X190873Y151314D01*
X190777Y151339D01*
X190681Y151368D01*
X190587Y151401D01*
X190494Y151437D01*
X190403Y151477D01*
X190313Y151521D01*
X190225Y151568D01*
X190139Y151618D01*
X190055Y151672D01*
X189973Y151729D01*
X189894Y151789D01*
X189816Y151853D01*
X189742Y151919D01*
X189670Y151988D01*
X189601Y152060D01*
X189535Y152134D01*
X189471Y152212D01*
X189411Y152291D01*
X189354Y152373D01*
X189300Y152457D01*
X189250Y152543D01*
X189203Y152631D01*
X189159Y152721D01*
X189119Y152812D01*
X189083Y152905D01*
X189050Y152999D01*
X189021Y153095D01*
X188996Y153191D01*
X188975Y153288D01*
X188957Y153387D01*
X188944Y153485D01*
X188934Y153585D01*
X188928Y153684D01*
X188926Y153784D01*
X188926Y156324D01*
X191466Y160806D02*
X188926Y163981D01*
X200356Y163981D01*
X200356Y160806D02*
X200356Y167156D01*
D10*
X29924Y160348D02*
X29924Y58748D01*
X88344Y58748D02*
X88344Y160348D01*
X29924Y160348D01*
X29924Y58748D02*
X48974Y58748D01*
X69294Y58748D02*
X88344Y58748D01*
X69294Y58748D02*
X69291Y58995D01*
X69282Y59243D01*
X69267Y59490D01*
X69246Y59736D01*
X69219Y59982D01*
X69186Y60227D01*
X69147Y60472D01*
X69102Y60715D01*
X69051Y60957D01*
X68994Y61198D01*
X68932Y61437D01*
X68863Y61675D01*
X68789Y61911D01*
X68709Y62145D01*
X68624Y62377D01*
X68532Y62607D01*
X68436Y62835D01*
X68333Y63060D01*
X68226Y63283D01*
X68112Y63503D01*
X67994Y63720D01*
X67870Y63935D01*
X67741Y64146D01*
X67607Y64354D01*
X67468Y64559D01*
X67324Y64760D01*
X67176Y64958D01*
X67022Y65152D01*
X66864Y65342D01*
X66701Y65528D01*
X66534Y65710D01*
X66362Y65888D01*
X66186Y66062D01*
X66006Y66232D01*
X65821Y66397D01*
X65633Y66557D01*
X65441Y66713D01*
X65245Y66865D01*
X65046Y67011D01*
X64843Y67153D01*
X64636Y67289D01*
X64427Y67421D01*
X64214Y67547D01*
X63998Y67668D01*
X63780Y67784D01*
X63558Y67894D01*
X63334Y67999D01*
X63108Y68099D01*
X62879Y68193D01*
X62648Y68281D01*
X62414Y68364D01*
X62179Y68441D01*
X61942Y68512D01*
X61704Y68578D01*
X61464Y68637D01*
X61222Y68691D01*
X60979Y68739D01*
X60736Y68781D01*
X60491Y68817D01*
X60245Y68847D01*
X59999Y68871D01*
X59752Y68889D01*
X59505Y68901D01*
X59258Y68907D01*
X59010Y68907D01*
X58763Y68901D01*
X58516Y68889D01*
X58269Y68871D01*
X58023Y68847D01*
X57777Y68817D01*
X57532Y68781D01*
X57289Y68739D01*
X57046Y68691D01*
X56804Y68637D01*
X56564Y68578D01*
X56326Y68512D01*
X56089Y68441D01*
X55854Y68364D01*
X55620Y68281D01*
X55389Y68193D01*
X55160Y68099D01*
X54934Y67999D01*
X54710Y67894D01*
X54488Y67784D01*
X54270Y67668D01*
X54054Y67547D01*
X53841Y67421D01*
X53632Y67289D01*
X53425Y67153D01*
X53222Y67011D01*
X53023Y66865D01*
X52827Y66713D01*
X52635Y66557D01*
X52447Y66397D01*
X52262Y66232D01*
X52082Y66062D01*
X51906Y65888D01*
X51734Y65710D01*
X51567Y65528D01*
X51404Y65342D01*
X51246Y65152D01*
X51092Y64958D01*
X50944Y64760D01*
X50800Y64559D01*
X50661Y64354D01*
X50527Y64146D01*
X50398Y63935D01*
X50274Y63720D01*
X50156Y63503D01*
X50042Y63283D01*
X49935Y63060D01*
X49832Y62835D01*
X49736Y62607D01*
X49644Y62377D01*
X49559Y62145D01*
X49479Y61911D01*
X49405Y61675D01*
X49336Y61437D01*
X49274Y61198D01*
X49217Y60957D01*
X49166Y60715D01*
X49121Y60472D01*
X49082Y60227D01*
X49049Y59982D01*
X49022Y59736D01*
X49001Y59490D01*
X48986Y59243D01*
X48977Y58995D01*
X48974Y58748D01*
D11*
X46357Y86089D02*
X46357Y97519D01*
X45087Y86089D02*
X47627Y86089D01*
X47627Y97519D02*
X45087Y97519D01*
X54829Y86089D02*
X57369Y86089D01*
X54829Y86089D02*
X54729Y86091D01*
X54630Y86097D01*
X54530Y86107D01*
X54432Y86120D01*
X54333Y86138D01*
X54236Y86159D01*
X54140Y86184D01*
X54044Y86213D01*
X53950Y86246D01*
X53857Y86282D01*
X53766Y86322D01*
X53676Y86366D01*
X53588Y86413D01*
X53502Y86463D01*
X53418Y86517D01*
X53336Y86574D01*
X53257Y86634D01*
X53179Y86698D01*
X53105Y86764D01*
X53033Y86833D01*
X52964Y86905D01*
X52898Y86979D01*
X52834Y87057D01*
X52774Y87136D01*
X52717Y87218D01*
X52663Y87302D01*
X52613Y87388D01*
X52566Y87476D01*
X52522Y87566D01*
X52482Y87657D01*
X52446Y87750D01*
X52413Y87844D01*
X52384Y87940D01*
X52359Y88036D01*
X52338Y88133D01*
X52320Y88232D01*
X52307Y88330D01*
X52297Y88430D01*
X52291Y88529D01*
X52289Y88629D01*
X52289Y94979D01*
X52291Y95079D01*
X52297Y95178D01*
X52307Y95278D01*
X52320Y95376D01*
X52338Y95475D01*
X52359Y95572D01*
X52384Y95668D01*
X52413Y95764D01*
X52446Y95858D01*
X52482Y95951D01*
X52522Y96042D01*
X52566Y96132D01*
X52613Y96220D01*
X52663Y96306D01*
X52717Y96390D01*
X52774Y96472D01*
X52834Y96551D01*
X52898Y96629D01*
X52964Y96703D01*
X53033Y96775D01*
X53105Y96844D01*
X53179Y96910D01*
X53257Y96974D01*
X53336Y97034D01*
X53418Y97091D01*
X53502Y97145D01*
X53588Y97195D01*
X53676Y97242D01*
X53766Y97286D01*
X53857Y97326D01*
X53950Y97362D01*
X54044Y97395D01*
X54140Y97424D01*
X54236Y97449D01*
X54333Y97470D01*
X54432Y97488D01*
X54530Y97501D01*
X54630Y97511D01*
X54729Y97517D01*
X54829Y97519D01*
X57369Y97519D01*
X61851Y94979D02*
X65026Y97519D01*
X65026Y86089D01*
X61851Y86089D02*
X68201Y86089D01*
D10*
X101166Y165733D02*
X101266Y165735D01*
X101365Y165741D01*
X101465Y165751D01*
X101563Y165764D01*
X101662Y165782D01*
X101759Y165803D01*
X101855Y165828D01*
X101951Y165857D01*
X102045Y165890D01*
X102138Y165926D01*
X102229Y165966D01*
X102319Y166010D01*
X102407Y166057D01*
X102493Y166107D01*
X102577Y166161D01*
X102659Y166218D01*
X102738Y166278D01*
X102816Y166342D01*
X102890Y166408D01*
X102962Y166477D01*
X103031Y166549D01*
X103097Y166623D01*
X103161Y166701D01*
X103221Y166780D01*
X103278Y166862D01*
X103332Y166946D01*
X103382Y167032D01*
X103429Y167120D01*
X103473Y167210D01*
X103513Y167301D01*
X103549Y167394D01*
X103582Y167488D01*
X103611Y167584D01*
X103636Y167680D01*
X103657Y167777D01*
X103675Y167876D01*
X103688Y167974D01*
X103698Y168074D01*
X103704Y168173D01*
X103706Y168273D01*
X103706Y186053D02*
X103704Y186153D01*
X103698Y186252D01*
X103688Y186352D01*
X103675Y186450D01*
X103657Y186549D01*
X103636Y186646D01*
X103611Y186742D01*
X103582Y186838D01*
X103549Y186932D01*
X103513Y187025D01*
X103473Y187116D01*
X103429Y187206D01*
X103382Y187294D01*
X103332Y187380D01*
X103278Y187464D01*
X103221Y187546D01*
X103161Y187625D01*
X103097Y187703D01*
X103031Y187777D01*
X102962Y187849D01*
X102890Y187918D01*
X102816Y187984D01*
X102738Y188048D01*
X102659Y188108D01*
X102577Y188165D01*
X102493Y188219D01*
X102407Y188269D01*
X102319Y188316D01*
X102229Y188360D01*
X102138Y188400D01*
X102045Y188436D01*
X101951Y188469D01*
X101855Y188498D01*
X101759Y188523D01*
X101662Y188544D01*
X101563Y188562D01*
X101465Y188575D01*
X101365Y188585D01*
X101266Y188591D01*
X101166Y188593D01*
X42746Y188593D02*
X42646Y188591D01*
X42547Y188585D01*
X42447Y188575D01*
X42349Y188562D01*
X42250Y188544D01*
X42153Y188523D01*
X42057Y188498D01*
X41961Y188469D01*
X41867Y188436D01*
X41774Y188400D01*
X41683Y188360D01*
X41593Y188316D01*
X41505Y188269D01*
X41419Y188219D01*
X41335Y188165D01*
X41253Y188108D01*
X41174Y188048D01*
X41096Y187984D01*
X41022Y187918D01*
X40950Y187849D01*
X40881Y187777D01*
X40815Y187703D01*
X40751Y187625D01*
X40691Y187546D01*
X40634Y187464D01*
X40580Y187380D01*
X40530Y187294D01*
X40483Y187206D01*
X40439Y187116D01*
X40399Y187025D01*
X40363Y186932D01*
X40330Y186838D01*
X40301Y186742D01*
X40276Y186646D01*
X40255Y186549D01*
X40237Y186450D01*
X40224Y186352D01*
X40214Y186252D01*
X40208Y186153D01*
X40206Y186053D01*
X40206Y168273D02*
X40208Y168173D01*
X40214Y168074D01*
X40224Y167974D01*
X40237Y167876D01*
X40255Y167777D01*
X40276Y167680D01*
X40301Y167584D01*
X40330Y167488D01*
X40363Y167394D01*
X40399Y167301D01*
X40439Y167210D01*
X40483Y167120D01*
X40530Y167032D01*
X40580Y166946D01*
X40634Y166862D01*
X40691Y166780D01*
X40751Y166701D01*
X40815Y166623D01*
X40881Y166549D01*
X40950Y166477D01*
X41022Y166408D01*
X41096Y166342D01*
X41174Y166278D01*
X41253Y166218D01*
X41335Y166161D01*
X41419Y166107D01*
X41505Y166057D01*
X41593Y166010D01*
X41683Y165966D01*
X41774Y165926D01*
X41867Y165890D01*
X41961Y165857D01*
X42057Y165828D01*
X42153Y165803D01*
X42250Y165782D01*
X42349Y165764D01*
X42447Y165751D01*
X42547Y165741D01*
X42646Y165735D01*
X42746Y165733D01*
X103706Y168273D02*
X103706Y186053D01*
X101166Y165733D02*
X97356Y165733D01*
X96086Y167003D01*
X97356Y188593D02*
X101166Y188593D01*
X97356Y188593D02*
X96086Y187323D01*
X47826Y167003D02*
X46556Y165733D01*
X47826Y167003D02*
X96086Y167003D01*
X47826Y187323D02*
X46556Y188593D01*
X47826Y187323D02*
X96086Y187323D01*
X46556Y165733D02*
X42746Y165733D01*
X42746Y188593D02*
X46556Y188593D01*
X40206Y186053D02*
X40206Y168273D01*
D12*
X35888Y177163D03*
X108024Y177163D03*
D11*
X84103Y161288D02*
X84103Y149858D01*
X84103Y161288D02*
X87278Y161288D01*
X87389Y161286D01*
X87499Y161280D01*
X87610Y161271D01*
X87720Y161257D01*
X87829Y161240D01*
X87938Y161219D01*
X88046Y161194D01*
X88153Y161165D01*
X88259Y161133D01*
X88364Y161097D01*
X88467Y161057D01*
X88569Y161014D01*
X88670Y160967D01*
X88769Y160916D01*
X88866Y160863D01*
X88960Y160806D01*
X89053Y160745D01*
X89144Y160682D01*
X89233Y160615D01*
X89319Y160545D01*
X89402Y160472D01*
X89484Y160397D01*
X89562Y160319D01*
X89637Y160237D01*
X89710Y160154D01*
X89780Y160068D01*
X89847Y159979D01*
X89910Y159888D01*
X89971Y159795D01*
X90028Y159700D01*
X90081Y159604D01*
X90132Y159505D01*
X90179Y159404D01*
X90222Y159302D01*
X90262Y159199D01*
X90298Y159094D01*
X90330Y158988D01*
X90359Y158881D01*
X90384Y158773D01*
X90405Y158664D01*
X90422Y158555D01*
X90436Y158445D01*
X90445Y158334D01*
X90451Y158224D01*
X90453Y158113D01*
X90451Y158002D01*
X90445Y157892D01*
X90436Y157781D01*
X90422Y157671D01*
X90405Y157562D01*
X90384Y157453D01*
X90359Y157345D01*
X90330Y157238D01*
X90298Y157132D01*
X90262Y157027D01*
X90222Y156924D01*
X90179Y156822D01*
X90132Y156721D01*
X90081Y156622D01*
X90028Y156525D01*
X89971Y156431D01*
X89910Y156338D01*
X89847Y156247D01*
X89780Y156158D01*
X89710Y156072D01*
X89637Y155989D01*
X89562Y155907D01*
X89484Y155829D01*
X89402Y155754D01*
X89319Y155681D01*
X89233Y155611D01*
X89144Y155544D01*
X89053Y155481D01*
X88960Y155420D01*
X88865Y155363D01*
X88769Y155310D01*
X88670Y155259D01*
X88569Y155212D01*
X88467Y155169D01*
X88364Y155129D01*
X88259Y155093D01*
X88153Y155061D01*
X88046Y155032D01*
X87938Y155007D01*
X87829Y154986D01*
X87720Y154969D01*
X87610Y154955D01*
X87499Y154946D01*
X87389Y154940D01*
X87278Y154938D01*
X84103Y154938D01*
X87913Y154938D02*
X90453Y149858D01*
X95451Y158748D02*
X98626Y161288D01*
X98626Y149858D01*
X95451Y149858D02*
X101801Y149858D01*
D10*
X151296Y101176D02*
X151298Y101276D01*
X151304Y101375D01*
X151314Y101475D01*
X151327Y101573D01*
X151345Y101672D01*
X151366Y101769D01*
X151391Y101865D01*
X151420Y101961D01*
X151453Y102055D01*
X151489Y102148D01*
X151529Y102239D01*
X151573Y102329D01*
X151620Y102417D01*
X151670Y102503D01*
X151724Y102587D01*
X151781Y102669D01*
X151841Y102748D01*
X151905Y102826D01*
X151971Y102900D01*
X152040Y102972D01*
X152112Y103041D01*
X152186Y103107D01*
X152264Y103171D01*
X152343Y103231D01*
X152425Y103288D01*
X152509Y103342D01*
X152595Y103392D01*
X152683Y103439D01*
X152773Y103483D01*
X152864Y103523D01*
X152957Y103559D01*
X153051Y103592D01*
X153147Y103621D01*
X153243Y103646D01*
X153340Y103667D01*
X153439Y103685D01*
X153537Y103698D01*
X153637Y103708D01*
X153736Y103714D01*
X153836Y103716D01*
X151296Y83396D02*
X151298Y83296D01*
X151304Y83197D01*
X151314Y83097D01*
X151327Y82999D01*
X151345Y82900D01*
X151366Y82803D01*
X151391Y82707D01*
X151420Y82611D01*
X151453Y82517D01*
X151489Y82424D01*
X151529Y82333D01*
X151573Y82243D01*
X151620Y82155D01*
X151670Y82069D01*
X151724Y81985D01*
X151781Y81903D01*
X151841Y81824D01*
X151905Y81746D01*
X151971Y81672D01*
X152040Y81600D01*
X152112Y81531D01*
X152186Y81465D01*
X152264Y81401D01*
X152343Y81341D01*
X152425Y81284D01*
X152509Y81230D01*
X152595Y81180D01*
X152683Y81133D01*
X152773Y81089D01*
X152864Y81049D01*
X152957Y81013D01*
X153051Y80980D01*
X153147Y80951D01*
X153243Y80926D01*
X153340Y80905D01*
X153439Y80887D01*
X153537Y80874D01*
X153637Y80864D01*
X153736Y80858D01*
X153836Y80856D01*
X212256Y80856D02*
X212356Y80858D01*
X212455Y80864D01*
X212555Y80874D01*
X212653Y80887D01*
X212752Y80905D01*
X212849Y80926D01*
X212945Y80951D01*
X213041Y80980D01*
X213135Y81013D01*
X213228Y81049D01*
X213319Y81089D01*
X213409Y81133D01*
X213497Y81180D01*
X213583Y81230D01*
X213667Y81284D01*
X213749Y81341D01*
X213828Y81401D01*
X213906Y81465D01*
X213980Y81531D01*
X214052Y81600D01*
X214121Y81672D01*
X214187Y81746D01*
X214251Y81824D01*
X214311Y81903D01*
X214368Y81985D01*
X214422Y82069D01*
X214472Y82155D01*
X214519Y82243D01*
X214563Y82333D01*
X214603Y82424D01*
X214639Y82517D01*
X214672Y82611D01*
X214701Y82707D01*
X214726Y82803D01*
X214747Y82900D01*
X214765Y82999D01*
X214778Y83097D01*
X214788Y83197D01*
X214794Y83296D01*
X214796Y83396D01*
X214796Y101176D02*
X214794Y101276D01*
X214788Y101375D01*
X214778Y101475D01*
X214765Y101573D01*
X214747Y101672D01*
X214726Y101769D01*
X214701Y101865D01*
X214672Y101961D01*
X214639Y102055D01*
X214603Y102148D01*
X214563Y102239D01*
X214519Y102329D01*
X214472Y102417D01*
X214422Y102503D01*
X214368Y102587D01*
X214311Y102669D01*
X214251Y102748D01*
X214187Y102826D01*
X214121Y102900D01*
X214052Y102972D01*
X213980Y103041D01*
X213906Y103107D01*
X213828Y103171D01*
X213749Y103231D01*
X213667Y103288D01*
X213583Y103342D01*
X213497Y103392D01*
X213409Y103439D01*
X213319Y103483D01*
X213228Y103523D01*
X213135Y103559D01*
X213041Y103592D01*
X212945Y103621D01*
X212849Y103646D01*
X212752Y103667D01*
X212653Y103685D01*
X212555Y103698D01*
X212455Y103708D01*
X212356Y103714D01*
X212256Y103716D01*
X151296Y101176D02*
X151296Y83396D01*
X153836Y103716D02*
X157646Y103716D01*
X158916Y102446D01*
X157646Y80856D02*
X153836Y80856D01*
X157646Y80856D02*
X158916Y82126D01*
X207176Y102446D02*
X208446Y103716D01*
X207176Y102446D02*
X158916Y102446D01*
X207176Y82126D02*
X208446Y80856D01*
X207176Y82126D02*
X158916Y82126D01*
X208446Y103716D02*
X212256Y103716D01*
X212256Y80856D02*
X208446Y80856D01*
X214796Y83396D02*
X214796Y101176D01*
D12*
X219114Y92286D03*
X146978Y92286D03*
D11*
X151350Y107896D02*
X151350Y119326D01*
X154525Y119326D01*
X154636Y119324D01*
X154746Y119318D01*
X154857Y119309D01*
X154967Y119295D01*
X155076Y119278D01*
X155185Y119257D01*
X155293Y119232D01*
X155400Y119203D01*
X155506Y119171D01*
X155611Y119135D01*
X155714Y119095D01*
X155816Y119052D01*
X155917Y119005D01*
X156016Y118954D01*
X156113Y118901D01*
X156207Y118844D01*
X156300Y118783D01*
X156391Y118720D01*
X156480Y118653D01*
X156566Y118583D01*
X156649Y118510D01*
X156731Y118435D01*
X156809Y118357D01*
X156884Y118275D01*
X156957Y118192D01*
X157027Y118106D01*
X157094Y118017D01*
X157157Y117926D01*
X157218Y117833D01*
X157275Y117738D01*
X157328Y117642D01*
X157379Y117543D01*
X157426Y117442D01*
X157469Y117340D01*
X157509Y117237D01*
X157545Y117132D01*
X157577Y117026D01*
X157606Y116919D01*
X157631Y116811D01*
X157652Y116702D01*
X157669Y116593D01*
X157683Y116483D01*
X157692Y116372D01*
X157698Y116262D01*
X157700Y116151D01*
X157698Y116040D01*
X157692Y115930D01*
X157683Y115819D01*
X157669Y115709D01*
X157652Y115600D01*
X157631Y115491D01*
X157606Y115383D01*
X157577Y115276D01*
X157545Y115170D01*
X157509Y115065D01*
X157469Y114962D01*
X157426Y114860D01*
X157379Y114759D01*
X157328Y114660D01*
X157275Y114563D01*
X157218Y114469D01*
X157157Y114376D01*
X157094Y114285D01*
X157027Y114196D01*
X156957Y114110D01*
X156884Y114027D01*
X156809Y113945D01*
X156731Y113867D01*
X156649Y113792D01*
X156566Y113719D01*
X156480Y113649D01*
X156391Y113582D01*
X156300Y113519D01*
X156207Y113458D01*
X156112Y113401D01*
X156016Y113348D01*
X155917Y113297D01*
X155816Y113250D01*
X155714Y113207D01*
X155611Y113167D01*
X155506Y113131D01*
X155400Y113099D01*
X155293Y113070D01*
X155185Y113045D01*
X155076Y113024D01*
X154967Y113007D01*
X154857Y112993D01*
X154746Y112984D01*
X154636Y112978D01*
X154525Y112976D01*
X151350Y112976D01*
X155160Y112976D02*
X157700Y107896D01*
X169048Y116468D02*
X169046Y116572D01*
X169040Y116677D01*
X169031Y116781D01*
X169018Y116884D01*
X169000Y116987D01*
X168980Y117089D01*
X168955Y117191D01*
X168927Y117291D01*
X168895Y117391D01*
X168859Y117489D01*
X168820Y117586D01*
X168778Y117681D01*
X168732Y117775D01*
X168682Y117867D01*
X168630Y117957D01*
X168574Y118045D01*
X168514Y118131D01*
X168452Y118215D01*
X168387Y118296D01*
X168319Y118375D01*
X168247Y118452D01*
X168174Y118525D01*
X168097Y118597D01*
X168018Y118665D01*
X167937Y118730D01*
X167853Y118792D01*
X167767Y118852D01*
X167679Y118908D01*
X167589Y118960D01*
X167497Y119010D01*
X167403Y119056D01*
X167308Y119098D01*
X167211Y119137D01*
X167113Y119173D01*
X167013Y119205D01*
X166913Y119233D01*
X166811Y119258D01*
X166709Y119278D01*
X166606Y119296D01*
X166503Y119309D01*
X166399Y119318D01*
X166294Y119324D01*
X166190Y119326D01*
X166072Y119324D01*
X165953Y119318D01*
X165835Y119309D01*
X165718Y119296D01*
X165601Y119278D01*
X165484Y119258D01*
X165368Y119233D01*
X165253Y119205D01*
X165140Y119172D01*
X165027Y119137D01*
X164915Y119097D01*
X164805Y119055D01*
X164696Y119008D01*
X164588Y118958D01*
X164483Y118905D01*
X164379Y118848D01*
X164277Y118788D01*
X164177Y118725D01*
X164079Y118658D01*
X163983Y118589D01*
X163890Y118516D01*
X163799Y118440D01*
X163710Y118362D01*
X163624Y118280D01*
X163541Y118196D01*
X163460Y118110D01*
X163383Y118020D01*
X163308Y117929D01*
X163236Y117835D01*
X163167Y117738D01*
X163102Y117640D01*
X163039Y117539D01*
X162980Y117436D01*
X162924Y117332D01*
X162872Y117226D01*
X162823Y117118D01*
X162778Y117009D01*
X162736Y116898D01*
X162698Y116786D01*
X168095Y114246D02*
X168171Y114321D01*
X168246Y114400D01*
X168317Y114481D01*
X168386Y114565D01*
X168451Y114651D01*
X168513Y114739D01*
X168573Y114829D01*
X168629Y114921D01*
X168682Y115016D01*
X168731Y115112D01*
X168777Y115210D01*
X168820Y115309D01*
X168859Y115410D01*
X168894Y115512D01*
X168926Y115615D01*
X168954Y115719D01*
X168979Y115824D01*
X169000Y115931D01*
X169017Y116037D01*
X169030Y116144D01*
X169039Y116252D01*
X169045Y116360D01*
X169047Y116468D01*
X168095Y114246D02*
X162697Y107896D01*
X169047Y107896D01*
D10*
X216445Y56083D02*
X216443Y55983D01*
X216437Y55884D01*
X216427Y55784D01*
X216414Y55686D01*
X216396Y55587D01*
X216375Y55490D01*
X216350Y55394D01*
X216321Y55298D01*
X216288Y55204D01*
X216252Y55111D01*
X216212Y55020D01*
X216168Y54930D01*
X216121Y54842D01*
X216071Y54756D01*
X216017Y54672D01*
X215960Y54590D01*
X215900Y54511D01*
X215836Y54433D01*
X215770Y54359D01*
X215701Y54287D01*
X215629Y54218D01*
X215555Y54152D01*
X215477Y54088D01*
X215398Y54028D01*
X215316Y53971D01*
X215232Y53917D01*
X215146Y53867D01*
X215058Y53820D01*
X214968Y53776D01*
X214877Y53736D01*
X214784Y53700D01*
X214690Y53667D01*
X214594Y53638D01*
X214498Y53613D01*
X214401Y53592D01*
X214302Y53574D01*
X214204Y53561D01*
X214104Y53551D01*
X214005Y53545D01*
X213905Y53543D01*
X216445Y73863D02*
X216443Y73963D01*
X216437Y74062D01*
X216427Y74162D01*
X216414Y74260D01*
X216396Y74359D01*
X216375Y74456D01*
X216350Y74552D01*
X216321Y74648D01*
X216288Y74742D01*
X216252Y74835D01*
X216212Y74926D01*
X216168Y75016D01*
X216121Y75104D01*
X216071Y75190D01*
X216017Y75274D01*
X215960Y75356D01*
X215900Y75435D01*
X215836Y75513D01*
X215770Y75587D01*
X215701Y75659D01*
X215629Y75728D01*
X215555Y75794D01*
X215477Y75858D01*
X215398Y75918D01*
X215316Y75975D01*
X215232Y76029D01*
X215146Y76079D01*
X215058Y76126D01*
X214968Y76170D01*
X214877Y76210D01*
X214784Y76246D01*
X214690Y76279D01*
X214594Y76308D01*
X214498Y76333D01*
X214401Y76354D01*
X214302Y76372D01*
X214204Y76385D01*
X214104Y76395D01*
X214005Y76401D01*
X213905Y76403D01*
X155485Y76403D02*
X155385Y76401D01*
X155286Y76395D01*
X155186Y76385D01*
X155088Y76372D01*
X154989Y76354D01*
X154892Y76333D01*
X154796Y76308D01*
X154700Y76279D01*
X154606Y76246D01*
X154513Y76210D01*
X154422Y76170D01*
X154332Y76126D01*
X154244Y76079D01*
X154158Y76029D01*
X154074Y75975D01*
X153992Y75918D01*
X153913Y75858D01*
X153835Y75794D01*
X153761Y75728D01*
X153689Y75659D01*
X153620Y75587D01*
X153554Y75513D01*
X153490Y75435D01*
X153430Y75356D01*
X153373Y75274D01*
X153319Y75190D01*
X153269Y75104D01*
X153222Y75016D01*
X153178Y74926D01*
X153138Y74835D01*
X153102Y74742D01*
X153069Y74648D01*
X153040Y74552D01*
X153015Y74456D01*
X152994Y74359D01*
X152976Y74260D01*
X152963Y74162D01*
X152953Y74062D01*
X152947Y73963D01*
X152945Y73863D01*
X152945Y56083D02*
X152947Y55983D01*
X152953Y55884D01*
X152963Y55784D01*
X152976Y55686D01*
X152994Y55587D01*
X153015Y55490D01*
X153040Y55394D01*
X153069Y55298D01*
X153102Y55204D01*
X153138Y55111D01*
X153178Y55020D01*
X153222Y54930D01*
X153269Y54842D01*
X153319Y54756D01*
X153373Y54672D01*
X153430Y54590D01*
X153490Y54511D01*
X153554Y54433D01*
X153620Y54359D01*
X153689Y54287D01*
X153761Y54218D01*
X153835Y54152D01*
X153913Y54088D01*
X153992Y54028D01*
X154074Y53971D01*
X154158Y53917D01*
X154244Y53867D01*
X154332Y53820D01*
X154422Y53776D01*
X154513Y53736D01*
X154606Y53700D01*
X154700Y53667D01*
X154796Y53638D01*
X154892Y53613D01*
X154989Y53592D01*
X155088Y53574D01*
X155186Y53561D01*
X155286Y53551D01*
X155385Y53545D01*
X155485Y53543D01*
X216445Y56083D02*
X216445Y73863D01*
X213905Y53543D02*
X210095Y53543D01*
X208825Y54813D01*
X210095Y76403D02*
X213905Y76403D01*
X210095Y76403D02*
X208825Y75133D01*
X160565Y54813D02*
X159295Y53543D01*
X160565Y54813D02*
X208825Y54813D01*
X160565Y75133D02*
X159295Y76403D01*
X160565Y75133D02*
X208825Y75133D01*
X159295Y53543D02*
X155485Y53543D01*
X155485Y76403D02*
X159295Y76403D01*
X152945Y73863D02*
X152945Y56083D01*
D12*
X148627Y64973D03*
X220763Y64973D03*
D11*
X196843Y49098D02*
X196843Y37668D01*
X196843Y49098D02*
X200018Y49098D01*
X200129Y49096D01*
X200239Y49090D01*
X200350Y49081D01*
X200460Y49067D01*
X200569Y49050D01*
X200678Y49029D01*
X200786Y49004D01*
X200893Y48975D01*
X200999Y48943D01*
X201104Y48907D01*
X201207Y48867D01*
X201309Y48824D01*
X201410Y48777D01*
X201509Y48726D01*
X201606Y48673D01*
X201700Y48616D01*
X201793Y48555D01*
X201884Y48492D01*
X201973Y48425D01*
X202059Y48355D01*
X202142Y48282D01*
X202224Y48207D01*
X202302Y48129D01*
X202377Y48047D01*
X202450Y47964D01*
X202520Y47878D01*
X202587Y47789D01*
X202650Y47698D01*
X202711Y47605D01*
X202768Y47510D01*
X202821Y47414D01*
X202872Y47315D01*
X202919Y47214D01*
X202962Y47112D01*
X203002Y47009D01*
X203038Y46904D01*
X203070Y46798D01*
X203099Y46691D01*
X203124Y46583D01*
X203145Y46474D01*
X203162Y46365D01*
X203176Y46255D01*
X203185Y46144D01*
X203191Y46034D01*
X203193Y45923D01*
X203191Y45812D01*
X203185Y45702D01*
X203176Y45591D01*
X203162Y45481D01*
X203145Y45372D01*
X203124Y45263D01*
X203099Y45155D01*
X203070Y45048D01*
X203038Y44942D01*
X203002Y44837D01*
X202962Y44734D01*
X202919Y44632D01*
X202872Y44531D01*
X202821Y44432D01*
X202768Y44335D01*
X202711Y44241D01*
X202650Y44148D01*
X202587Y44057D01*
X202520Y43968D01*
X202450Y43882D01*
X202377Y43799D01*
X202302Y43717D01*
X202224Y43639D01*
X202142Y43564D01*
X202059Y43491D01*
X201973Y43421D01*
X201884Y43354D01*
X201793Y43291D01*
X201700Y43230D01*
X201605Y43173D01*
X201509Y43120D01*
X201410Y43069D01*
X201309Y43022D01*
X201207Y42979D01*
X201104Y42939D01*
X200999Y42903D01*
X200893Y42871D01*
X200786Y42842D01*
X200678Y42817D01*
X200569Y42796D01*
X200460Y42779D01*
X200350Y42765D01*
X200239Y42756D01*
X200129Y42750D01*
X200018Y42748D01*
X196843Y42748D01*
X200653Y42748D02*
X203193Y37668D01*
X208190Y37668D02*
X211365Y37668D01*
X211476Y37670D01*
X211586Y37676D01*
X211697Y37685D01*
X211807Y37699D01*
X211916Y37716D01*
X212025Y37737D01*
X212133Y37762D01*
X212240Y37791D01*
X212346Y37823D01*
X212451Y37859D01*
X212554Y37899D01*
X212656Y37942D01*
X212757Y37989D01*
X212856Y38040D01*
X212952Y38093D01*
X213047Y38150D01*
X213140Y38211D01*
X213231Y38274D01*
X213320Y38341D01*
X213406Y38411D01*
X213489Y38484D01*
X213571Y38559D01*
X213649Y38637D01*
X213724Y38719D01*
X213797Y38802D01*
X213867Y38888D01*
X213934Y38977D01*
X213997Y39068D01*
X214058Y39161D01*
X214115Y39255D01*
X214168Y39352D01*
X214219Y39451D01*
X214266Y39552D01*
X214309Y39654D01*
X214349Y39757D01*
X214385Y39862D01*
X214417Y39968D01*
X214446Y40075D01*
X214471Y40183D01*
X214492Y40292D01*
X214509Y40401D01*
X214523Y40511D01*
X214532Y40622D01*
X214538Y40732D01*
X214540Y40843D01*
X214538Y40954D01*
X214532Y41064D01*
X214523Y41175D01*
X214509Y41285D01*
X214492Y41394D01*
X214471Y41503D01*
X214446Y41611D01*
X214417Y41718D01*
X214385Y41824D01*
X214349Y41929D01*
X214309Y42032D01*
X214266Y42134D01*
X214219Y42235D01*
X214168Y42334D01*
X214115Y42430D01*
X214058Y42525D01*
X213997Y42618D01*
X213934Y42709D01*
X213867Y42798D01*
X213797Y42884D01*
X213724Y42967D01*
X213649Y43049D01*
X213571Y43127D01*
X213489Y43202D01*
X213406Y43275D01*
X213320Y43345D01*
X213231Y43412D01*
X213140Y43475D01*
X213047Y43536D01*
X212953Y43593D01*
X212856Y43646D01*
X212757Y43697D01*
X212656Y43744D01*
X212554Y43787D01*
X212451Y43827D01*
X212346Y43863D01*
X212240Y43895D01*
X212133Y43924D01*
X212025Y43949D01*
X211916Y43970D01*
X211807Y43987D01*
X211697Y44001D01*
X211586Y44010D01*
X211476Y44016D01*
X211365Y44018D01*
X212000Y49098D02*
X208190Y49098D01*
X212000Y49098D02*
X212100Y49096D01*
X212199Y49090D01*
X212299Y49080D01*
X212397Y49067D01*
X212496Y49049D01*
X212593Y49028D01*
X212689Y49003D01*
X212785Y48974D01*
X212879Y48941D01*
X212972Y48905D01*
X213063Y48865D01*
X213153Y48821D01*
X213241Y48774D01*
X213327Y48724D01*
X213411Y48670D01*
X213493Y48613D01*
X213572Y48553D01*
X213650Y48489D01*
X213724Y48423D01*
X213796Y48354D01*
X213865Y48282D01*
X213931Y48208D01*
X213995Y48130D01*
X214055Y48051D01*
X214112Y47969D01*
X214166Y47885D01*
X214216Y47799D01*
X214263Y47711D01*
X214307Y47621D01*
X214347Y47530D01*
X214383Y47437D01*
X214416Y47343D01*
X214445Y47247D01*
X214470Y47151D01*
X214491Y47054D01*
X214509Y46955D01*
X214522Y46857D01*
X214532Y46757D01*
X214538Y46658D01*
X214540Y46558D01*
X214538Y46458D01*
X214532Y46359D01*
X214522Y46259D01*
X214509Y46161D01*
X214491Y46062D01*
X214470Y45965D01*
X214445Y45869D01*
X214416Y45773D01*
X214383Y45679D01*
X214347Y45586D01*
X214307Y45495D01*
X214263Y45405D01*
X214216Y45317D01*
X214166Y45231D01*
X214112Y45147D01*
X214055Y45065D01*
X213995Y44986D01*
X213931Y44908D01*
X213865Y44834D01*
X213796Y44762D01*
X213724Y44693D01*
X213650Y44627D01*
X213572Y44563D01*
X213493Y44503D01*
X213411Y44446D01*
X213327Y44392D01*
X213241Y44342D01*
X213153Y44295D01*
X213063Y44251D01*
X212972Y44211D01*
X212879Y44175D01*
X212785Y44142D01*
X212689Y44113D01*
X212593Y44088D01*
X212496Y44067D01*
X212397Y44049D01*
X212299Y44036D01*
X212199Y44026D01*
X212100Y44020D01*
X212000Y44018D01*
X209460Y44018D01*
D10*
X217429Y26858D02*
X217427Y26758D01*
X217421Y26659D01*
X217411Y26559D01*
X217398Y26461D01*
X217380Y26362D01*
X217359Y26265D01*
X217334Y26169D01*
X217305Y26073D01*
X217272Y25979D01*
X217236Y25886D01*
X217196Y25795D01*
X217152Y25705D01*
X217105Y25617D01*
X217055Y25531D01*
X217001Y25447D01*
X216944Y25365D01*
X216884Y25286D01*
X216820Y25208D01*
X216754Y25134D01*
X216685Y25062D01*
X216613Y24993D01*
X216539Y24927D01*
X216461Y24863D01*
X216382Y24803D01*
X216300Y24746D01*
X216216Y24692D01*
X216130Y24642D01*
X216042Y24595D01*
X215952Y24551D01*
X215861Y24511D01*
X215768Y24475D01*
X215674Y24442D01*
X215578Y24413D01*
X215482Y24388D01*
X215385Y24367D01*
X215286Y24349D01*
X215188Y24336D01*
X215088Y24326D01*
X214989Y24320D01*
X214889Y24318D01*
X217429Y44638D02*
X217427Y44738D01*
X217421Y44837D01*
X217411Y44937D01*
X217398Y45035D01*
X217380Y45134D01*
X217359Y45231D01*
X217334Y45327D01*
X217305Y45423D01*
X217272Y45517D01*
X217236Y45610D01*
X217196Y45701D01*
X217152Y45791D01*
X217105Y45879D01*
X217055Y45965D01*
X217001Y46049D01*
X216944Y46131D01*
X216884Y46210D01*
X216820Y46288D01*
X216754Y46362D01*
X216685Y46434D01*
X216613Y46503D01*
X216539Y46569D01*
X216461Y46633D01*
X216382Y46693D01*
X216300Y46750D01*
X216216Y46804D01*
X216130Y46854D01*
X216042Y46901D01*
X215952Y46945D01*
X215861Y46985D01*
X215768Y47021D01*
X215674Y47054D01*
X215578Y47083D01*
X215482Y47108D01*
X215385Y47129D01*
X215286Y47147D01*
X215188Y47160D01*
X215088Y47170D01*
X214989Y47176D01*
X214889Y47178D01*
X156469Y47178D02*
X156369Y47176D01*
X156270Y47170D01*
X156170Y47160D01*
X156072Y47147D01*
X155973Y47129D01*
X155876Y47108D01*
X155780Y47083D01*
X155684Y47054D01*
X155590Y47021D01*
X155497Y46985D01*
X155406Y46945D01*
X155316Y46901D01*
X155228Y46854D01*
X155142Y46804D01*
X155058Y46750D01*
X154976Y46693D01*
X154897Y46633D01*
X154819Y46569D01*
X154745Y46503D01*
X154673Y46434D01*
X154604Y46362D01*
X154538Y46288D01*
X154474Y46210D01*
X154414Y46131D01*
X154357Y46049D01*
X154303Y45965D01*
X154253Y45879D01*
X154206Y45791D01*
X154162Y45701D01*
X154122Y45610D01*
X154086Y45517D01*
X154053Y45423D01*
X154024Y45327D01*
X153999Y45231D01*
X153978Y45134D01*
X153960Y45035D01*
X153947Y44937D01*
X153937Y44837D01*
X153931Y44738D01*
X153929Y44638D01*
X153929Y26858D02*
X153931Y26758D01*
X153937Y26659D01*
X153947Y26559D01*
X153960Y26461D01*
X153978Y26362D01*
X153999Y26265D01*
X154024Y26169D01*
X154053Y26073D01*
X154086Y25979D01*
X154122Y25886D01*
X154162Y25795D01*
X154206Y25705D01*
X154253Y25617D01*
X154303Y25531D01*
X154357Y25447D01*
X154414Y25365D01*
X154474Y25286D01*
X154538Y25208D01*
X154604Y25134D01*
X154673Y25062D01*
X154745Y24993D01*
X154819Y24927D01*
X154897Y24863D01*
X154976Y24803D01*
X155058Y24746D01*
X155142Y24692D01*
X155228Y24642D01*
X155316Y24595D01*
X155406Y24551D01*
X155497Y24511D01*
X155590Y24475D01*
X155684Y24442D01*
X155780Y24413D01*
X155876Y24388D01*
X155973Y24367D01*
X156072Y24349D01*
X156170Y24336D01*
X156270Y24326D01*
X156369Y24320D01*
X156469Y24318D01*
X217429Y26858D02*
X217429Y44638D01*
X214889Y24318D02*
X211079Y24318D01*
X209809Y25588D01*
X211079Y47178D02*
X214889Y47178D01*
X211079Y47178D02*
X209809Y45908D01*
X161549Y25588D02*
X160279Y24318D01*
X161549Y25588D02*
X209809Y25588D01*
X161549Y45908D02*
X160279Y47178D01*
X161549Y45908D02*
X209809Y45908D01*
X160279Y24318D02*
X156469Y24318D01*
X156469Y47178D02*
X160279Y47178D01*
X153929Y44638D02*
X153929Y26858D01*
D12*
X149611Y35748D03*
X221747Y35748D03*
D11*
X197827Y19873D02*
X197827Y8443D01*
X197827Y19873D02*
X201002Y19873D01*
X201113Y19871D01*
X201223Y19865D01*
X201334Y19856D01*
X201444Y19842D01*
X201553Y19825D01*
X201662Y19804D01*
X201770Y19779D01*
X201877Y19750D01*
X201983Y19718D01*
X202088Y19682D01*
X202191Y19642D01*
X202293Y19599D01*
X202394Y19552D01*
X202493Y19501D01*
X202590Y19448D01*
X202684Y19391D01*
X202777Y19330D01*
X202868Y19267D01*
X202957Y19200D01*
X203043Y19130D01*
X203126Y19057D01*
X203208Y18982D01*
X203286Y18904D01*
X203361Y18822D01*
X203434Y18739D01*
X203504Y18653D01*
X203571Y18564D01*
X203634Y18473D01*
X203695Y18380D01*
X203752Y18285D01*
X203805Y18189D01*
X203856Y18090D01*
X203903Y17989D01*
X203946Y17887D01*
X203986Y17784D01*
X204022Y17679D01*
X204054Y17573D01*
X204083Y17466D01*
X204108Y17358D01*
X204129Y17249D01*
X204146Y17140D01*
X204160Y17030D01*
X204169Y16919D01*
X204175Y16809D01*
X204177Y16698D01*
X204175Y16587D01*
X204169Y16477D01*
X204160Y16366D01*
X204146Y16256D01*
X204129Y16147D01*
X204108Y16038D01*
X204083Y15930D01*
X204054Y15823D01*
X204022Y15717D01*
X203986Y15612D01*
X203946Y15509D01*
X203903Y15407D01*
X203856Y15306D01*
X203805Y15207D01*
X203752Y15110D01*
X203695Y15016D01*
X203634Y14923D01*
X203571Y14832D01*
X203504Y14743D01*
X203434Y14657D01*
X203361Y14574D01*
X203286Y14492D01*
X203208Y14414D01*
X203126Y14339D01*
X203043Y14266D01*
X202957Y14196D01*
X202868Y14129D01*
X202777Y14066D01*
X202684Y14005D01*
X202589Y13948D01*
X202493Y13895D01*
X202394Y13844D01*
X202293Y13797D01*
X202191Y13754D01*
X202088Y13714D01*
X201983Y13678D01*
X201877Y13646D01*
X201770Y13617D01*
X201662Y13592D01*
X201553Y13571D01*
X201444Y13554D01*
X201334Y13540D01*
X201223Y13531D01*
X201113Y13525D01*
X201002Y13523D01*
X197827Y13523D01*
X201637Y13523D02*
X204177Y8443D01*
X209174Y10983D02*
X211714Y19873D01*
X209174Y10983D02*
X215524Y10983D01*
X213619Y13523D02*
X213619Y8443D01*
D10*
X260671Y29833D02*
X260671Y42533D01*
X267021Y48883D01*
X279721Y48883D01*
X286071Y42533D01*
X279721Y23483D02*
X267021Y23483D01*
X260671Y29833D01*
X279721Y23483D02*
X286071Y29833D01*
X286071Y42533D01*
X267021Y48883D02*
X260671Y55233D01*
X260671Y67933D01*
X267021Y74283D01*
X279721Y74283D01*
X286071Y67933D01*
X286071Y55233D01*
X279721Y48883D01*
D11*
X251908Y27166D02*
X243018Y27166D01*
X251908Y27166D02*
X252008Y27164D01*
X252107Y27158D01*
X252207Y27148D01*
X252305Y27135D01*
X252404Y27117D01*
X252501Y27096D01*
X252597Y27071D01*
X252693Y27042D01*
X252787Y27009D01*
X252880Y26973D01*
X252971Y26933D01*
X253061Y26889D01*
X253149Y26842D01*
X253235Y26792D01*
X253319Y26738D01*
X253401Y26681D01*
X253480Y26621D01*
X253558Y26557D01*
X253632Y26491D01*
X253704Y26422D01*
X253773Y26350D01*
X253839Y26276D01*
X253903Y26198D01*
X253963Y26119D01*
X254020Y26037D01*
X254074Y25953D01*
X254124Y25867D01*
X254171Y25779D01*
X254215Y25689D01*
X254255Y25598D01*
X254291Y25505D01*
X254324Y25411D01*
X254353Y25315D01*
X254378Y25219D01*
X254399Y25122D01*
X254417Y25023D01*
X254430Y24925D01*
X254440Y24825D01*
X254446Y24726D01*
X254448Y24626D01*
X254448Y23356D01*
X254448Y33146D02*
X243018Y33146D01*
X243018Y36321D01*
X243020Y36432D01*
X243026Y36542D01*
X243035Y36653D01*
X243049Y36763D01*
X243066Y36872D01*
X243087Y36981D01*
X243112Y37089D01*
X243141Y37196D01*
X243173Y37302D01*
X243209Y37407D01*
X243249Y37510D01*
X243292Y37612D01*
X243339Y37713D01*
X243390Y37812D01*
X243443Y37908D01*
X243500Y38003D01*
X243561Y38096D01*
X243624Y38187D01*
X243691Y38276D01*
X243761Y38362D01*
X243834Y38445D01*
X243909Y38527D01*
X243987Y38605D01*
X244069Y38680D01*
X244152Y38753D01*
X244238Y38823D01*
X244327Y38890D01*
X244418Y38953D01*
X244511Y39014D01*
X244606Y39071D01*
X244702Y39124D01*
X244801Y39175D01*
X244902Y39222D01*
X245004Y39265D01*
X245107Y39305D01*
X245212Y39341D01*
X245318Y39373D01*
X245425Y39402D01*
X245533Y39427D01*
X245642Y39448D01*
X245751Y39465D01*
X245861Y39479D01*
X245972Y39488D01*
X246082Y39494D01*
X246193Y39496D01*
X246304Y39494D01*
X246414Y39488D01*
X246525Y39479D01*
X246635Y39465D01*
X246744Y39448D01*
X246853Y39427D01*
X246961Y39402D01*
X247068Y39373D01*
X247174Y39341D01*
X247279Y39305D01*
X247382Y39265D01*
X247484Y39222D01*
X247585Y39175D01*
X247684Y39124D01*
X247781Y39071D01*
X247875Y39014D01*
X247968Y38953D01*
X248059Y38890D01*
X248148Y38823D01*
X248234Y38753D01*
X248317Y38680D01*
X248399Y38605D01*
X248477Y38527D01*
X248552Y38445D01*
X248625Y38362D01*
X248695Y38276D01*
X248762Y38187D01*
X248825Y38096D01*
X248886Y38003D01*
X248943Y37909D01*
X248996Y37812D01*
X249047Y37713D01*
X249094Y37612D01*
X249137Y37510D01*
X249177Y37407D01*
X249213Y37302D01*
X249245Y37196D01*
X249274Y37089D01*
X249299Y36981D01*
X249320Y36872D01*
X249337Y36763D01*
X249351Y36653D01*
X249360Y36542D01*
X249366Y36432D01*
X249368Y36321D01*
X249368Y33146D01*
X245558Y44005D02*
X243018Y47180D01*
X254448Y47180D01*
X254448Y44005D02*
X254448Y50355D01*
D10*
X83086Y21028D02*
X70386Y21028D01*
X64036Y27378D01*
X64036Y40078D01*
X70386Y46428D01*
X64036Y27378D02*
X57686Y21028D01*
X44986Y21028D01*
X38636Y27378D01*
X38636Y40078D01*
X44986Y46428D01*
X57686Y46428D01*
X64036Y40078D01*
X89436Y40078D02*
X89436Y27378D01*
X83086Y21028D01*
X89436Y40078D02*
X83086Y46428D01*
X70386Y46428D01*
X38636Y27378D02*
X32286Y21028D01*
X19586Y21028D01*
X13236Y27378D01*
X13236Y40078D01*
X19586Y46428D01*
X32286Y46428D01*
X38636Y40078D01*
D11*
X66375Y14805D02*
X66375Y5915D01*
X66373Y5815D01*
X66367Y5716D01*
X66357Y5616D01*
X66344Y5518D01*
X66326Y5419D01*
X66305Y5322D01*
X66280Y5226D01*
X66251Y5130D01*
X66218Y5036D01*
X66182Y4943D01*
X66142Y4852D01*
X66098Y4762D01*
X66051Y4674D01*
X66001Y4588D01*
X65947Y4504D01*
X65890Y4422D01*
X65830Y4343D01*
X65766Y4265D01*
X65700Y4191D01*
X65631Y4119D01*
X65559Y4050D01*
X65485Y3984D01*
X65407Y3920D01*
X65328Y3860D01*
X65246Y3803D01*
X65162Y3749D01*
X65076Y3699D01*
X64988Y3652D01*
X64898Y3608D01*
X64807Y3568D01*
X64714Y3532D01*
X64620Y3499D01*
X64524Y3470D01*
X64428Y3445D01*
X64331Y3424D01*
X64232Y3406D01*
X64134Y3393D01*
X64034Y3383D01*
X63935Y3377D01*
X63835Y3375D01*
X62565Y3375D01*
X72355Y3375D02*
X72355Y14805D01*
X75530Y14805D01*
X75641Y14803D01*
X75751Y14797D01*
X75862Y14788D01*
X75972Y14774D01*
X76081Y14757D01*
X76190Y14736D01*
X76298Y14711D01*
X76405Y14682D01*
X76511Y14650D01*
X76616Y14614D01*
X76719Y14574D01*
X76821Y14531D01*
X76922Y14484D01*
X77021Y14433D01*
X77118Y14380D01*
X77212Y14323D01*
X77305Y14262D01*
X77396Y14199D01*
X77485Y14132D01*
X77571Y14062D01*
X77654Y13989D01*
X77736Y13914D01*
X77814Y13836D01*
X77889Y13754D01*
X77962Y13671D01*
X78032Y13585D01*
X78099Y13496D01*
X78162Y13405D01*
X78223Y13312D01*
X78280Y13217D01*
X78333Y13121D01*
X78384Y13022D01*
X78431Y12921D01*
X78474Y12819D01*
X78514Y12716D01*
X78550Y12611D01*
X78582Y12505D01*
X78611Y12398D01*
X78636Y12290D01*
X78657Y12181D01*
X78674Y12072D01*
X78688Y11962D01*
X78697Y11851D01*
X78703Y11741D01*
X78705Y11630D01*
X78703Y11519D01*
X78697Y11409D01*
X78688Y11298D01*
X78674Y11188D01*
X78657Y11079D01*
X78636Y10970D01*
X78611Y10862D01*
X78582Y10755D01*
X78550Y10649D01*
X78514Y10544D01*
X78474Y10441D01*
X78431Y10339D01*
X78384Y10238D01*
X78333Y10139D01*
X78280Y10042D01*
X78223Y9948D01*
X78162Y9855D01*
X78099Y9764D01*
X78032Y9675D01*
X77962Y9589D01*
X77889Y9506D01*
X77814Y9424D01*
X77736Y9346D01*
X77654Y9271D01*
X77571Y9198D01*
X77485Y9128D01*
X77396Y9061D01*
X77305Y8998D01*
X77212Y8937D01*
X77117Y8880D01*
X77021Y8827D01*
X76922Y8776D01*
X76821Y8729D01*
X76719Y8686D01*
X76616Y8646D01*
X76511Y8610D01*
X76405Y8578D01*
X76298Y8549D01*
X76190Y8524D01*
X76081Y8503D01*
X75972Y8486D01*
X75862Y8472D01*
X75751Y8463D01*
X75641Y8457D01*
X75530Y8455D01*
X72355Y8455D01*
X86706Y14806D02*
X86810Y14804D01*
X86915Y14798D01*
X87019Y14789D01*
X87122Y14776D01*
X87225Y14758D01*
X87327Y14738D01*
X87429Y14713D01*
X87529Y14685D01*
X87629Y14653D01*
X87727Y14617D01*
X87824Y14578D01*
X87919Y14536D01*
X88013Y14490D01*
X88105Y14440D01*
X88195Y14388D01*
X88283Y14332D01*
X88369Y14272D01*
X88453Y14210D01*
X88534Y14145D01*
X88613Y14077D01*
X88690Y14005D01*
X88763Y13932D01*
X88835Y13855D01*
X88903Y13776D01*
X88968Y13695D01*
X89030Y13611D01*
X89090Y13525D01*
X89146Y13437D01*
X89198Y13347D01*
X89248Y13255D01*
X89294Y13161D01*
X89336Y13066D01*
X89375Y12969D01*
X89411Y12871D01*
X89443Y12771D01*
X89471Y12671D01*
X89496Y12569D01*
X89516Y12467D01*
X89534Y12364D01*
X89547Y12261D01*
X89556Y12157D01*
X89562Y12052D01*
X89564Y11948D01*
X86706Y14805D02*
X86588Y14803D01*
X86469Y14797D01*
X86351Y14788D01*
X86234Y14775D01*
X86117Y14757D01*
X86000Y14737D01*
X85884Y14712D01*
X85769Y14684D01*
X85656Y14651D01*
X85543Y14616D01*
X85431Y14576D01*
X85321Y14534D01*
X85212Y14487D01*
X85104Y14437D01*
X84999Y14384D01*
X84895Y14327D01*
X84793Y14267D01*
X84693Y14204D01*
X84595Y14137D01*
X84499Y14068D01*
X84406Y13995D01*
X84315Y13919D01*
X84226Y13841D01*
X84140Y13759D01*
X84057Y13675D01*
X83976Y13589D01*
X83899Y13499D01*
X83824Y13408D01*
X83752Y13314D01*
X83683Y13217D01*
X83618Y13119D01*
X83555Y13018D01*
X83496Y12915D01*
X83440Y12811D01*
X83388Y12705D01*
X83339Y12597D01*
X83294Y12488D01*
X83252Y12377D01*
X83214Y12265D01*
X88611Y9726D02*
X88687Y9801D01*
X88762Y9880D01*
X88833Y9961D01*
X88902Y10045D01*
X88967Y10131D01*
X89029Y10219D01*
X89089Y10309D01*
X89145Y10401D01*
X89198Y10496D01*
X89247Y10592D01*
X89293Y10690D01*
X89336Y10789D01*
X89375Y10890D01*
X89410Y10992D01*
X89442Y11095D01*
X89470Y11199D01*
X89495Y11304D01*
X89516Y11411D01*
X89533Y11517D01*
X89546Y11624D01*
X89555Y11732D01*
X89561Y11840D01*
X89563Y11948D01*
X88611Y9725D02*
X83213Y3375D01*
X89563Y3375D01*
D10*
X281785Y154853D02*
X281785Y167553D01*
X281785Y154853D02*
X275435Y148503D01*
X262735Y148503D01*
X256385Y154853D01*
X262735Y173903D02*
X275435Y173903D01*
X281785Y167553D01*
X262735Y173903D02*
X256385Y167553D01*
X256385Y154853D01*
X275435Y148503D02*
X281785Y142153D01*
X281785Y129453D01*
X275435Y123103D01*
X262735Y123103D01*
X256385Y129453D01*
X256385Y142153D01*
X262735Y148503D01*
D11*
X288008Y150841D02*
X296898Y150841D01*
X296998Y150839D01*
X297097Y150833D01*
X297197Y150823D01*
X297295Y150810D01*
X297394Y150792D01*
X297491Y150771D01*
X297587Y150746D01*
X297683Y150717D01*
X297777Y150684D01*
X297870Y150648D01*
X297961Y150608D01*
X298051Y150564D01*
X298139Y150517D01*
X298225Y150467D01*
X298309Y150413D01*
X298391Y150356D01*
X298470Y150296D01*
X298548Y150232D01*
X298622Y150166D01*
X298694Y150097D01*
X298763Y150025D01*
X298829Y149951D01*
X298893Y149873D01*
X298953Y149794D01*
X299010Y149712D01*
X299064Y149628D01*
X299114Y149542D01*
X299161Y149454D01*
X299205Y149364D01*
X299245Y149273D01*
X299281Y149180D01*
X299314Y149086D01*
X299343Y148990D01*
X299368Y148894D01*
X299389Y148797D01*
X299407Y148698D01*
X299420Y148600D01*
X299430Y148500D01*
X299436Y148401D01*
X299438Y148301D01*
X299438Y147031D01*
X299438Y156821D02*
X288008Y156821D01*
X288008Y159996D01*
X288010Y160107D01*
X288016Y160217D01*
X288025Y160328D01*
X288039Y160438D01*
X288056Y160547D01*
X288077Y160656D01*
X288102Y160764D01*
X288131Y160871D01*
X288163Y160977D01*
X288199Y161082D01*
X288239Y161185D01*
X288282Y161287D01*
X288329Y161388D01*
X288380Y161487D01*
X288433Y161584D01*
X288490Y161678D01*
X288551Y161771D01*
X288614Y161862D01*
X288681Y161951D01*
X288751Y162037D01*
X288824Y162120D01*
X288899Y162202D01*
X288977Y162280D01*
X289059Y162355D01*
X289142Y162428D01*
X289228Y162498D01*
X289317Y162565D01*
X289408Y162628D01*
X289501Y162689D01*
X289596Y162746D01*
X289692Y162799D01*
X289791Y162850D01*
X289892Y162897D01*
X289994Y162940D01*
X290097Y162980D01*
X290202Y163016D01*
X290308Y163048D01*
X290415Y163077D01*
X290523Y163102D01*
X290632Y163123D01*
X290741Y163140D01*
X290851Y163154D01*
X290962Y163163D01*
X291072Y163169D01*
X291183Y163171D01*
X291294Y163169D01*
X291404Y163163D01*
X291515Y163154D01*
X291625Y163140D01*
X291734Y163123D01*
X291843Y163102D01*
X291951Y163077D01*
X292058Y163048D01*
X292164Y163016D01*
X292269Y162980D01*
X292372Y162940D01*
X292474Y162897D01*
X292575Y162850D01*
X292674Y162799D01*
X292771Y162746D01*
X292865Y162689D01*
X292958Y162628D01*
X293049Y162565D01*
X293138Y162498D01*
X293224Y162428D01*
X293307Y162355D01*
X293389Y162280D01*
X293467Y162202D01*
X293542Y162120D01*
X293615Y162037D01*
X293685Y161951D01*
X293752Y161862D01*
X293815Y161771D01*
X293876Y161678D01*
X293933Y161584D01*
X293986Y161487D01*
X294037Y161388D01*
X294084Y161287D01*
X294127Y161185D01*
X294167Y161082D01*
X294203Y160977D01*
X294235Y160871D01*
X294264Y160764D01*
X294289Y160656D01*
X294310Y160547D01*
X294327Y160438D01*
X294341Y160328D01*
X294350Y160217D01*
X294356Y160107D01*
X294358Y159996D01*
X294358Y156821D01*
X299438Y167680D02*
X299438Y170855D01*
X299436Y170966D01*
X299430Y171076D01*
X299421Y171187D01*
X299407Y171297D01*
X299390Y171406D01*
X299369Y171515D01*
X299344Y171623D01*
X299315Y171730D01*
X299283Y171836D01*
X299247Y171941D01*
X299207Y172044D01*
X299164Y172146D01*
X299117Y172247D01*
X299066Y172346D01*
X299013Y172443D01*
X298956Y172537D01*
X298895Y172630D01*
X298832Y172721D01*
X298765Y172810D01*
X298695Y172896D01*
X298622Y172979D01*
X298547Y173061D01*
X298469Y173139D01*
X298387Y173214D01*
X298304Y173287D01*
X298218Y173357D01*
X298129Y173424D01*
X298038Y173487D01*
X297945Y173548D01*
X297851Y173605D01*
X297754Y173658D01*
X297655Y173709D01*
X297554Y173756D01*
X297452Y173799D01*
X297349Y173839D01*
X297244Y173875D01*
X297138Y173907D01*
X297031Y173936D01*
X296923Y173961D01*
X296814Y173982D01*
X296705Y173999D01*
X296595Y174013D01*
X296484Y174022D01*
X296374Y174028D01*
X296263Y174030D01*
X296152Y174028D01*
X296042Y174022D01*
X295931Y174013D01*
X295821Y173999D01*
X295712Y173982D01*
X295603Y173961D01*
X295495Y173936D01*
X295388Y173907D01*
X295282Y173875D01*
X295177Y173839D01*
X295074Y173799D01*
X294972Y173756D01*
X294871Y173709D01*
X294772Y173658D01*
X294676Y173605D01*
X294581Y173548D01*
X294488Y173487D01*
X294397Y173424D01*
X294308Y173357D01*
X294222Y173287D01*
X294139Y173214D01*
X294057Y173139D01*
X293979Y173061D01*
X293904Y172979D01*
X293831Y172896D01*
X293761Y172810D01*
X293694Y172721D01*
X293631Y172630D01*
X293570Y172537D01*
X293513Y172443D01*
X293460Y172346D01*
X293409Y172247D01*
X293362Y172146D01*
X293319Y172044D01*
X293279Y171941D01*
X293243Y171836D01*
X293211Y171730D01*
X293182Y171623D01*
X293157Y171515D01*
X293136Y171406D01*
X293119Y171297D01*
X293105Y171187D01*
X293096Y171076D01*
X293090Y170966D01*
X293088Y170855D01*
X288008Y171490D02*
X288008Y167680D01*
X288008Y171490D02*
X288010Y171590D01*
X288016Y171689D01*
X288026Y171789D01*
X288039Y171887D01*
X288057Y171986D01*
X288078Y172083D01*
X288103Y172179D01*
X288132Y172275D01*
X288165Y172369D01*
X288201Y172462D01*
X288241Y172553D01*
X288285Y172643D01*
X288332Y172731D01*
X288382Y172817D01*
X288436Y172901D01*
X288493Y172983D01*
X288553Y173062D01*
X288617Y173140D01*
X288683Y173214D01*
X288752Y173286D01*
X288824Y173355D01*
X288898Y173421D01*
X288976Y173485D01*
X289055Y173545D01*
X289137Y173602D01*
X289221Y173656D01*
X289307Y173706D01*
X289395Y173753D01*
X289485Y173797D01*
X289576Y173837D01*
X289669Y173873D01*
X289763Y173906D01*
X289859Y173935D01*
X289955Y173960D01*
X290052Y173981D01*
X290151Y173999D01*
X290249Y174012D01*
X290349Y174022D01*
X290448Y174028D01*
X290548Y174030D01*
X290648Y174028D01*
X290747Y174022D01*
X290847Y174012D01*
X290945Y173999D01*
X291044Y173981D01*
X291141Y173960D01*
X291237Y173935D01*
X291333Y173906D01*
X291427Y173873D01*
X291520Y173837D01*
X291611Y173797D01*
X291701Y173753D01*
X291789Y173706D01*
X291875Y173656D01*
X291959Y173602D01*
X292041Y173545D01*
X292120Y173485D01*
X292198Y173421D01*
X292272Y173355D01*
X292344Y173286D01*
X292413Y173214D01*
X292479Y173140D01*
X292543Y173062D01*
X292603Y172983D01*
X292660Y172901D01*
X292714Y172817D01*
X292764Y172731D01*
X292811Y172643D01*
X292855Y172553D01*
X292895Y172462D01*
X292931Y172369D01*
X292964Y172275D01*
X292993Y172179D01*
X293018Y172083D01*
X293039Y171986D01*
X293057Y171887D01*
X293070Y171789D01*
X293080Y171689D01*
X293086Y171590D01*
X293088Y171490D01*
X293088Y168950D01*
M02*
