M48
;GenerationSoftware,Autodesk,EAGLE,9.6.2*%
;CreationDate,2023-11-14T13:42:36Z*%
FMAT,2
ICI,OFF
METRIC,TZ,000.000
T3C0.813
T2C1.016
T1C1.194
%
G90
M71
T1
X7225Y23648
X7225Y18648
X23384Y5670
X18384Y5670
X13384Y5670
X29126Y18730
X29126Y23730
T2
X6836Y13105
X6836Y10565
X28785Y13197
X28785Y10657
T3
X14175Y30182
X14175Y27642
X14175Y14942
X14175Y12402
X14175Y25102
X14175Y22562
X14175Y17482
X14175Y20022
X21795Y12402
X21795Y14942
X21795Y17482
X21795Y20022
X21795Y22562
X21795Y25102
X21795Y27642
X21795Y30182
X26449Y31123
X28965Y31468
X2947Y31742
X10567Y31742
M30