M48
;GenerationSoftware,Autodesk,EAGLE,9.6.2*%
;CreationDate,2023-11-14T13:48:22Z*%
FMAT,2
ICI,OFF
METRIC,TZ,000.000
T2C0.813
T1C1.016
%
G90
M71
T1
X27337Y3618
X27337Y6158
X7674Y3373
X5134Y3373
X2594Y3373
X26908Y16120
X26908Y13580
T2
X17432Y13223
X17432Y16779
X9723Y7145
X9723Y9685
X2103Y9685
X2103Y7145
X9723Y12225
X9723Y14765
X2103Y12225
X2103Y14765
X12276Y17716
X2116Y17716
X13225Y9229
X23385Y9229
X23549Y6497
X13389Y6497
X23648Y3575
X13488Y3575
M30