G04 EAGLE Gerber RS-274X export*
G75*
%MOMM*%
%FSLAX34Y34*%
%LPD*%
%INSilkscreen Top*%
%IPPOS*%
%AMOC8*
5,1,8,0,0,1.08239X$1,22.5*%
G01*
%ADD10C,0.152400*%
%ADD11C,0.127000*%
%ADD12C,0.203200*%
%ADD13C,0.254000*%
%ADD14R,0.381000X0.508000*%
%ADD15C,0.101600*%


D10*
X209064Y111316D02*
X209064Y314516D01*
X150644Y314516D02*
X150644Y111316D01*
X209064Y111316D01*
X209064Y314516D02*
X190014Y314516D01*
X169694Y314516D02*
X150644Y314516D01*
X169694Y314516D02*
X169697Y314269D01*
X169706Y314021D01*
X169721Y313774D01*
X169742Y313528D01*
X169769Y313282D01*
X169802Y313037D01*
X169841Y312792D01*
X169886Y312549D01*
X169937Y312307D01*
X169994Y312066D01*
X170056Y311827D01*
X170125Y311589D01*
X170199Y311353D01*
X170279Y311119D01*
X170364Y310887D01*
X170456Y310657D01*
X170552Y310429D01*
X170655Y310204D01*
X170762Y309981D01*
X170876Y309761D01*
X170994Y309544D01*
X171118Y309329D01*
X171247Y309118D01*
X171381Y308910D01*
X171520Y308705D01*
X171664Y308504D01*
X171812Y308306D01*
X171966Y308112D01*
X172124Y307922D01*
X172287Y307736D01*
X172454Y307554D01*
X172626Y307376D01*
X172802Y307202D01*
X172982Y307032D01*
X173167Y306867D01*
X173355Y306707D01*
X173547Y306551D01*
X173743Y306399D01*
X173942Y306253D01*
X174145Y306111D01*
X174352Y305975D01*
X174561Y305843D01*
X174774Y305717D01*
X174990Y305596D01*
X175208Y305480D01*
X175430Y305370D01*
X175654Y305265D01*
X175880Y305165D01*
X176109Y305071D01*
X176340Y304983D01*
X176574Y304900D01*
X176809Y304823D01*
X177046Y304752D01*
X177284Y304686D01*
X177524Y304627D01*
X177766Y304573D01*
X178009Y304525D01*
X178252Y304483D01*
X178497Y304447D01*
X178743Y304417D01*
X178989Y304393D01*
X179236Y304375D01*
X179483Y304363D01*
X179730Y304357D01*
X179978Y304357D01*
X180225Y304363D01*
X180472Y304375D01*
X180719Y304393D01*
X180965Y304417D01*
X181211Y304447D01*
X181456Y304483D01*
X181699Y304525D01*
X181942Y304573D01*
X182184Y304627D01*
X182424Y304686D01*
X182662Y304752D01*
X182899Y304823D01*
X183134Y304900D01*
X183368Y304983D01*
X183599Y305071D01*
X183828Y305165D01*
X184054Y305265D01*
X184278Y305370D01*
X184500Y305480D01*
X184718Y305596D01*
X184934Y305717D01*
X185147Y305843D01*
X185356Y305975D01*
X185563Y306111D01*
X185766Y306253D01*
X185965Y306399D01*
X186161Y306551D01*
X186353Y306707D01*
X186541Y306867D01*
X186726Y307032D01*
X186906Y307202D01*
X187082Y307376D01*
X187254Y307554D01*
X187421Y307736D01*
X187584Y307922D01*
X187742Y308112D01*
X187896Y308306D01*
X188044Y308504D01*
X188188Y308705D01*
X188327Y308910D01*
X188461Y309118D01*
X188590Y309329D01*
X188714Y309544D01*
X188832Y309761D01*
X188946Y309981D01*
X189053Y310204D01*
X189156Y310429D01*
X189252Y310657D01*
X189344Y310887D01*
X189429Y311119D01*
X189509Y311353D01*
X189583Y311589D01*
X189652Y311827D01*
X189714Y312066D01*
X189771Y312307D01*
X189822Y312549D01*
X189867Y312792D01*
X189906Y313037D01*
X189939Y313282D01*
X189966Y313528D01*
X189987Y313774D01*
X190002Y314021D01*
X190011Y314269D01*
X190014Y314516D01*
D11*
X152549Y318961D02*
X152549Y330391D01*
X151279Y318961D02*
X153819Y318961D01*
X153819Y330391D02*
X151279Y330391D01*
X161021Y318961D02*
X163561Y318961D01*
X161021Y318961D02*
X160921Y318963D01*
X160822Y318969D01*
X160722Y318979D01*
X160624Y318992D01*
X160525Y319010D01*
X160428Y319031D01*
X160332Y319056D01*
X160236Y319085D01*
X160142Y319118D01*
X160049Y319154D01*
X159958Y319194D01*
X159868Y319238D01*
X159780Y319285D01*
X159694Y319335D01*
X159610Y319389D01*
X159528Y319446D01*
X159449Y319506D01*
X159371Y319570D01*
X159297Y319636D01*
X159225Y319705D01*
X159156Y319777D01*
X159090Y319851D01*
X159026Y319929D01*
X158966Y320008D01*
X158909Y320090D01*
X158855Y320174D01*
X158805Y320260D01*
X158758Y320348D01*
X158714Y320438D01*
X158674Y320529D01*
X158638Y320622D01*
X158605Y320716D01*
X158576Y320812D01*
X158551Y320908D01*
X158530Y321005D01*
X158512Y321104D01*
X158499Y321202D01*
X158489Y321302D01*
X158483Y321401D01*
X158481Y321501D01*
X158481Y327851D01*
X158483Y327951D01*
X158489Y328050D01*
X158499Y328150D01*
X158512Y328248D01*
X158530Y328347D01*
X158551Y328444D01*
X158576Y328540D01*
X158605Y328636D01*
X158638Y328730D01*
X158674Y328823D01*
X158714Y328914D01*
X158758Y329004D01*
X158805Y329092D01*
X158855Y329178D01*
X158909Y329262D01*
X158966Y329344D01*
X159026Y329423D01*
X159090Y329501D01*
X159156Y329575D01*
X159225Y329647D01*
X159297Y329716D01*
X159371Y329782D01*
X159449Y329846D01*
X159528Y329906D01*
X159610Y329963D01*
X159694Y330017D01*
X159780Y330067D01*
X159868Y330114D01*
X159958Y330158D01*
X160049Y330198D01*
X160142Y330234D01*
X160236Y330267D01*
X160332Y330296D01*
X160428Y330321D01*
X160525Y330342D01*
X160624Y330360D01*
X160722Y330373D01*
X160822Y330383D01*
X160921Y330389D01*
X161021Y330391D01*
X163561Y330391D01*
X168043Y327851D02*
X171218Y330391D01*
X171218Y318961D01*
X168043Y318961D02*
X174393Y318961D01*
D10*
X81064Y137403D02*
X81064Y124703D01*
X74714Y118353D01*
X62014Y118353D01*
X55664Y124703D01*
X62014Y143753D02*
X74714Y143753D01*
X81064Y137403D01*
X62014Y143753D02*
X55664Y137403D01*
X55664Y124703D01*
X74714Y118353D02*
X81064Y112003D01*
X81064Y99303D01*
X74714Y92953D01*
X62014Y92953D01*
X55664Y99303D01*
X55664Y112003D01*
X62014Y118353D01*
D11*
X87287Y120691D02*
X96177Y120691D01*
X96277Y120689D01*
X96376Y120683D01*
X96476Y120673D01*
X96574Y120660D01*
X96673Y120642D01*
X96770Y120621D01*
X96866Y120596D01*
X96962Y120567D01*
X97056Y120534D01*
X97149Y120498D01*
X97240Y120458D01*
X97330Y120414D01*
X97418Y120367D01*
X97504Y120317D01*
X97588Y120263D01*
X97670Y120206D01*
X97749Y120146D01*
X97827Y120082D01*
X97901Y120016D01*
X97973Y119947D01*
X98042Y119875D01*
X98108Y119801D01*
X98172Y119723D01*
X98232Y119644D01*
X98289Y119562D01*
X98343Y119478D01*
X98393Y119392D01*
X98440Y119304D01*
X98484Y119214D01*
X98524Y119123D01*
X98560Y119030D01*
X98593Y118936D01*
X98622Y118840D01*
X98647Y118744D01*
X98668Y118647D01*
X98686Y118548D01*
X98699Y118450D01*
X98709Y118350D01*
X98715Y118251D01*
X98717Y118151D01*
X98717Y116881D01*
X98717Y126671D02*
X87287Y126671D01*
X87287Y129846D01*
X87289Y129957D01*
X87295Y130067D01*
X87304Y130178D01*
X87318Y130288D01*
X87335Y130397D01*
X87356Y130506D01*
X87381Y130614D01*
X87410Y130721D01*
X87442Y130827D01*
X87478Y130932D01*
X87518Y131035D01*
X87561Y131137D01*
X87608Y131238D01*
X87659Y131337D01*
X87712Y131434D01*
X87769Y131528D01*
X87830Y131621D01*
X87893Y131712D01*
X87960Y131801D01*
X88030Y131887D01*
X88103Y131970D01*
X88178Y132052D01*
X88256Y132130D01*
X88338Y132205D01*
X88421Y132278D01*
X88507Y132348D01*
X88596Y132415D01*
X88687Y132478D01*
X88780Y132539D01*
X88875Y132596D01*
X88971Y132649D01*
X89070Y132700D01*
X89171Y132747D01*
X89273Y132790D01*
X89376Y132830D01*
X89481Y132866D01*
X89587Y132898D01*
X89694Y132927D01*
X89802Y132952D01*
X89911Y132973D01*
X90020Y132990D01*
X90130Y133004D01*
X90241Y133013D01*
X90351Y133019D01*
X90462Y133021D01*
X90573Y133019D01*
X90683Y133013D01*
X90794Y133004D01*
X90904Y132990D01*
X91013Y132973D01*
X91122Y132952D01*
X91230Y132927D01*
X91337Y132898D01*
X91443Y132866D01*
X91548Y132830D01*
X91651Y132790D01*
X91753Y132747D01*
X91854Y132700D01*
X91953Y132649D01*
X92050Y132596D01*
X92144Y132539D01*
X92237Y132478D01*
X92328Y132415D01*
X92417Y132348D01*
X92503Y132278D01*
X92586Y132205D01*
X92668Y132130D01*
X92746Y132052D01*
X92821Y131970D01*
X92894Y131887D01*
X92964Y131801D01*
X93031Y131712D01*
X93094Y131621D01*
X93155Y131528D01*
X93212Y131434D01*
X93265Y131337D01*
X93316Y131238D01*
X93363Y131137D01*
X93406Y131035D01*
X93446Y130932D01*
X93482Y130827D01*
X93514Y130721D01*
X93543Y130614D01*
X93568Y130506D01*
X93589Y130397D01*
X93606Y130288D01*
X93620Y130178D01*
X93629Y130067D01*
X93635Y129957D01*
X93637Y129846D01*
X93637Y126671D01*
X89827Y137530D02*
X87287Y140705D01*
X98717Y140705D01*
X98717Y137530D02*
X98717Y143880D01*
D10*
X300547Y138317D02*
X300547Y125617D01*
X294197Y119267D01*
X281497Y119267D01*
X275147Y125617D01*
X281497Y144667D02*
X294197Y144667D01*
X300547Y138317D01*
X281497Y144667D02*
X275147Y138317D01*
X275147Y125617D01*
X294197Y119267D02*
X300547Y112917D01*
X300547Y100217D01*
X294197Y93867D01*
X281497Y93867D01*
X275147Y100217D01*
X275147Y112917D01*
X281497Y119267D01*
D11*
X306770Y121605D02*
X315660Y121605D01*
X315760Y121603D01*
X315859Y121597D01*
X315959Y121587D01*
X316057Y121574D01*
X316156Y121556D01*
X316253Y121535D01*
X316349Y121510D01*
X316445Y121481D01*
X316539Y121448D01*
X316632Y121412D01*
X316723Y121372D01*
X316813Y121328D01*
X316901Y121281D01*
X316987Y121231D01*
X317071Y121177D01*
X317153Y121120D01*
X317232Y121060D01*
X317310Y120996D01*
X317384Y120930D01*
X317456Y120861D01*
X317525Y120789D01*
X317591Y120715D01*
X317655Y120637D01*
X317715Y120558D01*
X317772Y120476D01*
X317826Y120392D01*
X317876Y120306D01*
X317923Y120218D01*
X317967Y120128D01*
X318007Y120037D01*
X318043Y119944D01*
X318076Y119850D01*
X318105Y119754D01*
X318130Y119658D01*
X318151Y119561D01*
X318169Y119462D01*
X318182Y119364D01*
X318192Y119264D01*
X318198Y119165D01*
X318200Y119065D01*
X318200Y117795D01*
X318200Y127585D02*
X306770Y127585D01*
X306770Y130760D01*
X306772Y130871D01*
X306778Y130981D01*
X306787Y131092D01*
X306801Y131202D01*
X306818Y131311D01*
X306839Y131420D01*
X306864Y131528D01*
X306893Y131635D01*
X306925Y131741D01*
X306961Y131846D01*
X307001Y131949D01*
X307044Y132051D01*
X307091Y132152D01*
X307142Y132251D01*
X307195Y132348D01*
X307252Y132442D01*
X307313Y132535D01*
X307376Y132626D01*
X307443Y132715D01*
X307513Y132801D01*
X307586Y132884D01*
X307661Y132966D01*
X307739Y133044D01*
X307821Y133119D01*
X307904Y133192D01*
X307990Y133262D01*
X308079Y133329D01*
X308170Y133392D01*
X308263Y133453D01*
X308358Y133510D01*
X308454Y133563D01*
X308553Y133614D01*
X308654Y133661D01*
X308756Y133704D01*
X308859Y133744D01*
X308964Y133780D01*
X309070Y133812D01*
X309177Y133841D01*
X309285Y133866D01*
X309394Y133887D01*
X309503Y133904D01*
X309613Y133918D01*
X309724Y133927D01*
X309834Y133933D01*
X309945Y133935D01*
X310056Y133933D01*
X310166Y133927D01*
X310277Y133918D01*
X310387Y133904D01*
X310496Y133887D01*
X310605Y133866D01*
X310713Y133841D01*
X310820Y133812D01*
X310926Y133780D01*
X311031Y133744D01*
X311134Y133704D01*
X311236Y133661D01*
X311337Y133614D01*
X311436Y133563D01*
X311533Y133510D01*
X311627Y133453D01*
X311720Y133392D01*
X311811Y133329D01*
X311900Y133262D01*
X311986Y133192D01*
X312069Y133119D01*
X312151Y133044D01*
X312229Y132966D01*
X312304Y132884D01*
X312377Y132801D01*
X312447Y132715D01*
X312514Y132626D01*
X312577Y132535D01*
X312638Y132442D01*
X312695Y132348D01*
X312748Y132251D01*
X312799Y132152D01*
X312846Y132051D01*
X312889Y131949D01*
X312929Y131846D01*
X312965Y131741D01*
X312997Y131635D01*
X313026Y131528D01*
X313051Y131420D01*
X313072Y131311D01*
X313089Y131202D01*
X313103Y131092D01*
X313112Y130981D01*
X313118Y130871D01*
X313120Y130760D01*
X313120Y127585D01*
X306769Y141936D02*
X306771Y142040D01*
X306777Y142145D01*
X306786Y142249D01*
X306799Y142352D01*
X306817Y142455D01*
X306837Y142557D01*
X306862Y142659D01*
X306890Y142759D01*
X306922Y142859D01*
X306958Y142957D01*
X306997Y143054D01*
X307039Y143149D01*
X307085Y143243D01*
X307135Y143335D01*
X307187Y143425D01*
X307243Y143513D01*
X307303Y143599D01*
X307365Y143683D01*
X307430Y143764D01*
X307498Y143843D01*
X307570Y143920D01*
X307643Y143993D01*
X307720Y144065D01*
X307799Y144133D01*
X307880Y144198D01*
X307964Y144260D01*
X308050Y144320D01*
X308138Y144376D01*
X308228Y144428D01*
X308320Y144478D01*
X308414Y144524D01*
X308509Y144566D01*
X308606Y144605D01*
X308704Y144641D01*
X308804Y144673D01*
X308904Y144701D01*
X309006Y144726D01*
X309108Y144746D01*
X309211Y144764D01*
X309314Y144777D01*
X309418Y144786D01*
X309523Y144792D01*
X309627Y144794D01*
X306770Y141936D02*
X306772Y141818D01*
X306778Y141699D01*
X306787Y141581D01*
X306800Y141464D01*
X306818Y141347D01*
X306838Y141230D01*
X306863Y141114D01*
X306891Y140999D01*
X306924Y140886D01*
X306959Y140773D01*
X306999Y140661D01*
X307041Y140551D01*
X307088Y140442D01*
X307138Y140334D01*
X307191Y140229D01*
X307248Y140125D01*
X307308Y140023D01*
X307371Y139923D01*
X307438Y139825D01*
X307507Y139729D01*
X307580Y139636D01*
X307656Y139545D01*
X307734Y139456D01*
X307816Y139370D01*
X307900Y139287D01*
X307986Y139206D01*
X308076Y139129D01*
X308167Y139054D01*
X308261Y138982D01*
X308358Y138913D01*
X308456Y138848D01*
X308557Y138785D01*
X308660Y138726D01*
X308764Y138670D01*
X308870Y138618D01*
X308978Y138569D01*
X309087Y138524D01*
X309198Y138482D01*
X309310Y138444D01*
X311849Y143842D02*
X311774Y143918D01*
X311695Y143993D01*
X311614Y144064D01*
X311530Y144133D01*
X311444Y144198D01*
X311356Y144260D01*
X311266Y144320D01*
X311174Y144376D01*
X311079Y144429D01*
X310983Y144478D01*
X310885Y144524D01*
X310786Y144567D01*
X310685Y144606D01*
X310583Y144641D01*
X310480Y144673D01*
X310376Y144701D01*
X310271Y144726D01*
X310164Y144747D01*
X310058Y144764D01*
X309951Y144777D01*
X309843Y144786D01*
X309735Y144792D01*
X309627Y144794D01*
X311850Y143841D02*
X318200Y138444D01*
X318200Y144794D01*
D12*
X304820Y297528D02*
X299649Y335275D01*
D13*
X299650Y335275D02*
X299096Y335821D01*
X298530Y336354D01*
X297950Y336872D01*
X297358Y337376D01*
X296754Y337866D01*
X296138Y338340D01*
X295511Y338800D01*
X294872Y339244D01*
X294223Y339672D01*
X293564Y340084D01*
X292894Y340479D01*
X292216Y340859D01*
X291528Y341221D01*
X290831Y341567D01*
X290126Y341895D01*
X289414Y342206D01*
X288694Y342500D01*
X287967Y342776D01*
X287233Y343034D01*
X286493Y343273D01*
X285748Y343495D01*
X284998Y343698D01*
X284242Y343883D01*
X283483Y344050D01*
X282719Y344197D01*
X281952Y344326D01*
X281183Y344437D01*
X280411Y344528D01*
X279636Y344600D01*
X278861Y344653D01*
X278084Y344688D01*
X277306Y344703D01*
X276529Y344699D01*
X275752Y344677D01*
X274975Y344635D01*
X274200Y344574D01*
X273426Y344494D01*
X272655Y344396D01*
X271887Y344278D01*
X271121Y344142D01*
X270359Y343987D01*
X269601Y343813D01*
X268848Y343621D01*
X268099Y343410D01*
X267356Y343181D01*
X266619Y342935D01*
X265888Y342670D01*
X265163Y342387D01*
X264446Y342086D01*
X263736Y341769D01*
X263035Y341433D01*
X262342Y341081D01*
X261657Y340712D01*
X260982Y340326D01*
X260317Y339924D01*
X259661Y339506D01*
X259016Y339071D01*
X258382Y338622D01*
X257759Y338156D01*
X257148Y337676D01*
X256548Y337180D01*
X255961Y336671D01*
X255387Y336147D01*
X254825Y335609D01*
X254277Y335057D01*
X253743Y334492D01*
X253222Y333915D01*
X252716Y333324D01*
X252225Y332722D01*
X251748Y332107D01*
X251286Y331482D01*
X250840Y330845D01*
X250410Y330197D01*
X249996Y329539D01*
X249598Y328871D01*
X249216Y328193D01*
X248852Y327507D01*
X248504Y326811D01*
X248173Y326108D01*
X247859Y325396D01*
X247563Y324677D01*
X247285Y323951D01*
X247025Y323218D01*
X246783Y322479D01*
X246558Y321735D01*
X246352Y320985D01*
X246165Y320230D01*
X245996Y319471D01*
X245846Y318708D01*
X245714Y317942D01*
X245602Y317173D01*
X245508Y316401D01*
X245433Y315627D01*
X245377Y314851D01*
X245340Y314075D01*
X245322Y313297D01*
X245323Y312520D01*
X245343Y311742D01*
X245382Y310966D01*
X245441Y310190D01*
X245518Y309417D01*
X245614Y308645D01*
X245729Y307876D01*
X245862Y307110D01*
X246015Y306348D01*
X246186Y305589D01*
X246376Y304835D01*
X246584Y304086D01*
X246810Y303342D01*
X247054Y302604D01*
X247317Y301872D01*
X247597Y301146D01*
X247895Y300428D01*
X248211Y299718D01*
X248544Y299015D01*
X248893Y298320D01*
X249260Y297635D01*
X249644Y296958D01*
X250044Y296291D01*
X250460Y295635D01*
X250892Y294988D01*
X251340Y294353D01*
X251803Y293728D01*
X252281Y293115D01*
X252775Y292514D01*
X253282Y291925D01*
X253805Y291349D01*
X254341Y290786D01*
X254890Y290236D01*
X255453Y289699D01*
X256029Y289177D01*
X256618Y288669D01*
X257219Y288175D01*
X257831Y287697D01*
X258456Y287233D01*
X259091Y286785D01*
X259737Y286352D01*
X260394Y285936D01*
X261061Y285536D01*
X261737Y285152D01*
X262422Y284785D01*
X263117Y284434D01*
X263819Y284101D01*
X264530Y283785D01*
X265248Y283487D01*
X265973Y283206D01*
X266705Y282944D01*
X267443Y282699D01*
X268187Y282472D01*
X268936Y282264D01*
X269690Y282074D01*
X270448Y281902D01*
X271211Y281749D01*
X271976Y281615D01*
X272745Y281500D01*
X273517Y281403D01*
X274291Y281326D01*
X275066Y281267D01*
X275843Y281228D01*
X276620Y281207D01*
X277397Y281206D01*
X278175Y281223D01*
X278952Y281260D01*
X279727Y281315D01*
X280501Y281390D01*
X281273Y281483D01*
X282042Y281596D01*
X282809Y281727D01*
X283572Y281877D01*
X284331Y282045D01*
X285086Y282232D01*
X285836Y282438D01*
X286580Y282662D01*
X287319Y282904D01*
X288052Y283164D01*
X288778Y283442D01*
X289498Y283737D01*
X290209Y284050D01*
X290913Y284381D01*
X291609Y284728D01*
X292296Y285093D01*
X292973Y285474D01*
X293641Y285872D01*
X294300Y286286D01*
X294948Y286716D01*
X295585Y287161D01*
X296211Y287622D01*
X296825Y288099D01*
X297428Y288590D01*
X298019Y289096D01*
X298597Y289616D01*
X299162Y290150D01*
X299714Y290698D01*
X300252Y291259D01*
X300776Y291833D01*
X301286Y292420D01*
X301782Y293019D01*
X302263Y293631D01*
X302728Y294253D01*
X303178Y294887D01*
X303613Y295532D01*
X304032Y296187D01*
X304434Y296852D01*
X304820Y297527D01*
D10*
X251670Y312954D02*
X251678Y313577D01*
X251701Y314200D01*
X251739Y314823D01*
X251792Y315444D01*
X251861Y316063D01*
X251945Y316681D01*
X252044Y317296D01*
X252158Y317909D01*
X252287Y318519D01*
X252431Y319126D01*
X252590Y319729D01*
X252764Y320327D01*
X252952Y320922D01*
X253155Y321511D01*
X253372Y322095D01*
X253603Y322674D01*
X253849Y323247D01*
X254109Y323814D01*
X254382Y324374D01*
X254669Y324927D01*
X254970Y325474D01*
X255284Y326012D01*
X255611Y326543D01*
X255951Y327065D01*
X256303Y327580D01*
X256669Y328085D01*
X257046Y328581D01*
X257436Y329068D01*
X257837Y329545D01*
X258250Y330012D01*
X258674Y330468D01*
X259109Y330915D01*
X259556Y331350D01*
X260012Y331774D01*
X260479Y332187D01*
X260956Y332588D01*
X261443Y332978D01*
X261939Y333355D01*
X262444Y333721D01*
X262959Y334073D01*
X263481Y334413D01*
X264012Y334740D01*
X264550Y335054D01*
X265097Y335355D01*
X265650Y335642D01*
X266210Y335915D01*
X266777Y336175D01*
X267350Y336421D01*
X267929Y336652D01*
X268513Y336869D01*
X269102Y337072D01*
X269697Y337260D01*
X270295Y337434D01*
X270898Y337593D01*
X271505Y337737D01*
X272115Y337866D01*
X272728Y337980D01*
X273343Y338079D01*
X273961Y338163D01*
X274580Y338232D01*
X275201Y338285D01*
X275824Y338323D01*
X276447Y338346D01*
X277070Y338354D01*
X277693Y338346D01*
X278316Y338323D01*
X278939Y338285D01*
X279560Y338232D01*
X280179Y338163D01*
X280797Y338079D01*
X281412Y337980D01*
X282025Y337866D01*
X282635Y337737D01*
X283242Y337593D01*
X283845Y337434D01*
X284443Y337260D01*
X285038Y337072D01*
X285627Y336869D01*
X286211Y336652D01*
X286790Y336421D01*
X287363Y336175D01*
X287930Y335915D01*
X288490Y335642D01*
X289043Y335355D01*
X289590Y335054D01*
X290128Y334740D01*
X290659Y334413D01*
X291181Y334073D01*
X291696Y333721D01*
X292201Y333355D01*
X292697Y332978D01*
X293184Y332588D01*
X293661Y332187D01*
X294128Y331774D01*
X294584Y331350D01*
X295031Y330915D01*
X295466Y330468D01*
X295890Y330012D01*
X296303Y329545D01*
X296704Y329068D01*
X297094Y328581D01*
X297471Y328085D01*
X297837Y327580D01*
X298189Y327065D01*
X298529Y326543D01*
X298856Y326012D01*
X299170Y325474D01*
X299471Y324927D01*
X299758Y324374D01*
X300031Y323814D01*
X300291Y323247D01*
X300537Y322674D01*
X300768Y322095D01*
X300985Y321511D01*
X301188Y320922D01*
X301376Y320327D01*
X301550Y319729D01*
X301709Y319126D01*
X301853Y318519D01*
X301982Y317909D01*
X302096Y317296D01*
X302195Y316681D01*
X302279Y316063D01*
X302348Y315444D01*
X302401Y314823D01*
X302439Y314200D01*
X302462Y313577D01*
X302470Y312954D01*
X302462Y312331D01*
X302439Y311708D01*
X302401Y311085D01*
X302348Y310464D01*
X302279Y309845D01*
X302195Y309227D01*
X302096Y308612D01*
X301982Y307999D01*
X301853Y307389D01*
X301709Y306782D01*
X301550Y306179D01*
X301376Y305581D01*
X301188Y304986D01*
X300985Y304397D01*
X300768Y303813D01*
X300537Y303234D01*
X300291Y302661D01*
X300031Y302094D01*
X299758Y301534D01*
X299471Y300981D01*
X299170Y300434D01*
X298856Y299896D01*
X298529Y299365D01*
X298189Y298843D01*
X297837Y298328D01*
X297471Y297823D01*
X297094Y297327D01*
X296704Y296840D01*
X296303Y296363D01*
X295890Y295896D01*
X295466Y295440D01*
X295031Y294993D01*
X294584Y294558D01*
X294128Y294134D01*
X293661Y293721D01*
X293184Y293320D01*
X292697Y292930D01*
X292201Y292553D01*
X291696Y292187D01*
X291181Y291835D01*
X290659Y291495D01*
X290128Y291168D01*
X289590Y290854D01*
X289043Y290553D01*
X288490Y290266D01*
X287930Y289993D01*
X287363Y289733D01*
X286790Y289487D01*
X286211Y289256D01*
X285627Y289039D01*
X285038Y288836D01*
X284443Y288648D01*
X283845Y288474D01*
X283242Y288315D01*
X282635Y288171D01*
X282025Y288042D01*
X281412Y287928D01*
X280797Y287829D01*
X280179Y287745D01*
X279560Y287676D01*
X278939Y287623D01*
X278316Y287585D01*
X277693Y287562D01*
X277070Y287554D01*
X276447Y287562D01*
X275824Y287585D01*
X275201Y287623D01*
X274580Y287676D01*
X273961Y287745D01*
X273343Y287829D01*
X272728Y287928D01*
X272115Y288042D01*
X271505Y288171D01*
X270898Y288315D01*
X270295Y288474D01*
X269697Y288648D01*
X269102Y288836D01*
X268513Y289039D01*
X267929Y289256D01*
X267350Y289487D01*
X266777Y289733D01*
X266210Y289993D01*
X265650Y290266D01*
X265097Y290553D01*
X264550Y290854D01*
X264012Y291168D01*
X263481Y291495D01*
X262959Y291835D01*
X262444Y292187D01*
X261939Y292553D01*
X261443Y292930D01*
X260956Y293320D01*
X260479Y293721D01*
X260012Y294134D01*
X259556Y294558D01*
X259109Y294993D01*
X258674Y295440D01*
X258250Y295896D01*
X257837Y296363D01*
X257436Y296840D01*
X257046Y297327D01*
X256669Y297823D01*
X256303Y298328D01*
X255951Y298843D01*
X255611Y299365D01*
X255284Y299896D01*
X254970Y300434D01*
X254669Y300981D01*
X254382Y301534D01*
X254109Y302094D01*
X253849Y302661D01*
X253603Y303234D01*
X253372Y303813D01*
X253155Y304397D01*
X252952Y304986D01*
X252764Y305581D01*
X252590Y306179D01*
X252431Y306782D01*
X252287Y307389D01*
X252158Y307999D01*
X252044Y308612D01*
X251945Y309227D01*
X251861Y309845D01*
X251792Y310464D01*
X251739Y311085D01*
X251701Y311708D01*
X251678Y312331D01*
X251670Y312954D01*
D11*
X308345Y323263D02*
X306794Y334587D01*
X308345Y323263D02*
X313378Y323952D01*
X318159Y324607D02*
X323192Y325297D01*
X318159Y324607D02*
X316608Y335932D01*
X321641Y336621D01*
X321072Y331416D02*
X317297Y330899D01*
X326397Y337272D02*
X327948Y325948D01*
X326397Y337272D02*
X329543Y337703D01*
X329543Y337704D02*
X329653Y337717D01*
X329764Y337726D01*
X329874Y337731D01*
X329985Y337733D01*
X330096Y337731D01*
X330207Y337724D01*
X330317Y337714D01*
X330427Y337701D01*
X330536Y337683D01*
X330645Y337661D01*
X330753Y337636D01*
X330860Y337607D01*
X330966Y337574D01*
X331070Y337538D01*
X331174Y337498D01*
X331275Y337454D01*
X331376Y337407D01*
X331474Y337356D01*
X331571Y337302D01*
X331666Y337245D01*
X331759Y337184D01*
X331849Y337120D01*
X331937Y337053D01*
X332023Y336983D01*
X332107Y336910D01*
X332187Y336834D01*
X332266Y336756D01*
X332341Y336674D01*
X332413Y336590D01*
X332483Y336504D01*
X332549Y336415D01*
X332612Y336324D01*
X332672Y336231D01*
X332729Y336136D01*
X332783Y336039D01*
X332833Y335940D01*
X332879Y335839D01*
X332922Y335737D01*
X332961Y335634D01*
X332997Y335529D01*
X333029Y335422D01*
X333057Y335315D01*
X333082Y335207D01*
X333103Y335098D01*
X333120Y334989D01*
X333119Y334989D02*
X333809Y329956D01*
X333822Y329846D01*
X333831Y329735D01*
X333836Y329625D01*
X333838Y329514D01*
X333836Y329403D01*
X333829Y329292D01*
X333819Y329182D01*
X333806Y329072D01*
X333788Y328963D01*
X333766Y328854D01*
X333741Y328746D01*
X333712Y328639D01*
X333679Y328533D01*
X333643Y328429D01*
X333603Y328325D01*
X333559Y328224D01*
X333512Y328123D01*
X333461Y328025D01*
X333407Y327928D01*
X333350Y327833D01*
X333289Y327740D01*
X333225Y327650D01*
X333158Y327562D01*
X333088Y327476D01*
X333015Y327392D01*
X332939Y327312D01*
X332861Y327233D01*
X332779Y327158D01*
X332695Y327086D01*
X332609Y327016D01*
X332520Y326950D01*
X332429Y326887D01*
X332336Y326827D01*
X332241Y326770D01*
X332144Y326716D01*
X332045Y326666D01*
X331944Y326620D01*
X331842Y326577D01*
X331739Y326538D01*
X331634Y326502D01*
X331527Y326470D01*
X331420Y326442D01*
X331312Y326417D01*
X331203Y326396D01*
X331094Y326379D01*
X327948Y325948D01*
X338443Y336359D02*
X341244Y339306D01*
X342796Y327982D01*
X345941Y328413D02*
X339650Y327551D01*
D10*
X44709Y327576D02*
X44609Y327574D01*
X44510Y327568D01*
X44410Y327558D01*
X44312Y327545D01*
X44213Y327527D01*
X44116Y327506D01*
X44020Y327481D01*
X43924Y327452D01*
X43830Y327419D01*
X43737Y327383D01*
X43646Y327343D01*
X43556Y327299D01*
X43468Y327252D01*
X43382Y327202D01*
X43298Y327148D01*
X43216Y327091D01*
X43137Y327031D01*
X43059Y326967D01*
X42985Y326901D01*
X42913Y326832D01*
X42844Y326760D01*
X42778Y326686D01*
X42714Y326608D01*
X42654Y326529D01*
X42597Y326447D01*
X42543Y326363D01*
X42493Y326277D01*
X42446Y326189D01*
X42402Y326099D01*
X42362Y326008D01*
X42326Y325915D01*
X42293Y325821D01*
X42264Y325725D01*
X42239Y325629D01*
X42218Y325532D01*
X42200Y325433D01*
X42187Y325335D01*
X42177Y325235D01*
X42171Y325136D01*
X42169Y325036D01*
X42169Y309796D02*
X42171Y309696D01*
X42177Y309597D01*
X42187Y309497D01*
X42200Y309399D01*
X42218Y309300D01*
X42239Y309203D01*
X42264Y309107D01*
X42293Y309011D01*
X42326Y308917D01*
X42362Y308824D01*
X42402Y308733D01*
X42446Y308643D01*
X42493Y308555D01*
X42543Y308469D01*
X42597Y308385D01*
X42654Y308303D01*
X42714Y308224D01*
X42778Y308146D01*
X42844Y308072D01*
X42913Y308000D01*
X42985Y307931D01*
X43059Y307865D01*
X43137Y307801D01*
X43216Y307741D01*
X43298Y307684D01*
X43382Y307630D01*
X43468Y307580D01*
X43556Y307533D01*
X43646Y307489D01*
X43737Y307449D01*
X43830Y307413D01*
X43924Y307380D01*
X44020Y307351D01*
X44116Y307326D01*
X44213Y307305D01*
X44312Y307287D01*
X44410Y307274D01*
X44510Y307264D01*
X44609Y307258D01*
X44709Y307256D01*
X90429Y307256D02*
X90529Y307258D01*
X90628Y307264D01*
X90728Y307274D01*
X90826Y307287D01*
X90925Y307305D01*
X91022Y307326D01*
X91118Y307351D01*
X91214Y307380D01*
X91308Y307413D01*
X91401Y307449D01*
X91492Y307489D01*
X91582Y307533D01*
X91670Y307580D01*
X91756Y307630D01*
X91840Y307684D01*
X91922Y307741D01*
X92001Y307801D01*
X92079Y307865D01*
X92153Y307931D01*
X92225Y308000D01*
X92294Y308072D01*
X92360Y308146D01*
X92424Y308224D01*
X92484Y308303D01*
X92541Y308385D01*
X92595Y308469D01*
X92645Y308555D01*
X92692Y308643D01*
X92736Y308733D01*
X92776Y308824D01*
X92812Y308917D01*
X92845Y309011D01*
X92874Y309107D01*
X92899Y309203D01*
X92920Y309300D01*
X92938Y309399D01*
X92951Y309497D01*
X92961Y309597D01*
X92967Y309696D01*
X92969Y309796D01*
X92969Y325036D02*
X92967Y325136D01*
X92961Y325235D01*
X92951Y325335D01*
X92938Y325433D01*
X92920Y325532D01*
X92899Y325629D01*
X92874Y325725D01*
X92845Y325821D01*
X92812Y325915D01*
X92776Y326008D01*
X92736Y326099D01*
X92692Y326189D01*
X92645Y326277D01*
X92595Y326363D01*
X92541Y326447D01*
X92484Y326529D01*
X92424Y326608D01*
X92360Y326686D01*
X92294Y326760D01*
X92225Y326832D01*
X92153Y326901D01*
X92079Y326967D01*
X92001Y327031D01*
X91922Y327091D01*
X91840Y327148D01*
X91756Y327202D01*
X91670Y327252D01*
X91582Y327299D01*
X91492Y327343D01*
X91401Y327383D01*
X91308Y327419D01*
X91214Y327452D01*
X91118Y327481D01*
X91022Y327506D01*
X90925Y327527D01*
X90826Y327545D01*
X90728Y327558D01*
X90628Y327568D01*
X90529Y327574D01*
X90429Y327576D01*
X42169Y325036D02*
X42169Y309796D01*
X44709Y327576D02*
X48519Y327576D01*
X49789Y326306D01*
X48519Y307256D02*
X44709Y307256D01*
X48519Y307256D02*
X49789Y308526D01*
X85349Y326306D02*
X86619Y327576D01*
X85349Y326306D02*
X49789Y326306D01*
X85349Y308526D02*
X86619Y307256D01*
X85349Y308526D02*
X49789Y308526D01*
X86619Y327576D02*
X90429Y327576D01*
X90429Y307256D02*
X86619Y307256D01*
X92969Y309796D02*
X92969Y325036D01*
D14*
X94874Y317416D03*
X40264Y317416D03*
D15*
X80777Y301668D02*
X80777Y292778D01*
X80777Y301668D02*
X83246Y301668D01*
X83246Y301667D02*
X83344Y301665D01*
X83442Y301659D01*
X83540Y301649D01*
X83637Y301636D01*
X83734Y301618D01*
X83830Y301597D01*
X83924Y301572D01*
X84018Y301543D01*
X84111Y301511D01*
X84202Y301474D01*
X84292Y301435D01*
X84380Y301391D01*
X84466Y301344D01*
X84551Y301294D01*
X84633Y301241D01*
X84713Y301184D01*
X84791Y301124D01*
X84866Y301061D01*
X84939Y300995D01*
X85009Y300926D01*
X85076Y300855D01*
X85141Y300781D01*
X85202Y300704D01*
X85261Y300625D01*
X85316Y300544D01*
X85368Y300461D01*
X85416Y300375D01*
X85461Y300288D01*
X85503Y300199D01*
X85541Y300109D01*
X85575Y300017D01*
X85606Y299924D01*
X85633Y299829D01*
X85656Y299734D01*
X85676Y299637D01*
X85691Y299541D01*
X85703Y299443D01*
X85711Y299345D01*
X85715Y299247D01*
X85715Y299149D01*
X85711Y299051D01*
X85703Y298953D01*
X85691Y298855D01*
X85676Y298759D01*
X85656Y298662D01*
X85633Y298567D01*
X85606Y298472D01*
X85575Y298379D01*
X85541Y298287D01*
X85503Y298197D01*
X85461Y298108D01*
X85416Y298021D01*
X85368Y297935D01*
X85316Y297852D01*
X85261Y297771D01*
X85202Y297692D01*
X85141Y297615D01*
X85076Y297541D01*
X85009Y297470D01*
X84939Y297401D01*
X84866Y297335D01*
X84791Y297272D01*
X84713Y297212D01*
X84633Y297155D01*
X84551Y297102D01*
X84466Y297052D01*
X84380Y297005D01*
X84292Y296961D01*
X84202Y296922D01*
X84111Y296885D01*
X84018Y296853D01*
X83924Y296824D01*
X83830Y296799D01*
X83734Y296778D01*
X83637Y296760D01*
X83540Y296747D01*
X83442Y296737D01*
X83344Y296731D01*
X83246Y296729D01*
X80777Y296729D01*
X83740Y296729D02*
X85716Y292778D01*
X89627Y299692D02*
X92096Y301668D01*
X92096Y292778D01*
X89627Y292778D02*
X94566Y292778D01*
D10*
X30338Y261375D02*
X30338Y161555D01*
X120258Y161555D02*
X122288Y161555D01*
X122288Y261375D01*
X54218Y261375D02*
X30338Y261375D01*
X54218Y261375D02*
X54218Y245375D01*
X54218Y227595D02*
X54218Y195335D01*
X54218Y177555D02*
X54218Y161555D01*
X54218Y261375D02*
X120258Y261375D01*
X54218Y161555D02*
X30338Y161555D01*
X120258Y161555D02*
X120258Y261375D01*
X122288Y261375D01*
X120258Y161555D02*
X54218Y161555D01*
X101966Y236485D02*
X101968Y236627D01*
X101974Y236770D01*
X101984Y236912D01*
X101998Y237054D01*
X102016Y237195D01*
X102038Y237336D01*
X102064Y237476D01*
X102093Y237615D01*
X102127Y237754D01*
X102165Y237891D01*
X102206Y238028D01*
X102251Y238163D01*
X102300Y238297D01*
X102353Y238429D01*
X102409Y238560D01*
X102469Y238689D01*
X102533Y238817D01*
X102600Y238942D01*
X102671Y239066D01*
X102745Y239188D01*
X102822Y239307D01*
X102903Y239425D01*
X102987Y239540D01*
X103074Y239652D01*
X103165Y239762D01*
X103258Y239870D01*
X103355Y239975D01*
X103454Y240077D01*
X103556Y240176D01*
X103661Y240273D01*
X103769Y240366D01*
X103879Y240457D01*
X103991Y240544D01*
X104106Y240628D01*
X104224Y240709D01*
X104343Y240786D01*
X104465Y240860D01*
X104589Y240931D01*
X104714Y240998D01*
X104842Y241062D01*
X104971Y241122D01*
X105102Y241178D01*
X105234Y241231D01*
X105368Y241280D01*
X105503Y241325D01*
X105640Y241366D01*
X105777Y241404D01*
X105916Y241438D01*
X106055Y241467D01*
X106195Y241493D01*
X106336Y241515D01*
X106477Y241533D01*
X106619Y241547D01*
X106761Y241557D01*
X106904Y241563D01*
X107046Y241565D01*
X107188Y241563D01*
X107331Y241557D01*
X107473Y241547D01*
X107615Y241533D01*
X107756Y241515D01*
X107897Y241493D01*
X108037Y241467D01*
X108176Y241438D01*
X108315Y241404D01*
X108452Y241366D01*
X108589Y241325D01*
X108724Y241280D01*
X108858Y241231D01*
X108990Y241178D01*
X109121Y241122D01*
X109250Y241062D01*
X109378Y240998D01*
X109503Y240931D01*
X109627Y240860D01*
X109749Y240786D01*
X109868Y240709D01*
X109986Y240628D01*
X110101Y240544D01*
X110213Y240457D01*
X110323Y240366D01*
X110431Y240273D01*
X110536Y240176D01*
X110638Y240077D01*
X110737Y239975D01*
X110834Y239870D01*
X110927Y239762D01*
X111018Y239652D01*
X111105Y239540D01*
X111189Y239425D01*
X111270Y239307D01*
X111347Y239188D01*
X111421Y239066D01*
X111492Y238942D01*
X111559Y238817D01*
X111623Y238689D01*
X111683Y238560D01*
X111739Y238429D01*
X111792Y238297D01*
X111841Y238163D01*
X111886Y238028D01*
X111927Y237891D01*
X111965Y237754D01*
X111999Y237615D01*
X112028Y237476D01*
X112054Y237336D01*
X112076Y237195D01*
X112094Y237054D01*
X112108Y236912D01*
X112118Y236770D01*
X112124Y236627D01*
X112126Y236485D01*
X112124Y236343D01*
X112118Y236200D01*
X112108Y236058D01*
X112094Y235916D01*
X112076Y235775D01*
X112054Y235634D01*
X112028Y235494D01*
X111999Y235355D01*
X111965Y235216D01*
X111927Y235079D01*
X111886Y234942D01*
X111841Y234807D01*
X111792Y234673D01*
X111739Y234541D01*
X111683Y234410D01*
X111623Y234281D01*
X111559Y234153D01*
X111492Y234028D01*
X111421Y233904D01*
X111347Y233782D01*
X111270Y233663D01*
X111189Y233545D01*
X111105Y233430D01*
X111018Y233318D01*
X110927Y233208D01*
X110834Y233100D01*
X110737Y232995D01*
X110638Y232893D01*
X110536Y232794D01*
X110431Y232697D01*
X110323Y232604D01*
X110213Y232513D01*
X110101Y232426D01*
X109986Y232342D01*
X109868Y232261D01*
X109749Y232184D01*
X109627Y232110D01*
X109503Y232039D01*
X109378Y231972D01*
X109250Y231908D01*
X109121Y231848D01*
X108990Y231792D01*
X108858Y231739D01*
X108724Y231690D01*
X108589Y231645D01*
X108452Y231604D01*
X108315Y231566D01*
X108176Y231532D01*
X108037Y231503D01*
X107897Y231477D01*
X107756Y231455D01*
X107615Y231437D01*
X107473Y231423D01*
X107331Y231413D01*
X107188Y231407D01*
X107046Y231405D01*
X106904Y231407D01*
X106761Y231413D01*
X106619Y231423D01*
X106477Y231437D01*
X106336Y231455D01*
X106195Y231477D01*
X106055Y231503D01*
X105916Y231532D01*
X105777Y231566D01*
X105640Y231604D01*
X105503Y231645D01*
X105368Y231690D01*
X105234Y231739D01*
X105102Y231792D01*
X104971Y231848D01*
X104842Y231908D01*
X104714Y231972D01*
X104589Y232039D01*
X104465Y232110D01*
X104343Y232184D01*
X104224Y232261D01*
X104106Y232342D01*
X103991Y232426D01*
X103879Y232513D01*
X103769Y232604D01*
X103661Y232697D01*
X103556Y232794D01*
X103454Y232893D01*
X103355Y232995D01*
X103258Y233100D01*
X103165Y233208D01*
X103074Y233318D01*
X102987Y233430D01*
X102903Y233545D01*
X102822Y233663D01*
X102745Y233782D01*
X102671Y233904D01*
X102600Y234028D01*
X102533Y234153D01*
X102469Y234281D01*
X102409Y234410D01*
X102353Y234541D01*
X102300Y234673D01*
X102251Y234807D01*
X102206Y234942D01*
X102165Y235079D01*
X102127Y235216D01*
X102093Y235355D01*
X102064Y235494D01*
X102038Y235634D01*
X102016Y235775D01*
X101998Y235916D01*
X101984Y236058D01*
X101974Y236200D01*
X101968Y236343D01*
X101966Y236485D01*
X101966Y186447D02*
X101968Y186589D01*
X101974Y186732D01*
X101984Y186874D01*
X101998Y187016D01*
X102016Y187157D01*
X102038Y187298D01*
X102064Y187438D01*
X102093Y187577D01*
X102127Y187716D01*
X102165Y187853D01*
X102206Y187990D01*
X102251Y188125D01*
X102300Y188259D01*
X102353Y188391D01*
X102409Y188522D01*
X102469Y188651D01*
X102533Y188779D01*
X102600Y188904D01*
X102671Y189028D01*
X102745Y189150D01*
X102822Y189269D01*
X102903Y189387D01*
X102987Y189502D01*
X103074Y189614D01*
X103165Y189724D01*
X103258Y189832D01*
X103355Y189937D01*
X103454Y190039D01*
X103556Y190138D01*
X103661Y190235D01*
X103769Y190328D01*
X103879Y190419D01*
X103991Y190506D01*
X104106Y190590D01*
X104224Y190671D01*
X104343Y190748D01*
X104465Y190822D01*
X104589Y190893D01*
X104714Y190960D01*
X104842Y191024D01*
X104971Y191084D01*
X105102Y191140D01*
X105234Y191193D01*
X105368Y191242D01*
X105503Y191287D01*
X105640Y191328D01*
X105777Y191366D01*
X105916Y191400D01*
X106055Y191429D01*
X106195Y191455D01*
X106336Y191477D01*
X106477Y191495D01*
X106619Y191509D01*
X106761Y191519D01*
X106904Y191525D01*
X107046Y191527D01*
X107188Y191525D01*
X107331Y191519D01*
X107473Y191509D01*
X107615Y191495D01*
X107756Y191477D01*
X107897Y191455D01*
X108037Y191429D01*
X108176Y191400D01*
X108315Y191366D01*
X108452Y191328D01*
X108589Y191287D01*
X108724Y191242D01*
X108858Y191193D01*
X108990Y191140D01*
X109121Y191084D01*
X109250Y191024D01*
X109378Y190960D01*
X109503Y190893D01*
X109627Y190822D01*
X109749Y190748D01*
X109868Y190671D01*
X109986Y190590D01*
X110101Y190506D01*
X110213Y190419D01*
X110323Y190328D01*
X110431Y190235D01*
X110536Y190138D01*
X110638Y190039D01*
X110737Y189937D01*
X110834Y189832D01*
X110927Y189724D01*
X111018Y189614D01*
X111105Y189502D01*
X111189Y189387D01*
X111270Y189269D01*
X111347Y189150D01*
X111421Y189028D01*
X111492Y188904D01*
X111559Y188779D01*
X111623Y188651D01*
X111683Y188522D01*
X111739Y188391D01*
X111792Y188259D01*
X111841Y188125D01*
X111886Y187990D01*
X111927Y187853D01*
X111965Y187716D01*
X111999Y187577D01*
X112028Y187438D01*
X112054Y187298D01*
X112076Y187157D01*
X112094Y187016D01*
X112108Y186874D01*
X112118Y186732D01*
X112124Y186589D01*
X112126Y186447D01*
X112124Y186305D01*
X112118Y186162D01*
X112108Y186020D01*
X112094Y185878D01*
X112076Y185737D01*
X112054Y185596D01*
X112028Y185456D01*
X111999Y185317D01*
X111965Y185178D01*
X111927Y185041D01*
X111886Y184904D01*
X111841Y184769D01*
X111792Y184635D01*
X111739Y184503D01*
X111683Y184372D01*
X111623Y184243D01*
X111559Y184115D01*
X111492Y183990D01*
X111421Y183866D01*
X111347Y183744D01*
X111270Y183625D01*
X111189Y183507D01*
X111105Y183392D01*
X111018Y183280D01*
X110927Y183170D01*
X110834Y183062D01*
X110737Y182957D01*
X110638Y182855D01*
X110536Y182756D01*
X110431Y182659D01*
X110323Y182566D01*
X110213Y182475D01*
X110101Y182388D01*
X109986Y182304D01*
X109868Y182223D01*
X109749Y182146D01*
X109627Y182072D01*
X109503Y182001D01*
X109378Y181934D01*
X109250Y181870D01*
X109121Y181810D01*
X108990Y181754D01*
X108858Y181701D01*
X108724Y181652D01*
X108589Y181607D01*
X108452Y181566D01*
X108315Y181528D01*
X108176Y181494D01*
X108037Y181465D01*
X107897Y181439D01*
X107756Y181417D01*
X107615Y181399D01*
X107473Y181385D01*
X107331Y181375D01*
X107188Y181369D01*
X107046Y181367D01*
X106904Y181369D01*
X106761Y181375D01*
X106619Y181385D01*
X106477Y181399D01*
X106336Y181417D01*
X106195Y181439D01*
X106055Y181465D01*
X105916Y181494D01*
X105777Y181528D01*
X105640Y181566D01*
X105503Y181607D01*
X105368Y181652D01*
X105234Y181701D01*
X105102Y181754D01*
X104971Y181810D01*
X104842Y181870D01*
X104714Y181934D01*
X104589Y182001D01*
X104465Y182072D01*
X104343Y182146D01*
X104224Y182223D01*
X104106Y182304D01*
X103991Y182388D01*
X103879Y182475D01*
X103769Y182566D01*
X103661Y182659D01*
X103556Y182756D01*
X103454Y182855D01*
X103355Y182957D01*
X103258Y183062D01*
X103165Y183170D01*
X103074Y183280D01*
X102987Y183392D01*
X102903Y183507D01*
X102822Y183625D01*
X102745Y183744D01*
X102671Y183866D01*
X102600Y183990D01*
X102533Y184115D01*
X102469Y184243D01*
X102409Y184372D01*
X102353Y184503D01*
X102300Y184635D01*
X102251Y184769D01*
X102206Y184904D01*
X102165Y185041D01*
X102127Y185178D01*
X102093Y185317D01*
X102064Y185456D01*
X102038Y185596D01*
X102016Y185737D01*
X101998Y185878D01*
X101984Y186020D01*
X101974Y186162D01*
X101968Y186305D01*
X101966Y186447D01*
D11*
X94473Y249820D02*
X91933Y252995D01*
X103363Y252995D01*
X103363Y249820D02*
X103363Y256170D01*
X94790Y206640D02*
X94686Y206638D01*
X94581Y206632D01*
X94477Y206623D01*
X94374Y206610D01*
X94271Y206592D01*
X94169Y206572D01*
X94067Y206547D01*
X93967Y206519D01*
X93867Y206487D01*
X93769Y206451D01*
X93672Y206412D01*
X93577Y206370D01*
X93483Y206324D01*
X93391Y206274D01*
X93301Y206222D01*
X93213Y206166D01*
X93127Y206106D01*
X93043Y206044D01*
X92962Y205979D01*
X92883Y205911D01*
X92806Y205839D01*
X92733Y205766D01*
X92661Y205689D01*
X92593Y205610D01*
X92528Y205529D01*
X92466Y205445D01*
X92406Y205359D01*
X92350Y205271D01*
X92298Y205181D01*
X92248Y205089D01*
X92202Y204995D01*
X92160Y204900D01*
X92121Y204803D01*
X92085Y204705D01*
X92053Y204605D01*
X92025Y204505D01*
X92000Y204403D01*
X91980Y204301D01*
X91962Y204198D01*
X91949Y204095D01*
X91940Y203991D01*
X91934Y203886D01*
X91932Y203782D01*
X91933Y203782D02*
X91935Y203664D01*
X91941Y203545D01*
X91950Y203427D01*
X91963Y203310D01*
X91981Y203193D01*
X92001Y203076D01*
X92026Y202960D01*
X92054Y202845D01*
X92087Y202732D01*
X92122Y202619D01*
X92162Y202507D01*
X92204Y202397D01*
X92251Y202288D01*
X92301Y202180D01*
X92354Y202075D01*
X92411Y201971D01*
X92471Y201869D01*
X92534Y201769D01*
X92601Y201671D01*
X92670Y201575D01*
X92743Y201482D01*
X92819Y201391D01*
X92897Y201302D01*
X92979Y201216D01*
X93063Y201133D01*
X93149Y201052D01*
X93239Y200975D01*
X93330Y200900D01*
X93424Y200828D01*
X93521Y200759D01*
X93619Y200694D01*
X93720Y200631D01*
X93823Y200572D01*
X93927Y200516D01*
X94033Y200464D01*
X94141Y200415D01*
X94250Y200370D01*
X94361Y200328D01*
X94473Y200290D01*
X97012Y205688D02*
X96937Y205764D01*
X96858Y205839D01*
X96777Y205910D01*
X96693Y205979D01*
X96607Y206044D01*
X96519Y206106D01*
X96429Y206166D01*
X96337Y206222D01*
X96242Y206275D01*
X96146Y206324D01*
X96048Y206370D01*
X95949Y206413D01*
X95848Y206452D01*
X95746Y206487D01*
X95643Y206519D01*
X95539Y206547D01*
X95434Y206572D01*
X95327Y206593D01*
X95221Y206610D01*
X95114Y206623D01*
X95006Y206632D01*
X94898Y206638D01*
X94790Y206640D01*
X97013Y205687D02*
X103363Y200290D01*
X103363Y206640D01*
X46975Y230897D02*
X35545Y238517D01*
X35545Y230897D02*
X46975Y238517D01*
X38085Y242962D02*
X35545Y246137D01*
X46975Y246137D01*
X46975Y242962D02*
X46975Y249312D01*
D10*
X108868Y98607D02*
X258728Y98607D01*
X108868Y8687D02*
X108868Y6657D01*
X258728Y6657D01*
X258728Y74727D02*
X258728Y98607D01*
X258728Y74727D02*
X242728Y74727D01*
X224948Y74727D02*
X192688Y74727D01*
X174908Y74727D02*
X142648Y74727D01*
X124868Y74727D02*
X108868Y74727D01*
X258728Y74727D02*
X258728Y8687D01*
X108868Y74727D02*
X108868Y98607D01*
X108868Y8687D02*
X258728Y8687D01*
X108868Y8687D02*
X108868Y74727D01*
X258728Y8687D02*
X258728Y6657D01*
X228758Y21899D02*
X228760Y22041D01*
X228766Y22184D01*
X228776Y22326D01*
X228790Y22468D01*
X228808Y22609D01*
X228830Y22750D01*
X228856Y22890D01*
X228885Y23029D01*
X228919Y23168D01*
X228957Y23305D01*
X228998Y23442D01*
X229043Y23577D01*
X229092Y23711D01*
X229145Y23843D01*
X229201Y23974D01*
X229261Y24103D01*
X229325Y24231D01*
X229392Y24356D01*
X229463Y24480D01*
X229537Y24602D01*
X229614Y24721D01*
X229695Y24839D01*
X229779Y24954D01*
X229866Y25066D01*
X229957Y25176D01*
X230050Y25284D01*
X230147Y25389D01*
X230246Y25491D01*
X230348Y25590D01*
X230453Y25687D01*
X230561Y25780D01*
X230671Y25871D01*
X230783Y25958D01*
X230898Y26042D01*
X231016Y26123D01*
X231135Y26200D01*
X231257Y26274D01*
X231381Y26345D01*
X231506Y26412D01*
X231634Y26476D01*
X231763Y26536D01*
X231894Y26592D01*
X232026Y26645D01*
X232160Y26694D01*
X232295Y26739D01*
X232432Y26780D01*
X232569Y26818D01*
X232708Y26852D01*
X232847Y26881D01*
X232987Y26907D01*
X233128Y26929D01*
X233269Y26947D01*
X233411Y26961D01*
X233553Y26971D01*
X233696Y26977D01*
X233838Y26979D01*
X233980Y26977D01*
X234123Y26971D01*
X234265Y26961D01*
X234407Y26947D01*
X234548Y26929D01*
X234689Y26907D01*
X234829Y26881D01*
X234968Y26852D01*
X235107Y26818D01*
X235244Y26780D01*
X235381Y26739D01*
X235516Y26694D01*
X235650Y26645D01*
X235782Y26592D01*
X235913Y26536D01*
X236042Y26476D01*
X236170Y26412D01*
X236295Y26345D01*
X236419Y26274D01*
X236541Y26200D01*
X236660Y26123D01*
X236778Y26042D01*
X236893Y25958D01*
X237005Y25871D01*
X237115Y25780D01*
X237223Y25687D01*
X237328Y25590D01*
X237430Y25491D01*
X237529Y25389D01*
X237626Y25284D01*
X237719Y25176D01*
X237810Y25066D01*
X237897Y24954D01*
X237981Y24839D01*
X238062Y24721D01*
X238139Y24602D01*
X238213Y24480D01*
X238284Y24356D01*
X238351Y24231D01*
X238415Y24103D01*
X238475Y23974D01*
X238531Y23843D01*
X238584Y23711D01*
X238633Y23577D01*
X238678Y23442D01*
X238719Y23305D01*
X238757Y23168D01*
X238791Y23029D01*
X238820Y22890D01*
X238846Y22750D01*
X238868Y22609D01*
X238886Y22468D01*
X238900Y22326D01*
X238910Y22184D01*
X238916Y22041D01*
X238918Y21899D01*
X238916Y21757D01*
X238910Y21614D01*
X238900Y21472D01*
X238886Y21330D01*
X238868Y21189D01*
X238846Y21048D01*
X238820Y20908D01*
X238791Y20769D01*
X238757Y20630D01*
X238719Y20493D01*
X238678Y20356D01*
X238633Y20221D01*
X238584Y20087D01*
X238531Y19955D01*
X238475Y19824D01*
X238415Y19695D01*
X238351Y19567D01*
X238284Y19442D01*
X238213Y19318D01*
X238139Y19196D01*
X238062Y19077D01*
X237981Y18959D01*
X237897Y18844D01*
X237810Y18732D01*
X237719Y18622D01*
X237626Y18514D01*
X237529Y18409D01*
X237430Y18307D01*
X237328Y18208D01*
X237223Y18111D01*
X237115Y18018D01*
X237005Y17927D01*
X236893Y17840D01*
X236778Y17756D01*
X236660Y17675D01*
X236541Y17598D01*
X236419Y17524D01*
X236295Y17453D01*
X236170Y17386D01*
X236042Y17322D01*
X235913Y17262D01*
X235782Y17206D01*
X235650Y17153D01*
X235516Y17104D01*
X235381Y17059D01*
X235244Y17018D01*
X235107Y16980D01*
X234968Y16946D01*
X234829Y16917D01*
X234689Y16891D01*
X234548Y16869D01*
X234407Y16851D01*
X234265Y16837D01*
X234123Y16827D01*
X233980Y16821D01*
X233838Y16819D01*
X233696Y16821D01*
X233553Y16827D01*
X233411Y16837D01*
X233269Y16851D01*
X233128Y16869D01*
X232987Y16891D01*
X232847Y16917D01*
X232708Y16946D01*
X232569Y16980D01*
X232432Y17018D01*
X232295Y17059D01*
X232160Y17104D01*
X232026Y17153D01*
X231894Y17206D01*
X231763Y17262D01*
X231634Y17322D01*
X231506Y17386D01*
X231381Y17453D01*
X231257Y17524D01*
X231135Y17598D01*
X231016Y17675D01*
X230898Y17756D01*
X230783Y17840D01*
X230671Y17927D01*
X230561Y18018D01*
X230453Y18111D01*
X230348Y18208D01*
X230246Y18307D01*
X230147Y18409D01*
X230050Y18514D01*
X229957Y18622D01*
X229866Y18732D01*
X229779Y18844D01*
X229695Y18959D01*
X229614Y19077D01*
X229537Y19196D01*
X229463Y19318D01*
X229392Y19442D01*
X229325Y19567D01*
X229261Y19695D01*
X229201Y19824D01*
X229145Y19955D01*
X229092Y20087D01*
X229043Y20221D01*
X228998Y20356D01*
X228957Y20493D01*
X228919Y20630D01*
X228885Y20769D01*
X228856Y20908D01*
X228830Y21048D01*
X228808Y21189D01*
X228790Y21330D01*
X228776Y21472D01*
X228766Y21614D01*
X228760Y21757D01*
X228758Y21899D01*
X128682Y21899D02*
X128684Y22041D01*
X128690Y22184D01*
X128700Y22326D01*
X128714Y22468D01*
X128732Y22609D01*
X128754Y22750D01*
X128780Y22890D01*
X128809Y23029D01*
X128843Y23168D01*
X128881Y23305D01*
X128922Y23442D01*
X128967Y23577D01*
X129016Y23711D01*
X129069Y23843D01*
X129125Y23974D01*
X129185Y24103D01*
X129249Y24231D01*
X129316Y24356D01*
X129387Y24480D01*
X129461Y24602D01*
X129538Y24721D01*
X129619Y24839D01*
X129703Y24954D01*
X129790Y25066D01*
X129881Y25176D01*
X129974Y25284D01*
X130071Y25389D01*
X130170Y25491D01*
X130272Y25590D01*
X130377Y25687D01*
X130485Y25780D01*
X130595Y25871D01*
X130707Y25958D01*
X130822Y26042D01*
X130940Y26123D01*
X131059Y26200D01*
X131181Y26274D01*
X131305Y26345D01*
X131430Y26412D01*
X131558Y26476D01*
X131687Y26536D01*
X131818Y26592D01*
X131950Y26645D01*
X132084Y26694D01*
X132219Y26739D01*
X132356Y26780D01*
X132493Y26818D01*
X132632Y26852D01*
X132771Y26881D01*
X132911Y26907D01*
X133052Y26929D01*
X133193Y26947D01*
X133335Y26961D01*
X133477Y26971D01*
X133620Y26977D01*
X133762Y26979D01*
X133904Y26977D01*
X134047Y26971D01*
X134189Y26961D01*
X134331Y26947D01*
X134472Y26929D01*
X134613Y26907D01*
X134753Y26881D01*
X134892Y26852D01*
X135031Y26818D01*
X135168Y26780D01*
X135305Y26739D01*
X135440Y26694D01*
X135574Y26645D01*
X135706Y26592D01*
X135837Y26536D01*
X135966Y26476D01*
X136094Y26412D01*
X136219Y26345D01*
X136343Y26274D01*
X136465Y26200D01*
X136584Y26123D01*
X136702Y26042D01*
X136817Y25958D01*
X136929Y25871D01*
X137039Y25780D01*
X137147Y25687D01*
X137252Y25590D01*
X137354Y25491D01*
X137453Y25389D01*
X137550Y25284D01*
X137643Y25176D01*
X137734Y25066D01*
X137821Y24954D01*
X137905Y24839D01*
X137986Y24721D01*
X138063Y24602D01*
X138137Y24480D01*
X138208Y24356D01*
X138275Y24231D01*
X138339Y24103D01*
X138399Y23974D01*
X138455Y23843D01*
X138508Y23711D01*
X138557Y23577D01*
X138602Y23442D01*
X138643Y23305D01*
X138681Y23168D01*
X138715Y23029D01*
X138744Y22890D01*
X138770Y22750D01*
X138792Y22609D01*
X138810Y22468D01*
X138824Y22326D01*
X138834Y22184D01*
X138840Y22041D01*
X138842Y21899D01*
X138840Y21757D01*
X138834Y21614D01*
X138824Y21472D01*
X138810Y21330D01*
X138792Y21189D01*
X138770Y21048D01*
X138744Y20908D01*
X138715Y20769D01*
X138681Y20630D01*
X138643Y20493D01*
X138602Y20356D01*
X138557Y20221D01*
X138508Y20087D01*
X138455Y19955D01*
X138399Y19824D01*
X138339Y19695D01*
X138275Y19567D01*
X138208Y19442D01*
X138137Y19318D01*
X138063Y19196D01*
X137986Y19077D01*
X137905Y18959D01*
X137821Y18844D01*
X137734Y18732D01*
X137643Y18622D01*
X137550Y18514D01*
X137453Y18409D01*
X137354Y18307D01*
X137252Y18208D01*
X137147Y18111D01*
X137039Y18018D01*
X136929Y17927D01*
X136817Y17840D01*
X136702Y17756D01*
X136584Y17675D01*
X136465Y17598D01*
X136343Y17524D01*
X136219Y17453D01*
X136094Y17386D01*
X135966Y17322D01*
X135837Y17262D01*
X135706Y17206D01*
X135574Y17153D01*
X135440Y17104D01*
X135305Y17059D01*
X135168Y17018D01*
X135031Y16980D01*
X134892Y16946D01*
X134753Y16917D01*
X134613Y16891D01*
X134472Y16869D01*
X134331Y16851D01*
X134189Y16837D01*
X134047Y16827D01*
X133904Y16821D01*
X133762Y16819D01*
X133620Y16821D01*
X133477Y16827D01*
X133335Y16837D01*
X133193Y16851D01*
X133052Y16869D01*
X132911Y16891D01*
X132771Y16917D01*
X132632Y16946D01*
X132493Y16980D01*
X132356Y17018D01*
X132219Y17059D01*
X132084Y17104D01*
X131950Y17153D01*
X131818Y17206D01*
X131687Y17262D01*
X131558Y17322D01*
X131430Y17386D01*
X131305Y17453D01*
X131181Y17524D01*
X131059Y17598D01*
X130940Y17675D01*
X130822Y17756D01*
X130707Y17840D01*
X130595Y17927D01*
X130485Y18018D01*
X130377Y18111D01*
X130272Y18208D01*
X130170Y18307D01*
X130071Y18409D01*
X129974Y18514D01*
X129881Y18622D01*
X129790Y18732D01*
X129703Y18844D01*
X129619Y18959D01*
X129538Y19077D01*
X129461Y19196D01*
X129387Y19318D01*
X129316Y19442D01*
X129249Y19567D01*
X129185Y19695D01*
X129125Y19824D01*
X129069Y19955D01*
X129016Y20087D01*
X128967Y20221D01*
X128922Y20356D01*
X128881Y20493D01*
X128843Y20630D01*
X128809Y20769D01*
X128780Y20908D01*
X128754Y21048D01*
X128732Y21189D01*
X128714Y21330D01*
X128700Y21472D01*
X128690Y21614D01*
X128684Y21757D01*
X128682Y21899D01*
X178720Y21899D02*
X178722Y22041D01*
X178728Y22184D01*
X178738Y22326D01*
X178752Y22468D01*
X178770Y22609D01*
X178792Y22750D01*
X178818Y22890D01*
X178847Y23029D01*
X178881Y23168D01*
X178919Y23305D01*
X178960Y23442D01*
X179005Y23577D01*
X179054Y23711D01*
X179107Y23843D01*
X179163Y23974D01*
X179223Y24103D01*
X179287Y24231D01*
X179354Y24356D01*
X179425Y24480D01*
X179499Y24602D01*
X179576Y24721D01*
X179657Y24839D01*
X179741Y24954D01*
X179828Y25066D01*
X179919Y25176D01*
X180012Y25284D01*
X180109Y25389D01*
X180208Y25491D01*
X180310Y25590D01*
X180415Y25687D01*
X180523Y25780D01*
X180633Y25871D01*
X180745Y25958D01*
X180860Y26042D01*
X180978Y26123D01*
X181097Y26200D01*
X181219Y26274D01*
X181343Y26345D01*
X181468Y26412D01*
X181596Y26476D01*
X181725Y26536D01*
X181856Y26592D01*
X181988Y26645D01*
X182122Y26694D01*
X182257Y26739D01*
X182394Y26780D01*
X182531Y26818D01*
X182670Y26852D01*
X182809Y26881D01*
X182949Y26907D01*
X183090Y26929D01*
X183231Y26947D01*
X183373Y26961D01*
X183515Y26971D01*
X183658Y26977D01*
X183800Y26979D01*
X183942Y26977D01*
X184085Y26971D01*
X184227Y26961D01*
X184369Y26947D01*
X184510Y26929D01*
X184651Y26907D01*
X184791Y26881D01*
X184930Y26852D01*
X185069Y26818D01*
X185206Y26780D01*
X185343Y26739D01*
X185478Y26694D01*
X185612Y26645D01*
X185744Y26592D01*
X185875Y26536D01*
X186004Y26476D01*
X186132Y26412D01*
X186257Y26345D01*
X186381Y26274D01*
X186503Y26200D01*
X186622Y26123D01*
X186740Y26042D01*
X186855Y25958D01*
X186967Y25871D01*
X187077Y25780D01*
X187185Y25687D01*
X187290Y25590D01*
X187392Y25491D01*
X187491Y25389D01*
X187588Y25284D01*
X187681Y25176D01*
X187772Y25066D01*
X187859Y24954D01*
X187943Y24839D01*
X188024Y24721D01*
X188101Y24602D01*
X188175Y24480D01*
X188246Y24356D01*
X188313Y24231D01*
X188377Y24103D01*
X188437Y23974D01*
X188493Y23843D01*
X188546Y23711D01*
X188595Y23577D01*
X188640Y23442D01*
X188681Y23305D01*
X188719Y23168D01*
X188753Y23029D01*
X188782Y22890D01*
X188808Y22750D01*
X188830Y22609D01*
X188848Y22468D01*
X188862Y22326D01*
X188872Y22184D01*
X188878Y22041D01*
X188880Y21899D01*
X188878Y21757D01*
X188872Y21614D01*
X188862Y21472D01*
X188848Y21330D01*
X188830Y21189D01*
X188808Y21048D01*
X188782Y20908D01*
X188753Y20769D01*
X188719Y20630D01*
X188681Y20493D01*
X188640Y20356D01*
X188595Y20221D01*
X188546Y20087D01*
X188493Y19955D01*
X188437Y19824D01*
X188377Y19695D01*
X188313Y19567D01*
X188246Y19442D01*
X188175Y19318D01*
X188101Y19196D01*
X188024Y19077D01*
X187943Y18959D01*
X187859Y18844D01*
X187772Y18732D01*
X187681Y18622D01*
X187588Y18514D01*
X187491Y18409D01*
X187392Y18307D01*
X187290Y18208D01*
X187185Y18111D01*
X187077Y18018D01*
X186967Y17927D01*
X186855Y17840D01*
X186740Y17756D01*
X186622Y17675D01*
X186503Y17598D01*
X186381Y17524D01*
X186257Y17453D01*
X186132Y17386D01*
X186004Y17322D01*
X185875Y17262D01*
X185744Y17206D01*
X185612Y17153D01*
X185478Y17104D01*
X185343Y17059D01*
X185206Y17018D01*
X185069Y16980D01*
X184930Y16946D01*
X184791Y16917D01*
X184651Y16891D01*
X184510Y16869D01*
X184369Y16851D01*
X184227Y16837D01*
X184085Y16827D01*
X183942Y16821D01*
X183800Y16819D01*
X183658Y16821D01*
X183515Y16827D01*
X183373Y16837D01*
X183231Y16851D01*
X183090Y16869D01*
X182949Y16891D01*
X182809Y16917D01*
X182670Y16946D01*
X182531Y16980D01*
X182394Y17018D01*
X182257Y17059D01*
X182122Y17104D01*
X181988Y17153D01*
X181856Y17206D01*
X181725Y17262D01*
X181596Y17322D01*
X181468Y17386D01*
X181343Y17453D01*
X181219Y17524D01*
X181097Y17598D01*
X180978Y17675D01*
X180860Y17756D01*
X180745Y17840D01*
X180633Y17927D01*
X180523Y18018D01*
X180415Y18111D01*
X180310Y18208D01*
X180208Y18307D01*
X180109Y18409D01*
X180012Y18514D01*
X179919Y18622D01*
X179828Y18732D01*
X179741Y18844D01*
X179657Y18959D01*
X179576Y19077D01*
X179499Y19196D01*
X179425Y19318D01*
X179354Y19442D01*
X179287Y19567D01*
X179223Y19695D01*
X179163Y19824D01*
X179107Y19955D01*
X179054Y20087D01*
X179005Y20221D01*
X178960Y20356D01*
X178919Y20493D01*
X178881Y20630D01*
X178847Y20769D01*
X178818Y20908D01*
X178792Y21048D01*
X178770Y21189D01*
X178752Y21330D01*
X178738Y21472D01*
X178728Y21614D01*
X178722Y21757D01*
X178720Y21899D01*
D11*
X221646Y106354D02*
X229266Y117784D01*
X221646Y117784D02*
X229266Y106354D01*
X240062Y114926D02*
X240060Y115030D01*
X240054Y115135D01*
X240045Y115239D01*
X240032Y115342D01*
X240014Y115445D01*
X239994Y115547D01*
X239969Y115649D01*
X239941Y115749D01*
X239909Y115849D01*
X239873Y115947D01*
X239834Y116044D01*
X239792Y116139D01*
X239746Y116233D01*
X239696Y116325D01*
X239644Y116415D01*
X239588Y116503D01*
X239528Y116589D01*
X239466Y116673D01*
X239401Y116754D01*
X239333Y116833D01*
X239261Y116910D01*
X239188Y116983D01*
X239111Y117055D01*
X239032Y117123D01*
X238951Y117188D01*
X238867Y117250D01*
X238781Y117310D01*
X238693Y117366D01*
X238603Y117418D01*
X238511Y117468D01*
X238417Y117514D01*
X238322Y117556D01*
X238225Y117595D01*
X238127Y117631D01*
X238027Y117663D01*
X237927Y117691D01*
X237825Y117716D01*
X237723Y117736D01*
X237620Y117754D01*
X237517Y117767D01*
X237413Y117776D01*
X237308Y117782D01*
X237204Y117784D01*
X237086Y117782D01*
X236967Y117776D01*
X236849Y117767D01*
X236732Y117754D01*
X236615Y117736D01*
X236498Y117716D01*
X236382Y117691D01*
X236267Y117663D01*
X236154Y117630D01*
X236041Y117595D01*
X235929Y117555D01*
X235819Y117513D01*
X235710Y117466D01*
X235602Y117416D01*
X235497Y117363D01*
X235393Y117306D01*
X235291Y117246D01*
X235191Y117183D01*
X235093Y117116D01*
X234997Y117047D01*
X234904Y116974D01*
X234813Y116898D01*
X234724Y116820D01*
X234638Y116738D01*
X234555Y116654D01*
X234474Y116568D01*
X234397Y116478D01*
X234322Y116387D01*
X234250Y116293D01*
X234181Y116196D01*
X234116Y116098D01*
X234053Y115997D01*
X233994Y115894D01*
X233938Y115790D01*
X233886Y115684D01*
X233837Y115576D01*
X233792Y115467D01*
X233750Y115356D01*
X233712Y115244D01*
X239109Y112704D02*
X239185Y112779D01*
X239260Y112858D01*
X239331Y112939D01*
X239400Y113023D01*
X239465Y113109D01*
X239527Y113197D01*
X239587Y113287D01*
X239643Y113379D01*
X239696Y113474D01*
X239745Y113570D01*
X239791Y113668D01*
X239834Y113767D01*
X239873Y113868D01*
X239908Y113970D01*
X239940Y114073D01*
X239968Y114177D01*
X239993Y114282D01*
X240014Y114389D01*
X240031Y114495D01*
X240044Y114602D01*
X240053Y114710D01*
X240059Y114818D01*
X240061Y114926D01*
X239109Y112704D02*
X233711Y106354D01*
X240061Y106354D01*
D10*
X333174Y162411D02*
X333174Y262231D01*
X243254Y262231D02*
X241224Y262231D01*
X241224Y162411D01*
X309294Y162411D02*
X333174Y162411D01*
X309294Y162411D02*
X309294Y178411D01*
X309294Y196191D02*
X309294Y228451D01*
X309294Y246231D02*
X309294Y262231D01*
X309294Y162411D02*
X243254Y162411D01*
X309294Y262231D02*
X333174Y262231D01*
X243254Y262231D02*
X243254Y162411D01*
X241224Y162411D01*
X243254Y262231D02*
X309294Y262231D01*
X251386Y187301D02*
X251388Y187443D01*
X251394Y187586D01*
X251404Y187728D01*
X251418Y187870D01*
X251436Y188011D01*
X251458Y188152D01*
X251484Y188292D01*
X251513Y188431D01*
X251547Y188570D01*
X251585Y188707D01*
X251626Y188844D01*
X251671Y188979D01*
X251720Y189113D01*
X251773Y189245D01*
X251829Y189376D01*
X251889Y189505D01*
X251953Y189633D01*
X252020Y189758D01*
X252091Y189882D01*
X252165Y190004D01*
X252242Y190123D01*
X252323Y190241D01*
X252407Y190356D01*
X252494Y190468D01*
X252585Y190578D01*
X252678Y190686D01*
X252775Y190791D01*
X252874Y190893D01*
X252976Y190992D01*
X253081Y191089D01*
X253189Y191182D01*
X253299Y191273D01*
X253411Y191360D01*
X253526Y191444D01*
X253644Y191525D01*
X253763Y191602D01*
X253885Y191676D01*
X254009Y191747D01*
X254134Y191814D01*
X254262Y191878D01*
X254391Y191938D01*
X254522Y191994D01*
X254654Y192047D01*
X254788Y192096D01*
X254923Y192141D01*
X255060Y192182D01*
X255197Y192220D01*
X255336Y192254D01*
X255475Y192283D01*
X255615Y192309D01*
X255756Y192331D01*
X255897Y192349D01*
X256039Y192363D01*
X256181Y192373D01*
X256324Y192379D01*
X256466Y192381D01*
X256608Y192379D01*
X256751Y192373D01*
X256893Y192363D01*
X257035Y192349D01*
X257176Y192331D01*
X257317Y192309D01*
X257457Y192283D01*
X257596Y192254D01*
X257735Y192220D01*
X257872Y192182D01*
X258009Y192141D01*
X258144Y192096D01*
X258278Y192047D01*
X258410Y191994D01*
X258541Y191938D01*
X258670Y191878D01*
X258798Y191814D01*
X258923Y191747D01*
X259047Y191676D01*
X259169Y191602D01*
X259288Y191525D01*
X259406Y191444D01*
X259521Y191360D01*
X259633Y191273D01*
X259743Y191182D01*
X259851Y191089D01*
X259956Y190992D01*
X260058Y190893D01*
X260157Y190791D01*
X260254Y190686D01*
X260347Y190578D01*
X260438Y190468D01*
X260525Y190356D01*
X260609Y190241D01*
X260690Y190123D01*
X260767Y190004D01*
X260841Y189882D01*
X260912Y189758D01*
X260979Y189633D01*
X261043Y189505D01*
X261103Y189376D01*
X261159Y189245D01*
X261212Y189113D01*
X261261Y188979D01*
X261306Y188844D01*
X261347Y188707D01*
X261385Y188570D01*
X261419Y188431D01*
X261448Y188292D01*
X261474Y188152D01*
X261496Y188011D01*
X261514Y187870D01*
X261528Y187728D01*
X261538Y187586D01*
X261544Y187443D01*
X261546Y187301D01*
X261544Y187159D01*
X261538Y187016D01*
X261528Y186874D01*
X261514Y186732D01*
X261496Y186591D01*
X261474Y186450D01*
X261448Y186310D01*
X261419Y186171D01*
X261385Y186032D01*
X261347Y185895D01*
X261306Y185758D01*
X261261Y185623D01*
X261212Y185489D01*
X261159Y185357D01*
X261103Y185226D01*
X261043Y185097D01*
X260979Y184969D01*
X260912Y184844D01*
X260841Y184720D01*
X260767Y184598D01*
X260690Y184479D01*
X260609Y184361D01*
X260525Y184246D01*
X260438Y184134D01*
X260347Y184024D01*
X260254Y183916D01*
X260157Y183811D01*
X260058Y183709D01*
X259956Y183610D01*
X259851Y183513D01*
X259743Y183420D01*
X259633Y183329D01*
X259521Y183242D01*
X259406Y183158D01*
X259288Y183077D01*
X259169Y183000D01*
X259047Y182926D01*
X258923Y182855D01*
X258798Y182788D01*
X258670Y182724D01*
X258541Y182664D01*
X258410Y182608D01*
X258278Y182555D01*
X258144Y182506D01*
X258009Y182461D01*
X257872Y182420D01*
X257735Y182382D01*
X257596Y182348D01*
X257457Y182319D01*
X257317Y182293D01*
X257176Y182271D01*
X257035Y182253D01*
X256893Y182239D01*
X256751Y182229D01*
X256608Y182223D01*
X256466Y182221D01*
X256324Y182223D01*
X256181Y182229D01*
X256039Y182239D01*
X255897Y182253D01*
X255756Y182271D01*
X255615Y182293D01*
X255475Y182319D01*
X255336Y182348D01*
X255197Y182382D01*
X255060Y182420D01*
X254923Y182461D01*
X254788Y182506D01*
X254654Y182555D01*
X254522Y182608D01*
X254391Y182664D01*
X254262Y182724D01*
X254134Y182788D01*
X254009Y182855D01*
X253885Y182926D01*
X253763Y183000D01*
X253644Y183077D01*
X253526Y183158D01*
X253411Y183242D01*
X253299Y183329D01*
X253189Y183420D01*
X253081Y183513D01*
X252976Y183610D01*
X252874Y183709D01*
X252775Y183811D01*
X252678Y183916D01*
X252585Y184024D01*
X252494Y184134D01*
X252407Y184246D01*
X252323Y184361D01*
X252242Y184479D01*
X252165Y184598D01*
X252091Y184720D01*
X252020Y184844D01*
X251953Y184969D01*
X251889Y185097D01*
X251829Y185226D01*
X251773Y185357D01*
X251720Y185489D01*
X251671Y185623D01*
X251626Y185758D01*
X251585Y185895D01*
X251547Y186032D01*
X251513Y186171D01*
X251484Y186310D01*
X251458Y186450D01*
X251436Y186591D01*
X251418Y186732D01*
X251404Y186874D01*
X251394Y187016D01*
X251388Y187159D01*
X251386Y187301D01*
X251386Y237339D02*
X251388Y237481D01*
X251394Y237624D01*
X251404Y237766D01*
X251418Y237908D01*
X251436Y238049D01*
X251458Y238190D01*
X251484Y238330D01*
X251513Y238469D01*
X251547Y238608D01*
X251585Y238745D01*
X251626Y238882D01*
X251671Y239017D01*
X251720Y239151D01*
X251773Y239283D01*
X251829Y239414D01*
X251889Y239543D01*
X251953Y239671D01*
X252020Y239796D01*
X252091Y239920D01*
X252165Y240042D01*
X252242Y240161D01*
X252323Y240279D01*
X252407Y240394D01*
X252494Y240506D01*
X252585Y240616D01*
X252678Y240724D01*
X252775Y240829D01*
X252874Y240931D01*
X252976Y241030D01*
X253081Y241127D01*
X253189Y241220D01*
X253299Y241311D01*
X253411Y241398D01*
X253526Y241482D01*
X253644Y241563D01*
X253763Y241640D01*
X253885Y241714D01*
X254009Y241785D01*
X254134Y241852D01*
X254262Y241916D01*
X254391Y241976D01*
X254522Y242032D01*
X254654Y242085D01*
X254788Y242134D01*
X254923Y242179D01*
X255060Y242220D01*
X255197Y242258D01*
X255336Y242292D01*
X255475Y242321D01*
X255615Y242347D01*
X255756Y242369D01*
X255897Y242387D01*
X256039Y242401D01*
X256181Y242411D01*
X256324Y242417D01*
X256466Y242419D01*
X256608Y242417D01*
X256751Y242411D01*
X256893Y242401D01*
X257035Y242387D01*
X257176Y242369D01*
X257317Y242347D01*
X257457Y242321D01*
X257596Y242292D01*
X257735Y242258D01*
X257872Y242220D01*
X258009Y242179D01*
X258144Y242134D01*
X258278Y242085D01*
X258410Y242032D01*
X258541Y241976D01*
X258670Y241916D01*
X258798Y241852D01*
X258923Y241785D01*
X259047Y241714D01*
X259169Y241640D01*
X259288Y241563D01*
X259406Y241482D01*
X259521Y241398D01*
X259633Y241311D01*
X259743Y241220D01*
X259851Y241127D01*
X259956Y241030D01*
X260058Y240931D01*
X260157Y240829D01*
X260254Y240724D01*
X260347Y240616D01*
X260438Y240506D01*
X260525Y240394D01*
X260609Y240279D01*
X260690Y240161D01*
X260767Y240042D01*
X260841Y239920D01*
X260912Y239796D01*
X260979Y239671D01*
X261043Y239543D01*
X261103Y239414D01*
X261159Y239283D01*
X261212Y239151D01*
X261261Y239017D01*
X261306Y238882D01*
X261347Y238745D01*
X261385Y238608D01*
X261419Y238469D01*
X261448Y238330D01*
X261474Y238190D01*
X261496Y238049D01*
X261514Y237908D01*
X261528Y237766D01*
X261538Y237624D01*
X261544Y237481D01*
X261546Y237339D01*
X261544Y237197D01*
X261538Y237054D01*
X261528Y236912D01*
X261514Y236770D01*
X261496Y236629D01*
X261474Y236488D01*
X261448Y236348D01*
X261419Y236209D01*
X261385Y236070D01*
X261347Y235933D01*
X261306Y235796D01*
X261261Y235661D01*
X261212Y235527D01*
X261159Y235395D01*
X261103Y235264D01*
X261043Y235135D01*
X260979Y235007D01*
X260912Y234882D01*
X260841Y234758D01*
X260767Y234636D01*
X260690Y234517D01*
X260609Y234399D01*
X260525Y234284D01*
X260438Y234172D01*
X260347Y234062D01*
X260254Y233954D01*
X260157Y233849D01*
X260058Y233747D01*
X259956Y233648D01*
X259851Y233551D01*
X259743Y233458D01*
X259633Y233367D01*
X259521Y233280D01*
X259406Y233196D01*
X259288Y233115D01*
X259169Y233038D01*
X259047Y232964D01*
X258923Y232893D01*
X258798Y232826D01*
X258670Y232762D01*
X258541Y232702D01*
X258410Y232646D01*
X258278Y232593D01*
X258144Y232544D01*
X258009Y232499D01*
X257872Y232458D01*
X257735Y232420D01*
X257596Y232386D01*
X257457Y232357D01*
X257317Y232331D01*
X257176Y232309D01*
X257035Y232291D01*
X256893Y232277D01*
X256751Y232267D01*
X256608Y232261D01*
X256466Y232259D01*
X256324Y232261D01*
X256181Y232267D01*
X256039Y232277D01*
X255897Y232291D01*
X255756Y232309D01*
X255615Y232331D01*
X255475Y232357D01*
X255336Y232386D01*
X255197Y232420D01*
X255060Y232458D01*
X254923Y232499D01*
X254788Y232544D01*
X254654Y232593D01*
X254522Y232646D01*
X254391Y232702D01*
X254262Y232762D01*
X254134Y232826D01*
X254009Y232893D01*
X253885Y232964D01*
X253763Y233038D01*
X253644Y233115D01*
X253526Y233196D01*
X253411Y233280D01*
X253299Y233367D01*
X253189Y233458D01*
X253081Y233551D01*
X252976Y233648D01*
X252874Y233747D01*
X252775Y233849D01*
X252678Y233954D01*
X252585Y234062D01*
X252494Y234172D01*
X252407Y234284D01*
X252323Y234399D01*
X252242Y234517D01*
X252165Y234636D01*
X252091Y234758D01*
X252020Y234882D01*
X251953Y235007D01*
X251889Y235135D01*
X251829Y235264D01*
X251773Y235395D01*
X251720Y235527D01*
X251671Y235661D01*
X251626Y235796D01*
X251585Y235933D01*
X251547Y236070D01*
X251513Y236209D01*
X251484Y236348D01*
X251458Y236488D01*
X251436Y236629D01*
X251418Y236770D01*
X251404Y236912D01*
X251394Y237054D01*
X251388Y237197D01*
X251386Y237339D01*
D11*
X260149Y170791D02*
X262689Y167616D01*
X260149Y170791D02*
X271579Y170791D01*
X271579Y167616D02*
X271579Y173966D01*
X260148Y220639D02*
X260150Y220743D01*
X260156Y220848D01*
X260165Y220952D01*
X260178Y221055D01*
X260196Y221158D01*
X260216Y221260D01*
X260241Y221362D01*
X260269Y221462D01*
X260301Y221562D01*
X260337Y221660D01*
X260376Y221757D01*
X260418Y221852D01*
X260464Y221946D01*
X260514Y222038D01*
X260566Y222128D01*
X260622Y222216D01*
X260682Y222302D01*
X260744Y222386D01*
X260809Y222467D01*
X260877Y222546D01*
X260949Y222623D01*
X261022Y222696D01*
X261099Y222768D01*
X261178Y222836D01*
X261259Y222901D01*
X261343Y222963D01*
X261429Y223023D01*
X261517Y223079D01*
X261607Y223131D01*
X261699Y223181D01*
X261793Y223227D01*
X261888Y223269D01*
X261985Y223308D01*
X262083Y223344D01*
X262183Y223376D01*
X262283Y223404D01*
X262385Y223429D01*
X262487Y223449D01*
X262590Y223467D01*
X262693Y223480D01*
X262797Y223489D01*
X262902Y223495D01*
X263006Y223497D01*
X260149Y220639D02*
X260151Y220521D01*
X260157Y220402D01*
X260166Y220284D01*
X260179Y220167D01*
X260197Y220050D01*
X260217Y219933D01*
X260242Y219817D01*
X260270Y219702D01*
X260303Y219589D01*
X260338Y219476D01*
X260378Y219364D01*
X260420Y219254D01*
X260467Y219145D01*
X260517Y219037D01*
X260570Y218932D01*
X260627Y218828D01*
X260687Y218726D01*
X260750Y218626D01*
X260817Y218528D01*
X260886Y218432D01*
X260959Y218339D01*
X261035Y218248D01*
X261113Y218159D01*
X261195Y218073D01*
X261279Y217990D01*
X261365Y217909D01*
X261455Y217832D01*
X261546Y217757D01*
X261640Y217685D01*
X261737Y217616D01*
X261835Y217551D01*
X261936Y217488D01*
X262039Y217429D01*
X262143Y217373D01*
X262249Y217321D01*
X262357Y217272D01*
X262466Y217227D01*
X262577Y217185D01*
X262689Y217147D01*
X265228Y222544D02*
X265153Y222620D01*
X265074Y222695D01*
X264993Y222766D01*
X264909Y222835D01*
X264823Y222900D01*
X264735Y222962D01*
X264645Y223022D01*
X264553Y223078D01*
X264458Y223131D01*
X264362Y223180D01*
X264264Y223226D01*
X264165Y223269D01*
X264064Y223308D01*
X263962Y223343D01*
X263859Y223375D01*
X263755Y223403D01*
X263650Y223428D01*
X263543Y223449D01*
X263437Y223466D01*
X263330Y223479D01*
X263222Y223488D01*
X263114Y223494D01*
X263006Y223496D01*
X265229Y222544D02*
X271579Y217146D01*
X271579Y223496D01*
X316537Y182094D02*
X327967Y174474D01*
X327967Y182094D02*
X316537Y174474D01*
X327967Y186539D02*
X327967Y189714D01*
X327965Y189825D01*
X327959Y189935D01*
X327950Y190046D01*
X327936Y190156D01*
X327919Y190265D01*
X327898Y190374D01*
X327873Y190482D01*
X327844Y190589D01*
X327812Y190695D01*
X327776Y190800D01*
X327736Y190903D01*
X327693Y191005D01*
X327646Y191106D01*
X327595Y191205D01*
X327542Y191302D01*
X327485Y191396D01*
X327424Y191489D01*
X327361Y191580D01*
X327294Y191669D01*
X327224Y191755D01*
X327151Y191838D01*
X327076Y191920D01*
X326998Y191998D01*
X326916Y192073D01*
X326833Y192146D01*
X326747Y192216D01*
X326658Y192283D01*
X326567Y192346D01*
X326474Y192407D01*
X326380Y192464D01*
X326283Y192517D01*
X326184Y192568D01*
X326083Y192615D01*
X325981Y192658D01*
X325878Y192698D01*
X325773Y192734D01*
X325667Y192766D01*
X325560Y192795D01*
X325452Y192820D01*
X325343Y192841D01*
X325234Y192858D01*
X325124Y192872D01*
X325013Y192881D01*
X324903Y192887D01*
X324792Y192889D01*
X324681Y192887D01*
X324571Y192881D01*
X324460Y192872D01*
X324350Y192858D01*
X324241Y192841D01*
X324132Y192820D01*
X324024Y192795D01*
X323917Y192766D01*
X323811Y192734D01*
X323706Y192698D01*
X323603Y192658D01*
X323501Y192615D01*
X323400Y192568D01*
X323301Y192517D01*
X323205Y192464D01*
X323110Y192407D01*
X323017Y192346D01*
X322926Y192283D01*
X322837Y192216D01*
X322751Y192146D01*
X322668Y192073D01*
X322586Y191998D01*
X322508Y191920D01*
X322433Y191838D01*
X322360Y191755D01*
X322290Y191669D01*
X322223Y191580D01*
X322160Y191489D01*
X322099Y191396D01*
X322042Y191302D01*
X321989Y191205D01*
X321938Y191106D01*
X321891Y191005D01*
X321848Y190903D01*
X321808Y190800D01*
X321772Y190695D01*
X321740Y190589D01*
X321711Y190482D01*
X321686Y190374D01*
X321665Y190265D01*
X321648Y190156D01*
X321634Y190046D01*
X321625Y189935D01*
X321619Y189825D01*
X321617Y189714D01*
X316537Y190349D02*
X316537Y186539D01*
X316537Y190349D02*
X316539Y190449D01*
X316545Y190548D01*
X316555Y190648D01*
X316568Y190746D01*
X316586Y190845D01*
X316607Y190942D01*
X316632Y191038D01*
X316661Y191134D01*
X316694Y191228D01*
X316730Y191321D01*
X316770Y191412D01*
X316814Y191502D01*
X316861Y191590D01*
X316911Y191676D01*
X316965Y191760D01*
X317022Y191842D01*
X317082Y191921D01*
X317146Y191999D01*
X317212Y192073D01*
X317281Y192145D01*
X317353Y192214D01*
X317427Y192280D01*
X317505Y192344D01*
X317584Y192404D01*
X317666Y192461D01*
X317750Y192515D01*
X317836Y192565D01*
X317924Y192612D01*
X318014Y192656D01*
X318105Y192696D01*
X318198Y192732D01*
X318292Y192765D01*
X318388Y192794D01*
X318484Y192819D01*
X318581Y192840D01*
X318680Y192858D01*
X318778Y192871D01*
X318878Y192881D01*
X318977Y192887D01*
X319077Y192889D01*
X319177Y192887D01*
X319276Y192881D01*
X319376Y192871D01*
X319474Y192858D01*
X319573Y192840D01*
X319670Y192819D01*
X319766Y192794D01*
X319862Y192765D01*
X319956Y192732D01*
X320049Y192696D01*
X320140Y192656D01*
X320230Y192612D01*
X320318Y192565D01*
X320404Y192515D01*
X320488Y192461D01*
X320570Y192404D01*
X320649Y192344D01*
X320727Y192280D01*
X320801Y192214D01*
X320873Y192145D01*
X320942Y192073D01*
X321008Y191999D01*
X321072Y191921D01*
X321132Y191842D01*
X321189Y191760D01*
X321243Y191676D01*
X321293Y191590D01*
X321340Y191502D01*
X321384Y191412D01*
X321424Y191321D01*
X321460Y191228D01*
X321493Y191134D01*
X321522Y191038D01*
X321547Y190942D01*
X321568Y190845D01*
X321586Y190746D01*
X321599Y190648D01*
X321609Y190548D01*
X321615Y190449D01*
X321617Y190349D01*
X321617Y187809D01*
M02*
