G04 EAGLE Gerber RS-274X export*
G75*
%MOMM*%
%FSLAX34Y34*%
%LPD*%
%INBottom Copper*%
%IPPOS*%
%AMOC8*
5,1,8,0,0,1.08239X$1,22.5*%
G01*
%ADD10R,2.200000X0.600000*%
%ADD11C,1.524000*%
%ADD12C,2.032000*%
%ADD13P,2.199416X8X22.500000*%
%ADD14C,0.600000*%

G36*
X263836Y9753D02*
X263836Y9753D01*
X263936Y9751D01*
X264079Y9772D01*
X264224Y9784D01*
X264321Y9808D01*
X264420Y9823D01*
X264558Y9867D01*
X264699Y9902D01*
X264791Y9941D01*
X264886Y9972D01*
X265015Y10038D01*
X265149Y10096D01*
X265233Y10150D01*
X265322Y10195D01*
X265438Y10281D01*
X265561Y10360D01*
X265635Y10427D01*
X265715Y10486D01*
X265816Y10590D01*
X265924Y10688D01*
X265987Y10766D01*
X266056Y10837D01*
X266139Y10956D01*
X266230Y11070D01*
X266279Y11157D01*
X266335Y11239D01*
X266398Y11370D01*
X266469Y11497D01*
X266503Y11591D01*
X266546Y11681D01*
X266586Y11821D01*
X266635Y11957D01*
X266654Y12055D01*
X266681Y12151D01*
X266692Y12264D01*
X266725Y12438D01*
X266729Y12632D01*
X266740Y12750D01*
X266298Y233631D01*
X266291Y233716D01*
X266293Y233801D01*
X266271Y233959D01*
X266257Y234119D01*
X266236Y234201D01*
X266224Y234285D01*
X266186Y234399D01*
X266137Y234594D01*
X266069Y234751D01*
X266034Y234856D01*
X264496Y238273D01*
X264382Y238480D01*
X264328Y238594D01*
X261022Y244061D01*
X260884Y244254D01*
X260817Y244360D01*
X256876Y249389D01*
X256715Y249563D01*
X256636Y249660D01*
X252118Y254178D01*
X251938Y254331D01*
X251847Y254418D01*
X246817Y258359D01*
X246620Y258489D01*
X246519Y258564D01*
X242008Y261292D01*
X241989Y261301D01*
X241971Y261314D01*
X241771Y261410D01*
X241570Y261510D01*
X241549Y261516D01*
X241530Y261525D01*
X241316Y261588D01*
X241102Y261654D01*
X241081Y261657D01*
X241060Y261663D01*
X240964Y261673D01*
X240617Y261720D01*
X240528Y261717D01*
X240461Y261724D01*
X12646Y262083D01*
X12546Y262075D01*
X12447Y262077D01*
X12303Y262056D01*
X12158Y262044D01*
X12061Y262020D01*
X11962Y262006D01*
X11824Y261961D01*
X11683Y261926D01*
X11591Y261887D01*
X11496Y261856D01*
X11367Y261790D01*
X11233Y261733D01*
X11149Y261679D01*
X11061Y261633D01*
X10944Y261547D01*
X10821Y261468D01*
X10747Y261402D01*
X10667Y261342D01*
X10566Y261238D01*
X10458Y261141D01*
X10396Y261063D01*
X10326Y260991D01*
X10243Y260872D01*
X10152Y260758D01*
X10104Y260671D01*
X10047Y260589D01*
X9984Y260458D01*
X9913Y260331D01*
X9879Y260238D01*
X9837Y260147D01*
X9796Y260007D01*
X9747Y259871D01*
X9729Y259773D01*
X9701Y259677D01*
X9690Y259564D01*
X9657Y259390D01*
X9653Y259196D01*
X9642Y259078D01*
X10093Y33737D01*
X10103Y33623D01*
X10101Y33550D01*
X10106Y33521D01*
X10106Y33463D01*
X10125Y33357D01*
X10134Y33250D01*
X10160Y33146D01*
X10172Y33066D01*
X10183Y33032D01*
X10192Y32981D01*
X10223Y32897D01*
X10254Y32775D01*
X10293Y32684D01*
X10320Y32600D01*
X10373Y32497D01*
X10402Y32417D01*
X11871Y29439D01*
X11971Y29271D01*
X12026Y29164D01*
X12050Y29132D01*
X12067Y29099D01*
X15408Y24099D01*
X15575Y23889D01*
X15647Y23788D01*
X19612Y19267D01*
X19804Y19080D01*
X19889Y18990D01*
X24410Y15025D01*
X24625Y14865D01*
X24721Y14786D01*
X29721Y11445D01*
X29955Y11315D01*
X30061Y11249D01*
X31746Y10418D01*
X31875Y10367D01*
X32000Y10307D01*
X32102Y10277D01*
X32201Y10238D01*
X32337Y10209D01*
X32469Y10170D01*
X32558Y10161D01*
X32680Y10134D01*
X32944Y10121D01*
X33068Y10109D01*
X98717Y10005D01*
X98766Y10009D01*
X98816Y10007D01*
X99010Y10029D01*
X99205Y10044D01*
X99253Y10056D01*
X99302Y10062D01*
X99490Y10115D01*
X99680Y10162D01*
X99725Y10182D01*
X99773Y10195D01*
X99950Y10279D01*
X100129Y10356D01*
X100171Y10383D01*
X100216Y10404D01*
X100377Y10515D01*
X100541Y10620D01*
X100578Y10653D01*
X100619Y10681D01*
X100760Y10817D01*
X100905Y10948D01*
X100936Y10987D01*
X100971Y11021D01*
X101088Y11177D01*
X101210Y11330D01*
X101234Y11374D01*
X101264Y11413D01*
X101354Y11587D01*
X101449Y11757D01*
X101466Y11804D01*
X101489Y11848D01*
X101550Y12034D01*
X101616Y12217D01*
X101625Y12266D01*
X101640Y12313D01*
X101670Y12507D01*
X101705Y12699D01*
X101706Y12748D01*
X101714Y12797D01*
X101711Y12993D01*
X101715Y13188D01*
X101708Y13237D01*
X101708Y13287D01*
X101673Y13479D01*
X101646Y13672D01*
X101631Y13720D01*
X101622Y13769D01*
X101557Y13953D01*
X101498Y14139D01*
X101476Y14183D01*
X101459Y14230D01*
X101365Y14401D01*
X101276Y14576D01*
X101247Y14615D01*
X101223Y14659D01*
X101144Y14755D01*
X100987Y14970D01*
X100898Y15057D01*
X100842Y15125D01*
X98719Y17249D01*
X98718Y17249D01*
X94251Y21717D01*
X94143Y21808D01*
X94042Y21907D01*
X93957Y21966D01*
X93878Y22033D01*
X93757Y22106D01*
X93641Y22187D01*
X93547Y22232D01*
X93458Y22285D01*
X93327Y22337D01*
X93199Y22398D01*
X93099Y22427D01*
X93003Y22465D01*
X92865Y22495D01*
X92729Y22535D01*
X92643Y22543D01*
X92525Y22569D01*
X92253Y22583D01*
X92130Y22595D01*
X89125Y22595D01*
X85222Y24212D01*
X82234Y27200D01*
X81309Y29433D01*
X81287Y29475D01*
X81272Y29520D01*
X81176Y29693D01*
X81085Y29869D01*
X81057Y29907D01*
X81034Y29948D01*
X80911Y30104D01*
X80794Y30262D01*
X80760Y30295D01*
X80731Y30332D01*
X80584Y30465D01*
X80443Y30603D01*
X80404Y30629D01*
X80369Y30661D01*
X80203Y30769D01*
X80040Y30882D01*
X79998Y30902D01*
X79958Y30927D01*
X79777Y31006D01*
X79598Y31091D01*
X79553Y31104D01*
X79509Y31123D01*
X79319Y31172D01*
X79128Y31226D01*
X79081Y31232D01*
X79035Y31243D01*
X78838Y31260D01*
X78642Y31283D01*
X78594Y31281D01*
X78547Y31285D01*
X78350Y31269D01*
X78153Y31260D01*
X78106Y31250D01*
X78059Y31246D01*
X77868Y31199D01*
X77674Y31158D01*
X77630Y31141D01*
X77584Y31129D01*
X77402Y31051D01*
X77218Y30979D01*
X77178Y30955D01*
X77134Y30936D01*
X76968Y30830D01*
X76798Y30729D01*
X76762Y30698D01*
X76722Y30673D01*
X76575Y30540D01*
X76424Y30413D01*
X76393Y30377D01*
X76358Y30346D01*
X76234Y30191D01*
X76106Y30041D01*
X76082Y30000D01*
X76052Y29964D01*
X75993Y29855D01*
X75853Y29622D01*
X75808Y29510D01*
X75767Y29433D01*
X74842Y27200D01*
X71854Y24212D01*
X67951Y22595D01*
X63725Y22595D01*
X59822Y24212D01*
X56834Y27200D01*
X55649Y30062D01*
X55573Y30209D01*
X55506Y30359D01*
X55462Y30426D01*
X55425Y30497D01*
X55327Y30630D01*
X55236Y30768D01*
X55181Y30826D01*
X55134Y30891D01*
X55015Y31006D01*
X54903Y31126D01*
X54840Y31175D01*
X54782Y31231D01*
X54646Y31325D01*
X54516Y31426D01*
X54446Y31464D01*
X54380Y31510D01*
X54231Y31581D01*
X54086Y31659D01*
X54010Y31686D01*
X53938Y31720D01*
X53779Y31765D01*
X53623Y31819D01*
X53544Y31833D01*
X53467Y31855D01*
X53303Y31874D01*
X53141Y31902D01*
X53061Y31903D01*
X52981Y31912D01*
X52816Y31904D01*
X52652Y31905D01*
X52572Y31893D01*
X52492Y31889D01*
X52331Y31854D01*
X52168Y31828D01*
X52092Y31803D01*
X52014Y31786D01*
X51860Y31726D01*
X51704Y31674D01*
X51633Y31637D01*
X51558Y31608D01*
X51416Y31523D01*
X51270Y31447D01*
X51206Y31398D01*
X51138Y31357D01*
X51012Y31251D01*
X50880Y31151D01*
X50825Y31093D01*
X50763Y31042D01*
X50656Y30916D01*
X50543Y30797D01*
X50498Y30731D01*
X50446Y30670D01*
X50360Y30528D01*
X50268Y30392D01*
X50240Y30329D01*
X50193Y30251D01*
X50066Y29933D01*
X50025Y29841D01*
X49854Y29315D01*
X49128Y27890D01*
X48188Y26596D01*
X47057Y25466D01*
X45763Y24526D01*
X44338Y23799D01*
X43437Y23507D01*
X43437Y33215D01*
X43437Y33216D01*
X43437Y42925D01*
X44338Y42632D01*
X45763Y41906D01*
X47057Y40966D01*
X48188Y39835D01*
X49128Y38541D01*
X49854Y37116D01*
X50025Y36591D01*
X50089Y36438D01*
X50144Y36283D01*
X50183Y36213D01*
X50214Y36139D01*
X50301Y35999D01*
X50381Y35855D01*
X50431Y35792D01*
X50473Y35724D01*
X50583Y35600D01*
X50685Y35471D01*
X50744Y35417D01*
X50797Y35357D01*
X50925Y35253D01*
X51047Y35142D01*
X51114Y35098D01*
X51176Y35047D01*
X51319Y34965D01*
X51458Y34875D01*
X51531Y34843D01*
X51601Y34803D01*
X51755Y34746D01*
X51906Y34680D01*
X51984Y34660D01*
X52059Y34632D01*
X52221Y34600D01*
X52381Y34559D01*
X52460Y34553D01*
X52539Y34537D01*
X52704Y34532D01*
X52868Y34518D01*
X52948Y34524D01*
X53028Y34522D01*
X53192Y34544D01*
X53356Y34556D01*
X53434Y34576D01*
X53513Y34586D01*
X53671Y34634D01*
X53831Y34674D01*
X53905Y34705D01*
X53982Y34729D01*
X54129Y34802D01*
X54281Y34867D01*
X54349Y34910D01*
X54421Y34945D01*
X54554Y35041D01*
X54694Y35130D01*
X54753Y35184D01*
X54818Y35231D01*
X54935Y35347D01*
X55058Y35457D01*
X55108Y35520D01*
X55164Y35577D01*
X55260Y35710D01*
X55364Y35839D01*
X55396Y35900D01*
X55450Y35974D01*
X55601Y36281D01*
X55649Y36370D01*
X56834Y39232D01*
X59934Y42332D01*
X60026Y42440D01*
X60125Y42541D01*
X60184Y42626D01*
X60251Y42705D01*
X60324Y42826D01*
X60405Y42943D01*
X60450Y43036D01*
X60503Y43125D01*
X60555Y43256D01*
X60616Y43384D01*
X60645Y43484D01*
X60683Y43580D01*
X60713Y43718D01*
X60753Y43854D01*
X60761Y43940D01*
X60787Y44058D01*
X60801Y44330D01*
X60813Y44453D01*
X60813Y54136D01*
X60801Y54277D01*
X60800Y54419D01*
X60781Y54521D01*
X60773Y54624D01*
X60739Y54761D01*
X60714Y54901D01*
X60679Y54998D01*
X60654Y55099D01*
X60598Y55229D01*
X60551Y55362D01*
X60501Y55453D01*
X60460Y55548D01*
X60383Y55667D01*
X60315Y55791D01*
X60260Y55858D01*
X60195Y55960D01*
X60013Y56161D01*
X59934Y56257D01*
X56453Y59738D01*
X56346Y59830D01*
X56244Y59929D01*
X56159Y59988D01*
X56080Y60055D01*
X55959Y60128D01*
X55843Y60209D01*
X55749Y60254D01*
X55661Y60307D01*
X55529Y60359D01*
X55401Y60420D01*
X55302Y60449D01*
X55205Y60487D01*
X55067Y60517D01*
X54931Y60556D01*
X54846Y60565D01*
X54727Y60591D01*
X54455Y60604D01*
X54333Y60617D01*
X45651Y60617D01*
X43445Y61530D01*
X30031Y74944D01*
X29118Y77150D01*
X29118Y122863D01*
X30031Y125068D01*
X41008Y136045D01*
X43214Y136958D01*
X47877Y136958D01*
X47924Y136962D01*
X47971Y136960D01*
X48168Y136982D01*
X48365Y136998D01*
X48410Y137010D01*
X48457Y137015D01*
X48648Y137069D01*
X48839Y137117D01*
X48883Y137136D01*
X48928Y137149D01*
X49107Y137233D01*
X49289Y137311D01*
X49328Y137337D01*
X49371Y137357D01*
X49534Y137469D01*
X49700Y137576D01*
X49735Y137608D01*
X49774Y137635D01*
X49917Y137772D01*
X50063Y137905D01*
X50093Y137942D01*
X50127Y137974D01*
X50245Y138133D01*
X50368Y138287D01*
X50391Y138329D01*
X50419Y138367D01*
X50510Y138542D01*
X50607Y138715D01*
X50623Y138759D01*
X50644Y138801D01*
X50705Y138990D01*
X50772Y139175D01*
X50781Y139222D01*
X50795Y139267D01*
X50825Y139462D01*
X50861Y139657D01*
X50862Y139704D01*
X50869Y139751D01*
X50866Y139949D01*
X50870Y140146D01*
X50863Y140193D01*
X50863Y140240D01*
X50828Y140435D01*
X50800Y140630D01*
X50785Y140675D01*
X50777Y140722D01*
X50711Y140908D01*
X50651Y141097D01*
X50630Y141139D01*
X50614Y141183D01*
X50519Y141356D01*
X50429Y141533D01*
X50401Y141571D01*
X50378Y141612D01*
X50300Y141708D01*
X50139Y141927D01*
X50052Y142012D01*
X49998Y142078D01*
X37306Y154771D01*
X36392Y156976D01*
X36392Y166426D01*
X36380Y166567D01*
X36379Y166709D01*
X36361Y166811D01*
X36352Y166914D01*
X36318Y167051D01*
X36293Y167190D01*
X36259Y167288D01*
X36233Y167389D01*
X36177Y167519D01*
X36130Y167652D01*
X36080Y167743D01*
X36039Y167838D01*
X35962Y167957D01*
X35894Y168081D01*
X35840Y168148D01*
X35774Y168250D01*
X35592Y168451D01*
X35514Y168547D01*
X29232Y174829D01*
X29232Y185731D01*
X36941Y193441D01*
X47844Y193441D01*
X55553Y185731D01*
X55553Y174829D01*
X49272Y168547D01*
X49181Y168439D01*
X49082Y168338D01*
X49022Y168253D01*
X48955Y168174D01*
X48883Y168053D01*
X48802Y167937D01*
X48757Y167843D01*
X48703Y167754D01*
X48651Y167623D01*
X48590Y167495D01*
X48561Y167396D01*
X48523Y167299D01*
X48493Y167161D01*
X48454Y167025D01*
X48445Y166939D01*
X48420Y166821D01*
X48406Y166549D01*
X48393Y166426D01*
X48393Y161898D01*
X48405Y161757D01*
X48407Y161615D01*
X48425Y161513D01*
X48433Y161410D01*
X48468Y161273D01*
X48492Y161133D01*
X48527Y161036D01*
X48552Y160935D01*
X48608Y160805D01*
X48655Y160672D01*
X48705Y160581D01*
X48747Y160486D01*
X48823Y160367D01*
X48891Y160243D01*
X48946Y160176D01*
X49011Y160074D01*
X49194Y159873D01*
X49272Y159777D01*
X58512Y150537D01*
X58619Y150446D01*
X58721Y150347D01*
X58806Y150287D01*
X58885Y150220D01*
X59006Y150148D01*
X59122Y150066D01*
X59216Y150022D01*
X59305Y149968D01*
X59436Y149916D01*
X59564Y149855D01*
X59663Y149826D01*
X59760Y149788D01*
X59898Y149758D01*
X60034Y149719D01*
X60120Y149710D01*
X60238Y149684D01*
X60510Y149671D01*
X60633Y149658D01*
X62162Y149658D01*
X62256Y149666D01*
X62350Y149664D01*
X62499Y149686D01*
X62649Y149698D01*
X62741Y149721D01*
X62834Y149735D01*
X62978Y149781D01*
X63124Y149817D01*
X63211Y149855D01*
X63301Y149883D01*
X63435Y149952D01*
X63573Y150011D01*
X63653Y150062D01*
X63737Y150105D01*
X63859Y150195D01*
X63985Y150276D01*
X64055Y150339D01*
X64131Y150396D01*
X64236Y150504D01*
X64348Y150605D01*
X64407Y150678D01*
X64473Y150746D01*
X64559Y150870D01*
X64653Y150987D01*
X64699Y151070D01*
X64753Y151147D01*
X64818Y151283D01*
X64891Y151415D01*
X64923Y151504D01*
X64964Y151589D01*
X65006Y151734D01*
X65057Y151875D01*
X65074Y151968D01*
X65101Y152059D01*
X65112Y152174D01*
X65146Y152357D01*
X65149Y152542D01*
X65161Y152658D01*
X65161Y153358D01*
X78701Y153358D01*
X78702Y153358D01*
X92242Y153358D01*
X92242Y153023D01*
X92069Y152377D01*
X91813Y151934D01*
X91731Y151760D01*
X91643Y151590D01*
X91627Y151540D01*
X91604Y151491D01*
X91551Y151307D01*
X91492Y151125D01*
X91484Y151072D01*
X91469Y151021D01*
X91447Y150830D01*
X91419Y150641D01*
X91419Y150588D01*
X91413Y150534D01*
X91422Y150343D01*
X91425Y150152D01*
X91434Y150099D01*
X91437Y150046D01*
X91477Y149858D01*
X91510Y149670D01*
X91528Y149619D01*
X91539Y149567D01*
X91609Y149389D01*
X91673Y149208D01*
X91699Y149161D01*
X91719Y149112D01*
X91817Y148947D01*
X91909Y148779D01*
X91939Y148743D01*
X91970Y148691D01*
X92285Y148318D01*
X92288Y148315D01*
X92290Y148313D01*
X92702Y147901D01*
X92702Y139412D01*
X92655Y139356D01*
X92587Y139291D01*
X92497Y139170D01*
X92399Y139055D01*
X92351Y138974D01*
X92294Y138899D01*
X92225Y138765D01*
X92148Y138636D01*
X92113Y138548D01*
X92070Y138464D01*
X92023Y138321D01*
X91967Y138181D01*
X91947Y138088D01*
X91918Y137999D01*
X91896Y137850D01*
X91864Y137702D01*
X91859Y137608D01*
X91845Y137515D01*
X91847Y137364D01*
X91839Y137213D01*
X91850Y137120D01*
X91851Y137025D01*
X91877Y136877D01*
X91894Y136727D01*
X91920Y136636D01*
X91937Y136543D01*
X91987Y136401D01*
X92028Y136256D01*
X92068Y136171D01*
X92100Y136082D01*
X92172Y135950D01*
X92236Y135813D01*
X92290Y135736D01*
X92335Y135653D01*
X92409Y135563D01*
X92514Y135410D01*
X92643Y135277D01*
X92702Y135204D01*
X92702Y126712D01*
X92655Y126656D01*
X92587Y126591D01*
X92497Y126470D01*
X92399Y126355D01*
X92351Y126274D01*
X92294Y126199D01*
X92225Y126065D01*
X92148Y125936D01*
X92113Y125848D01*
X92070Y125764D01*
X92023Y125621D01*
X91968Y125481D01*
X91947Y125388D01*
X91918Y125299D01*
X91896Y125150D01*
X91864Y125002D01*
X91859Y124908D01*
X91845Y124815D01*
X91847Y124664D01*
X91839Y124514D01*
X91850Y124420D01*
X91851Y124325D01*
X91877Y124177D01*
X91894Y124027D01*
X91920Y123936D01*
X91937Y123843D01*
X91987Y123701D01*
X92028Y123556D01*
X92068Y123471D01*
X92100Y123382D01*
X92172Y123250D01*
X92236Y123114D01*
X92290Y123036D01*
X92335Y122953D01*
X92409Y122863D01*
X92514Y122710D01*
X92643Y122577D01*
X92702Y122504D01*
X92702Y114015D01*
X90945Y112257D01*
X87702Y112257D01*
X87608Y112249D01*
X87513Y112251D01*
X87364Y112229D01*
X87214Y112217D01*
X87122Y112194D01*
X87029Y112181D01*
X86885Y112135D01*
X86739Y112098D01*
X86652Y112061D01*
X86563Y112032D01*
X86428Y111964D01*
X86290Y111904D01*
X86211Y111853D01*
X86126Y111810D01*
X86005Y111720D01*
X85878Y111639D01*
X85808Y111576D01*
X85732Y111520D01*
X85627Y111412D01*
X85515Y111311D01*
X85457Y111237D01*
X85391Y111169D01*
X85304Y111046D01*
X85210Y110928D01*
X85165Y110846D01*
X85110Y110768D01*
X85045Y110632D01*
X84972Y110500D01*
X84940Y110412D01*
X84899Y110327D01*
X84857Y110182D01*
X84806Y110040D01*
X84789Y109947D01*
X84763Y109857D01*
X84751Y109741D01*
X84718Y109559D01*
X84714Y109373D01*
X84702Y109258D01*
X84702Y97712D01*
X84714Y97571D01*
X84716Y97430D01*
X84734Y97328D01*
X84742Y97224D01*
X84777Y97087D01*
X84801Y96948D01*
X84836Y96850D01*
X84861Y96750D01*
X84917Y96620D01*
X84964Y96486D01*
X85014Y96395D01*
X85055Y96300D01*
X85132Y96182D01*
X85200Y96057D01*
X85255Y95990D01*
X85320Y95889D01*
X85502Y95688D01*
X85581Y95591D01*
X86858Y94314D01*
X86858Y83411D01*
X79149Y75702D01*
X68246Y75702D01*
X60537Y83411D01*
X60537Y94314D01*
X68246Y102024D01*
X69702Y102024D01*
X69796Y102031D01*
X69890Y102029D01*
X70039Y102051D01*
X70189Y102063D01*
X70281Y102086D01*
X70374Y102100D01*
X70518Y102146D01*
X70664Y102182D01*
X70751Y102220D01*
X70841Y102248D01*
X70975Y102317D01*
X71113Y102377D01*
X71193Y102428D01*
X71277Y102470D01*
X71399Y102560D01*
X71525Y102641D01*
X71595Y102705D01*
X71671Y102761D01*
X71776Y102869D01*
X71888Y102970D01*
X71947Y103043D01*
X72013Y103111D01*
X72099Y103235D01*
X72193Y103353D01*
X72239Y103435D01*
X72293Y103512D01*
X72358Y103648D01*
X72431Y103780D01*
X72463Y103869D01*
X72504Y103954D01*
X72546Y104099D01*
X72597Y104241D01*
X72614Y104333D01*
X72641Y104424D01*
X72652Y104539D01*
X72686Y104722D01*
X72689Y104907D01*
X72701Y105023D01*
X72701Y109258D01*
X72693Y109352D01*
X72695Y109446D01*
X72673Y109595D01*
X72661Y109745D01*
X72638Y109837D01*
X72625Y109930D01*
X72579Y110074D01*
X72542Y110220D01*
X72505Y110307D01*
X72476Y110397D01*
X72408Y110531D01*
X72348Y110669D01*
X72297Y110749D01*
X72254Y110833D01*
X72164Y110955D01*
X72083Y111081D01*
X72020Y111151D01*
X71964Y111227D01*
X71856Y111332D01*
X71755Y111444D01*
X71681Y111503D01*
X71613Y111569D01*
X71490Y111655D01*
X71372Y111749D01*
X71289Y111795D01*
X71212Y111849D01*
X71076Y111914D01*
X70944Y111987D01*
X70856Y112019D01*
X70771Y112060D01*
X70626Y112102D01*
X70484Y112153D01*
X70391Y112170D01*
X70301Y112197D01*
X70185Y112208D01*
X70003Y112242D01*
X69817Y112245D01*
X69702Y112257D01*
X66459Y112257D01*
X64701Y114015D01*
X64701Y121958D01*
X64693Y122052D01*
X64695Y122146D01*
X64673Y122295D01*
X64661Y122445D01*
X64638Y122537D01*
X64625Y122630D01*
X64579Y122774D01*
X64542Y122920D01*
X64505Y123007D01*
X64476Y123097D01*
X64408Y123231D01*
X64348Y123369D01*
X64297Y123449D01*
X64254Y123533D01*
X64164Y123655D01*
X64083Y123781D01*
X64020Y123851D01*
X63964Y123927D01*
X63856Y124032D01*
X63755Y124144D01*
X63681Y124203D01*
X63613Y124269D01*
X63490Y124355D01*
X63372Y124449D01*
X63289Y124495D01*
X63212Y124549D01*
X63076Y124614D01*
X62944Y124687D01*
X62856Y124719D01*
X62771Y124760D01*
X62626Y124802D01*
X62484Y124853D01*
X62391Y124870D01*
X62301Y124897D01*
X62185Y124908D01*
X62003Y124942D01*
X61817Y124945D01*
X61702Y124957D01*
X48135Y124957D01*
X47994Y124945D01*
X47853Y124944D01*
X47751Y124925D01*
X47648Y124917D01*
X47510Y124883D01*
X47371Y124858D01*
X47273Y124823D01*
X47173Y124798D01*
X47043Y124742D01*
X46910Y124695D01*
X46819Y124645D01*
X46724Y124604D01*
X46605Y124527D01*
X46481Y124459D01*
X46414Y124404D01*
X46312Y124339D01*
X46110Y124157D01*
X46015Y124078D01*
X41998Y120062D01*
X41907Y119954D01*
X41808Y119853D01*
X41748Y119768D01*
X41681Y119689D01*
X41609Y119568D01*
X41527Y119451D01*
X41483Y119358D01*
X41429Y119269D01*
X41377Y119138D01*
X41316Y119010D01*
X41287Y118910D01*
X41249Y118814D01*
X41219Y118675D01*
X41180Y118540D01*
X41171Y118454D01*
X41145Y118336D01*
X41132Y118064D01*
X41119Y117941D01*
X41119Y82071D01*
X41131Y81931D01*
X41133Y81789D01*
X41151Y81687D01*
X41159Y81584D01*
X41194Y81446D01*
X41218Y81307D01*
X41253Y81209D01*
X41278Y81109D01*
X41334Y80979D01*
X41381Y80846D01*
X41431Y80755D01*
X41472Y80660D01*
X41549Y80541D01*
X41617Y80417D01*
X41672Y80350D01*
X41737Y80248D01*
X41920Y80046D01*
X41998Y79951D01*
X48452Y73497D01*
X48559Y73405D01*
X48661Y73306D01*
X48746Y73247D01*
X48825Y73180D01*
X48946Y73107D01*
X49062Y73026D01*
X49156Y72982D01*
X49245Y72928D01*
X49376Y72876D01*
X49504Y72815D01*
X49603Y72786D01*
X49700Y72748D01*
X49838Y72718D01*
X49974Y72679D01*
X50060Y72670D01*
X50178Y72644D01*
X50450Y72631D01*
X50572Y72618D01*
X59254Y72618D01*
X61460Y71705D01*
X71901Y61264D01*
X72814Y59058D01*
X72814Y42502D01*
X72826Y42361D01*
X72828Y42219D01*
X72846Y42117D01*
X72854Y42014D01*
X72889Y41877D01*
X72913Y41737D01*
X72948Y41640D01*
X72973Y41539D01*
X73029Y41409D01*
X73076Y41276D01*
X73126Y41185D01*
X73167Y41090D01*
X73244Y40971D01*
X73312Y40847D01*
X73367Y40780D01*
X73432Y40678D01*
X73614Y40477D01*
X73693Y40381D01*
X74842Y39232D01*
X75767Y36998D01*
X75789Y36956D01*
X75805Y36912D01*
X75900Y36739D01*
X75991Y36563D01*
X76019Y36525D01*
X76042Y36484D01*
X76164Y36328D01*
X76282Y36170D01*
X76316Y36137D01*
X76345Y36100D01*
X76491Y35967D01*
X76633Y35829D01*
X76672Y35802D01*
X76707Y35770D01*
X76873Y35663D01*
X77036Y35550D01*
X77078Y35530D01*
X77118Y35504D01*
X77299Y35425D01*
X77478Y35340D01*
X77523Y35327D01*
X77567Y35308D01*
X77758Y35260D01*
X77948Y35205D01*
X77995Y35200D01*
X78041Y35188D01*
X78238Y35171D01*
X78434Y35149D01*
X78482Y35151D01*
X78529Y35147D01*
X78726Y35162D01*
X78923Y35172D01*
X78970Y35181D01*
X79017Y35185D01*
X79208Y35233D01*
X79402Y35274D01*
X79446Y35291D01*
X79492Y35302D01*
X79674Y35381D01*
X79858Y35453D01*
X79898Y35477D01*
X79942Y35495D01*
X80109Y35602D01*
X80278Y35703D01*
X80314Y35733D01*
X80354Y35759D01*
X80501Y35891D01*
X80652Y36019D01*
X80683Y36055D01*
X80718Y36086D01*
X80841Y36240D01*
X80970Y36391D01*
X80994Y36431D01*
X81024Y36468D01*
X81083Y36577D01*
X81223Y36810D01*
X81268Y36922D01*
X81309Y36998D01*
X82234Y39232D01*
X85508Y42506D01*
X85535Y42538D01*
X85567Y42566D01*
X85694Y42725D01*
X85825Y42879D01*
X85846Y42915D01*
X85873Y42948D01*
X85931Y43056D01*
X86076Y43298D01*
X86119Y43405D01*
X86146Y43457D01*
X87839Y45149D01*
X90044Y46063D01*
X92432Y46063D01*
X94637Y45149D01*
X96329Y43458D01*
X96338Y43441D01*
X96352Y43401D01*
X96449Y43224D01*
X96542Y43043D01*
X96567Y43009D01*
X96587Y42972D01*
X96664Y42878D01*
X96833Y42650D01*
X96916Y42570D01*
X96968Y42506D01*
X100242Y39232D01*
X101859Y35328D01*
X101859Y32324D01*
X101870Y32183D01*
X101872Y32041D01*
X101890Y31939D01*
X101899Y31836D01*
X101933Y31699D01*
X101958Y31560D01*
X101992Y31462D01*
X102017Y31361D01*
X102074Y31231D01*
X102121Y31098D01*
X102171Y31007D01*
X102212Y30912D01*
X102288Y30793D01*
X102356Y30669D01*
X102411Y30602D01*
X102477Y30500D01*
X102659Y30299D01*
X102737Y30203D01*
X105835Y27105D01*
X105943Y27014D01*
X106044Y26915D01*
X106129Y26856D01*
X106208Y26789D01*
X106329Y26716D01*
X106445Y26635D01*
X106539Y26590D01*
X106628Y26537D01*
X106759Y26485D01*
X106887Y26424D01*
X106986Y26395D01*
X107083Y26357D01*
X107221Y26327D01*
X107357Y26287D01*
X107443Y26279D01*
X107561Y26253D01*
X107833Y26239D01*
X107956Y26227D01*
X198531Y26227D01*
X198672Y26238D01*
X198813Y26240D01*
X198915Y26258D01*
X199019Y26267D01*
X199156Y26301D01*
X199295Y26326D01*
X199393Y26360D01*
X199493Y26385D01*
X199623Y26442D01*
X199757Y26489D01*
X199848Y26539D01*
X199943Y26580D01*
X200061Y26656D01*
X200185Y26725D01*
X200253Y26779D01*
X200354Y26845D01*
X200556Y27027D01*
X200652Y27105D01*
X201373Y27826D01*
X201464Y27934D01*
X201563Y28035D01*
X201622Y28121D01*
X201689Y28200D01*
X201762Y28321D01*
X201843Y28437D01*
X201888Y28530D01*
X201941Y28619D01*
X201993Y28751D01*
X202054Y28878D01*
X202083Y28978D01*
X202121Y29074D01*
X202151Y29213D01*
X202191Y29348D01*
X202199Y29434D01*
X202225Y29553D01*
X202239Y29824D01*
X202251Y29947D01*
X202251Y33345D01*
X202240Y33485D01*
X202238Y33627D01*
X202220Y33729D01*
X202211Y33832D01*
X202177Y33970D01*
X202152Y34109D01*
X202118Y34206D01*
X202093Y34307D01*
X202036Y34437D01*
X201989Y34570D01*
X201939Y34661D01*
X201898Y34756D01*
X201822Y34875D01*
X201754Y34999D01*
X201699Y35066D01*
X201633Y35168D01*
X201451Y35369D01*
X201373Y35465D01*
X199248Y37590D01*
X198323Y39824D01*
X198301Y39866D01*
X198285Y39910D01*
X198190Y40083D01*
X198099Y40259D01*
X198071Y40297D01*
X198048Y40338D01*
X197926Y40493D01*
X197808Y40652D01*
X197774Y40685D01*
X197745Y40722D01*
X197598Y40855D01*
X197456Y40993D01*
X197418Y41020D01*
X197383Y41052D01*
X197216Y41159D01*
X197054Y41272D01*
X197012Y41292D01*
X196972Y41318D01*
X196791Y41397D01*
X196612Y41482D01*
X196567Y41495D01*
X196523Y41513D01*
X196332Y41562D01*
X196142Y41617D01*
X196095Y41622D01*
X196049Y41634D01*
X195852Y41650D01*
X195656Y41673D01*
X195608Y41671D01*
X195561Y41675D01*
X195364Y41660D01*
X195167Y41650D01*
X195120Y41640D01*
X195073Y41637D01*
X194882Y41589D01*
X194688Y41548D01*
X194644Y41531D01*
X194598Y41519D01*
X194416Y41441D01*
X194232Y41369D01*
X194192Y41345D01*
X194148Y41327D01*
X193982Y41220D01*
X193812Y41119D01*
X193776Y41088D01*
X193736Y41063D01*
X193589Y40931D01*
X193438Y40803D01*
X193407Y40767D01*
X193372Y40736D01*
X193248Y40582D01*
X193120Y40431D01*
X193095Y40391D01*
X193066Y40354D01*
X193008Y40245D01*
X192867Y40012D01*
X192822Y39900D01*
X192781Y39824D01*
X191856Y37590D01*
X188868Y34602D01*
X184965Y32985D01*
X180739Y32985D01*
X176836Y34602D01*
X173848Y37590D01*
X172662Y40452D01*
X172587Y40599D01*
X172520Y40750D01*
X172476Y40816D01*
X172439Y40888D01*
X172341Y41020D01*
X172250Y41158D01*
X172195Y41217D01*
X172148Y41281D01*
X172029Y41396D01*
X171917Y41517D01*
X171854Y41566D01*
X171796Y41622D01*
X171660Y41716D01*
X171530Y41817D01*
X171460Y41855D01*
X171394Y41901D01*
X171245Y41971D01*
X171100Y42050D01*
X171024Y42076D01*
X170952Y42110D01*
X170793Y42156D01*
X170637Y42210D01*
X170558Y42223D01*
X170481Y42245D01*
X170317Y42265D01*
X170155Y42292D01*
X170075Y42293D01*
X169995Y42302D01*
X169830Y42294D01*
X169666Y42295D01*
X169586Y42283D01*
X169506Y42279D01*
X169345Y42245D01*
X169182Y42219D01*
X169106Y42194D01*
X169028Y42177D01*
X168874Y42116D01*
X168718Y42065D01*
X168647Y42027D01*
X168572Y41998D01*
X168430Y41914D01*
X168284Y41837D01*
X168220Y41789D01*
X168152Y41748D01*
X168025Y41641D01*
X167894Y41542D01*
X167839Y41484D01*
X167777Y41432D01*
X167670Y41306D01*
X167557Y41187D01*
X167512Y41121D01*
X167460Y41060D01*
X167374Y40918D01*
X167282Y40782D01*
X167254Y40720D01*
X167206Y40641D01*
X167080Y40324D01*
X167039Y40231D01*
X166868Y39706D01*
X166142Y38281D01*
X165202Y36987D01*
X164071Y35856D01*
X162777Y34916D01*
X161352Y34190D01*
X160451Y33897D01*
X160451Y43606D01*
X160451Y53315D01*
X161352Y53022D01*
X162777Y52296D01*
X164071Y51356D01*
X165202Y50225D01*
X166142Y48932D01*
X166868Y47506D01*
X167039Y46981D01*
X167103Y46829D01*
X167158Y46673D01*
X167197Y46603D01*
X167228Y46529D01*
X167315Y46389D01*
X167395Y46245D01*
X167445Y46182D01*
X167487Y46114D01*
X167597Y45990D01*
X167699Y45861D01*
X167758Y45807D01*
X167811Y45747D01*
X167939Y45643D01*
X168061Y45532D01*
X168128Y45488D01*
X168190Y45438D01*
X168334Y45355D01*
X168472Y45266D01*
X168545Y45234D01*
X168615Y45194D01*
X168769Y45136D01*
X168920Y45070D01*
X168998Y45050D01*
X169073Y45022D01*
X169235Y44990D01*
X169395Y44950D01*
X169474Y44943D01*
X169553Y44928D01*
X169718Y44922D01*
X169882Y44908D01*
X169962Y44915D01*
X170042Y44912D01*
X170206Y44934D01*
X170370Y44947D01*
X170448Y44966D01*
X170527Y44977D01*
X170685Y45025D01*
X170845Y45064D01*
X170919Y45096D01*
X170996Y45119D01*
X171143Y45192D01*
X171295Y45257D01*
X171363Y45300D01*
X171435Y45336D01*
X171568Y45432D01*
X171707Y45521D01*
X171767Y45574D01*
X171832Y45621D01*
X171949Y45737D01*
X172072Y45848D01*
X172122Y45910D01*
X172178Y45967D01*
X172274Y46101D01*
X172378Y46230D01*
X172410Y46290D01*
X172464Y46365D01*
X172615Y46671D01*
X172662Y46760D01*
X173848Y49622D01*
X175973Y51747D01*
X176064Y51855D01*
X176163Y51956D01*
X176222Y52041D01*
X176289Y52120D01*
X176362Y52241D01*
X176443Y52357D01*
X176488Y52451D01*
X176541Y52540D01*
X176593Y52671D01*
X176654Y52799D01*
X176683Y52898D01*
X176721Y52995D01*
X176751Y53133D01*
X176791Y53269D01*
X176799Y53355D01*
X176825Y53473D01*
X176839Y53745D01*
X176851Y53868D01*
X176851Y57716D01*
X176840Y57857D01*
X176838Y57998D01*
X176820Y58100D01*
X176811Y58204D01*
X176777Y58341D01*
X176752Y58480D01*
X176718Y58578D01*
X176693Y58679D01*
X176636Y58808D01*
X176589Y58942D01*
X176539Y59033D01*
X176498Y59128D01*
X176422Y59247D01*
X176354Y59371D01*
X176299Y59438D01*
X176233Y59539D01*
X176146Y59636D01*
X176097Y59702D01*
X176026Y59772D01*
X175973Y59837D01*
X172724Y63086D01*
X172616Y63177D01*
X172515Y63276D01*
X172430Y63335D01*
X172351Y63402D01*
X172230Y63475D01*
X172114Y63556D01*
X172020Y63601D01*
X171931Y63654D01*
X171800Y63706D01*
X171672Y63767D01*
X171572Y63796D01*
X171476Y63834D01*
X171338Y63864D01*
X171202Y63904D01*
X171116Y63912D01*
X170998Y63938D01*
X170726Y63952D01*
X170603Y63964D01*
X130572Y63964D01*
X128366Y64878D01*
X106121Y87123D01*
X105207Y89328D01*
X105207Y125271D01*
X106121Y127477D01*
X114689Y136045D01*
X114849Y136111D01*
X115063Y136221D01*
X115277Y136330D01*
X115281Y136333D01*
X115285Y136335D01*
X115477Y136478D01*
X115671Y136620D01*
X115674Y136624D01*
X115678Y136626D01*
X115842Y136796D01*
X116013Y136971D01*
X116015Y136974D01*
X116019Y136978D01*
X116153Y137171D01*
X116293Y137372D01*
X116295Y137376D01*
X116298Y137380D01*
X116400Y137595D01*
X116504Y137813D01*
X116505Y137818D01*
X116507Y137822D01*
X116574Y138053D01*
X116641Y138283D01*
X116641Y138287D01*
X116642Y138293D01*
X116699Y138779D01*
X116696Y138837D01*
X116701Y138882D01*
X116701Y147358D01*
X116693Y147452D01*
X116695Y147546D01*
X116673Y147695D01*
X116661Y147845D01*
X116638Y147937D01*
X116625Y148030D01*
X116579Y148174D01*
X116542Y148320D01*
X116505Y148407D01*
X116476Y148497D01*
X116408Y148631D01*
X116348Y148769D01*
X116297Y148849D01*
X116254Y148933D01*
X116164Y149055D01*
X116083Y149181D01*
X116020Y149251D01*
X115964Y149327D01*
X115856Y149432D01*
X115755Y149544D01*
X115681Y149603D01*
X115613Y149669D01*
X115490Y149755D01*
X115372Y149849D01*
X115289Y149895D01*
X115212Y149949D01*
X115076Y150014D01*
X114944Y150087D01*
X114856Y150119D01*
X114771Y150160D01*
X114626Y150202D01*
X114484Y150253D01*
X114391Y150270D01*
X114301Y150297D01*
X114185Y150308D01*
X114003Y150342D01*
X113817Y150345D01*
X113702Y150357D01*
X112509Y150357D01*
X110303Y151270D01*
X96852Y164722D01*
X96780Y164783D01*
X96714Y164851D01*
X96593Y164942D01*
X96478Y165039D01*
X96398Y165088D01*
X96322Y165144D01*
X96188Y165213D01*
X96059Y165291D01*
X95971Y165326D01*
X95887Y165369D01*
X95744Y165415D01*
X95604Y165471D01*
X95511Y165491D01*
X95422Y165520D01*
X95273Y165543D01*
X95125Y165575D01*
X95031Y165580D01*
X94938Y165594D01*
X94787Y165592D01*
X94637Y165599D01*
X94543Y165589D01*
X94448Y165588D01*
X94300Y165561D01*
X94150Y165544D01*
X94059Y165518D01*
X93967Y165502D01*
X93825Y165452D01*
X93679Y165411D01*
X93594Y165370D01*
X93505Y165339D01*
X93373Y165266D01*
X93237Y165202D01*
X93159Y165149D01*
X93076Y165103D01*
X92986Y165030D01*
X92834Y164924D01*
X92700Y164796D01*
X92610Y164722D01*
X92290Y164402D01*
X92166Y164256D01*
X92037Y164115D01*
X92008Y164070D01*
X91973Y164029D01*
X91875Y163865D01*
X91770Y163704D01*
X91749Y163655D01*
X91721Y163609D01*
X91651Y163431D01*
X91574Y163256D01*
X91561Y163204D01*
X91541Y163154D01*
X91501Y162967D01*
X91453Y162781D01*
X91449Y162728D01*
X91437Y162676D01*
X91428Y162484D01*
X91411Y162294D01*
X91416Y162241D01*
X91413Y162187D01*
X91434Y161997D01*
X91449Y161806D01*
X91462Y161754D01*
X91468Y161701D01*
X91520Y161517D01*
X91566Y161331D01*
X91585Y161288D01*
X91602Y161230D01*
X91810Y160787D01*
X91812Y160784D01*
X91813Y160782D01*
X92069Y160338D01*
X92242Y159692D01*
X92242Y159357D01*
X78702Y159357D01*
X78701Y159357D01*
X65161Y159357D01*
X65161Y159692D01*
X65334Y160338D01*
X65590Y160782D01*
X65672Y160955D01*
X65760Y161125D01*
X65777Y161176D01*
X65799Y161224D01*
X65852Y161409D01*
X65911Y161591D01*
X65919Y161643D01*
X65934Y161695D01*
X65956Y161885D01*
X65985Y162074D01*
X65984Y162128D01*
X65990Y162181D01*
X65981Y162372D01*
X65979Y162564D01*
X65969Y162617D01*
X65967Y162670D01*
X65927Y162856D01*
X65893Y163046D01*
X65875Y163096D01*
X65864Y163148D01*
X65794Y163327D01*
X65730Y163507D01*
X65704Y163554D01*
X65685Y163604D01*
X65586Y163768D01*
X65494Y163936D01*
X65465Y163972D01*
X65434Y164024D01*
X65118Y164398D01*
X65115Y164400D01*
X65113Y164402D01*
X64701Y164815D01*
X64701Y173303D01*
X64748Y173359D01*
X64816Y173424D01*
X64906Y173545D01*
X65004Y173660D01*
X65052Y173741D01*
X65109Y173817D01*
X65178Y173951D01*
X65256Y174080D01*
X65290Y174168D01*
X65334Y174251D01*
X65380Y174395D01*
X65436Y174535D01*
X65456Y174627D01*
X65485Y174717D01*
X65508Y174866D01*
X65540Y175013D01*
X65544Y175108D01*
X65558Y175201D01*
X65557Y175351D01*
X65564Y175502D01*
X65554Y175596D01*
X65552Y175690D01*
X65526Y175839D01*
X65509Y175988D01*
X65483Y176079D01*
X65467Y176172D01*
X65416Y176314D01*
X65375Y176459D01*
X65335Y176544D01*
X65304Y176634D01*
X65231Y176766D01*
X65167Y176902D01*
X65113Y176980D01*
X65068Y177062D01*
X64994Y177152D01*
X64889Y177305D01*
X64761Y177438D01*
X64701Y177512D01*
X64701Y186003D01*
X64748Y186059D01*
X64816Y186124D01*
X64906Y186245D01*
X65004Y186360D01*
X65052Y186441D01*
X65109Y186517D01*
X65178Y186650D01*
X65256Y186780D01*
X65290Y186867D01*
X65334Y186951D01*
X65380Y187095D01*
X65436Y187235D01*
X65456Y187327D01*
X65485Y187417D01*
X65508Y187566D01*
X65540Y187713D01*
X65544Y187807D01*
X65558Y187901D01*
X65557Y188051D01*
X65564Y188202D01*
X65554Y188296D01*
X65552Y188390D01*
X65526Y188538D01*
X65509Y188688D01*
X65483Y188779D01*
X65467Y188872D01*
X65416Y189014D01*
X65375Y189159D01*
X65335Y189244D01*
X65304Y189333D01*
X65231Y189465D01*
X65167Y189602D01*
X65113Y189680D01*
X65068Y189762D01*
X64995Y189852D01*
X64889Y190005D01*
X64760Y190139D01*
X64701Y190212D01*
X64701Y198701D01*
X66459Y200458D01*
X90457Y200458D01*
X90597Y200470D01*
X90739Y200472D01*
X90841Y200490D01*
X90944Y200498D01*
X91082Y200533D01*
X91221Y200557D01*
X91318Y200592D01*
X91419Y200617D01*
X91549Y200673D01*
X91682Y200720D01*
X91773Y200770D01*
X91868Y200811D01*
X91987Y200888D01*
X92111Y200956D01*
X92178Y201011D01*
X92280Y201076D01*
X92482Y201259D01*
X92577Y201337D01*
X97743Y206502D01*
X97804Y206574D01*
X97872Y206640D01*
X97962Y206760D01*
X98059Y206875D01*
X98108Y206956D01*
X98164Y207032D01*
X98233Y207166D01*
X98311Y207295D01*
X98346Y207383D01*
X98389Y207467D01*
X98436Y207610D01*
X98491Y207750D01*
X98511Y207842D01*
X98540Y207932D01*
X98563Y208081D01*
X98595Y208228D01*
X98600Y208323D01*
X98614Y208416D01*
X98612Y208566D01*
X98620Y208717D01*
X98609Y208811D01*
X98608Y208905D01*
X98581Y209054D01*
X98564Y209203D01*
X98539Y209294D01*
X98522Y209387D01*
X98472Y209529D01*
X98431Y209674D01*
X98391Y209760D01*
X98359Y209849D01*
X98287Y209981D01*
X98222Y210117D01*
X98169Y210195D01*
X98123Y210278D01*
X98050Y210367D01*
X97945Y210520D01*
X97816Y210654D01*
X97743Y210744D01*
X94409Y214078D01*
X94344Y214133D01*
X94285Y214194D01*
X94157Y214291D01*
X94035Y214394D01*
X93963Y214438D01*
X93895Y214489D01*
X93753Y214564D01*
X93616Y214646D01*
X93537Y214678D01*
X93461Y214717D01*
X93310Y214767D01*
X93161Y214826D01*
X93078Y214844D01*
X92997Y214871D01*
X92839Y214896D01*
X92682Y214930D01*
X92597Y214934D01*
X92513Y214948D01*
X92354Y214947D01*
X92193Y214955D01*
X92109Y214945D01*
X92024Y214945D01*
X91867Y214918D01*
X91707Y214900D01*
X91625Y214876D01*
X91542Y214862D01*
X91390Y214810D01*
X91236Y214766D01*
X91160Y214730D01*
X91079Y214702D01*
X90938Y214626D01*
X90794Y214558D01*
X90724Y214509D01*
X90649Y214469D01*
X90522Y214371D01*
X90390Y214280D01*
X90329Y214221D01*
X90262Y214169D01*
X90182Y214079D01*
X90038Y213940D01*
X89935Y213803D01*
X89861Y213720D01*
X89664Y213448D01*
X88250Y212035D01*
X86633Y210859D01*
X84852Y209952D01*
X82976Y209342D01*
X82976Y231882D01*
X82976Y254422D01*
X84852Y253812D01*
X86633Y252905D01*
X88250Y251730D01*
X89664Y250316D01*
X89861Y250044D01*
X89917Y249980D01*
X89965Y249910D01*
X90076Y249795D01*
X90180Y249673D01*
X90246Y249619D01*
X90304Y249557D01*
X90432Y249462D01*
X90555Y249359D01*
X90629Y249316D01*
X90697Y249265D01*
X90839Y249191D01*
X90977Y249110D01*
X91056Y249079D01*
X91131Y249040D01*
X91284Y248990D01*
X91433Y248932D01*
X91516Y248915D01*
X91597Y248889D01*
X91755Y248865D01*
X91912Y248832D01*
X91997Y248828D01*
X92081Y248815D01*
X92241Y248817D01*
X92401Y248810D01*
X92485Y248820D01*
X92570Y248821D01*
X92728Y248849D01*
X92887Y248868D01*
X92968Y248892D01*
X93052Y248907D01*
X93203Y248960D01*
X93357Y249005D01*
X93433Y249042D01*
X93513Y249070D01*
X93654Y249147D01*
X93798Y249216D01*
X93868Y249265D01*
X93942Y249306D01*
X94035Y249382D01*
X94200Y249496D01*
X94322Y249616D01*
X94409Y249686D01*
X97921Y253199D01*
X102758Y255203D01*
X107994Y255203D01*
X112831Y253199D01*
X116533Y249497D01*
X118537Y244660D01*
X118537Y219104D01*
X116533Y214267D01*
X112712Y210446D01*
X112604Y210366D01*
X112407Y210221D01*
X112404Y210218D01*
X112400Y210215D01*
X112238Y210047D01*
X112065Y209870D01*
X112063Y209867D01*
X112060Y209864D01*
X111926Y209672D01*
X111785Y209469D01*
X111783Y209465D01*
X111781Y209461D01*
X111677Y209243D01*
X111574Y209027D01*
X111573Y209023D01*
X111571Y209019D01*
X111503Y208783D01*
X111437Y208557D01*
X111437Y208554D01*
X111436Y208549D01*
X111379Y208063D01*
X111382Y208004D01*
X111377Y207959D01*
X111377Y204456D01*
X110463Y202250D01*
X104752Y196539D01*
X104661Y196431D01*
X104562Y196330D01*
X104502Y196245D01*
X104435Y196166D01*
X104363Y196045D01*
X104282Y195929D01*
X104237Y195835D01*
X104184Y195746D01*
X104132Y195615D01*
X104070Y195487D01*
X104042Y195387D01*
X104003Y195291D01*
X103973Y195153D01*
X103934Y195017D01*
X103925Y194931D01*
X103900Y194813D01*
X103886Y194541D01*
X103874Y194418D01*
X103874Y175915D01*
X103885Y175775D01*
X103887Y175633D01*
X103905Y175531D01*
X103914Y175428D01*
X103948Y175290D01*
X103973Y175151D01*
X104007Y175053D01*
X104032Y174953D01*
X104088Y174823D01*
X104135Y174690D01*
X104185Y174599D01*
X104227Y174504D01*
X104303Y174385D01*
X104371Y174261D01*
X104426Y174194D01*
X104491Y174092D01*
X104674Y173890D01*
X104752Y173795D01*
X111581Y166966D01*
X111617Y166935D01*
X111649Y166900D01*
X111803Y166777D01*
X111954Y166649D01*
X111994Y166625D01*
X112031Y166595D01*
X112204Y166499D01*
X112374Y166397D01*
X112418Y166380D01*
X112459Y166357D01*
X112645Y166290D01*
X112829Y166217D01*
X112875Y166207D01*
X112919Y166191D01*
X113114Y166155D01*
X113307Y166113D01*
X113354Y166111D01*
X113401Y166102D01*
X113598Y166099D01*
X113796Y166089D01*
X113843Y166094D01*
X113890Y166093D01*
X114085Y166122D01*
X114282Y166144D01*
X114328Y166157D01*
X114374Y166164D01*
X114563Y166224D01*
X114753Y166278D01*
X114796Y166298D01*
X114841Y166312D01*
X115017Y166402D01*
X115196Y166486D01*
X115235Y166513D01*
X115277Y166534D01*
X115436Y166652D01*
X115599Y166764D01*
X115633Y166796D01*
X115671Y166824D01*
X115809Y166966D01*
X115951Y167103D01*
X115980Y167141D01*
X116013Y167175D01*
X116126Y167337D01*
X116244Y167495D01*
X116266Y167537D01*
X116293Y167576D01*
X116378Y167755D01*
X116469Y167930D01*
X116484Y167975D01*
X116504Y168018D01*
X116559Y168208D01*
X116620Y168396D01*
X116627Y168442D01*
X116641Y168488D01*
X116653Y168610D01*
X116694Y168879D01*
X116692Y169000D01*
X116701Y169086D01*
X116701Y173303D01*
X116748Y173359D01*
X116816Y173424D01*
X116906Y173545D01*
X117004Y173660D01*
X117052Y173741D01*
X117109Y173817D01*
X117178Y173951D01*
X117256Y174080D01*
X117290Y174168D01*
X117334Y174251D01*
X117380Y174395D01*
X117436Y174535D01*
X117456Y174627D01*
X117485Y174717D01*
X117508Y174866D01*
X117540Y175013D01*
X117544Y175108D01*
X117558Y175201D01*
X117557Y175351D01*
X117564Y175502D01*
X117554Y175596D01*
X117552Y175690D01*
X117526Y175839D01*
X117509Y175988D01*
X117483Y176079D01*
X117467Y176172D01*
X117416Y176314D01*
X117375Y176459D01*
X117335Y176544D01*
X117304Y176634D01*
X117231Y176766D01*
X117167Y176902D01*
X117113Y176980D01*
X117068Y177062D01*
X116994Y177152D01*
X116889Y177305D01*
X116761Y177438D01*
X116701Y177512D01*
X116701Y186003D01*
X116748Y186059D01*
X116816Y186124D01*
X116906Y186245D01*
X117004Y186360D01*
X117052Y186441D01*
X117109Y186517D01*
X117178Y186650D01*
X117256Y186780D01*
X117290Y186867D01*
X117334Y186951D01*
X117380Y187095D01*
X117436Y187235D01*
X117456Y187327D01*
X117485Y187417D01*
X117508Y187566D01*
X117540Y187713D01*
X117544Y187807D01*
X117558Y187901D01*
X117557Y188051D01*
X117564Y188202D01*
X117554Y188296D01*
X117552Y188390D01*
X117526Y188538D01*
X117509Y188688D01*
X117483Y188779D01*
X117467Y188872D01*
X117416Y189014D01*
X117375Y189159D01*
X117335Y189244D01*
X117304Y189333D01*
X117231Y189465D01*
X117167Y189602D01*
X117113Y189680D01*
X117068Y189762D01*
X116995Y189852D01*
X116889Y190005D01*
X116760Y190139D01*
X116701Y190212D01*
X116701Y198701D01*
X118459Y200458D01*
X121702Y200458D01*
X121796Y200466D01*
X121890Y200464D01*
X122039Y200486D01*
X122189Y200498D01*
X122281Y200521D01*
X122374Y200535D01*
X122518Y200581D01*
X122664Y200617D01*
X122751Y200655D01*
X122841Y200683D01*
X122975Y200752D01*
X123113Y200811D01*
X123193Y200862D01*
X123277Y200905D01*
X123399Y200995D01*
X123525Y201076D01*
X123595Y201139D01*
X123671Y201196D01*
X123776Y201304D01*
X123888Y201405D01*
X123947Y201478D01*
X124013Y201546D01*
X124099Y201670D01*
X124193Y201787D01*
X124239Y201870D01*
X124293Y201947D01*
X124358Y202083D01*
X124431Y202215D01*
X124463Y202304D01*
X124504Y202389D01*
X124546Y202534D01*
X124597Y202675D01*
X124614Y202768D01*
X124641Y202859D01*
X124652Y202974D01*
X124686Y203157D01*
X124689Y203342D01*
X124701Y203458D01*
X124701Y210288D01*
X125614Y212493D01*
X127724Y214603D01*
X138326Y225204D01*
X138387Y225276D01*
X138455Y225342D01*
X138545Y225463D01*
X138642Y225578D01*
X138691Y225658D01*
X138747Y225734D01*
X138816Y225868D01*
X138894Y225997D01*
X138929Y226085D01*
X138972Y226169D01*
X139019Y226312D01*
X139074Y226452D01*
X139094Y226545D01*
X139123Y226634D01*
X139146Y226783D01*
X139178Y226931D01*
X139183Y227025D01*
X139197Y227118D01*
X139195Y227269D01*
X139203Y227419D01*
X139192Y227513D01*
X139191Y227608D01*
X139164Y227756D01*
X139147Y227906D01*
X139122Y227996D01*
X139105Y228089D01*
X139055Y228232D01*
X139014Y228377D01*
X138973Y228462D01*
X138942Y228551D01*
X138869Y228683D01*
X138805Y228819D01*
X138752Y228897D01*
X138706Y228980D01*
X138633Y229070D01*
X138528Y229222D01*
X138399Y229356D01*
X138326Y229446D01*
X135990Y231782D01*
X135990Y242684D01*
X143699Y250394D01*
X154602Y250394D01*
X162311Y242684D01*
X162311Y231782D01*
X154441Y223912D01*
X154316Y223857D01*
X154183Y223810D01*
X154092Y223760D01*
X153997Y223719D01*
X153878Y223643D01*
X153754Y223575D01*
X153687Y223520D01*
X153585Y223454D01*
X153383Y223272D01*
X153288Y223194D01*
X137581Y207487D01*
X137490Y207379D01*
X137391Y207278D01*
X137331Y207193D01*
X137264Y207114D01*
X137192Y206993D01*
X137110Y206877D01*
X137066Y206783D01*
X137012Y206694D01*
X136960Y206563D01*
X136899Y206435D01*
X136870Y206336D01*
X136832Y206239D01*
X136802Y206101D01*
X136763Y205965D01*
X136754Y205879D01*
X136728Y205761D01*
X136715Y205489D01*
X136702Y205366D01*
X136702Y203458D01*
X136710Y203363D01*
X136708Y203269D01*
X136730Y203120D01*
X136742Y202970D01*
X136765Y202878D01*
X136779Y202785D01*
X136824Y202641D01*
X136861Y202495D01*
X136899Y202408D01*
X136927Y202319D01*
X136996Y202184D01*
X137055Y202046D01*
X137106Y201967D01*
X137149Y201882D01*
X137239Y201761D01*
X137320Y201634D01*
X137383Y201565D01*
X137440Y201488D01*
X137548Y201383D01*
X137649Y201271D01*
X137722Y201213D01*
X137790Y201147D01*
X137914Y201060D01*
X138031Y200966D01*
X138114Y200921D01*
X138191Y200866D01*
X138327Y200801D01*
X138459Y200728D01*
X138548Y200696D01*
X138633Y200655D01*
X138778Y200613D01*
X138919Y200562D01*
X139012Y200545D01*
X139103Y200519D01*
X139218Y200507D01*
X139401Y200474D01*
X139586Y200470D01*
X139702Y200458D01*
X142945Y200458D01*
X144702Y198701D01*
X144702Y191069D01*
X144710Y190975D01*
X144708Y190881D01*
X144730Y190732D01*
X144742Y190581D01*
X144765Y190490D01*
X144779Y190396D01*
X144824Y190253D01*
X144861Y190107D01*
X144899Y190020D01*
X144927Y189930D01*
X144996Y189795D01*
X145055Y189657D01*
X145106Y189578D01*
X145149Y189494D01*
X145239Y189372D01*
X145320Y189246D01*
X145383Y189176D01*
X145440Y189100D01*
X145548Y188994D01*
X145649Y188883D01*
X145722Y188824D01*
X145790Y188758D01*
X145914Y188672D01*
X146031Y188578D01*
X146114Y188532D01*
X146191Y188478D01*
X146327Y188413D01*
X146459Y188339D01*
X146548Y188308D01*
X146633Y188267D01*
X146778Y188225D01*
X146919Y188174D01*
X147012Y188157D01*
X147103Y188130D01*
X147218Y188119D01*
X147401Y188085D01*
X147586Y188082D01*
X147702Y188070D01*
X150177Y188070D01*
X150317Y188081D01*
X150459Y188083D01*
X150561Y188101D01*
X150664Y188110D01*
X150802Y188144D01*
X150941Y188169D01*
X151038Y188203D01*
X151139Y188229D01*
X151269Y188285D01*
X151402Y188332D01*
X151493Y188382D01*
X151588Y188423D01*
X151707Y188499D01*
X151831Y188568D01*
X151898Y188622D01*
X152000Y188688D01*
X152201Y188870D01*
X152297Y188948D01*
X156829Y193480D01*
X156920Y193587D01*
X157019Y193689D01*
X157078Y193774D01*
X157145Y193853D01*
X157218Y193974D01*
X157299Y194090D01*
X157344Y194184D01*
X157397Y194273D01*
X157449Y194404D01*
X157510Y194532D01*
X157539Y194631D01*
X157577Y194728D01*
X157607Y194866D01*
X157647Y195002D01*
X157655Y195088D01*
X157681Y195206D01*
X157690Y195388D01*
X157692Y195397D01*
X157693Y195439D01*
X157695Y195478D01*
X157707Y195601D01*
X157707Y211636D01*
X158621Y213841D01*
X160731Y215951D01*
X171588Y226809D01*
X173698Y228918D01*
X175904Y229832D01*
X195105Y229832D01*
X197311Y228918D01*
X217797Y208432D01*
X217980Y208277D01*
X218163Y208120D01*
X218167Y208118D01*
X218171Y208115D01*
X218376Y207992D01*
X218582Y207867D01*
X218586Y207866D01*
X218590Y207863D01*
X218816Y207774D01*
X219036Y207686D01*
X219041Y207685D01*
X219045Y207683D01*
X219284Y207631D01*
X219514Y207581D01*
X219519Y207580D01*
X219524Y207579D01*
X219764Y207567D01*
X220003Y207554D01*
X220008Y207555D01*
X220012Y207555D01*
X220253Y207582D01*
X220490Y207608D01*
X220494Y207609D01*
X220499Y207610D01*
X220970Y207744D01*
X221023Y207769D01*
X221066Y207782D01*
X223484Y208783D01*
X223630Y208858D01*
X223781Y208926D01*
X223848Y208970D01*
X223919Y209007D01*
X224052Y209105D01*
X224189Y209196D01*
X224248Y209250D01*
X224312Y209298D01*
X224427Y209416D01*
X224548Y209529D01*
X224597Y209592D01*
X224653Y209650D01*
X224747Y209785D01*
X224848Y209915D01*
X224886Y209986D01*
X224932Y210052D01*
X225003Y210201D01*
X225081Y210346D01*
X225107Y210421D01*
X225142Y210494D01*
X225187Y210652D01*
X225241Y210808D01*
X225255Y210887D01*
X225277Y210964D01*
X225296Y211128D01*
X225324Y211291D01*
X225324Y211371D01*
X225333Y211450D01*
X225326Y211615D01*
X225327Y211780D01*
X225314Y211859D01*
X225310Y211939D01*
X225276Y212101D01*
X225250Y212263D01*
X225225Y212339D01*
X225208Y212418D01*
X225148Y212572D01*
X225096Y212728D01*
X225059Y212799D01*
X225029Y212874D01*
X224945Y213015D01*
X224868Y213161D01*
X224820Y213225D01*
X224779Y213294D01*
X224673Y213420D01*
X224573Y213552D01*
X224515Y213607D01*
X224463Y213668D01*
X224338Y213775D01*
X224218Y213889D01*
X224152Y213934D01*
X224091Y213986D01*
X223950Y214071D01*
X223814Y214164D01*
X223751Y214192D01*
X223672Y214239D01*
X223355Y214366D01*
X223263Y214406D01*
X222737Y214577D01*
X221312Y215303D01*
X220018Y216243D01*
X218887Y217374D01*
X217947Y218668D01*
X217221Y220093D01*
X216928Y220994D01*
X226637Y220994D01*
X226638Y220994D01*
X236347Y220994D01*
X236054Y220093D01*
X235328Y218668D01*
X234388Y217374D01*
X233257Y216243D01*
X231963Y215303D01*
X230538Y214577D01*
X230012Y214406D01*
X229860Y214343D01*
X229705Y214288D01*
X229635Y214249D01*
X229561Y214218D01*
X229421Y214130D01*
X229277Y214050D01*
X229214Y214001D01*
X229146Y213958D01*
X229022Y213849D01*
X228893Y213747D01*
X228839Y213688D01*
X228779Y213634D01*
X228674Y213507D01*
X228563Y213385D01*
X228520Y213318D01*
X228469Y213255D01*
X228387Y213112D01*
X228297Y212974D01*
X228265Y212901D01*
X228225Y212831D01*
X228167Y212676D01*
X228101Y212525D01*
X228082Y212448D01*
X228054Y212373D01*
X228022Y212211D01*
X227981Y212051D01*
X227974Y211971D01*
X227959Y211892D01*
X227954Y211728D01*
X227940Y211563D01*
X227946Y211483D01*
X227944Y211403D01*
X227965Y211240D01*
X227978Y211075D01*
X227997Y210998D01*
X228008Y210918D01*
X228056Y210760D01*
X228095Y210600D01*
X228127Y210527D01*
X228150Y210450D01*
X228223Y210302D01*
X228288Y210150D01*
X228332Y210083D01*
X228367Y210011D01*
X228463Y209877D01*
X228552Y209738D01*
X228606Y209678D01*
X228652Y209613D01*
X228769Y209497D01*
X228879Y209374D01*
X228942Y209324D01*
X228998Y209267D01*
X229132Y209171D01*
X229261Y209068D01*
X229321Y209036D01*
X229396Y208982D01*
X229703Y208831D01*
X229791Y208783D01*
X232654Y207597D01*
X235641Y204610D01*
X237258Y200706D01*
X237258Y196481D01*
X235641Y192577D01*
X232654Y189590D01*
X230420Y188665D01*
X230378Y188643D01*
X230333Y188627D01*
X230160Y188531D01*
X229985Y188441D01*
X229947Y188413D01*
X229905Y188390D01*
X229750Y188267D01*
X229591Y188150D01*
X229558Y188116D01*
X229521Y188086D01*
X229389Y187940D01*
X229251Y187798D01*
X229224Y187759D01*
X229192Y187724D01*
X229085Y187559D01*
X228972Y187396D01*
X228952Y187353D01*
X228926Y187314D01*
X228847Y187132D01*
X228762Y186954D01*
X228749Y186908D01*
X228730Y186865D01*
X228681Y186673D01*
X228627Y186483D01*
X228622Y186437D01*
X228610Y186391D01*
X228593Y186193D01*
X228570Y185997D01*
X228572Y185950D01*
X228568Y185903D01*
X228584Y185706D01*
X228593Y185508D01*
X228603Y185462D01*
X228607Y185415D01*
X228654Y185223D01*
X228696Y185030D01*
X228713Y184986D01*
X228724Y184940D01*
X228802Y184758D01*
X228874Y184574D01*
X228898Y184534D01*
X228917Y184490D01*
X229024Y184323D01*
X229125Y184154D01*
X229155Y184117D01*
X229181Y184078D01*
X229313Y183931D01*
X229440Y183779D01*
X229476Y183749D01*
X229508Y183714D01*
X229662Y183590D01*
X229812Y183462D01*
X229853Y183437D01*
X229890Y183408D01*
X229999Y183349D01*
X230231Y183209D01*
X230344Y183164D01*
X230420Y183123D01*
X232654Y182197D01*
X235641Y179210D01*
X237258Y175306D01*
X237258Y172302D01*
X237270Y172161D01*
X237272Y172019D01*
X237290Y171917D01*
X237298Y171814D01*
X237332Y171677D01*
X237357Y171537D01*
X237392Y171440D01*
X237417Y171339D01*
X237473Y171209D01*
X237520Y171076D01*
X237570Y170985D01*
X237611Y170890D01*
X237688Y170771D01*
X237756Y170647D01*
X237811Y170580D01*
X237876Y170478D01*
X238058Y170277D01*
X238137Y170181D01*
X255099Y153219D01*
X256012Y151013D01*
X256012Y84172D01*
X255099Y81966D01*
X219751Y46619D01*
X219660Y46511D01*
X219561Y46410D01*
X219501Y46325D01*
X219434Y46246D01*
X219362Y46125D01*
X219281Y46009D01*
X219236Y45915D01*
X219183Y45826D01*
X219131Y45695D01*
X219070Y45567D01*
X219041Y45468D01*
X219003Y45371D01*
X218972Y45233D01*
X218933Y45097D01*
X218924Y45011D01*
X218899Y44893D01*
X218885Y44621D01*
X218873Y44498D01*
X218873Y41494D01*
X217256Y37590D01*
X215131Y35465D01*
X215040Y35358D01*
X214941Y35256D01*
X214881Y35171D01*
X214814Y35092D01*
X214742Y34971D01*
X214661Y34855D01*
X214616Y34761D01*
X214563Y34672D01*
X214511Y34541D01*
X214450Y34413D01*
X214421Y34314D01*
X214383Y34217D01*
X214352Y34079D01*
X214313Y33943D01*
X214304Y33857D01*
X214279Y33739D01*
X214265Y33467D01*
X214253Y33345D01*
X214253Y25026D01*
X213339Y22820D01*
X207768Y17249D01*
X205472Y14953D01*
X205443Y14919D01*
X205410Y14889D01*
X205285Y14733D01*
X205156Y14580D01*
X205133Y14542D01*
X205105Y14507D01*
X205007Y14332D01*
X204904Y14161D01*
X204887Y14119D01*
X204866Y14080D01*
X204797Y13891D01*
X204724Y13706D01*
X204714Y13662D01*
X204699Y13619D01*
X204663Y13423D01*
X204620Y13227D01*
X204618Y13182D01*
X204610Y13138D01*
X204605Y12939D01*
X204595Y12738D01*
X204600Y12694D01*
X204600Y12649D01*
X204628Y12451D01*
X204651Y12252D01*
X204663Y12209D01*
X204669Y12165D01*
X204730Y11974D01*
X204784Y11781D01*
X204803Y11741D01*
X204817Y11698D01*
X204908Y11519D01*
X204993Y11338D01*
X205018Y11302D01*
X205038Y11261D01*
X205157Y11100D01*
X205270Y10935D01*
X205301Y10903D01*
X205328Y10867D01*
X205471Y10727D01*
X205610Y10583D01*
X205646Y10556D01*
X205678Y10525D01*
X205841Y10410D01*
X206002Y10290D01*
X206042Y10269D01*
X206079Y10244D01*
X206259Y10157D01*
X206437Y10065D01*
X206480Y10051D01*
X206520Y10032D01*
X206712Y9976D01*
X206902Y9914D01*
X206947Y9907D01*
X206990Y9895D01*
X207112Y9882D01*
X207386Y9841D01*
X207504Y9842D01*
X207588Y9833D01*
X263736Y9745D01*
X263836Y9753D01*
G37*
G36*
X195740Y45553D02*
X195740Y45553D01*
X195937Y45562D01*
X195984Y45572D01*
X196031Y45576D01*
X196222Y45623D01*
X196416Y45664D01*
X196460Y45681D01*
X196506Y45693D01*
X196688Y45771D01*
X196871Y45843D01*
X196912Y45867D01*
X196955Y45886D01*
X197122Y45992D01*
X197292Y46093D01*
X197328Y46124D01*
X197368Y46149D01*
X197515Y46281D01*
X197666Y46409D01*
X197697Y46445D01*
X197732Y46476D01*
X197855Y46631D01*
X197984Y46781D01*
X198008Y46822D01*
X198038Y46858D01*
X198096Y46967D01*
X198237Y47200D01*
X198282Y47312D01*
X198323Y47389D01*
X199248Y49622D01*
X202236Y52610D01*
X206139Y54227D01*
X209144Y54227D01*
X209285Y54238D01*
X209426Y54240D01*
X209529Y54258D01*
X209632Y54267D01*
X209769Y54301D01*
X209908Y54326D01*
X210006Y54360D01*
X210107Y54386D01*
X210236Y54442D01*
X210370Y54489D01*
X210461Y54539D01*
X210556Y54580D01*
X210675Y54656D01*
X210799Y54725D01*
X210866Y54779D01*
X210967Y54845D01*
X211169Y55027D01*
X211265Y55105D01*
X243132Y86973D01*
X243223Y87080D01*
X243322Y87182D01*
X243382Y87267D01*
X243449Y87346D01*
X243521Y87467D01*
X243603Y87583D01*
X243647Y87677D01*
X243701Y87765D01*
X243753Y87897D01*
X243814Y88025D01*
X243843Y88124D01*
X243881Y88221D01*
X243911Y88359D01*
X243950Y88495D01*
X243959Y88580D01*
X243985Y88699D01*
X243998Y88971D01*
X244011Y89093D01*
X244011Y146092D01*
X243999Y146233D01*
X243997Y146374D01*
X243979Y146476D01*
X243971Y146580D01*
X243936Y146717D01*
X243912Y146856D01*
X243877Y146954D01*
X243852Y147054D01*
X243796Y147184D01*
X243749Y147318D01*
X243699Y147409D01*
X243658Y147504D01*
X243581Y147622D01*
X243513Y147746D01*
X243458Y147813D01*
X243393Y147915D01*
X243210Y148117D01*
X243132Y148213D01*
X229650Y161694D01*
X229543Y161786D01*
X229441Y161885D01*
X229356Y161944D01*
X229277Y162011D01*
X229156Y162084D01*
X229040Y162165D01*
X228946Y162210D01*
X228858Y162263D01*
X228726Y162315D01*
X228598Y162376D01*
X228499Y162405D01*
X228402Y162443D01*
X228264Y162473D01*
X228128Y162512D01*
X228043Y162521D01*
X227924Y162547D01*
X227652Y162560D01*
X227530Y162573D01*
X224525Y162573D01*
X222822Y163278D01*
X222596Y163351D01*
X222365Y163426D01*
X222360Y163427D01*
X222356Y163428D01*
X222120Y163463D01*
X221881Y163499D01*
X221876Y163499D01*
X221872Y163500D01*
X221635Y163496D01*
X221392Y163493D01*
X221387Y163492D01*
X221383Y163492D01*
X221147Y163450D01*
X220910Y163408D01*
X220906Y163406D01*
X220901Y163405D01*
X220670Y163323D01*
X220448Y163245D01*
X220444Y163242D01*
X220440Y163241D01*
X220228Y163123D01*
X220020Y163009D01*
X220016Y163006D01*
X220012Y163004D01*
X219628Y162700D01*
X219588Y162657D01*
X219553Y162628D01*
X208196Y151270D01*
X205990Y150357D01*
X160074Y150357D01*
X160027Y150353D01*
X159979Y150355D01*
X159783Y150333D01*
X159586Y150317D01*
X159540Y150306D01*
X159493Y150300D01*
X159303Y150246D01*
X159111Y150198D01*
X159068Y150180D01*
X159022Y150167D01*
X158843Y150082D01*
X158662Y150004D01*
X158622Y149978D01*
X158580Y149958D01*
X158417Y149846D01*
X158250Y149739D01*
X158215Y149707D01*
X158176Y149681D01*
X158034Y149543D01*
X157887Y149411D01*
X157858Y149374D01*
X157824Y149341D01*
X157706Y149183D01*
X157583Y149028D01*
X157559Y148987D01*
X157531Y148949D01*
X157441Y148774D01*
X157344Y148600D01*
X157328Y148556D01*
X157306Y148514D01*
X157245Y148326D01*
X157178Y148140D01*
X157170Y148094D01*
X157155Y148049D01*
X157125Y147853D01*
X157090Y147659D01*
X157089Y147611D01*
X157082Y147565D01*
X157084Y147367D01*
X157080Y147169D01*
X157087Y147123D01*
X157088Y147075D01*
X157122Y146881D01*
X157151Y146685D01*
X157165Y146640D01*
X157173Y146593D01*
X157239Y146407D01*
X157299Y146219D01*
X157321Y146177D01*
X157336Y146132D01*
X157432Y145959D01*
X157521Y145782D01*
X157550Y145744D01*
X157572Y145703D01*
X157650Y145608D01*
X157812Y145388D01*
X157898Y145304D01*
X157953Y145237D01*
X170494Y132696D01*
X170566Y132635D01*
X170632Y132566D01*
X170753Y132476D01*
X170867Y132379D01*
X170948Y132330D01*
X171024Y132274D01*
X171158Y132205D01*
X171287Y132127D01*
X171375Y132092D01*
X171459Y132049D01*
X171602Y132002D01*
X171742Y131947D01*
X171835Y131927D01*
X171924Y131898D01*
X172073Y131875D01*
X172221Y131843D01*
X172315Y131838D01*
X172408Y131824D01*
X172559Y131826D01*
X172709Y131819D01*
X172803Y131829D01*
X172897Y131830D01*
X173046Y131857D01*
X173196Y131874D01*
X173286Y131900D01*
X173379Y131916D01*
X173522Y131966D01*
X173666Y132007D01*
X173752Y132048D01*
X173841Y132079D01*
X173973Y132152D01*
X174109Y132216D01*
X174187Y132269D01*
X174270Y132315D01*
X174360Y132388D01*
X174512Y132493D01*
X174646Y132622D01*
X174736Y132696D01*
X176441Y134400D01*
X187343Y134400D01*
X195053Y126691D01*
X195053Y115788D01*
X187343Y108079D01*
X176441Y108079D01*
X168731Y115788D01*
X168731Y116244D01*
X168720Y116384D01*
X168718Y116526D01*
X168700Y116628D01*
X168691Y116731D01*
X168657Y116868D01*
X168632Y117008D01*
X168598Y117105D01*
X168573Y117206D01*
X168517Y117336D01*
X168469Y117469D01*
X168419Y117560D01*
X168378Y117655D01*
X168302Y117774D01*
X168234Y117898D01*
X168179Y117965D01*
X168113Y118067D01*
X167931Y118268D01*
X167853Y118364D01*
X149822Y136395D01*
X149786Y136425D01*
X149755Y136460D01*
X149600Y136584D01*
X149449Y136712D01*
X149409Y136736D01*
X149372Y136765D01*
X149199Y136862D01*
X149030Y136963D01*
X148986Y136981D01*
X148944Y137004D01*
X148758Y137071D01*
X148575Y137143D01*
X148528Y137154D01*
X148484Y137169D01*
X148290Y137205D01*
X148096Y137247D01*
X148049Y137250D01*
X148003Y137258D01*
X147805Y137262D01*
X147607Y137272D01*
X147560Y137266D01*
X147513Y137267D01*
X147318Y137239D01*
X147121Y137217D01*
X147076Y137204D01*
X147029Y137197D01*
X146840Y137137D01*
X146650Y137083D01*
X146607Y137063D01*
X146563Y137049D01*
X146386Y136959D01*
X146207Y136875D01*
X146169Y136848D01*
X146126Y136826D01*
X145967Y136709D01*
X145804Y136597D01*
X145770Y136564D01*
X145732Y136536D01*
X145594Y136394D01*
X145452Y136257D01*
X145424Y136220D01*
X145391Y136186D01*
X145277Y136023D01*
X145159Y135865D01*
X145138Y135823D01*
X145110Y135784D01*
X145025Y135605D01*
X144934Y135430D01*
X144920Y135386D01*
X144899Y135343D01*
X144844Y135153D01*
X144783Y134965D01*
X144776Y134918D01*
X144763Y134873D01*
X144750Y134750D01*
X144710Y134481D01*
X144711Y134360D01*
X144702Y134274D01*
X144702Y126712D01*
X144655Y126656D01*
X144587Y126591D01*
X144497Y126470D01*
X144399Y126355D01*
X144351Y126274D01*
X144294Y126199D01*
X144225Y126065D01*
X144148Y125936D01*
X144113Y125848D01*
X144070Y125764D01*
X144023Y125621D01*
X143968Y125481D01*
X143947Y125388D01*
X143918Y125299D01*
X143896Y125150D01*
X143864Y125002D01*
X143859Y124908D01*
X143845Y124815D01*
X143847Y124664D01*
X143839Y124514D01*
X143850Y124420D01*
X143851Y124325D01*
X143877Y124177D01*
X143894Y124027D01*
X143920Y123936D01*
X143937Y123843D01*
X143987Y123701D01*
X144028Y123556D01*
X144068Y123471D01*
X144100Y123382D01*
X144172Y123250D01*
X144236Y123114D01*
X144290Y123036D01*
X144335Y122953D01*
X144409Y122863D01*
X144514Y122710D01*
X144643Y122577D01*
X144716Y122487D01*
X144926Y122277D01*
X144964Y122169D01*
X145014Y122078D01*
X145055Y121983D01*
X145132Y121864D01*
X145200Y121740D01*
X145255Y121673D01*
X145320Y121571D01*
X145503Y121370D01*
X145581Y121274D01*
X168968Y97887D01*
X169075Y97796D01*
X169177Y97697D01*
X169262Y97637D01*
X169341Y97570D01*
X169462Y97498D01*
X169578Y97417D01*
X169672Y97372D01*
X169760Y97319D01*
X169892Y97267D01*
X170020Y97205D01*
X170119Y97177D01*
X170216Y97138D01*
X170354Y97108D01*
X170490Y97069D01*
X170575Y97060D01*
X170694Y97035D01*
X170966Y97021D01*
X171088Y97009D01*
X196472Y97009D01*
X196612Y97020D01*
X196754Y97022D01*
X196856Y97040D01*
X196959Y97049D01*
X197096Y97083D01*
X197236Y97108D01*
X197333Y97142D01*
X197434Y97167D01*
X197564Y97223D01*
X197697Y97270D01*
X197788Y97320D01*
X197883Y97362D01*
X198002Y97438D01*
X198126Y97506D01*
X198193Y97561D01*
X198295Y97626D01*
X198496Y97809D01*
X198592Y97887D01*
X205438Y104733D01*
X205530Y104841D01*
X205629Y104942D01*
X205688Y105027D01*
X205755Y105106D01*
X205828Y105227D01*
X205909Y105343D01*
X205954Y105437D01*
X206007Y105526D01*
X206059Y105657D01*
X206120Y105785D01*
X206149Y105885D01*
X206187Y105981D01*
X206217Y106119D01*
X206256Y106255D01*
X206265Y106341D01*
X206291Y106459D01*
X206304Y106731D01*
X206317Y106854D01*
X206317Y115737D01*
X214026Y123447D01*
X224929Y123447D01*
X232638Y115737D01*
X232638Y104835D01*
X224929Y97125D01*
X216045Y97125D01*
X215905Y97114D01*
X215763Y97112D01*
X215661Y97094D01*
X215558Y97085D01*
X215421Y97051D01*
X215281Y97026D01*
X215184Y96992D01*
X215083Y96967D01*
X214953Y96910D01*
X214820Y96863D01*
X214729Y96813D01*
X214634Y96772D01*
X214515Y96696D01*
X214391Y96628D01*
X214324Y96573D01*
X214222Y96507D01*
X214021Y96325D01*
X213925Y96247D01*
X205708Y88031D01*
X205708Y88030D01*
X203599Y85921D01*
X201393Y85007D01*
X166167Y85007D01*
X163961Y85921D01*
X138504Y111378D01*
X138396Y111470D01*
X138294Y111569D01*
X138209Y111628D01*
X138130Y111695D01*
X138009Y111768D01*
X137893Y111849D01*
X137799Y111894D01*
X137711Y111947D01*
X137579Y111999D01*
X137452Y112060D01*
X137352Y112089D01*
X137256Y112127D01*
X137117Y112157D01*
X136982Y112197D01*
X136896Y112205D01*
X136777Y112231D01*
X136506Y112245D01*
X136383Y112257D01*
X120208Y112257D01*
X120114Y112249D01*
X120020Y112251D01*
X119871Y112229D01*
X119720Y112217D01*
X119629Y112194D01*
X119535Y112181D01*
X119392Y112135D01*
X119246Y112098D01*
X119159Y112061D01*
X119069Y112032D01*
X118935Y111964D01*
X118796Y111904D01*
X118717Y111853D01*
X118633Y111810D01*
X118511Y111720D01*
X118385Y111639D01*
X118315Y111576D01*
X118239Y111520D01*
X118133Y111412D01*
X118022Y111311D01*
X117963Y111237D01*
X117897Y111169D01*
X117811Y111046D01*
X117717Y110928D01*
X117671Y110846D01*
X117617Y110768D01*
X117552Y110632D01*
X117478Y110500D01*
X117447Y110412D01*
X117406Y110327D01*
X117364Y110182D01*
X117313Y110040D01*
X117296Y109947D01*
X117269Y109857D01*
X117258Y109741D01*
X117224Y109559D01*
X117221Y109373D01*
X117209Y109258D01*
X117209Y94250D01*
X117220Y94109D01*
X117222Y93967D01*
X117240Y93865D01*
X117249Y93762D01*
X117283Y93625D01*
X117308Y93486D01*
X117342Y93388D01*
X117368Y93287D01*
X117424Y93157D01*
X117471Y93024D01*
X117521Y92933D01*
X117562Y92838D01*
X117638Y92719D01*
X117707Y92595D01*
X117761Y92528D01*
X117827Y92426D01*
X118009Y92225D01*
X118087Y92129D01*
X133372Y76844D01*
X133480Y76753D01*
X133581Y76654D01*
X133667Y76594D01*
X133745Y76527D01*
X133867Y76455D01*
X133983Y76374D01*
X134076Y76329D01*
X134165Y76276D01*
X134297Y76224D01*
X134424Y76162D01*
X134524Y76134D01*
X134620Y76095D01*
X134759Y76065D01*
X134894Y76026D01*
X134980Y76017D01*
X135099Y75992D01*
X135370Y75978D01*
X135493Y75966D01*
X175525Y75966D01*
X177730Y75052D01*
X187939Y64843D01*
X188853Y62638D01*
X188853Y53868D01*
X188864Y53727D01*
X188866Y53585D01*
X188884Y53483D01*
X188893Y53380D01*
X188927Y53243D01*
X188952Y53103D01*
X188986Y53006D01*
X189011Y52905D01*
X189068Y52775D01*
X189115Y52642D01*
X189165Y52551D01*
X189206Y52456D01*
X189282Y52337D01*
X189350Y52213D01*
X189405Y52146D01*
X189471Y52044D01*
X189653Y51843D01*
X189731Y51747D01*
X191856Y49622D01*
X192781Y47389D01*
X192803Y47347D01*
X192818Y47302D01*
X192915Y47129D01*
X193005Y46953D01*
X193033Y46915D01*
X193056Y46874D01*
X193178Y46719D01*
X193296Y46560D01*
X193330Y46527D01*
X193359Y46490D01*
X193505Y46357D01*
X193647Y46219D01*
X193686Y46192D01*
X193721Y46161D01*
X193887Y46053D01*
X194050Y45940D01*
X194092Y45920D01*
X194132Y45895D01*
X194313Y45815D01*
X194492Y45731D01*
X194537Y45718D01*
X194580Y45699D01*
X194773Y45650D01*
X194962Y45596D01*
X195009Y45590D01*
X195055Y45579D01*
X195252Y45562D01*
X195448Y45539D01*
X195496Y45541D01*
X195543Y45537D01*
X195740Y45553D01*
G37*
G36*
X201210Y162370D02*
X201210Y162370D01*
X201351Y162372D01*
X201453Y162390D01*
X201556Y162398D01*
X201694Y162433D01*
X201833Y162457D01*
X201931Y162492D01*
X202031Y162517D01*
X202161Y162573D01*
X202294Y162620D01*
X202385Y162670D01*
X202480Y162711D01*
X202599Y162788D01*
X202723Y162856D01*
X202790Y162911D01*
X202892Y162976D01*
X203094Y163159D01*
X203189Y163237D01*
X216131Y176178D01*
X216158Y176211D01*
X216190Y176239D01*
X216317Y176397D01*
X216448Y176551D01*
X216469Y176588D01*
X216496Y176621D01*
X216554Y176728D01*
X216699Y176971D01*
X216742Y177078D01*
X216781Y177151D01*
X217634Y179210D01*
X220621Y182197D01*
X222855Y183123D01*
X222897Y183144D01*
X222942Y183160D01*
X223114Y183256D01*
X223290Y183346D01*
X223328Y183374D01*
X223370Y183397D01*
X223525Y183520D01*
X223684Y183638D01*
X223717Y183672D01*
X223754Y183701D01*
X223887Y183847D01*
X224024Y183989D01*
X224051Y184028D01*
X224083Y184063D01*
X224191Y184229D01*
X224303Y184391D01*
X224323Y184434D01*
X224349Y184474D01*
X224428Y184655D01*
X224513Y184833D01*
X224526Y184879D01*
X224545Y184922D01*
X224593Y185113D01*
X224648Y185304D01*
X224654Y185351D01*
X224665Y185397D01*
X224682Y185593D01*
X224705Y185790D01*
X224703Y185837D01*
X224707Y185884D01*
X224691Y186081D01*
X224682Y186279D01*
X224672Y186325D01*
X224668Y186372D01*
X224621Y186564D01*
X224579Y186758D01*
X224562Y186801D01*
X224551Y186847D01*
X224473Y187029D01*
X224401Y187213D01*
X224377Y187254D01*
X224358Y187297D01*
X224251Y187464D01*
X224150Y187634D01*
X224120Y187670D01*
X224094Y187710D01*
X223962Y187857D01*
X223835Y188008D01*
X223799Y188038D01*
X223767Y188074D01*
X223613Y188197D01*
X223462Y188326D01*
X223422Y188350D01*
X223385Y188380D01*
X223277Y188438D01*
X223044Y188579D01*
X222931Y188624D01*
X222855Y188665D01*
X220621Y189590D01*
X217802Y192410D01*
X217769Y192437D01*
X217741Y192469D01*
X217583Y192595D01*
X217428Y192726D01*
X217392Y192748D01*
X217359Y192775D01*
X217252Y192832D01*
X217009Y192978D01*
X216902Y193020D01*
X216829Y193060D01*
X215750Y193506D01*
X192304Y216952D01*
X192197Y217043D01*
X192095Y217142D01*
X192010Y217202D01*
X191931Y217269D01*
X191810Y217341D01*
X191694Y217422D01*
X191600Y217467D01*
X191512Y217521D01*
X191380Y217573D01*
X191252Y217634D01*
X191153Y217663D01*
X191057Y217701D01*
X190918Y217731D01*
X190782Y217770D01*
X190697Y217779D01*
X190578Y217804D01*
X190306Y217818D01*
X190184Y217831D01*
X180825Y217831D01*
X180684Y217819D01*
X180543Y217817D01*
X180441Y217799D01*
X180337Y217791D01*
X180200Y217756D01*
X180061Y217732D01*
X179963Y217697D01*
X179863Y217672D01*
X179733Y217616D01*
X179599Y217569D01*
X179509Y217519D01*
X179413Y217477D01*
X179295Y217401D01*
X179171Y217333D01*
X179104Y217278D01*
X179002Y217213D01*
X178800Y217030D01*
X178704Y216952D01*
X170587Y208835D01*
X170496Y208727D01*
X170397Y208626D01*
X170337Y208541D01*
X170270Y208462D01*
X170198Y208341D01*
X170117Y208224D01*
X170072Y208131D01*
X170019Y208042D01*
X169967Y207911D01*
X169906Y207783D01*
X169877Y207683D01*
X169839Y207587D01*
X169808Y207448D01*
X169769Y207313D01*
X169760Y207227D01*
X169735Y207109D01*
X169721Y206837D01*
X169709Y206714D01*
X169709Y192231D01*
X169713Y192184D01*
X169710Y192136D01*
X169733Y191940D01*
X169749Y191743D01*
X169760Y191697D01*
X169765Y191650D01*
X169819Y191460D01*
X169867Y191268D01*
X169886Y191225D01*
X169899Y191179D01*
X169983Y191000D01*
X170062Y190819D01*
X170087Y190779D01*
X170097Y190759D01*
X170075Y190743D01*
X169973Y190638D01*
X169864Y190540D01*
X169802Y190463D01*
X169733Y190392D01*
X169650Y190272D01*
X169558Y190158D01*
X169519Y190085D01*
X169453Y189991D01*
X169331Y189735D01*
X169273Y189628D01*
X168795Y188473D01*
X166685Y186364D01*
X160500Y180178D01*
X160469Y180142D01*
X160434Y180111D01*
X160311Y179956D01*
X160183Y179805D01*
X160159Y179765D01*
X160130Y179728D01*
X160033Y179555D01*
X159932Y179386D01*
X159914Y179342D01*
X159891Y179300D01*
X159824Y179114D01*
X159751Y178931D01*
X159741Y178884D01*
X159725Y178840D01*
X159690Y178646D01*
X159648Y178452D01*
X159645Y178405D01*
X159637Y178359D01*
X159633Y178161D01*
X159623Y177963D01*
X159628Y177916D01*
X159628Y177869D01*
X159656Y177674D01*
X159678Y177477D01*
X159691Y177432D01*
X159698Y177385D01*
X159758Y177196D01*
X159812Y177006D01*
X159832Y176964D01*
X159846Y176919D01*
X159936Y176742D01*
X160020Y176563D01*
X160047Y176525D01*
X160069Y176482D01*
X160186Y176323D01*
X160298Y176160D01*
X160331Y176126D01*
X160359Y176088D01*
X160501Y175950D01*
X160637Y175808D01*
X160675Y175780D01*
X160709Y175747D01*
X160872Y175633D01*
X161030Y175515D01*
X161072Y175494D01*
X161110Y175466D01*
X161289Y175381D01*
X161464Y175290D01*
X161509Y175276D01*
X161552Y175255D01*
X161742Y175200D01*
X161930Y175139D01*
X161977Y175132D01*
X162022Y175119D01*
X162145Y175106D01*
X162414Y175066D01*
X162535Y175067D01*
X162621Y175058D01*
X168661Y175058D01*
X168802Y175070D01*
X168943Y175072D01*
X169045Y175090D01*
X169148Y175098D01*
X169286Y175133D01*
X169425Y175157D01*
X169523Y175192D01*
X169623Y175217D01*
X169753Y175273D01*
X169886Y175320D01*
X169977Y175370D01*
X170072Y175411D01*
X170191Y175488D01*
X170315Y175556D01*
X170382Y175611D01*
X170484Y175676D01*
X170686Y175859D01*
X170781Y175937D01*
X174165Y179321D01*
X174256Y179428D01*
X174355Y179530D01*
X174415Y179615D01*
X174482Y179694D01*
X174554Y179815D01*
X174636Y179931D01*
X174680Y180025D01*
X174734Y180113D01*
X174786Y180245D01*
X174847Y180372D01*
X174876Y180472D01*
X174914Y180568D01*
X174944Y180707D01*
X174983Y180842D01*
X174992Y180928D01*
X175018Y181047D01*
X175031Y181318D01*
X175044Y181441D01*
X175044Y188480D01*
X175032Y188626D01*
X175029Y188772D01*
X175012Y188870D01*
X175004Y188968D01*
X174968Y189110D01*
X174942Y189254D01*
X174909Y189347D01*
X174885Y189443D01*
X174827Y189577D01*
X174778Y189715D01*
X174730Y189801D01*
X174691Y189892D01*
X174653Y189951D01*
X174677Y189969D01*
X174762Y190055D01*
X174829Y190110D01*
X182753Y198034D01*
X193656Y198034D01*
X201365Y190325D01*
X201365Y179422D01*
X193656Y171713D01*
X184772Y171713D01*
X184631Y171701D01*
X184490Y171699D01*
X184388Y171681D01*
X184284Y171673D01*
X184147Y171638D01*
X184008Y171614D01*
X183910Y171579D01*
X183810Y171554D01*
X183680Y171498D01*
X183546Y171451D01*
X183455Y171401D01*
X183360Y171360D01*
X183242Y171283D01*
X183118Y171215D01*
X183050Y171160D01*
X182949Y171095D01*
X182748Y170913D01*
X182651Y170834D01*
X179296Y167478D01*
X179265Y167442D01*
X179230Y167411D01*
X179107Y167256D01*
X178979Y167105D01*
X178955Y167065D01*
X178925Y167028D01*
X178829Y166855D01*
X178727Y166686D01*
X178710Y166642D01*
X178687Y166600D01*
X178620Y166414D01*
X178547Y166231D01*
X178537Y166185D01*
X178521Y166140D01*
X178485Y165945D01*
X178443Y165752D01*
X178441Y165705D01*
X178432Y165659D01*
X178429Y165461D01*
X178419Y165263D01*
X178424Y165216D01*
X178423Y165169D01*
X178452Y164974D01*
X178474Y164777D01*
X178487Y164732D01*
X178494Y164685D01*
X178554Y164496D01*
X178608Y164306D01*
X178628Y164264D01*
X178642Y164219D01*
X178732Y164042D01*
X178816Y163863D01*
X178843Y163825D01*
X178864Y163782D01*
X178982Y163623D01*
X179094Y163460D01*
X179126Y163426D01*
X179154Y163388D01*
X179296Y163250D01*
X179433Y163108D01*
X179471Y163080D01*
X179505Y163047D01*
X179667Y162933D01*
X179825Y162815D01*
X179867Y162794D01*
X179906Y162766D01*
X180085Y162681D01*
X180260Y162590D01*
X180305Y162576D01*
X180348Y162555D01*
X180537Y162500D01*
X180726Y162439D01*
X180772Y162432D01*
X180818Y162419D01*
X180940Y162406D01*
X181209Y162366D01*
X181330Y162367D01*
X181416Y162358D01*
X201069Y162358D01*
X201210Y162370D01*
G37*
%LPC*%
G36*
X67276Y234882D02*
X67276Y234882D01*
X67276Y243042D01*
X67588Y245016D01*
X68206Y246918D01*
X69114Y248699D01*
X70289Y250316D01*
X71702Y251730D01*
X73320Y252905D01*
X75101Y253812D01*
X76977Y254422D01*
X76977Y234882D01*
X67276Y234882D01*
G37*
%LPD*%
%LPC*%
G36*
X75101Y209952D02*
X75101Y209952D01*
X73320Y210859D01*
X71702Y212035D01*
X70289Y213448D01*
X69114Y215066D01*
X68206Y216847D01*
X67588Y218748D01*
X67276Y220722D01*
X67276Y228883D01*
X76977Y228883D01*
X76977Y209342D01*
X75101Y209952D01*
G37*
%LPD*%
%LPC*%
G36*
X229637Y226993D02*
X229637Y226993D01*
X229637Y233703D01*
X230538Y233410D01*
X231963Y232684D01*
X233257Y231744D01*
X234388Y230613D01*
X235328Y229319D01*
X236054Y227894D01*
X236347Y226993D01*
X229637Y226993D01*
G37*
%LPD*%
%LPC*%
G36*
X216928Y226993D02*
X216928Y226993D01*
X217221Y227894D01*
X217947Y229319D01*
X218887Y230613D01*
X220018Y231744D01*
X221312Y232684D01*
X222737Y233410D01*
X223638Y233703D01*
X223638Y226993D01*
X216928Y226993D01*
G37*
%LPD*%
%LPC*%
G36*
X147743Y46606D02*
X147743Y46606D01*
X148036Y47506D01*
X148762Y48932D01*
X149702Y50225D01*
X150833Y51356D01*
X152127Y52296D01*
X153552Y53022D01*
X154453Y53315D01*
X154453Y46606D01*
X147743Y46606D01*
G37*
%LPD*%
%LPC*%
G36*
X30729Y36215D02*
X30729Y36215D01*
X31022Y37116D01*
X31748Y38541D01*
X32688Y39835D01*
X33819Y40966D01*
X35113Y41906D01*
X36538Y42632D01*
X37439Y42925D01*
X37439Y36215D01*
X30729Y36215D01*
G37*
%LPD*%
%LPC*%
G36*
X153552Y34190D02*
X153552Y34190D01*
X152127Y34916D01*
X150833Y35856D01*
X149702Y36987D01*
X148762Y38281D01*
X148036Y39706D01*
X147743Y40607D01*
X154453Y40607D01*
X154453Y33897D01*
X153552Y34190D01*
G37*
%LPD*%
%LPC*%
G36*
X36538Y23799D02*
X36538Y23799D01*
X35113Y24526D01*
X33819Y25466D01*
X32688Y26596D01*
X31748Y27890D01*
X31022Y29316D01*
X30729Y30216D01*
X37439Y30216D01*
X37439Y23507D01*
X36538Y23799D01*
G37*
%LPD*%
D10*
X130702Y181758D03*
X78702Y181758D03*
X130702Y194458D03*
X130702Y169058D03*
X130702Y156358D03*
X78702Y194458D03*
X78702Y169058D03*
X78702Y156358D03*
X130702Y130958D03*
X78702Y130958D03*
X130702Y143658D03*
X130702Y118258D03*
X78702Y143658D03*
X78702Y118258D03*
D11*
X226638Y223994D03*
X226638Y198594D03*
X226638Y173194D03*
X157452Y43606D03*
X182852Y43606D03*
X208252Y43606D03*
X40438Y33216D03*
X65838Y33216D03*
X91238Y33216D03*
D12*
X105376Y221722D02*
X105376Y242042D01*
X79976Y242042D02*
X79976Y221722D01*
D13*
X149151Y237233D03*
X42393Y180280D03*
X181892Y121240D03*
X188204Y184873D03*
X73697Y88863D03*
X219478Y110286D03*
D14*
X105376Y213229D02*
X105376Y231882D01*
X97873Y172187D02*
X113703Y156358D01*
X130702Y156358D01*
X105376Y205649D02*
X105376Y231882D01*
X97873Y198146D02*
X97873Y172187D01*
X97873Y198146D02*
X105376Y205649D01*
X130702Y156358D02*
X204797Y156358D01*
X221633Y173194D02*
X226638Y173194D01*
X221633Y173194D02*
X204797Y156358D01*
X226638Y173194D02*
X250011Y149820D01*
X91238Y40062D02*
X91238Y33216D01*
X208252Y43606D02*
X250011Y85366D01*
X250011Y149820D01*
X104228Y20226D02*
X91238Y33216D01*
X208252Y26219D02*
X208252Y43606D01*
X208252Y26219D02*
X202259Y20226D01*
X104228Y20226D01*
X131013Y182069D02*
X153904Y182069D01*
X131013Y182069D02*
X130702Y181758D01*
X153904Y182069D02*
X163708Y191873D01*
X163708Y210442D02*
X177097Y223831D01*
X193912Y223831D01*
X163708Y210442D02*
X163708Y191873D01*
X219149Y198594D02*
X226638Y198594D01*
X219149Y198594D02*
X193912Y223831D01*
X118088Y130958D02*
X111208Y124078D01*
X118088Y130958D02*
X130702Y130958D01*
X111208Y124078D02*
X111208Y90522D01*
X182852Y61444D02*
X182852Y43606D01*
X131765Y69965D02*
X111208Y90522D01*
X174331Y69965D02*
X182852Y61444D01*
X174331Y69965D02*
X131765Y69965D01*
X130702Y169058D02*
X172389Y169058D01*
X188204Y184873D01*
X42393Y180335D02*
X42393Y180280D01*
X42393Y158170D01*
X56905Y143658D01*
X78702Y143658D01*
X173464Y121240D02*
X181892Y121240D01*
X151046Y143658D02*
X130702Y143658D01*
X151046Y143658D02*
X173464Y121240D01*
X66814Y57864D02*
X58061Y66618D01*
X66814Y57864D02*
X66814Y34191D01*
X65838Y33216D01*
X58061Y66618D02*
X46845Y66618D01*
X35119Y121669D02*
X44407Y130958D01*
X35119Y121669D02*
X35119Y78343D01*
X46845Y66618D01*
X44407Y130958D02*
X78702Y130958D01*
X130702Y209094D02*
X149151Y227543D01*
X130702Y209094D02*
X130702Y194458D01*
X149151Y227543D02*
X149151Y237233D01*
X78702Y118258D02*
X73697Y118258D01*
X78702Y118258D02*
X78702Y93867D01*
X73697Y88863D01*
X130702Y118258D02*
X140111Y118258D01*
X200199Y91008D02*
X219478Y110286D01*
X200199Y91008D02*
X167361Y91008D01*
X140111Y118258D01*
M02*
