M48
;GenerationSoftware,Autodesk,EAGLE,9.6.2*%
;CreationDate,2023-11-22T21:32:02Z*%
FMAT,2
ICI,OFF
METRIC,TZ,000.000
T2C0.813
T1C1.016
%
G90
M71
T1
X22944Y5668
X22944Y8208
X22944Y3128
X37324Y11168
X32514Y24038
X40126Y22293
T2
X8384Y20235
X28069Y25315
X25529Y25315
X35689Y27220
X33149Y27220
X39518Y15863
X36978Y15863
X43885Y8753
X43885Y11293
X31380Y4271
X33920Y4271
X18292Y10943
X18292Y8403
X16639Y17695
X16639Y20235
X7860Y24809
X10400Y24809
X44814Y19116
X37194Y19116
X20989Y20135
X20989Y12515
X3963Y18985
X3963Y26605
X14239Y7388
X6619Y7388
X33652Y16394
X33652Y8774
X31300Y11408
X23680Y11408
X11559Y15790
X40081Y13132
X13464Y12615
X5844Y12615
X16004Y4995
X40081Y5512
X21719Y26585
X14099Y26585
X9019Y15790
X10924Y20235
X8384Y4995
M30