G04 EAGLE Gerber RS-274X export*
G75*
%MOMM*%
%FSLAX34Y34*%
%LPD*%
%INBottom Copper*%
%IPPOS*%
%AMOC8*
5,1,8,0,0,1.08239X$1,22.5*%
G01*
%ADD10P,1.539592X8X202.500000*%
%ADD11P,1.539592X8X112.500000*%
%ADD12P,1.539592X8X22.500000*%
%ADD13P,1.539592X8X292.500000*%
%ADD14R,2.200000X0.600000*%
%ADD15C,1.625600*%
%ADD16P,1.759533X8X22.500000*%
%ADD17C,0.457200*%
%ADD18C,0.406400*%
%ADD19C,0.508000*%
%ADD20C,0.152400*%

G36*
X429995Y10165D02*
X429995Y10165D01*
X430087Y10165D01*
X435067Y10445D01*
X435124Y10453D01*
X435182Y10454D01*
X435490Y10504D01*
X445199Y12723D01*
X445322Y12763D01*
X445447Y12793D01*
X445569Y12843D01*
X445627Y12862D01*
X445666Y12883D01*
X445736Y12911D01*
X454707Y17237D01*
X454818Y17303D01*
X454933Y17360D01*
X455041Y17436D01*
X455094Y17467D01*
X455127Y17496D01*
X455189Y17540D01*
X462971Y23755D01*
X463065Y23844D01*
X463164Y23926D01*
X463253Y24024D01*
X463297Y24066D01*
X463323Y24102D01*
X463373Y24158D01*
X469576Y31950D01*
X469647Y32058D01*
X469726Y32160D01*
X469790Y32275D01*
X469824Y32326D01*
X469841Y32366D01*
X469878Y32432D01*
X474189Y41411D01*
X474234Y41531D01*
X474288Y41648D01*
X474325Y41775D01*
X474347Y41832D01*
X474355Y41876D01*
X474376Y41948D01*
X476578Y51661D01*
X476586Y51718D01*
X476601Y51774D01*
X476637Y52084D01*
X476909Y57064D01*
X476907Y57114D01*
X476913Y57206D01*
X476494Y301056D01*
X476492Y301087D01*
X476493Y301118D01*
X476471Y301311D01*
X476454Y301505D01*
X476445Y301535D01*
X476442Y301565D01*
X476386Y301750D01*
X476334Y301939D01*
X476321Y301967D01*
X476312Y301997D01*
X476225Y302169D01*
X476140Y302345D01*
X476122Y302371D01*
X476108Y302398D01*
X475991Y302552D01*
X475878Y302711D01*
X475855Y302733D01*
X475837Y302757D01*
X475694Y302889D01*
X475554Y303024D01*
X475529Y303042D01*
X475506Y303063D01*
X475342Y303167D01*
X475181Y303276D01*
X475152Y303288D01*
X475126Y303305D01*
X474946Y303379D01*
X474769Y303457D01*
X474739Y303465D01*
X474710Y303476D01*
X474520Y303518D01*
X474331Y303563D01*
X474300Y303565D01*
X474270Y303572D01*
X473958Y303591D01*
X66188Y304048D01*
X66187Y304048D01*
X63661Y304051D01*
X63616Y304047D01*
X63537Y304048D01*
X58496Y303806D01*
X58465Y303801D01*
X58434Y303802D01*
X58124Y303760D01*
X48235Y301801D01*
X48146Y301775D01*
X48054Y301758D01*
X47855Y301690D01*
X47803Y301675D01*
X47786Y301666D01*
X47758Y301657D01*
X38443Y297803D01*
X38360Y297759D01*
X38273Y297725D01*
X38092Y297619D01*
X38044Y297594D01*
X38028Y297582D01*
X38003Y297568D01*
X29620Y291967D01*
X29548Y291908D01*
X29469Y291858D01*
X29312Y291719D01*
X29270Y291685D01*
X29257Y291670D01*
X29235Y291651D01*
X22109Y284520D01*
X22049Y284448D01*
X21982Y284383D01*
X21855Y284216D01*
X21820Y284174D01*
X21811Y284158D01*
X21793Y284134D01*
X16198Y275748D01*
X16153Y275666D01*
X16100Y275589D01*
X16008Y275400D01*
X15982Y275353D01*
X15976Y275335D01*
X15963Y275308D01*
X12116Y265990D01*
X12088Y265900D01*
X12051Y265815D01*
X11998Y265613D01*
X11981Y265560D01*
X11979Y265541D01*
X11971Y265513D01*
X10019Y255622D01*
X10016Y255591D01*
X10008Y255561D01*
X9974Y255251D01*
X9735Y250210D01*
X9737Y250164D01*
X9732Y250085D01*
X9732Y249967D01*
X9737Y247563D01*
X9737Y247558D01*
X9940Y128935D01*
X9943Y126960D01*
X9944Y126409D01*
X9948Y126371D01*
X9946Y126309D01*
X10312Y117383D01*
X10315Y117358D01*
X10341Y117086D01*
X13161Y99455D01*
X13172Y99414D01*
X13176Y99371D01*
X13255Y99068D01*
X18795Y82095D01*
X18812Y82056D01*
X18823Y82014D01*
X18948Y81728D01*
X27072Y65829D01*
X27095Y65793D01*
X27113Y65753D01*
X27281Y65490D01*
X37790Y51056D01*
X37818Y51023D01*
X37841Y50987D01*
X38048Y50753D01*
X50684Y38139D01*
X50717Y38111D01*
X50746Y38079D01*
X50987Y37881D01*
X65438Y27396D01*
X65475Y27374D01*
X65509Y27346D01*
X65778Y27188D01*
X81690Y19090D01*
X81730Y19074D01*
X81767Y19052D01*
X82058Y18938D01*
X99040Y13426D01*
X99082Y13416D01*
X99122Y13401D01*
X99427Y13333D01*
X117062Y10543D01*
X117087Y10541D01*
X117360Y10513D01*
X126287Y10163D01*
X126324Y10165D01*
X126386Y10161D01*
X429945Y10161D01*
X429995Y10165D01*
G37*
%LPC*%
G36*
X247826Y18966D02*
X247826Y18966D01*
X245772Y19817D01*
X244629Y20960D01*
X244465Y21097D01*
X244305Y21234D01*
X244293Y21240D01*
X244283Y21249D01*
X244098Y21355D01*
X243916Y21461D01*
X243904Y21466D01*
X243892Y21472D01*
X243693Y21543D01*
X243493Y21616D01*
X243480Y21619D01*
X243468Y21623D01*
X243259Y21658D01*
X243050Y21695D01*
X243037Y21694D01*
X243024Y21697D01*
X242810Y21694D01*
X242600Y21693D01*
X242587Y21691D01*
X242574Y21691D01*
X242364Y21650D01*
X242157Y21612D01*
X242142Y21607D01*
X242131Y21605D01*
X242095Y21591D01*
X241861Y21511D01*
X239694Y20613D01*
X219193Y20613D01*
X215272Y22237D01*
X212560Y24949D01*
X212434Y25055D01*
X212313Y25166D01*
X212262Y25199D01*
X212215Y25238D01*
X212072Y25319D01*
X211933Y25408D01*
X211877Y25431D01*
X211824Y25461D01*
X211669Y25516D01*
X211517Y25579D01*
X211457Y25592D01*
X211400Y25612D01*
X211237Y25639D01*
X211077Y25673D01*
X211000Y25678D01*
X210955Y25686D01*
X210894Y25685D01*
X210765Y25693D01*
X177599Y25693D01*
X175545Y26543D01*
X162530Y39558D01*
X162404Y39664D01*
X162283Y39775D01*
X162232Y39808D01*
X162185Y39847D01*
X162042Y39929D01*
X161903Y40017D01*
X161847Y40040D01*
X161794Y40071D01*
X161639Y40126D01*
X161487Y40188D01*
X161427Y40201D01*
X161370Y40221D01*
X161207Y40248D01*
X161047Y40283D01*
X160970Y40288D01*
X160926Y40295D01*
X160864Y40294D01*
X160735Y40302D01*
X156039Y40302D01*
X150385Y45957D01*
X150385Y50652D01*
X150370Y50816D01*
X150363Y50980D01*
X150350Y51040D01*
X150345Y51101D01*
X150302Y51259D01*
X150266Y51420D01*
X150242Y51476D01*
X150226Y51535D01*
X150156Y51683D01*
X150092Y51835D01*
X150059Y51887D01*
X150033Y51942D01*
X149937Y52075D01*
X149848Y52213D01*
X149797Y52271D01*
X149771Y52308D01*
X149727Y52350D01*
X149641Y52448D01*
X137649Y64440D01*
X137469Y64874D01*
X137415Y64978D01*
X137370Y65086D01*
X137311Y65177D01*
X137260Y65273D01*
X137189Y65366D01*
X137125Y65464D01*
X137023Y65580D01*
X136985Y65629D01*
X136958Y65654D01*
X136919Y65698D01*
X132734Y69882D01*
X132734Y77879D01*
X138389Y83533D01*
X146385Y83533D01*
X152040Y77879D01*
X152040Y69883D01*
X151822Y69665D01*
X151800Y69638D01*
X151774Y69615D01*
X151656Y69467D01*
X151533Y69320D01*
X151516Y69289D01*
X151494Y69262D01*
X151405Y69095D01*
X151310Y68929D01*
X151298Y68896D01*
X151282Y68865D01*
X151223Y68684D01*
X151159Y68504D01*
X151153Y68470D01*
X151143Y68437D01*
X151117Y68248D01*
X151086Y68060D01*
X151086Y68026D01*
X151081Y67991D01*
X151089Y67800D01*
X151092Y67610D01*
X151098Y67576D01*
X151100Y67541D01*
X151141Y67355D01*
X151177Y67168D01*
X151190Y67136D01*
X151197Y67102D01*
X151271Y66925D01*
X151339Y66748D01*
X151357Y66718D01*
X151371Y66686D01*
X151475Y66525D01*
X151573Y66363D01*
X151596Y66337D01*
X151615Y66308D01*
X151822Y66074D01*
X157545Y60351D01*
X157671Y60246D01*
X157792Y60134D01*
X157843Y60102D01*
X157890Y60062D01*
X158033Y59981D01*
X158172Y59892D01*
X158228Y59869D01*
X158281Y59839D01*
X158436Y59784D01*
X158588Y59721D01*
X158648Y59709D01*
X158705Y59688D01*
X158868Y59661D01*
X159028Y59627D01*
X159105Y59622D01*
X159149Y59615D01*
X159211Y59616D01*
X159340Y59608D01*
X164036Y59608D01*
X169690Y53953D01*
X169690Y49258D01*
X169705Y49094D01*
X169712Y48929D01*
X169725Y48870D01*
X169730Y48809D01*
X169773Y48650D01*
X169809Y48490D01*
X169833Y48433D01*
X169849Y48375D01*
X169919Y48227D01*
X169983Y48074D01*
X170016Y48023D01*
X170042Y47968D01*
X170138Y47835D01*
X170227Y47696D01*
X170278Y47638D01*
X170304Y47602D01*
X170348Y47559D01*
X170434Y47462D01*
X180282Y37614D01*
X180408Y37508D01*
X180529Y37397D01*
X180581Y37364D01*
X180627Y37325D01*
X180770Y37243D01*
X180909Y37155D01*
X180966Y37132D01*
X181018Y37102D01*
X181173Y37047D01*
X181326Y36984D01*
X181385Y36971D01*
X181443Y36951D01*
X181605Y36924D01*
X181766Y36889D01*
X181843Y36885D01*
X181887Y36877D01*
X181948Y36878D01*
X182078Y36870D01*
X210765Y36870D01*
X210928Y36885D01*
X211093Y36891D01*
X211152Y36905D01*
X211213Y36910D01*
X211372Y36953D01*
X211532Y36989D01*
X211589Y37013D01*
X211648Y37029D01*
X211796Y37099D01*
X211948Y37163D01*
X211999Y37196D01*
X212054Y37222D01*
X212188Y37318D01*
X212326Y37407D01*
X212384Y37458D01*
X212420Y37484D01*
X212463Y37528D01*
X212560Y37614D01*
X215272Y40326D01*
X218434Y41635D01*
X218549Y41696D01*
X218668Y41747D01*
X218748Y41800D01*
X218833Y41844D01*
X218936Y41924D01*
X219044Y41995D01*
X219113Y42061D01*
X219189Y42120D01*
X219276Y42216D01*
X219370Y42306D01*
X219427Y42383D01*
X219490Y42454D01*
X219559Y42564D01*
X219636Y42669D01*
X219678Y42755D01*
X219728Y42836D01*
X219776Y42957D01*
X219834Y43074D01*
X219860Y43166D01*
X219895Y43254D01*
X219921Y43382D01*
X219957Y43507D01*
X219966Y43602D01*
X219985Y43696D01*
X219988Y43826D01*
X220001Y43955D01*
X219994Y44050D01*
X219996Y44146D01*
X219976Y44274D01*
X219966Y44404D01*
X219942Y44496D01*
X219927Y44591D01*
X219885Y44714D01*
X219852Y44840D01*
X219812Y44926D01*
X219781Y45017D01*
X219717Y45130D01*
X219663Y45248D01*
X219608Y45327D01*
X219561Y45410D01*
X219479Y45510D01*
X219404Y45617D01*
X219337Y45684D01*
X219276Y45758D01*
X219177Y45843D01*
X219085Y45934D01*
X219006Y45989D01*
X218934Y46051D01*
X218821Y46116D01*
X218715Y46190D01*
X218598Y46247D01*
X218545Y46278D01*
X218503Y46293D01*
X218434Y46327D01*
X215272Y47637D01*
X212271Y50638D01*
X210647Y54559D01*
X210647Y58804D01*
X212271Y62725D01*
X215272Y65726D01*
X218521Y67072D01*
X218525Y67074D01*
X218529Y67075D01*
X218726Y67179D01*
X218920Y67280D01*
X218923Y67283D01*
X218927Y67285D01*
X219104Y67422D01*
X219276Y67556D01*
X219279Y67559D01*
X219282Y67562D01*
X219429Y67726D01*
X219578Y67890D01*
X219580Y67894D01*
X219583Y67897D01*
X219699Y68085D01*
X219815Y68272D01*
X219817Y68276D01*
X219819Y68280D01*
X219901Y68486D01*
X219982Y68691D01*
X219983Y68695D01*
X219985Y68699D01*
X220028Y68913D01*
X220072Y69132D01*
X220072Y69136D01*
X220073Y69140D01*
X220078Y69356D01*
X220083Y69582D01*
X220082Y69586D01*
X220082Y69590D01*
X220049Y69803D01*
X220014Y70027D01*
X220013Y70031D01*
X220012Y70035D01*
X219940Y70244D01*
X219868Y70453D01*
X219866Y70456D01*
X219864Y70461D01*
X219755Y70655D01*
X219649Y70846D01*
X219646Y70849D01*
X219644Y70853D01*
X219502Y71025D01*
X219363Y71194D01*
X219360Y71197D01*
X219357Y71200D01*
X219187Y71345D01*
X219021Y71487D01*
X219017Y71489D01*
X219014Y71492D01*
X218820Y71604D01*
X218632Y71714D01*
X218628Y71716D01*
X218624Y71718D01*
X218334Y71832D01*
X217220Y72194D01*
X215724Y72957D01*
X214365Y73944D01*
X213178Y75131D01*
X212191Y76490D01*
X211428Y77986D01*
X210923Y79542D01*
X229443Y79542D01*
X229444Y79542D01*
X247964Y79542D01*
X247459Y77986D01*
X246696Y76490D01*
X245709Y75131D01*
X244522Y73944D01*
X243163Y72957D01*
X241667Y72194D01*
X240553Y71832D01*
X240550Y71831D01*
X240545Y71830D01*
X240343Y71743D01*
X240139Y71656D01*
X240136Y71654D01*
X240132Y71652D01*
X239950Y71532D01*
X239763Y71409D01*
X239760Y71406D01*
X239756Y71404D01*
X239598Y71253D01*
X239436Y71099D01*
X239433Y71096D01*
X239430Y71093D01*
X239300Y70915D01*
X239169Y70737D01*
X239167Y70733D01*
X239164Y70730D01*
X239067Y70530D01*
X238970Y70333D01*
X238968Y70329D01*
X238967Y70325D01*
X238905Y70109D01*
X238845Y69900D01*
X238845Y69896D01*
X238844Y69892D01*
X238821Y69665D01*
X238799Y69452D01*
X238799Y69448D01*
X238799Y69444D01*
X238817Y69220D01*
X238833Y69003D01*
X238834Y68999D01*
X238834Y68995D01*
X238890Y68780D01*
X238945Y68567D01*
X238947Y68564D01*
X238948Y68559D01*
X239040Y68361D01*
X239133Y68158D01*
X239136Y68155D01*
X239137Y68151D01*
X239263Y67971D01*
X239390Y67789D01*
X239393Y67786D01*
X239396Y67782D01*
X239555Y67624D01*
X239708Y67470D01*
X239712Y67468D01*
X239715Y67465D01*
X239898Y67338D01*
X240078Y67213D01*
X240082Y67211D01*
X240085Y67209D01*
X240366Y67072D01*
X242394Y66232D01*
X242598Y66168D01*
X242798Y66103D01*
X242811Y66101D01*
X242824Y66097D01*
X243035Y66070D01*
X243244Y66041D01*
X243257Y66042D01*
X243270Y66040D01*
X243481Y66051D01*
X243694Y66060D01*
X243707Y66063D01*
X243720Y66063D01*
X243926Y66111D01*
X244133Y66157D01*
X244146Y66162D01*
X244158Y66165D01*
X244352Y66249D01*
X244549Y66331D01*
X244560Y66338D01*
X244572Y66343D01*
X244748Y66459D01*
X244927Y66575D01*
X244939Y66586D01*
X244948Y66591D01*
X244976Y66619D01*
X245161Y66782D01*
X268259Y89880D01*
X268365Y90006D01*
X268476Y90127D01*
X268509Y90179D01*
X268548Y90225D01*
X268629Y90368D01*
X268718Y90507D01*
X268741Y90563D01*
X268771Y90616D01*
X268826Y90771D01*
X268889Y90923D01*
X268902Y90983D01*
X268922Y91041D01*
X268949Y91203D01*
X268984Y91364D01*
X268988Y91441D01*
X268996Y91485D01*
X268995Y91546D01*
X269003Y91676D01*
X269003Y165316D01*
X269815Y167277D01*
X271673Y169135D01*
X284227Y181689D01*
X284249Y181716D01*
X284275Y181738D01*
X284393Y181887D01*
X284516Y182034D01*
X284533Y182064D01*
X284555Y182091D01*
X284645Y182259D01*
X284739Y182425D01*
X284751Y182458D01*
X284767Y182488D01*
X284826Y182669D01*
X284890Y182849D01*
X284896Y182884D01*
X284907Y182917D01*
X284932Y183105D01*
X284964Y183294D01*
X284963Y183328D01*
X284968Y183363D01*
X284960Y183553D01*
X284958Y183744D01*
X284951Y183778D01*
X284950Y183813D01*
X284908Y183998D01*
X284872Y184186D01*
X284860Y184218D01*
X284852Y184252D01*
X284778Y184428D01*
X284710Y184606D01*
X284692Y184636D01*
X284678Y184668D01*
X284575Y184828D01*
X284476Y184991D01*
X284453Y185017D01*
X284434Y185046D01*
X284227Y185280D01*
X282537Y186970D01*
X272286Y197221D01*
X272196Y197296D01*
X272113Y197379D01*
X272024Y197440D01*
X271941Y197510D01*
X271839Y197568D01*
X271743Y197634D01*
X271604Y197702D01*
X271550Y197733D01*
X271515Y197746D01*
X271462Y197772D01*
X271316Y197832D01*
X269815Y199333D01*
X269003Y201294D01*
X269003Y230843D01*
X268988Y231007D01*
X268981Y231171D01*
X268968Y231231D01*
X268963Y231292D01*
X268920Y231451D01*
X268884Y231611D01*
X268860Y231667D01*
X268844Y231726D01*
X268774Y231874D01*
X268710Y232026D01*
X268677Y232078D01*
X268651Y232133D01*
X268555Y232266D01*
X268466Y232405D01*
X268415Y232462D01*
X268389Y232499D01*
X268345Y232541D01*
X268259Y232639D01*
X258140Y242758D01*
X258013Y242864D01*
X257892Y242975D01*
X257841Y243008D01*
X257794Y243047D01*
X257651Y243129D01*
X257513Y243217D01*
X257456Y243240D01*
X257403Y243271D01*
X257248Y243326D01*
X257096Y243388D01*
X257036Y243401D01*
X256979Y243421D01*
X256817Y243448D01*
X256656Y243483D01*
X256579Y243488D01*
X256535Y243495D01*
X256474Y243494D01*
X256344Y243502D01*
X251289Y243502D01*
X245635Y249157D01*
X245635Y257153D01*
X251850Y263368D01*
X251933Y263468D01*
X252024Y263561D01*
X252077Y263640D01*
X252139Y263713D01*
X252203Y263826D01*
X252276Y263934D01*
X252315Y264021D01*
X252362Y264104D01*
X252405Y264227D01*
X252458Y264346D01*
X252481Y264439D01*
X252513Y264529D01*
X252534Y264657D01*
X252565Y264783D01*
X252571Y264879D01*
X252586Y264973D01*
X252584Y265103D01*
X252592Y265233D01*
X252581Y265327D01*
X252580Y265423D01*
X252555Y265551D01*
X252540Y265680D01*
X252513Y265771D01*
X252495Y265865D01*
X252448Y265986D01*
X252410Y266111D01*
X252367Y266196D01*
X252332Y266285D01*
X252265Y266396D01*
X252206Y266512D01*
X252148Y266588D01*
X252098Y266670D01*
X252012Y266767D01*
X251934Y266871D01*
X251864Y266936D01*
X251800Y267007D01*
X251698Y267088D01*
X251603Y267176D01*
X251522Y267227D01*
X251447Y267287D01*
X251333Y267348D01*
X251223Y267418D01*
X251134Y267454D01*
X251050Y267499D01*
X250927Y267539D01*
X250806Y267589D01*
X250713Y267609D01*
X250622Y267638D01*
X250493Y267656D01*
X250366Y267684D01*
X250236Y267692D01*
X250176Y267700D01*
X250131Y267698D01*
X250054Y267703D01*
X229379Y267703D01*
X229345Y267700D01*
X229310Y267702D01*
X229121Y267680D01*
X228931Y267663D01*
X228898Y267654D01*
X228863Y267650D01*
X228680Y267594D01*
X228497Y267544D01*
X228465Y267530D01*
X228432Y267519D01*
X228262Y267433D01*
X228090Y267351D01*
X228062Y267331D01*
X228031Y267315D01*
X227879Y267200D01*
X227724Y267089D01*
X227700Y267064D01*
X227672Y267043D01*
X227543Y266903D01*
X227410Y266766D01*
X227390Y266737D01*
X227367Y266712D01*
X227264Y266551D01*
X227158Y266393D01*
X227144Y266361D01*
X227125Y266332D01*
X227053Y266156D01*
X226976Y265981D01*
X226967Y265948D01*
X226954Y265916D01*
X226914Y265729D01*
X226869Y265544D01*
X226867Y265509D01*
X226859Y265475D01*
X226840Y265164D01*
X226840Y261857D01*
X223520Y258536D01*
X223414Y258410D01*
X223303Y258289D01*
X223270Y258238D01*
X223231Y258191D01*
X223150Y258048D01*
X223061Y257909D01*
X223038Y257853D01*
X223008Y257800D01*
X222953Y257645D01*
X222890Y257493D01*
X222877Y257433D01*
X222857Y257376D01*
X222830Y257213D01*
X222795Y257053D01*
X222791Y256976D01*
X222783Y256931D01*
X222784Y256870D01*
X222776Y256741D01*
X222776Y250172D01*
X222791Y250008D01*
X222798Y249843D01*
X222811Y249784D01*
X222816Y249723D01*
X222859Y249564D01*
X222895Y249404D01*
X222919Y249348D01*
X222935Y249289D01*
X223005Y249141D01*
X223069Y248988D01*
X223102Y248937D01*
X223128Y248882D01*
X223224Y248749D01*
X223313Y248610D01*
X223364Y248552D01*
X223390Y248516D01*
X223434Y248473D01*
X223520Y248376D01*
X250557Y221339D01*
X250683Y221234D01*
X250804Y221122D01*
X250855Y221090D01*
X250902Y221050D01*
X251045Y220969D01*
X251184Y220880D01*
X251240Y220857D01*
X251293Y220827D01*
X251448Y220772D01*
X251600Y220709D01*
X251660Y220697D01*
X251717Y220676D01*
X251880Y220649D01*
X252040Y220615D01*
X252117Y220610D01*
X252162Y220603D01*
X252223Y220604D01*
X252352Y220596D01*
X260390Y220596D01*
X261878Y219107D01*
X261878Y211002D01*
X261376Y210500D01*
X261354Y210474D01*
X261328Y210451D01*
X261210Y210302D01*
X261087Y210155D01*
X261070Y210125D01*
X261049Y210098D01*
X260959Y209930D01*
X260864Y209764D01*
X260852Y209731D01*
X260836Y209701D01*
X260777Y209520D01*
X260713Y209340D01*
X260707Y209305D01*
X260697Y209273D01*
X260671Y209084D01*
X260640Y208896D01*
X260640Y208861D01*
X260635Y208827D01*
X260643Y208636D01*
X260646Y208445D01*
X260652Y208411D01*
X260654Y208377D01*
X260695Y208191D01*
X260731Y208003D01*
X260744Y207971D01*
X260751Y207937D01*
X260825Y207761D01*
X260894Y207583D01*
X260911Y207554D01*
X260925Y207522D01*
X261029Y207361D01*
X261127Y207199D01*
X261150Y207173D01*
X261169Y207143D01*
X261376Y206909D01*
X261878Y206407D01*
X261878Y198302D01*
X261376Y197800D01*
X261354Y197774D01*
X261328Y197751D01*
X261210Y197601D01*
X261087Y197455D01*
X261070Y197425D01*
X261049Y197398D01*
X260958Y197229D01*
X260864Y197064D01*
X260852Y197031D01*
X260836Y197001D01*
X260777Y196819D01*
X260713Y196640D01*
X260707Y196606D01*
X260697Y196573D01*
X260671Y196384D01*
X260640Y196196D01*
X260640Y196161D01*
X260635Y196127D01*
X260643Y195936D01*
X260646Y195745D01*
X260652Y195711D01*
X260654Y195677D01*
X260695Y195491D01*
X260731Y195303D01*
X260744Y195271D01*
X260751Y195237D01*
X260825Y195061D01*
X260894Y194883D01*
X260912Y194854D01*
X260925Y194822D01*
X261028Y194662D01*
X261127Y194498D01*
X261150Y194473D01*
X261169Y194443D01*
X261376Y194209D01*
X261878Y193707D01*
X261878Y185602D01*
X261376Y185100D01*
X261354Y185074D01*
X261328Y185051D01*
X261210Y184901D01*
X261087Y184755D01*
X261070Y184725D01*
X261048Y184698D01*
X260959Y184530D01*
X260864Y184364D01*
X260852Y184331D01*
X260836Y184301D01*
X260777Y184119D01*
X260713Y183940D01*
X260707Y183906D01*
X260697Y183872D01*
X260671Y183683D01*
X260640Y183496D01*
X260640Y183461D01*
X260635Y183426D01*
X260643Y183236D01*
X260646Y183045D01*
X260652Y183011D01*
X260654Y182977D01*
X260695Y182790D01*
X260731Y182603D01*
X260744Y182571D01*
X260751Y182537D01*
X260825Y182361D01*
X260894Y182183D01*
X260912Y182154D01*
X260925Y182122D01*
X261028Y181961D01*
X261127Y181799D01*
X261150Y181772D01*
X261169Y181743D01*
X261369Y181517D01*
X261705Y180936D01*
X261878Y180289D01*
X261878Y179494D01*
X248338Y179494D01*
X248337Y179494D01*
X234797Y179494D01*
X234797Y180289D01*
X234996Y181033D01*
X235061Y181173D01*
X235067Y181196D01*
X235077Y181217D01*
X235125Y181414D01*
X235176Y181609D01*
X235178Y181632D01*
X235183Y181654D01*
X235196Y181856D01*
X235212Y182058D01*
X235209Y182081D01*
X235211Y182104D01*
X235187Y182305D01*
X235168Y182506D01*
X235161Y182528D01*
X235159Y182551D01*
X235100Y182746D01*
X235045Y182939D01*
X235035Y182960D01*
X235028Y182982D01*
X234937Y183162D01*
X234848Y183344D01*
X234835Y183363D01*
X234824Y183383D01*
X234702Y183544D01*
X234583Y183708D01*
X234566Y183724D01*
X234552Y183742D01*
X234403Y183879D01*
X234257Y184019D01*
X234238Y184032D01*
X234221Y184047D01*
X234050Y184156D01*
X233882Y184268D01*
X233861Y184277D01*
X233841Y184289D01*
X233654Y184366D01*
X233469Y184446D01*
X233446Y184451D01*
X233425Y184460D01*
X233227Y184503D01*
X233030Y184549D01*
X233007Y184550D01*
X232984Y184555D01*
X232673Y184574D01*
X226381Y184574D01*
X226264Y184564D01*
X226147Y184563D01*
X226041Y184544D01*
X225932Y184534D01*
X225819Y184503D01*
X225704Y184482D01*
X225558Y184432D01*
X225498Y184416D01*
X225465Y184400D01*
X225409Y184381D01*
X224649Y184066D01*
X222426Y184066D01*
X220372Y184917D01*
X214336Y190953D01*
X214210Y191059D01*
X214089Y191170D01*
X214037Y191203D01*
X213990Y191242D01*
X213848Y191323D01*
X213709Y191412D01*
X213652Y191435D01*
X213599Y191465D01*
X213444Y191520D01*
X213292Y191583D01*
X213233Y191596D01*
X213175Y191616D01*
X213013Y191643D01*
X212852Y191677D01*
X212775Y191682D01*
X212731Y191690D01*
X212670Y191689D01*
X212540Y191697D01*
X205896Y191697D01*
X200242Y197351D01*
X200242Y202047D01*
X200227Y202210D01*
X200221Y202375D01*
X200207Y202434D01*
X200202Y202495D01*
X200159Y202654D01*
X200123Y202814D01*
X200100Y202871D01*
X200084Y202930D01*
X200013Y203078D01*
X199950Y203230D01*
X199916Y203281D01*
X199890Y203336D01*
X199795Y203470D01*
X199705Y203608D01*
X199654Y203666D01*
X199628Y203702D01*
X199584Y203745D01*
X199498Y203842D01*
X166183Y237157D01*
X166057Y237263D01*
X165936Y237374D01*
X165885Y237407D01*
X165838Y237446D01*
X165695Y237528D01*
X165556Y237616D01*
X165500Y237639D01*
X165447Y237670D01*
X165292Y237725D01*
X165140Y237787D01*
X165080Y237800D01*
X165022Y237821D01*
X164860Y237847D01*
X164699Y237882D01*
X164623Y237887D01*
X164578Y237894D01*
X164517Y237893D01*
X164388Y237901D01*
X107493Y237901D01*
X106656Y238248D01*
X106545Y238283D01*
X106436Y238327D01*
X106330Y238350D01*
X106226Y238383D01*
X106110Y238397D01*
X105996Y238422D01*
X105842Y238431D01*
X105780Y238439D01*
X105743Y238437D01*
X105684Y238441D01*
X100002Y238441D01*
X94348Y244096D01*
X94348Y252092D01*
X100002Y257747D01*
X107999Y257747D01*
X113653Y252092D01*
X113653Y251618D01*
X113656Y251583D01*
X113654Y251549D01*
X113676Y251359D01*
X113693Y251169D01*
X113702Y251136D01*
X113706Y251102D01*
X113762Y250919D01*
X113812Y250735D01*
X113827Y250704D01*
X113837Y250671D01*
X113924Y250500D01*
X114005Y250328D01*
X114025Y250300D01*
X114041Y250269D01*
X114156Y250117D01*
X114267Y249962D01*
X114292Y249938D01*
X114313Y249911D01*
X114453Y249781D01*
X114590Y249648D01*
X114619Y249629D01*
X114644Y249605D01*
X114805Y249503D01*
X114963Y249396D01*
X114995Y249382D01*
X115024Y249364D01*
X115200Y249291D01*
X115375Y249214D01*
X115409Y249206D01*
X115441Y249193D01*
X115627Y249152D01*
X115812Y249107D01*
X115847Y249105D01*
X115881Y249098D01*
X116193Y249079D01*
X168866Y249079D01*
X170920Y248228D01*
X172849Y246299D01*
X172849Y246298D01*
X207402Y211746D01*
X207528Y211640D01*
X207649Y211529D01*
X207700Y211496D01*
X207747Y211457D01*
X207890Y211375D01*
X208029Y211287D01*
X208085Y211264D01*
X208138Y211234D01*
X208293Y211179D01*
X208445Y211116D01*
X208505Y211103D01*
X208562Y211083D01*
X208725Y211056D01*
X208886Y211021D01*
X208962Y211017D01*
X209007Y211009D01*
X209068Y211010D01*
X209197Y211002D01*
X213893Y211002D01*
X219547Y205348D01*
X219547Y202600D01*
X219562Y202437D01*
X219569Y202272D01*
X219582Y202213D01*
X219587Y202152D01*
X219631Y201993D01*
X219666Y201833D01*
X219690Y201776D01*
X219706Y201717D01*
X219776Y201569D01*
X219840Y201417D01*
X219873Y201366D01*
X219899Y201311D01*
X219995Y201177D01*
X220084Y201039D01*
X220135Y200981D01*
X220161Y200945D01*
X220205Y200902D01*
X220291Y200805D01*
X225617Y195479D01*
X225743Y195374D01*
X225864Y195262D01*
X225915Y195230D01*
X225962Y195190D01*
X226105Y195109D01*
X226244Y195020D01*
X226300Y194997D01*
X226353Y194967D01*
X226508Y194912D01*
X226660Y194849D01*
X226720Y194837D01*
X226777Y194816D01*
X226940Y194789D01*
X227100Y194755D01*
X227177Y194750D01*
X227222Y194743D01*
X227283Y194744D01*
X227412Y194736D01*
X232258Y194736D01*
X232292Y194739D01*
X232327Y194736D01*
X232516Y194759D01*
X232706Y194775D01*
X232739Y194785D01*
X232774Y194789D01*
X232957Y194844D01*
X233140Y194894D01*
X233172Y194909D01*
X233205Y194919D01*
X233375Y195006D01*
X233547Y195087D01*
X233575Y195107D01*
X233606Y195123D01*
X233758Y195238D01*
X233913Y195349D01*
X233937Y195374D01*
X233965Y195395D01*
X234094Y195535D01*
X234227Y195672D01*
X234247Y195701D01*
X234270Y195726D01*
X234373Y195887D01*
X234479Y196045D01*
X234493Y196077D01*
X234512Y196106D01*
X234584Y196283D01*
X234661Y196457D01*
X234670Y196491D01*
X234683Y196523D01*
X234723Y196709D01*
X234768Y196894D01*
X234770Y196929D01*
X234778Y196963D01*
X234797Y197275D01*
X234797Y206407D01*
X235299Y206909D01*
X235321Y206936D01*
X235347Y206959D01*
X235465Y207108D01*
X235588Y207255D01*
X235605Y207285D01*
X235626Y207312D01*
X235717Y207480D01*
X235811Y207646D01*
X235823Y207678D01*
X235839Y207709D01*
X235898Y207890D01*
X235962Y208070D01*
X235968Y208104D01*
X235978Y208137D01*
X236004Y208326D01*
X236035Y208514D01*
X236035Y208549D01*
X236040Y208583D01*
X236032Y208774D01*
X236029Y208964D01*
X236023Y208998D01*
X236021Y209033D01*
X235980Y209219D01*
X235944Y209406D01*
X235931Y209439D01*
X235924Y209473D01*
X235850Y209648D01*
X235781Y209826D01*
X235763Y209856D01*
X235750Y209888D01*
X235647Y210048D01*
X235548Y210211D01*
X235525Y210237D01*
X235506Y210266D01*
X235299Y210500D01*
X234797Y211002D01*
X234797Y219804D01*
X234799Y219820D01*
X234830Y220008D01*
X234830Y220043D01*
X234834Y220078D01*
X234827Y220268D01*
X234824Y220458D01*
X234817Y220493D01*
X234816Y220528D01*
X234775Y220713D01*
X234739Y220900D01*
X234726Y220933D01*
X234718Y220967D01*
X234645Y221142D01*
X234577Y221320D01*
X234558Y221350D01*
X234545Y221383D01*
X234441Y221543D01*
X234343Y221705D01*
X234320Y221731D01*
X234301Y221761D01*
X234094Y221995D01*
X212450Y243639D01*
X211599Y245693D01*
X211599Y256741D01*
X211584Y256904D01*
X211577Y257069D01*
X211564Y257128D01*
X211559Y257189D01*
X211516Y257348D01*
X211480Y257508D01*
X211456Y257565D01*
X211440Y257624D01*
X211370Y257772D01*
X211306Y257924D01*
X211273Y257975D01*
X211247Y258030D01*
X211151Y258164D01*
X211062Y258302D01*
X211011Y258360D01*
X210985Y258396D01*
X210941Y258439D01*
X210855Y258536D01*
X207535Y261857D01*
X207535Y269853D01*
X213189Y275508D01*
X217885Y275508D01*
X218048Y275522D01*
X218213Y275529D01*
X218272Y275542D01*
X218333Y275547D01*
X218492Y275591D01*
X218653Y275626D01*
X218709Y275650D01*
X218768Y275666D01*
X218916Y275737D01*
X219068Y275800D01*
X219119Y275833D01*
X219174Y275859D01*
X219308Y275955D01*
X219446Y276044D01*
X219504Y276095D01*
X219540Y276121D01*
X219583Y276165D01*
X219680Y276251D01*
X221458Y278029D01*
X223513Y278880D01*
X293412Y278880D01*
X295467Y278029D01*
X297039Y276457D01*
X297353Y275698D01*
X297407Y275594D01*
X297453Y275486D01*
X297512Y275395D01*
X297562Y275298D01*
X297633Y275206D01*
X297697Y275108D01*
X297799Y274992D01*
X297838Y274942D01*
X297864Y274918D01*
X297904Y274874D01*
X320983Y251794D01*
X321110Y251688D01*
X321231Y251577D01*
X321282Y251544D01*
X321329Y251505D01*
X321471Y251424D01*
X321610Y251335D01*
X321667Y251312D01*
X321720Y251282D01*
X321875Y251227D01*
X322027Y251164D01*
X322086Y251152D01*
X322144Y251131D01*
X322306Y251104D01*
X322467Y251070D01*
X322544Y251065D01*
X322588Y251058D01*
X322649Y251058D01*
X322779Y251050D01*
X329559Y251050D01*
X335809Y244801D01*
X335809Y235963D01*
X329559Y229713D01*
X320721Y229713D01*
X314471Y235963D01*
X314471Y242884D01*
X314457Y243047D01*
X314450Y243212D01*
X314437Y243271D01*
X314432Y243332D01*
X314388Y243491D01*
X314353Y243651D01*
X314329Y243708D01*
X314313Y243767D01*
X314243Y243915D01*
X314179Y244067D01*
X314146Y244118D01*
X314120Y244173D01*
X314024Y244307D01*
X313935Y244445D01*
X313884Y244503D01*
X313858Y244539D01*
X313814Y244582D01*
X313728Y244679D01*
X291448Y266959D01*
X291322Y267065D01*
X291201Y267176D01*
X291149Y267209D01*
X291103Y267248D01*
X290960Y267329D01*
X290821Y267418D01*
X290765Y267441D01*
X290712Y267471D01*
X290557Y267526D01*
X290405Y267589D01*
X290345Y267602D01*
X290287Y267622D01*
X290125Y267649D01*
X289964Y267684D01*
X289887Y267688D01*
X289843Y267696D01*
X289782Y267695D01*
X289652Y267703D01*
X285921Y267703D01*
X285791Y267691D01*
X285661Y267689D01*
X285568Y267671D01*
X285472Y267663D01*
X285347Y267629D01*
X285219Y267604D01*
X285130Y267569D01*
X285038Y267544D01*
X284921Y267489D01*
X284799Y267442D01*
X284717Y267392D01*
X284631Y267351D01*
X284526Y267275D01*
X284414Y267208D01*
X284343Y267144D01*
X284265Y267089D01*
X284175Y266996D01*
X284077Y266910D01*
X284018Y266835D01*
X283951Y266766D01*
X283878Y266658D01*
X283798Y266556D01*
X283753Y266472D01*
X283699Y266393D01*
X283646Y266274D01*
X283585Y266160D01*
X283556Y266069D01*
X283517Y265981D01*
X283486Y265855D01*
X283446Y265731D01*
X283433Y265637D01*
X283410Y265544D01*
X283402Y265414D01*
X283384Y265285D01*
X283388Y265190D01*
X283383Y265094D01*
X283398Y264965D01*
X283403Y264835D01*
X283424Y264742D01*
X283435Y264647D01*
X283472Y264523D01*
X283500Y264396D01*
X283537Y264308D01*
X283565Y264216D01*
X283624Y264100D01*
X283674Y263980D01*
X283726Y263900D01*
X283769Y263815D01*
X283848Y263711D01*
X283918Y263602D01*
X284005Y263505D01*
X284041Y263456D01*
X284074Y263426D01*
X284125Y263368D01*
X290340Y257153D01*
X290340Y255694D01*
X280688Y255694D01*
X280687Y255694D01*
X271035Y255694D01*
X271035Y257153D01*
X277250Y263368D01*
X277333Y263468D01*
X277424Y263561D01*
X277477Y263640D01*
X277539Y263713D01*
X277603Y263826D01*
X277676Y263934D01*
X277715Y264021D01*
X277762Y264104D01*
X277805Y264227D01*
X277858Y264346D01*
X277881Y264439D01*
X277913Y264529D01*
X277934Y264657D01*
X277965Y264783D01*
X277971Y264879D01*
X277986Y264973D01*
X277984Y265103D01*
X277992Y265233D01*
X277981Y265327D01*
X277980Y265423D01*
X277955Y265551D01*
X277940Y265680D01*
X277913Y265771D01*
X277895Y265865D01*
X277848Y265986D01*
X277810Y266111D01*
X277767Y266196D01*
X277732Y266285D01*
X277665Y266396D01*
X277606Y266512D01*
X277548Y266588D01*
X277498Y266670D01*
X277412Y266767D01*
X277334Y266871D01*
X277264Y266936D01*
X277200Y267007D01*
X277098Y267088D01*
X277003Y267176D01*
X276922Y267227D01*
X276847Y267287D01*
X276733Y267348D01*
X276623Y267418D01*
X276534Y267454D01*
X276450Y267499D01*
X276327Y267539D01*
X276206Y267589D01*
X276113Y267609D01*
X276022Y267638D01*
X275893Y267656D01*
X275766Y267684D01*
X275636Y267692D01*
X275576Y267700D01*
X275531Y267698D01*
X275454Y267703D01*
X260521Y267703D01*
X260391Y267691D01*
X260261Y267689D01*
X260168Y267671D01*
X260072Y267663D01*
X259947Y267629D01*
X259819Y267604D01*
X259730Y267569D01*
X259638Y267544D01*
X259521Y267489D01*
X259399Y267442D01*
X259317Y267392D01*
X259231Y267351D01*
X259126Y267275D01*
X259014Y267208D01*
X258943Y267144D01*
X258865Y267089D01*
X258775Y266996D01*
X258677Y266910D01*
X258618Y266835D01*
X258551Y266766D01*
X258478Y266658D01*
X258398Y266556D01*
X258353Y266472D01*
X258299Y266393D01*
X258246Y266274D01*
X258185Y266160D01*
X258156Y266069D01*
X258117Y265981D01*
X258086Y265855D01*
X258046Y265731D01*
X258033Y265637D01*
X258010Y265544D01*
X258002Y265414D01*
X257984Y265285D01*
X257988Y265190D01*
X257983Y265094D01*
X257998Y264965D01*
X258003Y264835D01*
X258024Y264742D01*
X258035Y264647D01*
X258072Y264523D01*
X258100Y264396D01*
X258137Y264308D01*
X258165Y264216D01*
X258224Y264100D01*
X258274Y263980D01*
X258326Y263900D01*
X258369Y263815D01*
X258448Y263711D01*
X258518Y263602D01*
X258605Y263505D01*
X258641Y263456D01*
X258674Y263426D01*
X258725Y263368D01*
X264940Y257153D01*
X264940Y252098D01*
X264955Y251934D01*
X264962Y251770D01*
X264975Y251711D01*
X264980Y251650D01*
X265023Y251491D01*
X265059Y251331D01*
X265083Y251274D01*
X265099Y251215D01*
X265169Y251067D01*
X265233Y250915D01*
X265266Y250864D01*
X265292Y250809D01*
X265388Y250675D01*
X265477Y250537D01*
X265528Y250479D01*
X265554Y250443D01*
X265598Y250400D01*
X265684Y250303D01*
X266700Y249287D01*
X266800Y249203D01*
X266893Y249113D01*
X266972Y249059D01*
X267045Y248998D01*
X267158Y248933D01*
X267266Y248861D01*
X267353Y248822D01*
X267436Y248774D01*
X267559Y248731D01*
X267678Y248678D01*
X267771Y248656D01*
X267861Y248624D01*
X267989Y248602D01*
X268115Y248572D01*
X268211Y248566D01*
X268305Y248550D01*
X268435Y248552D01*
X268565Y248544D01*
X268659Y248555D01*
X268755Y248556D01*
X268883Y248581D01*
X269012Y248596D01*
X269103Y248624D01*
X269197Y248642D01*
X269318Y248689D01*
X269443Y248726D01*
X269528Y248770D01*
X269617Y248804D01*
X269728Y248872D01*
X269844Y248931D01*
X269920Y248988D01*
X270002Y249038D01*
X270099Y249124D01*
X270203Y249203D01*
X270268Y249273D01*
X270339Y249336D01*
X270420Y249438D01*
X270508Y249534D01*
X270559Y249614D01*
X270619Y249689D01*
X270680Y249804D01*
X270750Y249914D01*
X270786Y250002D01*
X270831Y250086D01*
X270871Y250210D01*
X270921Y250330D01*
X270941Y250424D01*
X270970Y250514D01*
X270984Y250615D01*
X278148Y250615D01*
X278148Y243457D01*
X278041Y243428D01*
X277913Y243403D01*
X277824Y243369D01*
X277732Y243344D01*
X277615Y243288D01*
X277493Y243241D01*
X277412Y243191D01*
X277326Y243150D01*
X277220Y243075D01*
X277109Y243007D01*
X277037Y242944D01*
X276959Y242888D01*
X276869Y242795D01*
X276771Y242709D01*
X276712Y242634D01*
X276645Y242565D01*
X276572Y242458D01*
X276492Y242356D01*
X276447Y242272D01*
X276393Y242192D01*
X276341Y242074D01*
X276279Y241959D01*
X276250Y241868D01*
X276211Y241781D01*
X276180Y241654D01*
X276140Y241531D01*
X276127Y241436D01*
X276104Y241343D01*
X276096Y241214D01*
X276079Y241085D01*
X276083Y240989D01*
X276077Y240894D01*
X276092Y240765D01*
X276097Y240635D01*
X276118Y240541D01*
X276129Y240447D01*
X276166Y240322D01*
X276195Y240195D01*
X276231Y240107D01*
X276259Y240016D01*
X276318Y239900D01*
X276368Y239780D01*
X276420Y239699D01*
X276463Y239614D01*
X276542Y239511D01*
X276613Y239401D01*
X276699Y239304D01*
X276735Y239255D01*
X276768Y239225D01*
X276819Y239167D01*
X278860Y237127D01*
X279672Y235166D01*
X279672Y205257D01*
X279687Y205093D01*
X279694Y204929D01*
X279707Y204869D01*
X279712Y204809D01*
X279755Y204650D01*
X279791Y204489D01*
X279815Y204433D01*
X279831Y204374D01*
X279901Y204226D01*
X279965Y204074D01*
X279998Y204023D01*
X280024Y203968D01*
X280119Y203834D01*
X280209Y203696D01*
X280260Y203638D01*
X280286Y203602D01*
X280330Y203559D01*
X280416Y203462D01*
X282462Y201416D01*
X282562Y201332D01*
X282655Y201241D01*
X282734Y201188D01*
X282807Y201127D01*
X282920Y201062D01*
X283028Y200989D01*
X283115Y200951D01*
X283198Y200903D01*
X283321Y200860D01*
X283440Y200807D01*
X283532Y200785D01*
X283623Y200752D01*
X283751Y200731D01*
X283877Y200700D01*
X283973Y200695D01*
X284067Y200679D01*
X284197Y200681D01*
X284327Y200673D01*
X284421Y200684D01*
X284517Y200685D01*
X284645Y200710D01*
X284774Y200725D01*
X284865Y200753D01*
X284959Y200771D01*
X285080Y200817D01*
X285205Y200855D01*
X285290Y200899D01*
X285379Y200933D01*
X285490Y201000D01*
X285606Y201060D01*
X285682Y201117D01*
X285764Y201167D01*
X285861Y201253D01*
X285965Y201332D01*
X286030Y201402D01*
X286101Y201465D01*
X286182Y201567D01*
X286270Y201663D01*
X286321Y201743D01*
X286381Y201818D01*
X286442Y201933D01*
X286512Y202042D01*
X286548Y202131D01*
X286593Y202215D01*
X286633Y202339D01*
X286683Y202459D01*
X286703Y202552D01*
X286732Y202643D01*
X286750Y202772D01*
X286778Y202899D01*
X286786Y203029D01*
X286794Y203089D01*
X286792Y203134D01*
X286797Y203211D01*
X286797Y206407D01*
X287299Y206909D01*
X287321Y206936D01*
X287347Y206959D01*
X287465Y207108D01*
X287588Y207255D01*
X287605Y207285D01*
X287626Y207312D01*
X287716Y207480D01*
X287811Y207646D01*
X287823Y207678D01*
X287839Y207709D01*
X287898Y207890D01*
X287962Y208070D01*
X287968Y208104D01*
X287978Y208137D01*
X288004Y208326D01*
X288035Y208514D01*
X288035Y208549D01*
X288040Y208583D01*
X288032Y208774D01*
X288029Y208964D01*
X288023Y208998D01*
X288021Y209033D01*
X287980Y209219D01*
X287944Y209406D01*
X287931Y209439D01*
X287924Y209473D01*
X287850Y209649D01*
X287781Y209826D01*
X287764Y209856D01*
X287750Y209888D01*
X287646Y210048D01*
X287548Y210211D01*
X287525Y210237D01*
X287506Y210266D01*
X287299Y210500D01*
X286797Y211002D01*
X286797Y219107D01*
X288285Y220596D01*
X312445Y220596D01*
X312452Y220590D01*
X312594Y220509D01*
X312733Y220420D01*
X312790Y220397D01*
X312843Y220367D01*
X312997Y220312D01*
X313150Y220249D01*
X313209Y220237D01*
X313267Y220216D01*
X313429Y220189D01*
X313590Y220155D01*
X313667Y220150D01*
X313711Y220143D01*
X313772Y220144D01*
X313902Y220136D01*
X324248Y220136D01*
X326115Y219362D01*
X332330Y213147D01*
X332456Y213042D01*
X332577Y212930D01*
X332628Y212898D01*
X332675Y212859D01*
X332818Y212777D01*
X332957Y212689D01*
X333013Y212665D01*
X333066Y212635D01*
X333221Y212580D01*
X333373Y212518D01*
X333433Y212505D01*
X333490Y212484D01*
X333653Y212458D01*
X333813Y212423D01*
X333890Y212418D01*
X333935Y212411D01*
X333996Y212412D01*
X334125Y212404D01*
X353424Y212404D01*
X353588Y212418D01*
X353752Y212425D01*
X353812Y212438D01*
X353873Y212444D01*
X354032Y212487D01*
X354192Y212523D01*
X354248Y212546D01*
X354307Y212562D01*
X354455Y212633D01*
X354607Y212696D01*
X354659Y212729D01*
X354714Y212756D01*
X354847Y212851D01*
X354986Y212941D01*
X355043Y212992D01*
X355080Y213018D01*
X355122Y213061D01*
X355220Y213147D01*
X367494Y225422D01*
X367517Y225449D01*
X367542Y225471D01*
X367660Y225620D01*
X367783Y225767D01*
X367800Y225797D01*
X367822Y225824D01*
X367912Y225992D01*
X368006Y226158D01*
X368018Y226191D01*
X368034Y226221D01*
X368093Y226402D01*
X368157Y226582D01*
X368163Y226617D01*
X368174Y226650D01*
X368200Y226838D01*
X368231Y227027D01*
X368230Y227061D01*
X368235Y227096D01*
X368227Y227286D01*
X368225Y227477D01*
X368218Y227511D01*
X368217Y227545D01*
X368175Y227731D01*
X368139Y227919D01*
X368127Y227951D01*
X368119Y227985D01*
X368046Y228161D01*
X367977Y228339D01*
X367959Y228368D01*
X367945Y228400D01*
X367842Y228561D01*
X367743Y228724D01*
X367720Y228750D01*
X367701Y228779D01*
X367494Y229013D01*
X334699Y261808D01*
X334572Y261914D01*
X334452Y262025D01*
X334400Y262058D01*
X334353Y262097D01*
X334211Y262179D01*
X334072Y262267D01*
X334015Y262290D01*
X333962Y262321D01*
X333808Y262376D01*
X333655Y262438D01*
X333596Y262451D01*
X333538Y262471D01*
X333376Y262498D01*
X333215Y262533D01*
X333138Y262538D01*
X333094Y262545D01*
X333033Y262544D01*
X332903Y262552D01*
X327489Y262552D01*
X321835Y268207D01*
X321835Y276203D01*
X325977Y280345D01*
X326056Y280440D01*
X326142Y280528D01*
X326200Y280612D01*
X326266Y280690D01*
X326327Y280797D01*
X326396Y280899D01*
X326438Y280993D01*
X326489Y281081D01*
X326530Y281198D01*
X326581Y281310D01*
X326606Y281409D01*
X326640Y281506D01*
X326660Y281627D01*
X326690Y281747D01*
X326697Y281849D01*
X326713Y281950D01*
X326712Y282073D01*
X326720Y282196D01*
X326709Y282298D01*
X326707Y282400D01*
X326684Y282521D01*
X326670Y282644D01*
X326641Y282742D01*
X326622Y282842D01*
X326577Y282957D01*
X326542Y283075D01*
X326496Y283167D01*
X326459Y283262D01*
X326395Y283368D01*
X326340Y283478D01*
X326279Y283559D01*
X326225Y283647D01*
X326144Y283739D01*
X326070Y283838D01*
X325995Y283908D01*
X325927Y283984D01*
X325830Y284061D01*
X325740Y284145D01*
X325654Y284200D01*
X325574Y284264D01*
X325466Y284322D01*
X325362Y284389D01*
X325267Y284428D01*
X325177Y284476D01*
X325060Y284514D01*
X324946Y284562D01*
X324846Y284584D01*
X324749Y284616D01*
X324627Y284632D01*
X324506Y284659D01*
X324365Y284668D01*
X324303Y284677D01*
X324262Y284675D01*
X324195Y284680D01*
X68216Y286031D01*
X68046Y286017D01*
X67874Y286010D01*
X67821Y285998D01*
X67767Y285993D01*
X67602Y285949D01*
X67435Y285912D01*
X67385Y285891D01*
X67332Y285877D01*
X67178Y285805D01*
X67019Y285739D01*
X66974Y285709D01*
X66925Y285686D01*
X66785Y285587D01*
X66641Y285494D01*
X66590Y285449D01*
X66557Y285426D01*
X66514Y285381D01*
X66407Y285287D01*
X50024Y268905D01*
X49919Y268778D01*
X49807Y268657D01*
X49775Y268606D01*
X49735Y268559D01*
X49654Y268417D01*
X49566Y268278D01*
X49542Y268221D01*
X49512Y268168D01*
X49457Y268013D01*
X49395Y267861D01*
X49382Y267802D01*
X49361Y267744D01*
X49334Y267582D01*
X49300Y267421D01*
X49295Y267344D01*
X49288Y267300D01*
X49289Y267239D01*
X49281Y267109D01*
X49281Y262054D01*
X43626Y256400D01*
X35630Y256400D01*
X29975Y262054D01*
X29975Y270051D01*
X35630Y275705D01*
X40684Y275705D01*
X40848Y275720D01*
X41012Y275727D01*
X41072Y275740D01*
X41133Y275745D01*
X41292Y275789D01*
X41452Y275824D01*
X41508Y275848D01*
X41567Y275864D01*
X41715Y275934D01*
X41867Y275998D01*
X41919Y276031D01*
X41974Y276057D01*
X42107Y276153D01*
X42246Y276242D01*
X42304Y276293D01*
X42340Y276319D01*
X42382Y276363D01*
X42480Y276449D01*
X60094Y294063D01*
X60150Y294130D01*
X61191Y295160D01*
X61195Y295164D01*
X61201Y295170D01*
X61947Y295916D01*
X62925Y296315D01*
X62930Y296318D01*
X62938Y296320D01*
X63911Y296723D01*
X64965Y296718D01*
X64971Y296718D01*
X64979Y296718D01*
X66396Y296718D01*
X66447Y296711D01*
X66479Y296713D01*
X66531Y296709D01*
X356895Y295177D01*
X356901Y295177D01*
X356908Y295177D01*
X357963Y295177D01*
X358937Y294767D01*
X358942Y294766D01*
X358949Y294762D01*
X359923Y294359D01*
X360665Y293609D01*
X360669Y293606D01*
X360674Y293600D01*
X361420Y292854D01*
X361820Y291875D01*
X361822Y291870D01*
X361825Y291863D01*
X362228Y290890D01*
X362222Y289835D01*
X362223Y289829D01*
X362222Y289821D01*
X362222Y281573D01*
X362237Y281409D01*
X362244Y281245D01*
X362257Y281185D01*
X362262Y281124D01*
X362305Y280966D01*
X362341Y280805D01*
X362365Y280749D01*
X362381Y280690D01*
X362451Y280542D01*
X362515Y280390D01*
X362548Y280338D01*
X362574Y280283D01*
X362670Y280150D01*
X362759Y280011D01*
X362810Y279954D01*
X362836Y279917D01*
X362880Y279875D01*
X362966Y279777D01*
X364460Y278283D01*
X364586Y278178D01*
X364707Y278066D01*
X364759Y278034D01*
X364805Y277994D01*
X364948Y277913D01*
X365087Y277824D01*
X365143Y277801D01*
X365196Y277771D01*
X365351Y277716D01*
X365503Y277653D01*
X365563Y277641D01*
X365621Y277620D01*
X365783Y277593D01*
X365944Y277559D01*
X366021Y277554D01*
X366065Y277547D01*
X366126Y277548D01*
X366256Y277540D01*
X415099Y277540D01*
X417059Y276727D01*
X452667Y241120D01*
X453479Y239159D01*
X453479Y200530D01*
X453494Y200366D01*
X453500Y200202D01*
X453514Y200142D01*
X453519Y200081D01*
X453562Y199923D01*
X453598Y199762D01*
X453622Y199706D01*
X453638Y199647D01*
X453708Y199499D01*
X453772Y199347D01*
X453805Y199295D01*
X453831Y199240D01*
X453927Y199107D01*
X454016Y198968D01*
X454067Y198911D01*
X454093Y198874D01*
X454137Y198832D01*
X454223Y198734D01*
X457797Y195160D01*
X457797Y187164D01*
X452143Y181509D01*
X444146Y181509D01*
X438492Y187164D01*
X438492Y195160D01*
X442066Y198734D01*
X442171Y198860D01*
X442283Y198981D01*
X442316Y199033D01*
X442355Y199080D01*
X442436Y199222D01*
X442525Y199361D01*
X442548Y199418D01*
X442578Y199471D01*
X442633Y199626D01*
X442696Y199778D01*
X442709Y199837D01*
X442729Y199895D01*
X442756Y200057D01*
X442790Y200218D01*
X442795Y200295D01*
X442803Y200339D01*
X442802Y200400D01*
X442810Y200530D01*
X442810Y234836D01*
X442795Y235000D01*
X442788Y235164D01*
X442775Y235224D01*
X442770Y235285D01*
X442726Y235444D01*
X442691Y235604D01*
X442667Y235660D01*
X442651Y235719D01*
X442581Y235867D01*
X442517Y236020D01*
X442484Y236071D01*
X442458Y236126D01*
X442362Y236259D01*
X442273Y236398D01*
X442222Y236456D01*
X442196Y236492D01*
X442152Y236534D01*
X442066Y236632D01*
X412572Y266126D01*
X412445Y266232D01*
X412324Y266343D01*
X412273Y266376D01*
X412226Y266415D01*
X412083Y266497D01*
X411945Y266585D01*
X411888Y266608D01*
X411835Y266639D01*
X411680Y266694D01*
X411528Y266756D01*
X411468Y266769D01*
X411411Y266789D01*
X411249Y266816D01*
X411088Y266851D01*
X411011Y266856D01*
X410967Y266863D01*
X410906Y266862D01*
X410776Y266870D01*
X366256Y266870D01*
X366092Y266856D01*
X365927Y266849D01*
X365868Y266836D01*
X365807Y266830D01*
X365648Y266787D01*
X365488Y266751D01*
X365432Y266728D01*
X365373Y266712D01*
X365224Y266641D01*
X365072Y266578D01*
X365021Y266544D01*
X364966Y266518D01*
X364832Y266423D01*
X364694Y266333D01*
X364636Y266282D01*
X364600Y266256D01*
X364557Y266212D01*
X364460Y266126D01*
X360886Y262552D01*
X354456Y262552D01*
X354326Y262541D01*
X354196Y262539D01*
X354102Y262521D01*
X354007Y262512D01*
X353882Y262478D01*
X353754Y262453D01*
X353665Y262419D01*
X353573Y262394D01*
X353456Y262338D01*
X353334Y262291D01*
X353252Y262241D01*
X353166Y262200D01*
X353061Y262125D01*
X352949Y262057D01*
X352878Y261994D01*
X352800Y261938D01*
X352709Y261845D01*
X352612Y261759D01*
X352553Y261684D01*
X352486Y261615D01*
X352413Y261507D01*
X352333Y261406D01*
X352288Y261322D01*
X352234Y261242D01*
X352181Y261123D01*
X352120Y261009D01*
X352090Y260918D01*
X352052Y260831D01*
X352021Y260704D01*
X351981Y260581D01*
X351968Y260486D01*
X351945Y260393D01*
X351937Y260264D01*
X351919Y260135D01*
X351923Y260039D01*
X351917Y259944D01*
X351932Y259815D01*
X351938Y259685D01*
X351958Y259591D01*
X351970Y259497D01*
X352007Y259372D01*
X352035Y259245D01*
X352072Y259157D01*
X352100Y259066D01*
X352159Y258950D01*
X352209Y258830D01*
X352261Y258749D01*
X352304Y258664D01*
X352383Y258561D01*
X352453Y258451D01*
X352539Y258354D01*
X352576Y258305D01*
X352609Y258275D01*
X352660Y258217D01*
X382123Y228754D01*
X382250Y228649D01*
X382370Y228537D01*
X382422Y228505D01*
X382469Y228465D01*
X382611Y228384D01*
X382750Y228295D01*
X382807Y228272D01*
X382860Y228242D01*
X383014Y228187D01*
X383167Y228125D01*
X383226Y228112D01*
X383284Y228091D01*
X383446Y228064D01*
X383607Y228030D01*
X383684Y228025D01*
X383728Y228018D01*
X383789Y228019D01*
X383919Y228011D01*
X390206Y228011D01*
X390369Y228025D01*
X390534Y228032D01*
X390593Y228045D01*
X390654Y228050D01*
X390813Y228094D01*
X390973Y228129D01*
X391030Y228153D01*
X391088Y228169D01*
X391237Y228239D01*
X391389Y228303D01*
X391440Y228336D01*
X391495Y228362D01*
X391629Y228458D01*
X391767Y228547D01*
X391825Y228598D01*
X391861Y228625D01*
X391904Y228668D01*
X392001Y228754D01*
X396845Y233599D01*
X405684Y233599D01*
X411933Y227349D01*
X411933Y218511D01*
X405684Y212261D01*
X396845Y212261D01*
X392001Y217105D01*
X391875Y217211D01*
X391754Y217322D01*
X391703Y217355D01*
X391656Y217394D01*
X391513Y217476D01*
X391374Y217564D01*
X391318Y217587D01*
X391265Y217618D01*
X391110Y217673D01*
X390958Y217735D01*
X390898Y217748D01*
X390841Y217768D01*
X390678Y217795D01*
X390517Y217830D01*
X390441Y217835D01*
X390396Y217842D01*
X390335Y217841D01*
X390206Y217849D01*
X377724Y217849D01*
X376865Y218205D01*
X376751Y218241D01*
X376691Y218265D01*
X376635Y218277D01*
X376461Y218334D01*
X376448Y218336D01*
X376435Y218340D01*
X376224Y218367D01*
X376015Y218395D01*
X376002Y218395D01*
X375988Y218397D01*
X375778Y218386D01*
X375565Y218377D01*
X375552Y218374D01*
X375539Y218374D01*
X375333Y218326D01*
X375125Y218280D01*
X375113Y218274D01*
X375100Y218271D01*
X374906Y218188D01*
X374710Y218106D01*
X374699Y218099D01*
X374687Y218094D01*
X374592Y218031D01*
X374584Y218027D01*
X374558Y218008D01*
X374510Y217977D01*
X374332Y217862D01*
X374320Y217851D01*
X374311Y217845D01*
X374283Y217818D01*
X374241Y217782D01*
X374218Y217765D01*
X374191Y217738D01*
X374098Y217655D01*
X361460Y205017D01*
X361385Y204928D01*
X361303Y204845D01*
X361241Y204756D01*
X361171Y204672D01*
X361113Y204571D01*
X361047Y204474D01*
X360979Y204336D01*
X360948Y204281D01*
X360936Y204247D01*
X360910Y204194D01*
X360849Y204047D01*
X359348Y202546D01*
X357388Y201734D01*
X334125Y201734D01*
X333962Y201720D01*
X333797Y201713D01*
X333738Y201700D01*
X333677Y201694D01*
X333518Y201651D01*
X333358Y201615D01*
X333301Y201592D01*
X333242Y201576D01*
X333094Y201505D01*
X332942Y201442D01*
X332891Y201409D01*
X332836Y201382D01*
X332702Y201287D01*
X332564Y201198D01*
X332506Y201146D01*
X332470Y201120D01*
X332427Y201077D01*
X332330Y200991D01*
X330410Y199070D01*
X330326Y198971D01*
X330235Y198877D01*
X330182Y198798D01*
X330121Y198725D01*
X330056Y198612D01*
X329983Y198504D01*
X329945Y198417D01*
X329897Y198334D01*
X329854Y198211D01*
X329801Y198093D01*
X329779Y198000D01*
X329746Y197910D01*
X329725Y197781D01*
X329694Y197655D01*
X329689Y197560D01*
X329673Y197466D01*
X329675Y197336D01*
X329667Y197206D01*
X329678Y197111D01*
X329679Y197015D01*
X329704Y196888D01*
X329719Y196758D01*
X329747Y196667D01*
X329765Y196573D01*
X329811Y196452D01*
X329849Y196327D01*
X329893Y196242D01*
X329927Y196153D01*
X329994Y196042D01*
X330054Y195926D01*
X330111Y195850D01*
X330161Y195768D01*
X330247Y195671D01*
X330326Y195567D01*
X330396Y195503D01*
X330459Y195431D01*
X330561Y195350D01*
X330657Y195262D01*
X330737Y195211D01*
X330812Y195152D01*
X330927Y195090D01*
X331036Y195020D01*
X331125Y194984D01*
X331209Y194939D01*
X331333Y194899D01*
X331453Y194849D01*
X331546Y194829D01*
X331637Y194800D01*
X331766Y194782D01*
X331893Y194755D01*
X332023Y194747D01*
X332083Y194738D01*
X332128Y194740D01*
X332205Y194736D01*
X360815Y194736D01*
X360979Y194750D01*
X361144Y194757D01*
X361203Y194770D01*
X361264Y194775D01*
X361423Y194819D01*
X361583Y194854D01*
X361639Y194878D01*
X361698Y194894D01*
X361846Y194964D01*
X361999Y195028D01*
X362050Y195061D01*
X362105Y195087D01*
X362238Y195183D01*
X362377Y195272D01*
X362435Y195323D01*
X362471Y195349D01*
X362513Y195393D01*
X362611Y195479D01*
X367946Y200815D01*
X375943Y200815D01*
X381597Y195160D01*
X381597Y187164D01*
X375943Y181509D01*
X367946Y181509D01*
X365625Y183830D01*
X365499Y183936D01*
X365378Y184047D01*
X365326Y184080D01*
X365279Y184119D01*
X365137Y184201D01*
X364998Y184289D01*
X364941Y184312D01*
X364889Y184343D01*
X364734Y184398D01*
X364581Y184460D01*
X364522Y184473D01*
X364464Y184493D01*
X364302Y184520D01*
X364141Y184555D01*
X364064Y184560D01*
X364020Y184567D01*
X363959Y184566D01*
X363829Y184574D01*
X316417Y184574D01*
X316383Y184571D01*
X316348Y184573D01*
X316159Y184551D01*
X315969Y184534D01*
X315936Y184525D01*
X315901Y184521D01*
X315718Y184466D01*
X315535Y184416D01*
X315503Y184401D01*
X315470Y184391D01*
X315300Y184304D01*
X315128Y184222D01*
X315100Y184202D01*
X315069Y184186D01*
X314917Y184071D01*
X314762Y183960D01*
X314738Y183935D01*
X314710Y183914D01*
X314581Y183774D01*
X314448Y183637D01*
X314428Y183609D01*
X314405Y183583D01*
X314302Y183422D01*
X314196Y183264D01*
X314182Y183233D01*
X314163Y183203D01*
X314091Y183027D01*
X314014Y182853D01*
X314005Y182819D01*
X313992Y182787D01*
X313952Y182600D01*
X313907Y182415D01*
X313905Y182381D01*
X313897Y182347D01*
X313878Y182035D01*
X313878Y172226D01*
X313871Y172195D01*
X313865Y172100D01*
X313849Y172006D01*
X313851Y171876D01*
X313843Y171745D01*
X313854Y171651D01*
X313855Y171556D01*
X313880Y171428D01*
X313895Y171298D01*
X313923Y171207D01*
X313941Y171114D01*
X313987Y170992D01*
X314025Y170867D01*
X314068Y170782D01*
X314103Y170694D01*
X314170Y170582D01*
X314230Y170466D01*
X314287Y170390D01*
X314336Y170309D01*
X314423Y170211D01*
X314502Y170107D01*
X314572Y170043D01*
X314634Y169971D01*
X314737Y169890D01*
X314833Y169802D01*
X314913Y169751D01*
X314987Y169692D01*
X315102Y169630D01*
X315213Y169560D01*
X315301Y169524D01*
X315384Y169479D01*
X315508Y169439D01*
X315629Y169389D01*
X315722Y169369D01*
X315812Y169340D01*
X315942Y169322D01*
X316069Y169294D01*
X316198Y169286D01*
X316258Y169278D01*
X316303Y169280D01*
X316381Y169275D01*
X327148Y169275D01*
X327311Y169290D01*
X327476Y169296D01*
X327535Y169310D01*
X327596Y169315D01*
X327755Y169358D01*
X327915Y169394D01*
X327972Y169418D01*
X328030Y169434D01*
X328179Y169504D01*
X328331Y169568D01*
X328382Y169601D01*
X328437Y169627D01*
X328571Y169723D01*
X328709Y169812D01*
X328767Y169863D01*
X328803Y169889D01*
X328846Y169933D01*
X328943Y170019D01*
X332517Y173593D01*
X340514Y173593D01*
X344088Y170019D01*
X344215Y169913D01*
X344335Y169802D01*
X344387Y169769D01*
X344434Y169730D01*
X344576Y169648D01*
X344715Y169560D01*
X344772Y169537D01*
X344825Y169507D01*
X344979Y169452D01*
X345132Y169389D01*
X345191Y169376D01*
X345249Y169356D01*
X345411Y169329D01*
X345572Y169294D01*
X345649Y169290D01*
X345693Y169282D01*
X345754Y169283D01*
X345884Y169275D01*
X365531Y169275D01*
X367470Y168472D01*
X367582Y168437D01*
X367690Y168393D01*
X367796Y168370D01*
X367900Y168337D01*
X368016Y168323D01*
X368130Y168298D01*
X368284Y168289D01*
X368346Y168281D01*
X368383Y168282D01*
X368442Y168279D01*
X373783Y168279D01*
X379437Y162624D01*
X379437Y154628D01*
X373783Y148973D01*
X365786Y148973D01*
X360132Y154628D01*
X360132Y156066D01*
X360129Y156101D01*
X360131Y156135D01*
X360109Y156325D01*
X360092Y156515D01*
X360083Y156548D01*
X360079Y156583D01*
X360023Y156766D01*
X359973Y156949D01*
X359959Y156980D01*
X359949Y157014D01*
X359862Y157184D01*
X359780Y157356D01*
X359760Y157384D01*
X359744Y157415D01*
X359629Y157567D01*
X359518Y157722D01*
X359493Y157746D01*
X359472Y157774D01*
X359332Y157903D01*
X359195Y158036D01*
X359166Y158055D01*
X359141Y158079D01*
X358980Y158181D01*
X358822Y158288D01*
X358790Y158302D01*
X358761Y158321D01*
X358585Y158393D01*
X358410Y158470D01*
X358377Y158479D01*
X358345Y158492D01*
X358158Y158532D01*
X357973Y158577D01*
X357938Y158579D01*
X357904Y158586D01*
X357593Y158606D01*
X345884Y158606D01*
X345720Y158591D01*
X345556Y158584D01*
X345496Y158571D01*
X345435Y158566D01*
X345276Y158522D01*
X345116Y158487D01*
X345060Y158463D01*
X345001Y158447D01*
X344853Y158377D01*
X344701Y158313D01*
X344649Y158280D01*
X344594Y158254D01*
X344461Y158158D01*
X344322Y158069D01*
X344265Y158018D01*
X344228Y157992D01*
X344186Y157948D01*
X344088Y157862D01*
X340514Y154288D01*
X332517Y154288D01*
X328943Y157862D01*
X328817Y157967D01*
X328696Y158079D01*
X328645Y158112D01*
X328598Y158151D01*
X328455Y158232D01*
X328316Y158321D01*
X328260Y158344D01*
X328207Y158374D01*
X328052Y158429D01*
X327900Y158492D01*
X327840Y158505D01*
X327783Y158525D01*
X327620Y158552D01*
X327459Y158586D01*
X327383Y158591D01*
X327338Y158599D01*
X327277Y158598D01*
X327148Y158606D01*
X316417Y158606D01*
X316383Y158603D01*
X316348Y158605D01*
X316159Y158583D01*
X315969Y158566D01*
X315936Y158557D01*
X315901Y158553D01*
X315718Y158497D01*
X315535Y158447D01*
X315503Y158432D01*
X315470Y158422D01*
X315300Y158335D01*
X315128Y158254D01*
X315100Y158234D01*
X315069Y158218D01*
X314917Y158103D01*
X314762Y157992D01*
X314738Y157967D01*
X314710Y157946D01*
X314581Y157806D01*
X314448Y157669D01*
X314428Y157640D01*
X314405Y157615D01*
X314302Y157454D01*
X314196Y157296D01*
X314182Y157264D01*
X314163Y157235D01*
X314091Y157059D01*
X314014Y156884D01*
X314005Y156851D01*
X313992Y156819D01*
X313952Y156632D01*
X313907Y156447D01*
X313905Y156412D01*
X313897Y156378D01*
X313878Y156066D01*
X313878Y146983D01*
X313881Y146948D01*
X313879Y146914D01*
X313901Y146724D01*
X313918Y146534D01*
X313927Y146501D01*
X313931Y146466D01*
X313987Y146284D01*
X314037Y146100D01*
X314051Y146069D01*
X314062Y146035D01*
X314148Y145865D01*
X314230Y145693D01*
X314250Y145665D01*
X314266Y145634D01*
X314381Y145482D01*
X314492Y145327D01*
X314517Y145303D01*
X314538Y145275D01*
X314678Y145146D01*
X314815Y145013D01*
X314844Y144994D01*
X314869Y144970D01*
X315030Y144868D01*
X315188Y144761D01*
X315220Y144747D01*
X315249Y144728D01*
X315425Y144656D01*
X315600Y144579D01*
X315633Y144571D01*
X315665Y144557D01*
X315852Y144517D01*
X316037Y144472D01*
X316072Y144470D01*
X316106Y144463D01*
X316417Y144444D01*
X319899Y144444D01*
X320659Y144129D01*
X320771Y144094D01*
X320879Y144049D01*
X320985Y144027D01*
X321089Y143994D01*
X321205Y143979D01*
X321319Y143955D01*
X321473Y143945D01*
X321535Y143937D01*
X321572Y143939D01*
X321631Y143936D01*
X347074Y143936D01*
X348942Y143162D01*
X369009Y123094D01*
X369136Y122989D01*
X369256Y122877D01*
X369308Y122845D01*
X369355Y122805D01*
X369497Y122724D01*
X369636Y122636D01*
X369693Y122612D01*
X369746Y122582D01*
X369900Y122527D01*
X370053Y122465D01*
X370112Y122452D01*
X370170Y122431D01*
X370332Y122404D01*
X370493Y122370D01*
X370570Y122365D01*
X370614Y122358D01*
X370675Y122359D01*
X370805Y122351D01*
X377656Y122351D01*
X383905Y116101D01*
X383905Y109250D01*
X383920Y109087D01*
X383926Y108922D01*
X383940Y108863D01*
X383945Y108802D01*
X383988Y108643D01*
X384024Y108483D01*
X384048Y108426D01*
X384064Y108367D01*
X384134Y108219D01*
X384198Y108067D01*
X384231Y108016D01*
X384257Y107961D01*
X384353Y107827D01*
X384442Y107689D01*
X384493Y107631D01*
X384519Y107595D01*
X384563Y107552D01*
X384649Y107455D01*
X405118Y86985D01*
X405892Y85118D01*
X405892Y64746D01*
X405906Y64583D01*
X405913Y64418D01*
X405926Y64359D01*
X405932Y64298D01*
X405975Y64139D01*
X406011Y63979D01*
X406034Y63922D01*
X406050Y63863D01*
X406121Y63715D01*
X406184Y63563D01*
X406218Y63512D01*
X406244Y63457D01*
X406339Y63323D01*
X406429Y63185D01*
X406480Y63127D01*
X406506Y63091D01*
X406550Y63048D01*
X406636Y62951D01*
X410464Y59122D01*
X410464Y51126D01*
X404809Y45471D01*
X396813Y45471D01*
X391158Y51126D01*
X391158Y59122D01*
X394987Y62951D01*
X395092Y63077D01*
X395204Y63198D01*
X395237Y63249D01*
X395276Y63296D01*
X395357Y63439D01*
X395446Y63578D01*
X395469Y63634D01*
X395499Y63687D01*
X395554Y63842D01*
X395616Y63994D01*
X395629Y64054D01*
X395650Y64111D01*
X395677Y64273D01*
X395711Y64434D01*
X395716Y64512D01*
X395723Y64556D01*
X395722Y64616D01*
X395730Y64746D01*
X395730Y80951D01*
X395716Y81115D01*
X395709Y81279D01*
X395696Y81339D01*
X395691Y81399D01*
X395647Y81558D01*
X395612Y81719D01*
X395588Y81775D01*
X395572Y81834D01*
X395502Y81982D01*
X395438Y82134D01*
X395405Y82185D01*
X395379Y82240D01*
X395283Y82374D01*
X395194Y82512D01*
X395143Y82570D01*
X395116Y82606D01*
X395073Y82649D01*
X394987Y82746D01*
X377464Y100269D01*
X377337Y100375D01*
X377217Y100486D01*
X377165Y100519D01*
X377118Y100558D01*
X376976Y100640D01*
X376837Y100728D01*
X376780Y100752D01*
X376727Y100782D01*
X376572Y100837D01*
X376420Y100899D01*
X376361Y100912D01*
X376303Y100933D01*
X376141Y100959D01*
X375980Y100994D01*
X375903Y100999D01*
X375859Y101006D01*
X375798Y101005D01*
X375668Y101013D01*
X368817Y101013D01*
X362568Y107263D01*
X362568Y114114D01*
X362553Y114277D01*
X362546Y114442D01*
X362533Y114501D01*
X362528Y114562D01*
X362484Y114721D01*
X362449Y114881D01*
X362425Y114938D01*
X362409Y114996D01*
X362339Y115145D01*
X362275Y115297D01*
X362242Y115348D01*
X362216Y115403D01*
X362120Y115537D01*
X362031Y115675D01*
X361980Y115733D01*
X361954Y115769D01*
X361910Y115812D01*
X361824Y115909D01*
X344703Y133030D01*
X344576Y133136D01*
X344456Y133247D01*
X344404Y133280D01*
X344357Y133319D01*
X344215Y133401D01*
X344076Y133489D01*
X344019Y133512D01*
X343966Y133543D01*
X343812Y133598D01*
X343659Y133660D01*
X343600Y133673D01*
X343542Y133693D01*
X343380Y133720D01*
X343219Y133755D01*
X343142Y133760D01*
X343098Y133767D01*
X343037Y133766D01*
X342907Y133774D01*
X321631Y133774D01*
X321514Y133764D01*
X321397Y133763D01*
X321291Y133744D01*
X321182Y133734D01*
X321069Y133703D01*
X320954Y133682D01*
X320808Y133632D01*
X320748Y133616D01*
X320715Y133600D01*
X320659Y133581D01*
X319899Y133266D01*
X299064Y133266D01*
X299031Y133270D01*
X298917Y133295D01*
X298763Y133304D01*
X298700Y133312D01*
X298664Y133310D01*
X298605Y133314D01*
X288285Y133314D01*
X286797Y134802D01*
X286797Y142907D01*
X287299Y143409D01*
X287321Y143436D01*
X287347Y143459D01*
X287465Y143608D01*
X287588Y143755D01*
X287605Y143785D01*
X287626Y143812D01*
X287717Y143980D01*
X287811Y144146D01*
X287823Y144178D01*
X287839Y144209D01*
X287898Y144390D01*
X287962Y144570D01*
X287968Y144604D01*
X287978Y144637D01*
X288004Y144826D01*
X288035Y145014D01*
X288035Y145049D01*
X288040Y145083D01*
X288032Y145274D01*
X288029Y145464D01*
X288023Y145498D01*
X288021Y145533D01*
X287980Y145719D01*
X287944Y145906D01*
X287931Y145939D01*
X287924Y145973D01*
X287850Y146148D01*
X287781Y146326D01*
X287763Y146356D01*
X287750Y146388D01*
X287647Y146548D01*
X287548Y146711D01*
X287525Y146737D01*
X287506Y146766D01*
X287299Y147000D01*
X286797Y147502D01*
X286797Y155607D01*
X287299Y156109D01*
X287321Y156136D01*
X287347Y156159D01*
X287465Y156308D01*
X287588Y156455D01*
X287605Y156485D01*
X287626Y156512D01*
X287716Y156680D01*
X287811Y156846D01*
X287823Y156878D01*
X287839Y156909D01*
X287898Y157090D01*
X287962Y157270D01*
X287968Y157304D01*
X287978Y157337D01*
X288004Y157526D01*
X288035Y157714D01*
X288035Y157749D01*
X288040Y157783D01*
X288032Y157974D01*
X288029Y158164D01*
X288023Y158198D01*
X288021Y158233D01*
X287980Y158419D01*
X287944Y158606D01*
X287931Y158639D01*
X287924Y158673D01*
X287850Y158849D01*
X287781Y159026D01*
X287764Y159056D01*
X287750Y159088D01*
X287646Y159248D01*
X287548Y159411D01*
X287525Y159437D01*
X287506Y159466D01*
X287299Y159700D01*
X286797Y160202D01*
X286797Y163039D01*
X286785Y163169D01*
X286783Y163299D01*
X286765Y163392D01*
X286757Y163488D01*
X286723Y163613D01*
X286698Y163741D01*
X286663Y163830D01*
X286638Y163922D01*
X286583Y164039D01*
X286536Y164161D01*
X286486Y164243D01*
X286445Y164329D01*
X286369Y164434D01*
X286302Y164546D01*
X286238Y164617D01*
X286183Y164695D01*
X286090Y164786D01*
X286004Y164883D01*
X285929Y164942D01*
X285860Y165009D01*
X285752Y165082D01*
X285650Y165162D01*
X285566Y165208D01*
X285487Y165261D01*
X285368Y165314D01*
X285254Y165375D01*
X285163Y165405D01*
X285075Y165443D01*
X284949Y165474D01*
X284825Y165514D01*
X284731Y165527D01*
X284638Y165550D01*
X284508Y165558D01*
X284379Y165576D01*
X284284Y165572D01*
X284188Y165578D01*
X284059Y165563D01*
X283929Y165557D01*
X283836Y165537D01*
X283741Y165526D01*
X283617Y165488D01*
X283490Y165460D01*
X283402Y165423D01*
X283310Y165395D01*
X283194Y165336D01*
X283074Y165286D01*
X282994Y165234D01*
X282909Y165191D01*
X282805Y165112D01*
X282696Y165042D01*
X282599Y164956D01*
X282550Y164919D01*
X282520Y164886D01*
X282462Y164835D01*
X280416Y162789D01*
X280310Y162663D01*
X280199Y162542D01*
X280166Y162490D01*
X280127Y162443D01*
X280046Y162301D01*
X279957Y162162D01*
X279934Y162105D01*
X279904Y162052D01*
X279849Y161898D01*
X279786Y161745D01*
X279773Y161686D01*
X279753Y161628D01*
X279726Y161466D01*
X279691Y161305D01*
X279687Y161228D01*
X279679Y161184D01*
X279680Y161123D01*
X279672Y160993D01*
X279672Y90285D01*
X279683Y90168D01*
X279683Y90051D01*
X279702Y89945D01*
X279712Y89836D01*
X279743Y89724D01*
X279764Y89609D01*
X279814Y89463D01*
X279831Y89402D01*
X279846Y89369D01*
X279866Y89313D01*
X279926Y89167D01*
X279926Y86943D01*
X279075Y84889D01*
X248240Y54054D01*
X248165Y53964D01*
X248083Y53881D01*
X248021Y53792D01*
X247951Y53708D01*
X247893Y53607D01*
X247827Y53511D01*
X247759Y53372D01*
X247728Y53318D01*
X247716Y53283D01*
X247690Y53230D01*
X246616Y50638D01*
X243615Y47637D01*
X240453Y46327D01*
X240338Y46267D01*
X240219Y46216D01*
X240139Y46163D01*
X240054Y46119D01*
X239951Y46039D01*
X239843Y45968D01*
X239774Y45902D01*
X239698Y45843D01*
X239611Y45747D01*
X239517Y45657D01*
X239461Y45580D01*
X239397Y45509D01*
X239328Y45399D01*
X239251Y45294D01*
X239209Y45208D01*
X239159Y45127D01*
X239111Y45006D01*
X239054Y44889D01*
X239028Y44797D01*
X238992Y44708D01*
X238966Y44581D01*
X238931Y44456D01*
X238921Y44361D01*
X238902Y44267D01*
X238899Y44137D01*
X238886Y44008D01*
X238894Y43913D01*
X238891Y43817D01*
X238911Y43688D01*
X238921Y43559D01*
X238945Y43467D01*
X238960Y43372D01*
X239002Y43249D01*
X239035Y43123D01*
X239075Y43037D01*
X239107Y42946D01*
X239170Y42833D01*
X239224Y42715D01*
X239279Y42636D01*
X239326Y42553D01*
X239408Y42452D01*
X239483Y42346D01*
X239551Y42279D01*
X239611Y42205D01*
X239710Y42120D01*
X239802Y42028D01*
X239881Y41974D01*
X239953Y41912D01*
X240066Y41846D01*
X240173Y41773D01*
X240289Y41716D01*
X240342Y41685D01*
X240384Y41669D01*
X240453Y41635D01*
X243615Y40326D01*
X246616Y37325D01*
X248222Y33447D01*
X248276Y33343D01*
X248322Y33236D01*
X248380Y33144D01*
X248431Y33048D01*
X248502Y32956D01*
X248566Y32857D01*
X248668Y32742D01*
X248707Y32692D01*
X248733Y32668D01*
X248773Y32623D01*
X250509Y30887D01*
X250635Y30782D01*
X250756Y30670D01*
X250807Y30638D01*
X250854Y30598D01*
X250997Y30517D01*
X251136Y30428D01*
X251192Y30405D01*
X251245Y30375D01*
X251400Y30320D01*
X251552Y30257D01*
X251612Y30245D01*
X251669Y30224D01*
X251832Y30197D01*
X251992Y30163D01*
X252069Y30158D01*
X252114Y30151D01*
X252175Y30152D01*
X252304Y30144D01*
X292273Y30144D01*
X292437Y30158D01*
X292601Y30165D01*
X292661Y30178D01*
X292721Y30183D01*
X292880Y30227D01*
X293041Y30262D01*
X293097Y30286D01*
X293156Y30302D01*
X293304Y30372D01*
X293456Y30436D01*
X293507Y30469D01*
X293562Y30495D01*
X293696Y30591D01*
X293834Y30680D01*
X293892Y30731D01*
X293929Y30757D01*
X293971Y30801D01*
X294068Y30887D01*
X303399Y40218D01*
X303505Y40344D01*
X303616Y40465D01*
X303649Y40516D01*
X303688Y40563D01*
X303770Y40706D01*
X303858Y40845D01*
X303881Y40901D01*
X303911Y40954D01*
X303966Y41109D01*
X304029Y41261D01*
X304042Y41321D01*
X304062Y41378D01*
X304089Y41540D01*
X304124Y41701D01*
X304128Y41779D01*
X304136Y41823D01*
X304135Y41883D01*
X304143Y42013D01*
X304143Y46709D01*
X309797Y52363D01*
X317794Y52363D01*
X323448Y46709D01*
X323448Y38712D01*
X317794Y33058D01*
X313098Y33058D01*
X312934Y33043D01*
X312770Y33037D01*
X312711Y33023D01*
X312650Y33018D01*
X312491Y32975D01*
X312330Y32939D01*
X312274Y32915D01*
X312215Y32899D01*
X312067Y32829D01*
X311915Y32765D01*
X311864Y32732D01*
X311809Y32706D01*
X311675Y32610D01*
X311537Y32521D01*
X311479Y32470D01*
X311443Y32444D01*
X311403Y32403D01*
X311399Y32400D01*
X311392Y32393D01*
X311303Y32314D01*
X300735Y21746D01*
X298805Y19817D01*
X296751Y18966D01*
X247826Y18966D01*
G37*
%LPD*%
%LPC*%
G36*
X62189Y64228D02*
X62189Y64228D01*
X56534Y69882D01*
X56534Y77879D01*
X60108Y81453D01*
X60214Y81580D01*
X60325Y81700D01*
X60358Y81752D01*
X60397Y81799D01*
X60479Y81941D01*
X60567Y82080D01*
X60590Y82137D01*
X60621Y82190D01*
X60676Y82344D01*
X60738Y82497D01*
X60751Y82556D01*
X60771Y82614D01*
X60798Y82776D01*
X60833Y82937D01*
X60838Y83014D01*
X60845Y83058D01*
X60844Y83119D01*
X60852Y83249D01*
X60852Y83394D01*
X60838Y83558D01*
X60831Y83722D01*
X60818Y83782D01*
X60812Y83842D01*
X60769Y84001D01*
X60733Y84162D01*
X60710Y84218D01*
X60694Y84277D01*
X60623Y84425D01*
X60560Y84577D01*
X60526Y84629D01*
X60500Y84683D01*
X60405Y84817D01*
X60315Y84955D01*
X60264Y85013D01*
X60238Y85050D01*
X60195Y85092D01*
X60108Y85189D01*
X28515Y116783D01*
X27703Y118744D01*
X27703Y184323D01*
X28515Y186284D01*
X29231Y187000D01*
X29337Y187127D01*
X29448Y187248D01*
X29481Y187299D01*
X29520Y187346D01*
X29602Y187489D01*
X29690Y187627D01*
X29713Y187684D01*
X29744Y187737D01*
X29799Y187892D01*
X29861Y188044D01*
X29874Y188104D01*
X29894Y188161D01*
X29921Y188323D01*
X29956Y188484D01*
X29961Y188561D01*
X29968Y188605D01*
X29967Y188666D01*
X29975Y188796D01*
X29975Y193851D01*
X35630Y199505D01*
X43626Y199505D01*
X49281Y193851D01*
X49281Y185854D01*
X43626Y180200D01*
X40911Y180200D01*
X40877Y180197D01*
X40842Y180199D01*
X40653Y180177D01*
X40463Y180160D01*
X40430Y180151D01*
X40395Y180147D01*
X40212Y180091D01*
X40029Y180041D01*
X39997Y180027D01*
X39964Y180017D01*
X39794Y179930D01*
X39622Y179848D01*
X39594Y179828D01*
X39563Y179812D01*
X39411Y179697D01*
X39256Y179586D01*
X39232Y179561D01*
X39204Y179540D01*
X39075Y179400D01*
X38942Y179263D01*
X38922Y179234D01*
X38899Y179209D01*
X38796Y179048D01*
X38690Y178890D01*
X38676Y178858D01*
X38657Y178829D01*
X38585Y178653D01*
X38508Y178478D01*
X38499Y178445D01*
X38486Y178413D01*
X38446Y178226D01*
X38401Y178041D01*
X38399Y178006D01*
X38391Y177972D01*
X38372Y177661D01*
X38372Y123066D01*
X38387Y122903D01*
X38394Y122738D01*
X38407Y122679D01*
X38412Y122618D01*
X38455Y122459D01*
X38491Y122299D01*
X38515Y122242D01*
X38531Y122183D01*
X38601Y122035D01*
X38665Y121883D01*
X38698Y121832D01*
X38724Y121777D01*
X38820Y121643D01*
X38909Y121505D01*
X38960Y121447D01*
X38986Y121411D01*
X39030Y121368D01*
X39116Y121271D01*
X70779Y89608D01*
X70805Y89586D01*
X70828Y89560D01*
X70938Y89473D01*
X71013Y89404D01*
X71053Y89378D01*
X71124Y89319D01*
X71154Y89302D01*
X71181Y89280D01*
X71343Y89194D01*
X71392Y89162D01*
X71414Y89154D01*
X71515Y89096D01*
X71548Y89084D01*
X71578Y89068D01*
X71759Y89009D01*
X71939Y88945D01*
X71974Y88939D01*
X72006Y88929D01*
X72195Y88903D01*
X72383Y88871D01*
X72418Y88872D01*
X72452Y88867D01*
X72643Y88875D01*
X72834Y88878D01*
X72868Y88884D01*
X72902Y88886D01*
X73088Y88927D01*
X73276Y88963D01*
X73308Y88976D01*
X73342Y88983D01*
X73464Y89034D01*
X73470Y89036D01*
X73485Y89043D01*
X73518Y89057D01*
X73696Y89125D01*
X73725Y89143D01*
X73757Y89157D01*
X73849Y89216D01*
X73877Y89229D01*
X73935Y89271D01*
X74081Y89359D01*
X74106Y89382D01*
X74136Y89401D01*
X74216Y89472D01*
X74243Y89491D01*
X74275Y89524D01*
X74370Y89608D01*
X84109Y99347D01*
X84215Y99474D01*
X84326Y99594D01*
X84359Y99646D01*
X84398Y99693D01*
X84479Y99835D01*
X84568Y99974D01*
X84591Y100031D01*
X84621Y100084D01*
X84676Y100239D01*
X84739Y100391D01*
X84752Y100450D01*
X84772Y100508D01*
X84799Y100670D01*
X84834Y100831D01*
X84838Y100908D01*
X84846Y100952D01*
X84845Y101013D01*
X84853Y101143D01*
X84853Y148537D01*
X84838Y148700D01*
X84831Y148865D01*
X84818Y148924D01*
X84813Y148985D01*
X84770Y149144D01*
X84734Y149304D01*
X84710Y149361D01*
X84694Y149420D01*
X84624Y149568D01*
X84560Y149720D01*
X84527Y149771D01*
X84501Y149826D01*
X84405Y149960D01*
X84316Y150098D01*
X84265Y150156D01*
X84239Y150192D01*
X84195Y150235D01*
X84109Y150332D01*
X80535Y153907D01*
X80535Y161903D01*
X85917Y167285D01*
X86000Y167385D01*
X86091Y167478D01*
X86145Y167558D01*
X86206Y167631D01*
X86270Y167743D01*
X86343Y167851D01*
X86382Y167939D01*
X86429Y168022D01*
X86473Y168144D01*
X86525Y168263D01*
X86548Y168356D01*
X86580Y168446D01*
X86601Y168574D01*
X86632Y168700D01*
X86638Y168796D01*
X86654Y168890D01*
X86652Y169020D01*
X86660Y169150D01*
X86649Y169245D01*
X86647Y169340D01*
X86623Y169468D01*
X86608Y169597D01*
X86580Y169689D01*
X86562Y169782D01*
X86515Y169903D01*
X86477Y170028D01*
X86434Y170113D01*
X86400Y170202D01*
X86332Y170314D01*
X86273Y170429D01*
X86215Y170505D01*
X86166Y170587D01*
X86080Y170685D01*
X86001Y170788D01*
X85931Y170853D01*
X85868Y170925D01*
X85766Y171005D01*
X85670Y171093D01*
X85589Y171145D01*
X85514Y171204D01*
X85400Y171265D01*
X85290Y171335D01*
X85202Y171371D01*
X85118Y171417D01*
X84994Y171457D01*
X84874Y171506D01*
X84780Y171526D01*
X84689Y171556D01*
X84561Y171573D01*
X84433Y171601D01*
X84304Y171609D01*
X84243Y171617D01*
X84198Y171615D01*
X84121Y171620D01*
X68049Y171620D01*
X67885Y171606D01*
X67721Y171599D01*
X67661Y171586D01*
X67601Y171580D01*
X67442Y171537D01*
X67281Y171501D01*
X67225Y171478D01*
X67166Y171462D01*
X67018Y171391D01*
X66866Y171328D01*
X66814Y171294D01*
X66760Y171268D01*
X66626Y171173D01*
X66488Y171083D01*
X66430Y171032D01*
X66393Y171006D01*
X66351Y170962D01*
X66253Y170876D01*
X64516Y169139D01*
X64410Y169013D01*
X64299Y168892D01*
X64266Y168840D01*
X64227Y168793D01*
X64146Y168651D01*
X64057Y168512D01*
X64034Y168455D01*
X64004Y168402D01*
X63949Y168248D01*
X63886Y168095D01*
X63873Y168036D01*
X63853Y167978D01*
X63826Y167816D01*
X63791Y167655D01*
X63787Y167578D01*
X63779Y167534D01*
X63780Y167473D01*
X63772Y167343D01*
X63772Y135523D01*
X63787Y135359D01*
X63794Y135195D01*
X63807Y135135D01*
X63812Y135074D01*
X63855Y134916D01*
X63891Y134755D01*
X63915Y134699D01*
X63931Y134640D01*
X64001Y134492D01*
X64065Y134340D01*
X64098Y134288D01*
X64124Y134233D01*
X64220Y134100D01*
X64309Y133961D01*
X64360Y133904D01*
X64386Y133867D01*
X64430Y133825D01*
X64516Y133727D01*
X68090Y130153D01*
X68090Y122157D01*
X62436Y116502D01*
X54439Y116502D01*
X48785Y122157D01*
X48785Y130153D01*
X52359Y133727D01*
X52464Y133853D01*
X52576Y133974D01*
X52609Y134026D01*
X52648Y134073D01*
X52729Y134215D01*
X52818Y134354D01*
X52841Y134411D01*
X52871Y134464D01*
X52926Y134619D01*
X52989Y134771D01*
X53002Y134830D01*
X53022Y134888D01*
X53049Y135050D01*
X53084Y135211D01*
X53088Y135288D01*
X53096Y135332D01*
X53095Y135393D01*
X53103Y135523D01*
X53103Y171666D01*
X53915Y173627D01*
X61766Y181477D01*
X63726Y182290D01*
X86926Y182290D01*
X87090Y182304D01*
X87254Y182311D01*
X87314Y182324D01*
X87374Y182329D01*
X87533Y182373D01*
X87694Y182408D01*
X87750Y182432D01*
X87809Y182448D01*
X87957Y182518D01*
X88109Y182582D01*
X88161Y182615D01*
X88215Y182641D01*
X88349Y182737D01*
X88487Y182826D01*
X88545Y182877D01*
X88582Y182903D01*
X88624Y182947D01*
X88722Y183033D01*
X90459Y184771D01*
X90565Y184897D01*
X90676Y185018D01*
X90709Y185069D01*
X90748Y185116D01*
X90829Y185259D01*
X90918Y185398D01*
X90941Y185454D01*
X90971Y185507D01*
X91026Y185662D01*
X91089Y185814D01*
X91102Y185874D01*
X91122Y185931D01*
X91149Y186094D01*
X91184Y186254D01*
X91188Y186331D01*
X91196Y186376D01*
X91195Y186437D01*
X91203Y186566D01*
X91203Y190163D01*
X91200Y190197D01*
X91202Y190232D01*
X91180Y190421D01*
X91163Y190611D01*
X91154Y190645D01*
X91150Y190679D01*
X91094Y190862D01*
X91044Y191046D01*
X91030Y191077D01*
X91019Y191110D01*
X90933Y191281D01*
X90851Y191452D01*
X90831Y191480D01*
X90815Y191511D01*
X90700Y191663D01*
X90589Y191818D01*
X90564Y191843D01*
X90543Y191870D01*
X90403Y191999D01*
X90266Y192132D01*
X90237Y192152D01*
X90212Y192175D01*
X90051Y192278D01*
X89893Y192385D01*
X89861Y192399D01*
X89832Y192417D01*
X89656Y192490D01*
X89481Y192567D01*
X89448Y192575D01*
X89416Y192588D01*
X89229Y192628D01*
X89044Y192673D01*
X89009Y192676D01*
X88975Y192683D01*
X88664Y192702D01*
X79839Y192702D01*
X74185Y198357D01*
X74185Y203411D01*
X74170Y203575D01*
X74163Y203739D01*
X74150Y203799D01*
X74145Y203860D01*
X74102Y204019D01*
X74066Y204179D01*
X74042Y204235D01*
X74026Y204294D01*
X73956Y204442D01*
X73892Y204594D01*
X73859Y204646D01*
X73833Y204701D01*
X73737Y204834D01*
X73648Y204973D01*
X73597Y205030D01*
X73571Y205067D01*
X73527Y205109D01*
X73441Y205207D01*
X63604Y215043D01*
X62792Y217004D01*
X62792Y238681D01*
X63604Y240642D01*
X65462Y242500D01*
X68204Y245242D01*
X68310Y245368D01*
X68421Y245489D01*
X68454Y245541D01*
X68493Y245587D01*
X68574Y245730D01*
X68663Y245869D01*
X68686Y245925D01*
X68716Y245978D01*
X68772Y246133D01*
X68834Y246285D01*
X68847Y246345D01*
X68867Y246402D01*
X68894Y246565D01*
X68929Y246725D01*
X68933Y246803D01*
X68941Y246847D01*
X68940Y246907D01*
X68948Y247037D01*
X68948Y252092D01*
X72268Y255412D01*
X72374Y255539D01*
X72485Y255660D01*
X72518Y255711D01*
X72557Y255758D01*
X72639Y255900D01*
X72727Y256039D01*
X72750Y256096D01*
X72780Y256149D01*
X72835Y256304D01*
X72898Y256456D01*
X72911Y256515D01*
X72931Y256573D01*
X72958Y256735D01*
X72993Y256896D01*
X72997Y256973D01*
X73005Y257017D01*
X73004Y257078D01*
X73012Y257208D01*
X73012Y259920D01*
X73863Y261974D01*
X89030Y277141D01*
X91084Y277991D01*
X139480Y277991D01*
X141534Y277141D01*
X142423Y276251D01*
X142550Y276146D01*
X142670Y276034D01*
X142722Y276002D01*
X142769Y275962D01*
X142911Y275881D01*
X143050Y275792D01*
X143107Y275769D01*
X143160Y275739D01*
X143314Y275684D01*
X143467Y275621D01*
X143526Y275609D01*
X143584Y275588D01*
X143746Y275561D01*
X143907Y275527D01*
X143984Y275522D01*
X144028Y275515D01*
X144089Y275516D01*
X144219Y275508D01*
X144986Y275508D01*
X150640Y269853D01*
X150640Y261857D01*
X144986Y256202D01*
X136989Y256202D01*
X131335Y261857D01*
X131335Y264275D01*
X131332Y264309D01*
X131334Y264344D01*
X131312Y264533D01*
X131295Y264723D01*
X131286Y264757D01*
X131282Y264791D01*
X131226Y264974D01*
X131176Y265157D01*
X131162Y265189D01*
X131151Y265222D01*
X131065Y265392D01*
X130983Y265564D01*
X130963Y265592D01*
X130947Y265623D01*
X130832Y265775D01*
X130721Y265930D01*
X130696Y265954D01*
X130675Y265982D01*
X130535Y266111D01*
X130398Y266244D01*
X130369Y266264D01*
X130344Y266287D01*
X130183Y266390D01*
X130025Y266496D01*
X129993Y266510D01*
X129964Y266529D01*
X129788Y266601D01*
X129613Y266679D01*
X129580Y266687D01*
X129548Y266700D01*
X129361Y266740D01*
X129176Y266785D01*
X129141Y266787D01*
X129107Y266795D01*
X128796Y266814D01*
X95562Y266814D01*
X95398Y266799D01*
X95234Y266793D01*
X95174Y266779D01*
X95114Y266774D01*
X94955Y266731D01*
X94794Y266695D01*
X94738Y266672D01*
X94679Y266655D01*
X94531Y266585D01*
X94379Y266521D01*
X94327Y266488D01*
X94273Y266462D01*
X94139Y266366D01*
X94001Y266277D01*
X93943Y266226D01*
X93906Y266200D01*
X93864Y266156D01*
X93766Y266070D01*
X85816Y258120D01*
X85794Y258093D01*
X85768Y258071D01*
X85651Y257922D01*
X85528Y257775D01*
X85510Y257745D01*
X85489Y257718D01*
X85399Y257550D01*
X85304Y257384D01*
X85293Y257351D01*
X85276Y257321D01*
X85217Y257140D01*
X85153Y256960D01*
X85148Y256925D01*
X85137Y256892D01*
X85111Y256703D01*
X85080Y256515D01*
X85080Y256481D01*
X85076Y256446D01*
X85083Y256255D01*
X85086Y256065D01*
X85093Y256031D01*
X85094Y255996D01*
X85135Y255810D01*
X85172Y255623D01*
X85184Y255591D01*
X85192Y255557D01*
X85265Y255381D01*
X85334Y255203D01*
X85352Y255173D01*
X85365Y255141D01*
X85469Y254981D01*
X85568Y254818D01*
X85591Y254792D01*
X85610Y254763D01*
X85816Y254529D01*
X88253Y252092D01*
X88253Y244096D01*
X82599Y238441D01*
X77544Y238441D01*
X77380Y238427D01*
X77216Y238420D01*
X77156Y238407D01*
X77096Y238401D01*
X76937Y238358D01*
X76776Y238322D01*
X76720Y238299D01*
X76661Y238283D01*
X76513Y238212D01*
X76361Y238149D01*
X76310Y238115D01*
X76255Y238089D01*
X76121Y237994D01*
X75983Y237904D01*
X75925Y237853D01*
X75889Y237827D01*
X75846Y237783D01*
X75749Y237697D01*
X74205Y236154D01*
X74100Y236028D01*
X73988Y235907D01*
X73956Y235856D01*
X73917Y235809D01*
X73835Y235666D01*
X73747Y235527D01*
X73723Y235471D01*
X73693Y235418D01*
X73638Y235263D01*
X73576Y235111D01*
X73563Y235051D01*
X73542Y234994D01*
X73516Y234831D01*
X73481Y234671D01*
X73476Y234594D01*
X73469Y234549D01*
X73470Y234488D01*
X73462Y234359D01*
X73462Y221327D01*
X73476Y221163D01*
X73483Y220999D01*
X73496Y220939D01*
X73502Y220878D01*
X73545Y220719D01*
X73581Y220559D01*
X73604Y220503D01*
X73620Y220444D01*
X73691Y220296D01*
X73754Y220144D01*
X73787Y220092D01*
X73814Y220037D01*
X73909Y219904D01*
X73999Y219765D01*
X74050Y219708D01*
X74076Y219671D01*
X74119Y219629D01*
X74205Y219531D01*
X80985Y212751D01*
X81112Y212646D01*
X81233Y212534D01*
X81284Y212502D01*
X81331Y212462D01*
X81474Y212381D01*
X81612Y212292D01*
X81669Y212269D01*
X81722Y212239D01*
X81877Y212184D01*
X82029Y212121D01*
X82089Y212109D01*
X82146Y212088D01*
X82308Y212061D01*
X82469Y212027D01*
X82546Y212022D01*
X82590Y212015D01*
X82651Y212016D01*
X82781Y212008D01*
X88664Y212008D01*
X88698Y212011D01*
X88733Y212008D01*
X88922Y212031D01*
X89112Y212047D01*
X89145Y212057D01*
X89180Y212061D01*
X89363Y212116D01*
X89546Y212166D01*
X89578Y212181D01*
X89611Y212191D01*
X89781Y212278D01*
X89953Y212359D01*
X89981Y212379D01*
X90012Y212395D01*
X90164Y212510D01*
X90319Y212621D01*
X90343Y212646D01*
X90371Y212667D01*
X90500Y212807D01*
X90633Y212944D01*
X90653Y212973D01*
X90676Y212998D01*
X90779Y213159D01*
X90885Y213317D01*
X90899Y213349D01*
X90918Y213378D01*
X90990Y213555D01*
X91067Y213729D01*
X91076Y213763D01*
X91089Y213795D01*
X91129Y213981D01*
X91174Y214166D01*
X91176Y214201D01*
X91184Y214235D01*
X91203Y214547D01*
X91203Y216116D01*
X92015Y218077D01*
X99866Y225927D01*
X101826Y226740D01*
X119905Y226740D01*
X120021Y226750D01*
X120138Y226750D01*
X120245Y226770D01*
X120353Y226779D01*
X120466Y226810D01*
X120581Y226831D01*
X120727Y226881D01*
X120787Y226898D01*
X120820Y226914D01*
X120876Y226933D01*
X121023Y226994D01*
X123246Y226994D01*
X125300Y226143D01*
X152400Y199043D01*
X152500Y198960D01*
X152593Y198869D01*
X152672Y198815D01*
X152745Y198754D01*
X152858Y198690D01*
X152966Y198617D01*
X153053Y198578D01*
X153136Y198531D01*
X153259Y198487D01*
X153378Y198435D01*
X153471Y198412D01*
X153561Y198380D01*
X153689Y198359D01*
X153815Y198328D01*
X153910Y198322D01*
X154005Y198306D01*
X154135Y198308D01*
X154265Y198300D01*
X154359Y198311D01*
X154455Y198313D01*
X154583Y198337D01*
X154712Y198352D01*
X154803Y198380D01*
X154897Y198398D01*
X155018Y198445D01*
X155143Y198483D01*
X155228Y198526D01*
X155317Y198560D01*
X155428Y198628D01*
X155544Y198687D01*
X155620Y198745D01*
X155702Y198794D01*
X155799Y198880D01*
X155903Y198959D01*
X155968Y199029D01*
X156039Y199093D01*
X156120Y199194D01*
X156208Y199290D01*
X156259Y199371D01*
X156319Y199446D01*
X156380Y199560D01*
X156450Y199670D01*
X156486Y199758D01*
X156517Y199815D01*
X163848Y199815D01*
X163848Y192479D01*
X163750Y192441D01*
X163668Y192391D01*
X163582Y192350D01*
X163476Y192275D01*
X163365Y192207D01*
X163293Y192144D01*
X163216Y192088D01*
X163125Y191995D01*
X163027Y191909D01*
X162968Y191834D01*
X162902Y191765D01*
X162829Y191658D01*
X162748Y191556D01*
X162703Y191472D01*
X162649Y191392D01*
X162597Y191273D01*
X162535Y191159D01*
X162506Y191068D01*
X162467Y190981D01*
X162436Y190854D01*
X162396Y190731D01*
X162383Y190636D01*
X162361Y190543D01*
X162353Y190414D01*
X162335Y190285D01*
X162339Y190189D01*
X162333Y190094D01*
X162348Y189965D01*
X162353Y189835D01*
X162374Y189741D01*
X162385Y189647D01*
X162423Y189522D01*
X162451Y189395D01*
X162488Y189307D01*
X162515Y189216D01*
X162574Y189100D01*
X162624Y188980D01*
X162676Y188899D01*
X162720Y188814D01*
X162798Y188711D01*
X162869Y188601D01*
X162955Y188504D01*
X162992Y188455D01*
X163025Y188425D01*
X163076Y188367D01*
X164092Y187351D01*
X164218Y187246D01*
X164339Y187134D01*
X164390Y187101D01*
X164437Y187062D01*
X164580Y186981D01*
X164719Y186892D01*
X164775Y186869D01*
X164828Y186839D01*
X164983Y186784D01*
X165135Y186721D01*
X165195Y186709D01*
X165252Y186688D01*
X165415Y186661D01*
X165575Y186627D01*
X165652Y186622D01*
X165697Y186615D01*
X165758Y186616D01*
X165887Y186608D01*
X170386Y186608D01*
X173706Y183287D01*
X173832Y183182D01*
X173953Y183070D01*
X174005Y183037D01*
X174051Y182998D01*
X174194Y182917D01*
X174333Y182828D01*
X174389Y182805D01*
X174442Y182775D01*
X174597Y182720D01*
X174749Y182657D01*
X174809Y182645D01*
X174867Y182624D01*
X175029Y182597D01*
X175190Y182563D01*
X175267Y182558D01*
X175311Y182551D01*
X175372Y182552D01*
X175502Y182544D01*
X185949Y182544D01*
X188003Y181693D01*
X198633Y171063D01*
X198760Y170957D01*
X198880Y170846D01*
X198932Y170813D01*
X198979Y170774D01*
X199121Y170692D01*
X199260Y170604D01*
X199317Y170581D01*
X199370Y170551D01*
X199524Y170495D01*
X199677Y170433D01*
X199736Y170420D01*
X199794Y170400D01*
X199956Y170373D01*
X200117Y170338D01*
X200194Y170334D01*
X200238Y170326D01*
X200299Y170327D01*
X200429Y170319D01*
X232372Y170319D01*
X232513Y170332D01*
X232655Y170335D01*
X232737Y170352D01*
X232821Y170359D01*
X232957Y170396D01*
X233096Y170424D01*
X233174Y170455D01*
X233255Y170477D01*
X233383Y170538D01*
X233514Y170590D01*
X233586Y170635D01*
X233662Y170671D01*
X233777Y170753D01*
X233897Y170828D01*
X233959Y170884D01*
X234028Y170933D01*
X234126Y171034D01*
X234232Y171129D01*
X234283Y171195D01*
X234342Y171256D01*
X234421Y171373D01*
X234508Y171485D01*
X234547Y171559D01*
X234594Y171629D01*
X234651Y171758D01*
X234717Y171884D01*
X234742Y171964D01*
X234776Y172041D01*
X234810Y172178D01*
X234852Y172313D01*
X234863Y172397D01*
X234883Y172478D01*
X234891Y172619D01*
X234909Y172760D01*
X234905Y172844D01*
X234910Y172927D01*
X234894Y173068D01*
X234887Y173209D01*
X234865Y173318D01*
X234858Y173375D01*
X234843Y173424D01*
X234825Y173516D01*
X234797Y173620D01*
X234797Y174415D01*
X248337Y174415D01*
X248338Y174415D01*
X261878Y174415D01*
X261878Y173620D01*
X261705Y172974D01*
X261369Y172391D01*
X261354Y172374D01*
X261328Y172351D01*
X261209Y172201D01*
X261087Y172055D01*
X261070Y172025D01*
X261049Y171998D01*
X260958Y171829D01*
X260864Y171664D01*
X260852Y171631D01*
X260836Y171601D01*
X260777Y171419D01*
X260713Y171240D01*
X260707Y171206D01*
X260697Y171173D01*
X260671Y170983D01*
X260640Y170796D01*
X260640Y170761D01*
X260635Y170727D01*
X260643Y170535D01*
X260646Y170345D01*
X260652Y170311D01*
X260654Y170277D01*
X260695Y170090D01*
X260731Y169903D01*
X260744Y169871D01*
X260751Y169837D01*
X260825Y169661D01*
X260893Y169483D01*
X260912Y169454D01*
X260925Y169422D01*
X261028Y169261D01*
X261127Y169099D01*
X261150Y169073D01*
X261169Y169043D01*
X261376Y168809D01*
X261878Y168307D01*
X261878Y160202D01*
X261376Y159700D01*
X261354Y159674D01*
X261328Y159651D01*
X261210Y159501D01*
X261087Y159355D01*
X261070Y159325D01*
X261049Y159298D01*
X260958Y159129D01*
X260864Y158964D01*
X260852Y158931D01*
X260836Y158901D01*
X260777Y158719D01*
X260713Y158540D01*
X260707Y158506D01*
X260697Y158473D01*
X260671Y158284D01*
X260640Y158096D01*
X260640Y158061D01*
X260635Y158027D01*
X260643Y157836D01*
X260646Y157645D01*
X260652Y157611D01*
X260654Y157577D01*
X260695Y157391D01*
X260731Y157203D01*
X260744Y157171D01*
X260751Y157137D01*
X260825Y156961D01*
X260894Y156783D01*
X260912Y156754D01*
X260925Y156722D01*
X261028Y156562D01*
X261127Y156398D01*
X261150Y156373D01*
X261169Y156343D01*
X261376Y156109D01*
X261878Y155607D01*
X261878Y147502D01*
X261376Y147000D01*
X261354Y146974D01*
X261328Y146951D01*
X261210Y146802D01*
X261087Y146655D01*
X261070Y146625D01*
X261049Y146598D01*
X260959Y146430D01*
X260864Y146264D01*
X260852Y146231D01*
X260836Y146201D01*
X260777Y146020D01*
X260713Y145840D01*
X260707Y145805D01*
X260697Y145773D01*
X260671Y145584D01*
X260640Y145396D01*
X260640Y145361D01*
X260635Y145327D01*
X260643Y145136D01*
X260646Y144945D01*
X260652Y144911D01*
X260654Y144877D01*
X260695Y144691D01*
X260731Y144503D01*
X260744Y144471D01*
X260751Y144437D01*
X260825Y144261D01*
X260894Y144083D01*
X260911Y144054D01*
X260925Y144022D01*
X261029Y143861D01*
X261127Y143699D01*
X261150Y143673D01*
X261169Y143643D01*
X261376Y143409D01*
X261878Y142907D01*
X261878Y134802D01*
X260390Y133314D01*
X236285Y133314D01*
X234797Y134802D01*
X234797Y143935D01*
X234794Y143969D01*
X234796Y144004D01*
X234774Y144193D01*
X234757Y144383D01*
X234748Y144417D01*
X234744Y144451D01*
X234688Y144634D01*
X234638Y144818D01*
X234624Y144849D01*
X234613Y144882D01*
X234527Y145053D01*
X234445Y145224D01*
X234425Y145252D01*
X234409Y145283D01*
X234294Y145435D01*
X234183Y145590D01*
X234158Y145615D01*
X234137Y145642D01*
X233997Y145771D01*
X233860Y145904D01*
X233831Y145924D01*
X233806Y145947D01*
X233645Y146050D01*
X233487Y146157D01*
X233455Y146171D01*
X233426Y146189D01*
X233250Y146262D01*
X233075Y146339D01*
X233042Y146347D01*
X233010Y146360D01*
X232823Y146400D01*
X232638Y146445D01*
X232603Y146448D01*
X232569Y146455D01*
X232258Y146474D01*
X202534Y146474D01*
X202370Y146460D01*
X202206Y146453D01*
X202146Y146440D01*
X202085Y146434D01*
X201927Y146391D01*
X201766Y146355D01*
X201710Y146332D01*
X201651Y146316D01*
X201503Y146245D01*
X201351Y146182D01*
X201299Y146148D01*
X201244Y146122D01*
X201111Y146027D01*
X200973Y145937D01*
X200915Y145886D01*
X200878Y145860D01*
X200836Y145816D01*
X200738Y145730D01*
X188748Y133740D01*
X188642Y133614D01*
X188531Y133493D01*
X188498Y133441D01*
X188459Y133394D01*
X188377Y133252D01*
X188289Y133113D01*
X188266Y133056D01*
X188236Y133004D01*
X188181Y132849D01*
X188118Y132696D01*
X188105Y132637D01*
X188085Y132579D01*
X188058Y132417D01*
X188023Y132256D01*
X188019Y132179D01*
X188011Y132135D01*
X188012Y132074D01*
X188004Y131944D01*
X188004Y119052D01*
X188019Y118888D01*
X188025Y118724D01*
X188039Y118664D01*
X188044Y118604D01*
X188087Y118445D01*
X188123Y118284D01*
X188147Y118228D01*
X188163Y118169D01*
X188233Y118021D01*
X188297Y117869D01*
X188330Y117817D01*
X188356Y117763D01*
X188452Y117629D01*
X188541Y117491D01*
X188592Y117433D01*
X188618Y117396D01*
X188662Y117354D01*
X188748Y117257D01*
X192576Y113428D01*
X192576Y105432D01*
X186922Y99777D01*
X178925Y99777D01*
X173271Y105432D01*
X173271Y113428D01*
X177099Y117257D01*
X177205Y117383D01*
X177316Y117504D01*
X177349Y117555D01*
X177388Y117602D01*
X177469Y117745D01*
X177558Y117883D01*
X177581Y117940D01*
X177611Y117993D01*
X177666Y118148D01*
X177729Y118300D01*
X177742Y118360D01*
X177762Y118417D01*
X177789Y118579D01*
X177823Y118740D01*
X177828Y118817D01*
X177836Y118861D01*
X177835Y118922D01*
X177843Y119052D01*
X177843Y136111D01*
X178616Y137979D01*
X182777Y142139D01*
X182860Y142239D01*
X182951Y142332D01*
X183005Y142412D01*
X183066Y142485D01*
X183130Y142597D01*
X183203Y142705D01*
X183242Y142793D01*
X183289Y142876D01*
X183333Y142998D01*
X183385Y143117D01*
X183408Y143210D01*
X183440Y143300D01*
X183461Y143428D01*
X183492Y143554D01*
X183498Y143650D01*
X183513Y143744D01*
X183512Y143874D01*
X183520Y144004D01*
X183509Y144099D01*
X183507Y144194D01*
X183483Y144322D01*
X183468Y144451D01*
X183440Y144543D01*
X183422Y144636D01*
X183375Y144758D01*
X183337Y144882D01*
X183294Y144967D01*
X183259Y145056D01*
X183192Y145168D01*
X183133Y145283D01*
X183075Y145359D01*
X183026Y145441D01*
X182939Y145539D01*
X182861Y145642D01*
X182791Y145707D01*
X182727Y145779D01*
X182625Y145859D01*
X182530Y145947D01*
X182449Y145999D01*
X182374Y146058D01*
X182260Y146119D01*
X182150Y146189D01*
X182062Y146225D01*
X181977Y146271D01*
X181854Y146311D01*
X181733Y146360D01*
X181640Y146380D01*
X181549Y146410D01*
X181420Y146427D01*
X181293Y146455D01*
X181164Y146463D01*
X181103Y146471D01*
X181058Y146469D01*
X180981Y146474D01*
X156930Y146474D01*
X155063Y147248D01*
X110352Y191958D01*
X110226Y192064D01*
X110105Y192175D01*
X110054Y192208D01*
X110007Y192247D01*
X109864Y192329D01*
X109725Y192417D01*
X109669Y192440D01*
X109616Y192471D01*
X109461Y192526D01*
X109309Y192588D01*
X109249Y192601D01*
X109192Y192621D01*
X109029Y192648D01*
X108869Y192683D01*
X108792Y192688D01*
X108747Y192695D01*
X108686Y192694D01*
X108557Y192702D01*
X104411Y192702D01*
X104377Y192699D01*
X104342Y192701D01*
X104153Y192679D01*
X103963Y192662D01*
X103930Y192653D01*
X103895Y192649D01*
X103712Y192594D01*
X103529Y192544D01*
X103497Y192529D01*
X103464Y192519D01*
X103294Y192432D01*
X103122Y192350D01*
X103094Y192330D01*
X103063Y192314D01*
X102911Y192199D01*
X102756Y192088D01*
X102732Y192063D01*
X102704Y192042D01*
X102575Y191902D01*
X102442Y191765D01*
X102422Y191737D01*
X102399Y191711D01*
X102296Y191550D01*
X102190Y191392D01*
X102176Y191361D01*
X102157Y191331D01*
X102085Y191155D01*
X102008Y190981D01*
X101999Y190947D01*
X101986Y190915D01*
X101946Y190728D01*
X101901Y190543D01*
X101899Y190509D01*
X101891Y190475D01*
X101872Y190163D01*
X101872Y182244D01*
X101060Y180283D01*
X93204Y172427D01*
X93077Y172360D01*
X92917Y172284D01*
X92878Y172257D01*
X92836Y172234D01*
X92695Y172125D01*
X92551Y172022D01*
X92517Y171988D01*
X92480Y171959D01*
X92361Y171827D01*
X92237Y171699D01*
X92210Y171660D01*
X92178Y171624D01*
X92084Y171473D01*
X91985Y171326D01*
X91965Y171283D01*
X91940Y171242D01*
X91874Y171077D01*
X91802Y170915D01*
X91791Y170868D01*
X91773Y170824D01*
X91738Y170650D01*
X91696Y170477D01*
X91693Y170429D01*
X91683Y170383D01*
X91679Y170205D01*
X91668Y170028D01*
X91674Y169980D01*
X91672Y169933D01*
X91700Y169757D01*
X91720Y169580D01*
X91734Y169535D01*
X91741Y169488D01*
X91799Y169320D01*
X91850Y169149D01*
X91872Y169107D01*
X91888Y169062D01*
X91974Y168907D01*
X92055Y168748D01*
X92084Y168710D01*
X92107Y168668D01*
X92220Y168531D01*
X92327Y168389D01*
X92362Y168357D01*
X92392Y168320D01*
X92527Y168205D01*
X92658Y168084D01*
X92698Y168059D01*
X92735Y168028D01*
X92888Y167938D01*
X93038Y167842D01*
X93082Y167824D01*
X93123Y167800D01*
X93290Y167739D01*
X93454Y167671D01*
X93501Y167661D01*
X93546Y167645D01*
X93720Y167614D01*
X93895Y167577D01*
X93954Y167573D01*
X93989Y167567D01*
X94052Y167567D01*
X94184Y167559D01*
X99840Y161903D01*
X99840Y153907D01*
X96266Y150332D01*
X96161Y150206D01*
X96049Y150085D01*
X96016Y150034D01*
X95977Y149987D01*
X95896Y149844D01*
X95807Y149705D01*
X95784Y149649D01*
X95754Y149596D01*
X95699Y149441D01*
X95636Y149289D01*
X95623Y149229D01*
X95603Y149172D01*
X95576Y149010D01*
X95541Y148849D01*
X95537Y148771D01*
X95529Y148727D01*
X95530Y148667D01*
X95522Y148537D01*
X95522Y96820D01*
X94710Y94860D01*
X76583Y76733D01*
X76478Y76606D01*
X76366Y76486D01*
X76334Y76434D01*
X76294Y76387D01*
X76213Y76245D01*
X76125Y76106D01*
X76101Y76049D01*
X76071Y75996D01*
X76016Y75842D01*
X75954Y75689D01*
X75941Y75630D01*
X75920Y75572D01*
X75893Y75410D01*
X75859Y75249D01*
X75854Y75172D01*
X75847Y75128D01*
X75848Y75067D01*
X75840Y74937D01*
X75840Y69882D01*
X70185Y64228D01*
X62189Y64228D01*
G37*
%LPD*%
%LPC*%
G36*
X350924Y24891D02*
X350924Y24891D01*
X350861Y24917D01*
X350750Y24952D01*
X350642Y24996D01*
X350535Y25019D01*
X350432Y25052D01*
X350316Y25066D01*
X350201Y25091D01*
X350131Y25095D01*
X348041Y25961D01*
X341688Y32314D01*
X341562Y32420D01*
X341441Y32531D01*
X341390Y32564D01*
X341343Y32603D01*
X341200Y32684D01*
X341061Y32773D01*
X341005Y32796D01*
X340952Y32826D01*
X340797Y32881D01*
X340645Y32944D01*
X340585Y32957D01*
X340528Y32977D01*
X340366Y33004D01*
X340205Y33039D01*
X340127Y33043D01*
X340083Y33051D01*
X340023Y33050D01*
X339893Y33058D01*
X335197Y33058D01*
X329543Y38712D01*
X329543Y46709D01*
X331674Y48840D01*
X331696Y48867D01*
X331722Y48890D01*
X331841Y49039D01*
X331963Y49186D01*
X331980Y49216D01*
X332002Y49243D01*
X332092Y49411D01*
X332186Y49577D01*
X332198Y49609D01*
X332214Y49640D01*
X332273Y49821D01*
X332337Y50001D01*
X332343Y50035D01*
X332354Y50068D01*
X332380Y50257D01*
X332411Y50445D01*
X332410Y50480D01*
X332415Y50514D01*
X332407Y50705D01*
X332405Y50895D01*
X332398Y50929D01*
X332397Y50964D01*
X332355Y51150D01*
X332319Y51337D01*
X332307Y51370D01*
X332299Y51404D01*
X332225Y51580D01*
X332157Y51757D01*
X332139Y51787D01*
X332125Y51819D01*
X332022Y51979D01*
X331923Y52142D01*
X331900Y52168D01*
X331881Y52197D01*
X331674Y52431D01*
X308479Y75627D01*
X307666Y77588D01*
X307666Y104716D01*
X307652Y104879D01*
X307645Y105044D01*
X307632Y105103D01*
X307627Y105164D01*
X307583Y105323D01*
X307548Y105483D01*
X307524Y105540D01*
X307508Y105598D01*
X307438Y105746D01*
X307374Y105899D01*
X307341Y105950D01*
X307315Y106005D01*
X307219Y106138D01*
X307130Y106277D01*
X307079Y106335D01*
X307053Y106371D01*
X307009Y106414D01*
X306923Y106511D01*
X303348Y110085D01*
X303348Y118082D01*
X309003Y123736D01*
X316999Y123736D01*
X322654Y118082D01*
X322654Y110085D01*
X319080Y106511D01*
X318974Y106385D01*
X318863Y106264D01*
X318830Y106213D01*
X318791Y106166D01*
X318709Y106023D01*
X318621Y105884D01*
X318598Y105828D01*
X318567Y105775D01*
X318512Y105620D01*
X318450Y105468D01*
X318437Y105408D01*
X318417Y105350D01*
X318390Y105188D01*
X318355Y105027D01*
X318350Y104950D01*
X318343Y104906D01*
X318344Y104845D01*
X318336Y104716D01*
X318336Y81910D01*
X318350Y81747D01*
X318357Y81582D01*
X318370Y81523D01*
X318376Y81462D01*
X318419Y81303D01*
X318455Y81143D01*
X318478Y81086D01*
X318494Y81027D01*
X318565Y80879D01*
X318628Y80727D01*
X318662Y80676D01*
X318688Y80621D01*
X318783Y80487D01*
X318873Y80349D01*
X318924Y80291D01*
X318950Y80255D01*
X318994Y80212D01*
X319080Y80115D01*
X343718Y55476D01*
X344530Y53516D01*
X344530Y52079D01*
X344545Y51915D01*
X344551Y51751D01*
X344565Y51691D01*
X344570Y51630D01*
X344613Y51471D01*
X344649Y51311D01*
X344673Y51255D01*
X344689Y51196D01*
X344759Y51048D01*
X344823Y50896D01*
X344856Y50844D01*
X344882Y50789D01*
X344978Y50656D01*
X345067Y50517D01*
X345118Y50460D01*
X345144Y50423D01*
X345188Y50381D01*
X345274Y50283D01*
X348848Y46709D01*
X348848Y42013D01*
X348863Y41850D01*
X348869Y41685D01*
X348883Y41626D01*
X348888Y41565D01*
X348931Y41406D01*
X348967Y41246D01*
X348991Y41189D01*
X349007Y41130D01*
X349077Y40982D01*
X349141Y40830D01*
X349174Y40779D01*
X349200Y40724D01*
X349296Y40590D01*
X349385Y40452D01*
X349436Y40394D01*
X349462Y40358D01*
X349506Y40315D01*
X349592Y40218D01*
X354013Y35796D01*
X354140Y35691D01*
X354261Y35579D01*
X354312Y35547D01*
X354359Y35507D01*
X354502Y35426D01*
X354640Y35337D01*
X354697Y35314D01*
X354750Y35284D01*
X354905Y35229D01*
X355057Y35166D01*
X355117Y35154D01*
X355174Y35133D01*
X355336Y35106D01*
X355497Y35072D01*
X355574Y35067D01*
X355618Y35060D01*
X355679Y35061D01*
X355809Y35053D01*
X413961Y35053D01*
X414125Y35067D01*
X414289Y35074D01*
X414349Y35087D01*
X414410Y35092D01*
X414569Y35136D01*
X414729Y35171D01*
X414785Y35195D01*
X414844Y35211D01*
X414992Y35281D01*
X415144Y35345D01*
X415196Y35378D01*
X415251Y35404D01*
X415384Y35500D01*
X415523Y35589D01*
X415580Y35640D01*
X415617Y35666D01*
X415659Y35710D01*
X415757Y35796D01*
X433030Y53069D01*
X433135Y53195D01*
X433247Y53316D01*
X433279Y53368D01*
X433319Y53414D01*
X433400Y53557D01*
X433488Y53696D01*
X433512Y53753D01*
X433542Y53805D01*
X433597Y53960D01*
X433659Y54113D01*
X433672Y54172D01*
X433693Y54230D01*
X433720Y54392D01*
X433754Y54553D01*
X433759Y54630D01*
X433766Y54674D01*
X433765Y54735D01*
X433773Y54865D01*
X433773Y77909D01*
X433759Y78073D01*
X433752Y78237D01*
X433739Y78297D01*
X433733Y78357D01*
X433690Y78516D01*
X433654Y78677D01*
X433631Y78733D01*
X433615Y78792D01*
X433544Y78940D01*
X433481Y79092D01*
X433448Y79144D01*
X433422Y79198D01*
X433326Y79332D01*
X433237Y79470D01*
X433185Y79528D01*
X433159Y79565D01*
X433116Y79607D01*
X433030Y79704D01*
X429201Y83533D01*
X429201Y91529D01*
X434856Y97184D01*
X442852Y97184D01*
X448507Y91529D01*
X448507Y83533D01*
X444679Y79704D01*
X444573Y79578D01*
X444462Y79457D01*
X444429Y79406D01*
X444390Y79359D01*
X444308Y79216D01*
X444220Y79078D01*
X444196Y79021D01*
X444166Y78968D01*
X444111Y78813D01*
X444049Y78661D01*
X444036Y78601D01*
X444015Y78544D01*
X443989Y78382D01*
X443954Y78221D01*
X443949Y78144D01*
X443942Y78100D01*
X443943Y78039D01*
X443935Y77909D01*
X443935Y50698D01*
X443161Y48830D01*
X419996Y25665D01*
X418128Y24891D01*
X350924Y24891D01*
G37*
%LPD*%
%LPC*%
G36*
X79839Y40302D02*
X79839Y40302D01*
X74185Y45957D01*
X74185Y53953D01*
X77759Y57527D01*
X77865Y57654D01*
X77976Y57774D01*
X78009Y57826D01*
X78048Y57873D01*
X78129Y58015D01*
X78218Y58154D01*
X78241Y58211D01*
X78271Y58264D01*
X78326Y58419D01*
X78389Y58571D01*
X78402Y58630D01*
X78422Y58688D01*
X78449Y58850D01*
X78484Y59011D01*
X78488Y59088D01*
X78496Y59132D01*
X78495Y59193D01*
X78503Y59323D01*
X78503Y60055D01*
X79315Y62015D01*
X104568Y87268D01*
X104673Y87395D01*
X104785Y87515D01*
X104817Y87567D01*
X104857Y87614D01*
X104938Y87756D01*
X105027Y87895D01*
X105050Y87952D01*
X105080Y88005D01*
X105135Y88159D01*
X105198Y88312D01*
X105210Y88371D01*
X105231Y88429D01*
X105258Y88591D01*
X105292Y88752D01*
X105297Y88829D01*
X105304Y88873D01*
X105303Y88934D01*
X105311Y89064D01*
X105311Y103225D01*
X106124Y105185D01*
X124241Y123303D01*
X124347Y123429D01*
X124458Y123550D01*
X124491Y123601D01*
X124530Y123648D01*
X124611Y123791D01*
X124700Y123930D01*
X124723Y123986D01*
X124753Y124039D01*
X124808Y124194D01*
X124871Y124346D01*
X124884Y124406D01*
X124904Y124463D01*
X124931Y124626D01*
X124966Y124786D01*
X124970Y124863D01*
X124978Y124908D01*
X124977Y124969D01*
X124985Y125098D01*
X124985Y130153D01*
X130639Y135808D01*
X138636Y135808D01*
X144290Y130153D01*
X144290Y122157D01*
X140958Y118824D01*
X140936Y118798D01*
X140910Y118775D01*
X140792Y118625D01*
X140669Y118479D01*
X140652Y118449D01*
X140631Y118422D01*
X140540Y118254D01*
X140446Y118088D01*
X140434Y118055D01*
X140418Y118025D01*
X140359Y117844D01*
X140295Y117664D01*
X140289Y117630D01*
X140279Y117597D01*
X140253Y117408D01*
X140222Y117220D01*
X140222Y117185D01*
X140217Y117151D01*
X140225Y116960D01*
X140228Y116769D01*
X140234Y116735D01*
X140236Y116701D01*
X140277Y116515D01*
X140313Y116327D01*
X140326Y116295D01*
X140333Y116261D01*
X140407Y116085D01*
X140476Y115907D01*
X140493Y115878D01*
X140507Y115846D01*
X140611Y115685D01*
X140709Y115523D01*
X140732Y115497D01*
X140751Y115468D01*
X140958Y115233D01*
X166083Y90108D01*
X166209Y90003D01*
X166330Y89891D01*
X166382Y89859D01*
X166428Y89820D01*
X166571Y89738D01*
X166710Y89650D01*
X166767Y89626D01*
X166819Y89596D01*
X166974Y89541D01*
X167127Y89479D01*
X167186Y89466D01*
X167244Y89445D01*
X167406Y89418D01*
X167567Y89384D01*
X167644Y89379D01*
X167688Y89372D01*
X167749Y89373D01*
X167879Y89365D01*
X173555Y89365D01*
X173719Y89379D01*
X173883Y89386D01*
X173943Y89399D01*
X174004Y89405D01*
X174163Y89448D01*
X174323Y89484D01*
X174379Y89507D01*
X174438Y89523D01*
X174586Y89594D01*
X174739Y89657D01*
X174790Y89690D01*
X174845Y89717D01*
X174978Y89812D01*
X175117Y89901D01*
X175175Y89953D01*
X175211Y89979D01*
X175253Y90022D01*
X175351Y90108D01*
X178925Y93683D01*
X186922Y93683D01*
X192576Y88028D01*
X192576Y80032D01*
X186922Y74377D01*
X178925Y74377D01*
X175351Y77952D01*
X175225Y78057D01*
X175104Y78168D01*
X175052Y78201D01*
X175006Y78240D01*
X174863Y78322D01*
X174724Y78410D01*
X174667Y78434D01*
X174615Y78464D01*
X174460Y78519D01*
X174307Y78581D01*
X174248Y78594D01*
X174190Y78615D01*
X174028Y78641D01*
X173867Y78676D01*
X173790Y78681D01*
X173746Y78688D01*
X173685Y78687D01*
X173555Y78695D01*
X163556Y78695D01*
X161595Y79507D01*
X130360Y110742D01*
X130334Y110765D01*
X130311Y110790D01*
X130162Y110908D01*
X130015Y111031D01*
X129985Y111048D01*
X129958Y111070D01*
X129790Y111160D01*
X129624Y111254D01*
X129591Y111266D01*
X129561Y111282D01*
X129380Y111341D01*
X129200Y111405D01*
X129165Y111411D01*
X129133Y111422D01*
X128944Y111448D01*
X128756Y111479D01*
X128721Y111478D01*
X128687Y111483D01*
X128496Y111475D01*
X128305Y111473D01*
X128271Y111466D01*
X128237Y111465D01*
X128051Y111423D01*
X127863Y111387D01*
X127831Y111375D01*
X127797Y111367D01*
X127621Y111294D01*
X127443Y111225D01*
X127414Y111207D01*
X127382Y111193D01*
X127221Y111090D01*
X127059Y110991D01*
X127033Y110968D01*
X127003Y110949D01*
X126769Y110742D01*
X116725Y100698D01*
X116619Y100571D01*
X116508Y100450D01*
X116475Y100399D01*
X116436Y100352D01*
X116354Y100209D01*
X116266Y100071D01*
X116243Y100014D01*
X116212Y99961D01*
X116157Y99806D01*
X116095Y99654D01*
X116082Y99594D01*
X116062Y99537D01*
X116035Y99375D01*
X116000Y99214D01*
X115995Y99137D01*
X115988Y99093D01*
X115989Y99032D01*
X115981Y98902D01*
X115981Y84741D01*
X115169Y82780D01*
X91711Y59323D01*
X91689Y59296D01*
X91663Y59273D01*
X91545Y59124D01*
X91422Y58978D01*
X91405Y58948D01*
X91384Y58920D01*
X91293Y58752D01*
X91199Y58587D01*
X91188Y58554D01*
X91171Y58523D01*
X91112Y58342D01*
X91048Y58162D01*
X91043Y58128D01*
X91032Y58095D01*
X91006Y57907D01*
X90975Y57718D01*
X90975Y57684D01*
X90971Y57649D01*
X90978Y57459D01*
X90981Y57268D01*
X90988Y57234D01*
X90989Y57199D01*
X91030Y57013D01*
X91066Y56826D01*
X91079Y56793D01*
X91086Y56760D01*
X91160Y56584D01*
X91229Y56406D01*
X91247Y56376D01*
X91260Y56344D01*
X91363Y56184D01*
X91463Y56021D01*
X91486Y55995D01*
X91504Y55966D01*
X91711Y55732D01*
X93490Y53953D01*
X93490Y45957D01*
X87836Y40302D01*
X79839Y40302D01*
G37*
%LPD*%
%LPC*%
G36*
X434856Y103278D02*
X434856Y103278D01*
X431028Y107107D01*
X430901Y107212D01*
X430780Y107324D01*
X430729Y107356D01*
X430682Y107395D01*
X430539Y107477D01*
X430401Y107565D01*
X430344Y107589D01*
X430291Y107619D01*
X430136Y107674D01*
X429984Y107736D01*
X429924Y107749D01*
X429867Y107770D01*
X429705Y107796D01*
X429544Y107831D01*
X429467Y107836D01*
X429423Y107843D01*
X429362Y107842D01*
X429232Y107850D01*
X426251Y107850D01*
X424383Y108624D01*
X422597Y110410D01*
X409868Y123139D01*
X409841Y123161D01*
X409819Y123187D01*
X409669Y123306D01*
X409523Y123428D01*
X409493Y123445D01*
X409465Y123467D01*
X409297Y123557D01*
X409132Y123651D01*
X409099Y123663D01*
X409069Y123679D01*
X408887Y123738D01*
X408707Y123802D01*
X408673Y123808D01*
X408640Y123818D01*
X408452Y123844D01*
X408263Y123876D01*
X408229Y123875D01*
X408194Y123880D01*
X408004Y123872D01*
X407813Y123869D01*
X407779Y123863D01*
X407744Y123861D01*
X407558Y123820D01*
X407371Y123784D01*
X407339Y123771D01*
X407305Y123764D01*
X407129Y123691D01*
X406951Y123622D01*
X406921Y123604D01*
X406889Y123590D01*
X406730Y123487D01*
X406566Y123388D01*
X406540Y123365D01*
X406511Y123346D01*
X406277Y123139D01*
X404809Y121671D01*
X396813Y121671D01*
X391158Y127326D01*
X391158Y135322D01*
X394217Y138381D01*
X394322Y138507D01*
X394434Y138628D01*
X394467Y138680D01*
X394506Y138726D01*
X394587Y138869D01*
X394676Y139008D01*
X394699Y139064D01*
X394729Y139117D01*
X394784Y139272D01*
X394847Y139424D01*
X394859Y139484D01*
X394880Y139541D01*
X394907Y139704D01*
X394941Y139864D01*
X394946Y139942D01*
X394953Y139986D01*
X394953Y140046D01*
X394961Y140176D01*
X394961Y146434D01*
X394957Y146469D01*
X394960Y146503D01*
X394938Y146693D01*
X394921Y146883D01*
X394912Y146916D01*
X394908Y146950D01*
X394852Y147133D01*
X394802Y147317D01*
X394787Y147348D01*
X394777Y147381D01*
X394690Y147552D01*
X394609Y147724D01*
X394589Y147752D01*
X394573Y147783D01*
X394458Y147935D01*
X394347Y148090D01*
X394322Y148114D01*
X394301Y148141D01*
X394161Y148270D01*
X394024Y148404D01*
X393995Y148423D01*
X393970Y148447D01*
X393809Y148549D01*
X393651Y148656D01*
X393619Y148670D01*
X393590Y148688D01*
X393414Y148761D01*
X393239Y148838D01*
X393205Y148846D01*
X393173Y148859D01*
X392987Y148900D01*
X392802Y148945D01*
X392767Y148947D01*
X392733Y148954D01*
X392421Y148973D01*
X391186Y148973D01*
X385532Y154628D01*
X385532Y162624D01*
X391186Y168279D01*
X399183Y168279D01*
X404837Y162624D01*
X404837Y157929D01*
X404852Y157765D01*
X404859Y157601D01*
X404872Y157541D01*
X404877Y157480D01*
X404921Y157321D01*
X404956Y157161D01*
X404980Y157105D01*
X404996Y157046D01*
X405066Y156898D01*
X405130Y156746D01*
X405163Y156694D01*
X405189Y156639D01*
X405213Y156606D01*
X406138Y154373D01*
X406138Y143010D01*
X406153Y142846D01*
X406159Y142682D01*
X406173Y142622D01*
X406178Y142561D01*
X406221Y142402D01*
X406257Y142242D01*
X406280Y142186D01*
X406296Y142127D01*
X406367Y141979D01*
X406430Y141827D01*
X406464Y141775D01*
X406490Y141720D01*
X406585Y141587D01*
X406675Y141448D01*
X406726Y141391D01*
X406752Y141354D01*
X406796Y141312D01*
X406882Y141214D01*
X408168Y139928D01*
X408483Y139168D01*
X408537Y139065D01*
X408582Y138957D01*
X408641Y138866D01*
X408691Y138769D01*
X408763Y138677D01*
X408826Y138579D01*
X408928Y138463D01*
X408967Y138413D01*
X408994Y138389D01*
X409033Y138345D01*
X428029Y119348D01*
X428056Y119326D01*
X428079Y119300D01*
X428228Y119182D01*
X428375Y119059D01*
X428405Y119042D01*
X428432Y119021D01*
X428600Y118931D01*
X428766Y118836D01*
X428798Y118824D01*
X428829Y118808D01*
X429010Y118749D01*
X429190Y118685D01*
X429224Y118680D01*
X429257Y118669D01*
X429445Y118643D01*
X429634Y118612D01*
X429669Y118612D01*
X429703Y118607D01*
X429894Y118615D01*
X430084Y118618D01*
X430118Y118624D01*
X430153Y118626D01*
X430339Y118667D01*
X430526Y118703D01*
X430559Y118716D01*
X430593Y118723D01*
X430768Y118797D01*
X430946Y118866D01*
X430976Y118884D01*
X431008Y118897D01*
X431168Y119001D01*
X431331Y119100D01*
X431357Y119123D01*
X431386Y119141D01*
X431620Y119348D01*
X434856Y122584D01*
X442852Y122584D01*
X448507Y116929D01*
X448507Y108933D01*
X442852Y103278D01*
X434856Y103278D01*
G37*
%LPD*%
G36*
X191252Y156647D02*
X191252Y156647D01*
X191382Y156649D01*
X191476Y156667D01*
X191571Y156675D01*
X191697Y156710D01*
X191824Y156734D01*
X191914Y156769D01*
X192006Y156794D01*
X192123Y156850D01*
X192244Y156897D01*
X192326Y156946D01*
X192412Y156987D01*
X192518Y157063D01*
X192629Y157131D01*
X192701Y157194D01*
X192778Y157249D01*
X192869Y157343D01*
X192967Y157429D01*
X193026Y157504D01*
X193092Y157572D01*
X193165Y157680D01*
X193246Y157782D01*
X193291Y157866D01*
X193345Y157945D01*
X193397Y158064D01*
X193459Y158179D01*
X193488Y158270D01*
X193527Y158357D01*
X193558Y158483D01*
X193598Y158607D01*
X193611Y158702D01*
X193633Y158794D01*
X193641Y158924D01*
X193659Y159053D01*
X193655Y159149D01*
X193661Y159244D01*
X193646Y159373D01*
X193641Y159503D01*
X193620Y159596D01*
X193609Y159691D01*
X193571Y159816D01*
X193543Y159943D01*
X193506Y160031D01*
X193479Y160122D01*
X193420Y160238D01*
X193370Y160358D01*
X193318Y160438D01*
X193274Y160523D01*
X193196Y160627D01*
X193125Y160736D01*
X193039Y160834D01*
X193002Y160882D01*
X192970Y160912D01*
X192918Y160970D01*
X183266Y170622D01*
X183140Y170728D01*
X183019Y170839D01*
X182968Y170872D01*
X182921Y170911D01*
X182778Y170993D01*
X182639Y171081D01*
X182583Y171104D01*
X182530Y171135D01*
X182375Y171190D01*
X182223Y171252D01*
X182163Y171265D01*
X182106Y171285D01*
X181943Y171312D01*
X181783Y171347D01*
X181706Y171352D01*
X181661Y171359D01*
X181600Y171358D01*
X181471Y171366D01*
X175502Y171366D01*
X175338Y171352D01*
X175173Y171345D01*
X175114Y171332D01*
X175053Y171326D01*
X174894Y171283D01*
X174734Y171247D01*
X174678Y171224D01*
X174619Y171208D01*
X174470Y171137D01*
X174318Y171074D01*
X174267Y171040D01*
X174212Y171014D01*
X174078Y170919D01*
X173940Y170829D01*
X173882Y170778D01*
X173846Y170752D01*
X173803Y170708D01*
X173706Y170622D01*
X170386Y167302D01*
X162389Y167302D01*
X156735Y172957D01*
X156735Y177849D01*
X156720Y178013D01*
X156713Y178177D01*
X156700Y178237D01*
X156695Y178298D01*
X156652Y178456D01*
X156616Y178617D01*
X156592Y178673D01*
X156576Y178732D01*
X156506Y178880D01*
X156442Y179032D01*
X156409Y179084D01*
X156383Y179139D01*
X156287Y179272D01*
X156198Y179410D01*
X156147Y179468D01*
X156121Y179505D01*
X156077Y179547D01*
X155991Y179645D01*
X120309Y215326D01*
X120183Y215432D01*
X120062Y215543D01*
X120011Y215576D01*
X119964Y215615D01*
X119821Y215697D01*
X119682Y215785D01*
X119626Y215808D01*
X119573Y215839D01*
X119418Y215894D01*
X119266Y215956D01*
X119206Y215969D01*
X119149Y215989D01*
X118986Y216016D01*
X118826Y216051D01*
X118749Y216056D01*
X118705Y216063D01*
X118643Y216062D01*
X118514Y216070D01*
X115304Y216070D01*
X115174Y216059D01*
X115044Y216057D01*
X114950Y216039D01*
X114855Y216030D01*
X114729Y215996D01*
X114602Y215971D01*
X114513Y215937D01*
X114421Y215912D01*
X114303Y215856D01*
X114182Y215809D01*
X114100Y215759D01*
X114014Y215718D01*
X113908Y215643D01*
X113797Y215575D01*
X113726Y215512D01*
X113648Y215456D01*
X113557Y215363D01*
X113460Y215277D01*
X113401Y215202D01*
X113334Y215133D01*
X113261Y215026D01*
X113180Y214924D01*
X113135Y214840D01*
X113082Y214760D01*
X113029Y214641D01*
X112968Y214527D01*
X112938Y214436D01*
X112900Y214349D01*
X112869Y214222D01*
X112829Y214099D01*
X112816Y214004D01*
X112793Y213911D01*
X112785Y213782D01*
X112767Y213653D01*
X112771Y213557D01*
X112765Y213462D01*
X112780Y213333D01*
X112786Y213203D01*
X112806Y213109D01*
X112817Y213015D01*
X112855Y212890D01*
X112883Y212763D01*
X112920Y212675D01*
X112948Y212584D01*
X113007Y212467D01*
X113057Y212348D01*
X113109Y212267D01*
X113152Y212182D01*
X113230Y212079D01*
X113301Y211969D01*
X113387Y211872D01*
X113424Y211823D01*
X113457Y211793D01*
X113508Y211735D01*
X118890Y206353D01*
X118890Y198843D01*
X118905Y198679D01*
X118912Y198515D01*
X118925Y198455D01*
X118930Y198394D01*
X118973Y198235D01*
X119009Y198075D01*
X119033Y198019D01*
X119049Y197960D01*
X119119Y197812D01*
X119183Y197660D01*
X119216Y197608D01*
X119242Y197553D01*
X119338Y197420D01*
X119427Y197281D01*
X119478Y197224D01*
X119504Y197187D01*
X119548Y197145D01*
X119634Y197047D01*
X159302Y157379D01*
X159428Y157274D01*
X159549Y157162D01*
X159600Y157130D01*
X159647Y157090D01*
X159790Y157009D01*
X159929Y156920D01*
X159985Y156897D01*
X160038Y156867D01*
X160193Y156812D01*
X160345Y156749D01*
X160405Y156737D01*
X160462Y156716D01*
X160625Y156689D01*
X160785Y156655D01*
X160862Y156650D01*
X160907Y156643D01*
X160968Y156644D01*
X161097Y156636D01*
X191123Y156636D01*
X191252Y156647D01*
G37*
G36*
X344859Y267246D02*
X344859Y267246D01*
X344955Y267247D01*
X345083Y267272D01*
X345212Y267287D01*
X345303Y267315D01*
X345397Y267333D01*
X345518Y267379D01*
X345643Y267417D01*
X345728Y267461D01*
X345817Y267495D01*
X345928Y267562D01*
X346044Y267622D01*
X346120Y267679D01*
X346202Y267729D01*
X346299Y267815D01*
X346403Y267894D01*
X346468Y267964D01*
X346539Y268027D01*
X346620Y268129D01*
X346708Y268225D01*
X346759Y268305D01*
X346819Y268380D01*
X346880Y268495D01*
X346950Y268604D01*
X346986Y268693D01*
X347031Y268777D01*
X347071Y268901D01*
X347121Y269021D01*
X347141Y269114D01*
X347170Y269205D01*
X347188Y269334D01*
X347216Y269461D01*
X347224Y269591D01*
X347232Y269651D01*
X347230Y269696D01*
X347235Y269773D01*
X347235Y276203D01*
X350809Y279777D01*
X350914Y279903D01*
X351026Y280024D01*
X351059Y280076D01*
X351098Y280123D01*
X351179Y280265D01*
X351268Y280404D01*
X351291Y280461D01*
X351321Y280514D01*
X351376Y280669D01*
X351439Y280821D01*
X351452Y280880D01*
X351472Y280938D01*
X351499Y281100D01*
X351534Y281261D01*
X351538Y281338D01*
X351546Y281382D01*
X351545Y281443D01*
X351553Y281573D01*
X351553Y282010D01*
X351550Y282037D01*
X351552Y282065D01*
X351530Y282261D01*
X351513Y282458D01*
X351506Y282485D01*
X351502Y282513D01*
X351446Y282702D01*
X351394Y282892D01*
X351382Y282918D01*
X351374Y282944D01*
X351286Y283121D01*
X351201Y283299D01*
X351185Y283322D01*
X351172Y283347D01*
X351054Y283505D01*
X350939Y283665D01*
X350919Y283685D01*
X350902Y283707D01*
X350758Y283841D01*
X350616Y283979D01*
X350593Y283995D01*
X350573Y284014D01*
X350407Y284121D01*
X350243Y284231D01*
X350218Y284243D01*
X350194Y284258D01*
X350012Y284334D01*
X349831Y284414D01*
X349804Y284420D01*
X349778Y284431D01*
X349586Y284473D01*
X349394Y284520D01*
X349366Y284522D01*
X349339Y284528D01*
X349027Y284549D01*
X338885Y284602D01*
X338749Y284591D01*
X338612Y284589D01*
X338524Y284572D01*
X338436Y284565D01*
X338304Y284530D01*
X338170Y284503D01*
X338087Y284471D01*
X338001Y284449D01*
X337877Y284391D01*
X337750Y284341D01*
X337674Y284295D01*
X337593Y284257D01*
X337482Y284178D01*
X337365Y284107D01*
X337298Y284048D01*
X337226Y283997D01*
X337130Y283900D01*
X337028Y283809D01*
X336973Y283740D01*
X336910Y283676D01*
X336833Y283563D01*
X336748Y283456D01*
X336706Y283378D01*
X336656Y283304D01*
X336600Y283180D01*
X336536Y283059D01*
X336508Y282975D01*
X336472Y282894D01*
X336439Y282761D01*
X336396Y282631D01*
X336384Y282543D01*
X336363Y282457D01*
X336354Y282320D01*
X336335Y282185D01*
X336339Y282096D01*
X336333Y282007D01*
X336348Y281872D01*
X336353Y281735D01*
X336373Y281648D01*
X336382Y281560D01*
X336421Y281429D01*
X336451Y281295D01*
X336485Y281213D01*
X336510Y281128D01*
X336572Y281006D01*
X336625Y280880D01*
X336673Y280805D01*
X336713Y280726D01*
X336795Y280617D01*
X336869Y280502D01*
X336948Y280413D01*
X336983Y280366D01*
X337018Y280333D01*
X337076Y280268D01*
X341140Y276203D01*
X341140Y270789D01*
X341155Y270625D01*
X341162Y270461D01*
X341175Y270402D01*
X341180Y270341D01*
X341223Y270182D01*
X341259Y270021D01*
X341283Y269965D01*
X341299Y269906D01*
X341369Y269758D01*
X341433Y269606D01*
X341466Y269555D01*
X341492Y269500D01*
X341588Y269366D01*
X341677Y269228D01*
X341728Y269170D01*
X341754Y269134D01*
X341798Y269091D01*
X341884Y268994D01*
X342900Y267978D01*
X343000Y267894D01*
X343093Y267803D01*
X343172Y267750D01*
X343245Y267689D01*
X343358Y267624D01*
X343466Y267551D01*
X343553Y267513D01*
X343636Y267465D01*
X343759Y267422D01*
X343878Y267369D01*
X343971Y267346D01*
X344061Y267315D01*
X344189Y267293D01*
X344315Y267262D01*
X344411Y267257D01*
X344505Y267241D01*
X344635Y267243D01*
X344765Y267235D01*
X344859Y267246D01*
G37*
%LPC*%
G36*
X231983Y84621D02*
X231983Y84621D01*
X231983Y92750D01*
X238411Y92750D01*
X240070Y92487D01*
X241667Y91969D01*
X243163Y91206D01*
X244522Y90219D01*
X245709Y89032D01*
X246696Y87673D01*
X247459Y86177D01*
X247964Y84621D01*
X231983Y84621D01*
G37*
%LPD*%
%LPC*%
G36*
X210923Y84621D02*
X210923Y84621D01*
X211428Y86177D01*
X212191Y87673D01*
X213178Y89032D01*
X214365Y90219D01*
X215724Y91206D01*
X217220Y91969D01*
X218817Y92487D01*
X220476Y92750D01*
X226904Y92750D01*
X226904Y84621D01*
X210923Y84621D01*
G37*
%LPD*%
%LPC*%
G36*
X168927Y204894D02*
X168927Y204894D01*
X168927Y212008D01*
X170386Y212008D01*
X176040Y206353D01*
X176040Y204894D01*
X168927Y204894D01*
G37*
%LPD*%
%LPC*%
G36*
X118127Y160444D02*
X118127Y160444D01*
X118127Y167558D01*
X119586Y167558D01*
X125240Y161903D01*
X125240Y160444D01*
X118127Y160444D01*
G37*
%LPD*%
%LPC*%
G36*
X212434Y127689D02*
X212434Y127689D01*
X212434Y134802D01*
X213893Y134802D01*
X219547Y129148D01*
X219547Y127689D01*
X212434Y127689D01*
G37*
%LPD*%
%LPC*%
G36*
X239341Y116623D02*
X239341Y116623D01*
X239341Y123736D01*
X240799Y123736D01*
X246454Y118082D01*
X246454Y116623D01*
X239341Y116623D01*
G37*
%LPD*%
%LPC*%
G36*
X339055Y90280D02*
X339055Y90280D01*
X339055Y97393D01*
X340514Y97393D01*
X346168Y91739D01*
X346168Y90280D01*
X339055Y90280D01*
G37*
%LPD*%
%LPC*%
G36*
X283227Y243502D02*
X283227Y243502D01*
X283227Y250615D01*
X290340Y250615D01*
X290340Y249157D01*
X284686Y243502D01*
X283227Y243502D01*
G37*
%LPD*%
%LPC*%
G36*
X156735Y204894D02*
X156735Y204894D01*
X156735Y206353D01*
X162389Y212008D01*
X163848Y212008D01*
X163848Y204894D01*
X156735Y204894D01*
G37*
%LPD*%
%LPC*%
G36*
X168927Y192702D02*
X168927Y192702D01*
X168927Y199815D01*
X176040Y199815D01*
X176040Y198357D01*
X170386Y192702D01*
X168927Y192702D01*
G37*
%LPD*%
%LPC*%
G36*
X105935Y160444D02*
X105935Y160444D01*
X105935Y161903D01*
X111589Y167558D01*
X113048Y167558D01*
X113048Y160444D01*
X105935Y160444D01*
G37*
%LPD*%
%LPC*%
G36*
X118127Y148252D02*
X118127Y148252D01*
X118127Y155365D01*
X125240Y155365D01*
X125240Y153907D01*
X119586Y148252D01*
X118127Y148252D01*
G37*
%LPD*%
%LPC*%
G36*
X200242Y127689D02*
X200242Y127689D01*
X200242Y129148D01*
X205896Y134802D01*
X207355Y134802D01*
X207355Y127689D01*
X200242Y127689D01*
G37*
%LPD*%
%LPC*%
G36*
X227148Y116623D02*
X227148Y116623D01*
X227148Y118082D01*
X232803Y123736D01*
X234262Y123736D01*
X234262Y116623D01*
X227148Y116623D01*
G37*
%LPD*%
%LPC*%
G36*
X212434Y115497D02*
X212434Y115497D01*
X212434Y122610D01*
X219547Y122610D01*
X219547Y121151D01*
X213893Y115497D01*
X212434Y115497D01*
G37*
%LPD*%
%LPC*%
G36*
X239341Y104431D02*
X239341Y104431D01*
X239341Y111544D01*
X246454Y111544D01*
X246454Y110085D01*
X240799Y104431D01*
X239341Y104431D01*
G37*
%LPD*%
%LPC*%
G36*
X326863Y90280D02*
X326863Y90280D01*
X326863Y91739D01*
X332517Y97393D01*
X333976Y97393D01*
X333976Y90280D01*
X326863Y90280D01*
G37*
%LPD*%
%LPC*%
G36*
X339055Y78088D02*
X339055Y78088D01*
X339055Y85201D01*
X346168Y85201D01*
X346168Y83742D01*
X340514Y78088D01*
X339055Y78088D01*
G37*
%LPD*%
%LPC*%
G36*
X111589Y148252D02*
X111589Y148252D01*
X105935Y153907D01*
X105935Y155365D01*
X113048Y155365D01*
X113048Y148252D01*
X111589Y148252D01*
G37*
%LPD*%
%LPC*%
G36*
X205896Y115497D02*
X205896Y115497D01*
X200242Y121151D01*
X200242Y122610D01*
X207355Y122610D01*
X207355Y115497D01*
X205896Y115497D01*
G37*
%LPD*%
%LPC*%
G36*
X232803Y104431D02*
X232803Y104431D01*
X227148Y110085D01*
X227148Y111544D01*
X234262Y111544D01*
X234262Y104431D01*
X232803Y104431D01*
G37*
%LPD*%
%LPC*%
G36*
X332517Y78088D02*
X332517Y78088D01*
X326863Y83742D01*
X326863Y85201D01*
X333976Y85201D01*
X333976Y78088D01*
X332517Y78088D01*
G37*
%LPD*%
D10*
X115588Y157905D03*
X90188Y157905D03*
X109238Y202355D03*
X83838Y202355D03*
X280688Y253155D03*
X255288Y253155D03*
X356888Y272205D03*
X331488Y272205D03*
X395185Y158626D03*
X369785Y158626D03*
D11*
X438854Y87531D03*
X438854Y112931D03*
D12*
X313795Y42711D03*
X339195Y42711D03*
D13*
X182923Y109430D03*
X182923Y84030D03*
D11*
X166388Y176955D03*
X166388Y202355D03*
D12*
X78601Y248094D03*
X104001Y248094D03*
D14*
X300338Y202355D03*
X248338Y202355D03*
X300338Y215055D03*
X300338Y189655D03*
X300338Y176955D03*
X248338Y215055D03*
X248338Y189655D03*
X248338Y176955D03*
X300338Y151555D03*
X248338Y151555D03*
X300338Y164255D03*
X300338Y138855D03*
X248338Y164255D03*
X248338Y138855D03*
D15*
X237572Y31281D02*
X221316Y31281D01*
X221316Y56681D02*
X237572Y56681D01*
X237572Y82081D02*
X221316Y82081D01*
D10*
X448144Y191162D03*
X371944Y191162D03*
D13*
X209895Y201349D03*
X209895Y125149D03*
D11*
X39628Y189853D03*
X39628Y266053D03*
D10*
X142387Y73881D03*
X66187Y73881D03*
D13*
X336516Y163940D03*
X336516Y87740D03*
D10*
X313001Y114084D03*
X236801Y114084D03*
D11*
X400811Y55124D03*
X400811Y131324D03*
D10*
X134638Y126155D03*
X58438Y126155D03*
X160038Y49955D03*
X83838Y49955D03*
X217188Y265855D03*
X140988Y265855D03*
D16*
X325140Y240382D03*
X401265Y222930D03*
X373236Y111682D03*
D17*
X274338Y234105D02*
X255288Y253155D01*
X274338Y234105D02*
X274338Y202355D01*
D18*
X287201Y189491D01*
X300338Y189655D02*
X370437Y189655D01*
X371944Y191162D01*
X300174Y189491D02*
X287201Y189491D01*
X300174Y189491D02*
X300338Y189655D01*
D17*
X356888Y289842D02*
X64958Y291383D01*
X39628Y266053D01*
X356888Y272205D02*
X356888Y289842D01*
X448144Y238098D02*
X448144Y191162D01*
X448144Y238098D02*
X414038Y272205D01*
X356888Y272205D01*
X90188Y157905D02*
X90188Y97881D01*
X66187Y73881D01*
X66187Y86655D01*
X33038Y183262D02*
X39628Y189853D01*
X33038Y183262D02*
X33038Y119805D01*
X66187Y86655D01*
D19*
X142387Y73881D02*
X142387Y67605D01*
X160038Y49955D01*
X178711Y31281D02*
X229444Y31281D01*
X178711Y31281D02*
X160038Y49955D01*
X295640Y24555D02*
X313795Y42711D01*
X295640Y24555D02*
X248938Y24555D01*
X242211Y31281D01*
X229444Y31281D01*
D17*
X331223Y207069D02*
X356327Y207069D01*
D18*
X380762Y222930D02*
X401265Y222930D01*
X380762Y222930D02*
X378735Y222930D01*
X375461Y226204D01*
X323237Y215055D02*
X300338Y215055D01*
X323237Y215055D02*
X331223Y207069D01*
X356327Y207069D02*
X375461Y226204D01*
X326509Y202355D02*
X300338Y202355D01*
X326509Y202355D02*
X331223Y207069D01*
X380762Y222930D02*
X331488Y272205D01*
D19*
X242964Y56681D02*
X229444Y56681D01*
X242964Y56681D02*
X274338Y88055D01*
D17*
X287038Y176955D02*
X300338Y176955D01*
X287038Y176955D02*
X274338Y164255D01*
X274338Y88055D01*
X300652Y163940D02*
X336516Y163940D01*
X300652Y163940D02*
X300338Y164255D01*
X336516Y163940D02*
X364470Y163940D01*
X369785Y158626D01*
D19*
X395185Y158626D02*
X400549Y153261D01*
X400549Y139643D02*
X400811Y139381D01*
X403430Y136762D01*
X400811Y139381D02*
X400811Y131324D01*
X400549Y139643D02*
X400549Y153261D01*
D18*
X403430Y136762D02*
X427261Y112931D01*
X438854Y112931D01*
D17*
X313001Y114084D02*
X313001Y78649D01*
X339195Y52454D01*
X339195Y42711D01*
D19*
X351207Y30699D01*
D18*
X351934Y29972D01*
X417118Y29972D01*
X438854Y51708D01*
X438854Y87531D01*
D19*
X300338Y138855D02*
X300338Y151555D01*
X300338Y138855D02*
X318788Y138855D01*
D18*
X346064Y138855D01*
X373236Y111682D01*
X400811Y84107D01*
X400811Y55124D01*
D17*
X83838Y58994D02*
X83838Y49955D01*
X83838Y58994D02*
X110646Y85802D01*
X110646Y102164D02*
X134638Y126155D01*
X110646Y102164D02*
X110646Y85802D01*
X164617Y84030D02*
X182923Y84030D01*
X164617Y84030D02*
X134638Y114010D01*
X134638Y126155D01*
X247608Y164984D02*
X248338Y164255D01*
X247608Y164984D02*
X196808Y164984D01*
X122135Y221405D02*
X102888Y221405D01*
X96538Y215055D01*
X96538Y183305D01*
X90188Y176955D01*
X64788Y176955D01*
X58438Y170605D01*
X58438Y126155D01*
D19*
X166388Y176955D02*
X166388Y177152D01*
X122135Y221405D01*
X166388Y176955D02*
X184838Y176955D01*
X196808Y164984D01*
X209895Y201349D02*
X167754Y243490D01*
X108605Y243490D01*
X104001Y248094D01*
X209895Y201349D02*
X211843Y201349D01*
X223538Y189655D01*
D18*
X248338Y189655D01*
D19*
X217188Y246805D02*
X217188Y265855D01*
X217188Y246805D02*
X248338Y215655D01*
X217188Y265855D02*
X224624Y273292D01*
X292301Y273292D01*
D20*
X248338Y215655D02*
X248338Y215055D01*
D18*
X248338Y202355D01*
X292301Y273292D02*
X325140Y240452D01*
X325140Y240382D01*
D19*
X92195Y272403D02*
X78601Y258808D01*
X78601Y248094D01*
X140988Y265855D02*
X140988Y269783D01*
X138368Y272403D01*
X92195Y272403D01*
D17*
X78601Y248094D02*
X68127Y237620D01*
X68127Y218065D01*
X83838Y202355D01*
D18*
X109238Y202355D02*
X109238Y200258D01*
X248338Y151555D02*
X248338Y138855D01*
X199378Y151555D02*
X157941Y151555D01*
X199378Y151555D02*
X248338Y151555D01*
X157941Y151555D02*
X109238Y200258D01*
X182923Y135101D02*
X182923Y109430D01*
X182923Y135101D02*
X199378Y151555D01*
M02*
