G04 EAGLE Gerber RS-274X export*
G75*
%MOMM*%
%FSLAX34Y34*%
%LPD*%
%INTop Copper*%
%IPPOS*%
%AMOC8*
5,1,8,0,0,1.08239X$1,22.5*%
G01*
%ADD10P,1.429621X8X202.500000*%
%ADD11P,1.429621X8X112.500000*%
%ADD12P,1.429621X8X22.500000*%
%ADD13P,1.429621X8X292.500000*%
%ADD14C,1.524000*%
%ADD15P,1.649562X8X22.500000*%


D10*
X115588Y157905D03*
X90188Y157905D03*
X109238Y202355D03*
X83838Y202355D03*
X280688Y253155D03*
X255288Y253155D03*
X356888Y272205D03*
X331488Y272205D03*
X395185Y158626D03*
X369785Y158626D03*
D11*
X438854Y87531D03*
X438854Y112931D03*
D12*
X313795Y42711D03*
X339195Y42711D03*
D13*
X182923Y109430D03*
X182923Y84030D03*
D11*
X166388Y176955D03*
X166388Y202355D03*
D12*
X78601Y248094D03*
X104001Y248094D03*
D14*
X221824Y31281D02*
X237064Y31281D01*
X237064Y56681D02*
X221824Y56681D01*
X221824Y82081D02*
X237064Y82081D01*
D10*
X448144Y191162D03*
X371944Y191162D03*
D13*
X209895Y201349D03*
X209895Y125149D03*
D11*
X39628Y189853D03*
X39628Y266053D03*
D10*
X142387Y73881D03*
X66187Y73881D03*
D13*
X336516Y163940D03*
X336516Y87740D03*
D10*
X313001Y114084D03*
X236801Y114084D03*
D11*
X400811Y55124D03*
X400811Y131324D03*
D10*
X134638Y126155D03*
X58438Y126155D03*
X160038Y49955D03*
X83838Y49955D03*
X217188Y265855D03*
X140988Y265855D03*
D15*
X325140Y240382D03*
X401265Y222930D03*
X373236Y111682D03*
M02*
