G04 EAGLE Gerber RS-274X export*
G75*
%MOMM*%
%FSLAX34Y34*%
%LPD*%
%INSilkscreen Bottom*%
%IPPOS*%
%AMOC8*
5,1,8,0,0,1.08239X$1,22.5*%
G01*
%ADD10C,0.101600*%


D10*
X291581Y234867D02*
X291581Y223183D01*
X290283Y223183D02*
X292880Y223183D01*
X292880Y234867D02*
X290283Y234867D01*
X283120Y223183D02*
X280523Y223183D01*
X283120Y223183D02*
X283219Y223185D01*
X283319Y223191D01*
X283418Y223200D01*
X283516Y223213D01*
X283614Y223230D01*
X283712Y223251D01*
X283808Y223276D01*
X283903Y223304D01*
X283997Y223336D01*
X284090Y223371D01*
X284182Y223410D01*
X284272Y223453D01*
X284360Y223498D01*
X284447Y223548D01*
X284531Y223600D01*
X284614Y223656D01*
X284694Y223714D01*
X284772Y223776D01*
X284847Y223841D01*
X284920Y223909D01*
X284990Y223979D01*
X285058Y224052D01*
X285123Y224127D01*
X285185Y224205D01*
X285243Y224285D01*
X285299Y224368D01*
X285351Y224452D01*
X285401Y224539D01*
X285446Y224627D01*
X285489Y224717D01*
X285528Y224809D01*
X285563Y224902D01*
X285595Y224996D01*
X285623Y225091D01*
X285648Y225187D01*
X285669Y225285D01*
X285686Y225383D01*
X285699Y225481D01*
X285708Y225580D01*
X285714Y225680D01*
X285716Y225779D01*
X285716Y232270D01*
X285714Y232369D01*
X285708Y232469D01*
X285699Y232568D01*
X285686Y232666D01*
X285669Y232764D01*
X285648Y232862D01*
X285623Y232958D01*
X285595Y233053D01*
X285563Y233147D01*
X285528Y233240D01*
X285489Y233332D01*
X285446Y233422D01*
X285401Y233510D01*
X285351Y233597D01*
X285299Y233681D01*
X285243Y233764D01*
X285185Y233844D01*
X285123Y233922D01*
X285058Y233997D01*
X284990Y234070D01*
X284920Y234140D01*
X284847Y234208D01*
X284772Y234273D01*
X284694Y234335D01*
X284614Y234393D01*
X284531Y234449D01*
X284447Y234501D01*
X284360Y234551D01*
X284272Y234596D01*
X284182Y234639D01*
X284090Y234678D01*
X283997Y234713D01*
X283903Y234745D01*
X283808Y234773D01*
X283712Y234798D01*
X283614Y234819D01*
X283516Y234836D01*
X283418Y234849D01*
X283319Y234858D01*
X283219Y234864D01*
X283120Y234866D01*
X283120Y234867D02*
X280523Y234867D01*
X276158Y232270D02*
X272912Y234867D01*
X272912Y223183D01*
X269667Y223183D02*
X276158Y223183D01*
M02*
